<svg width="36" height="16" viewBox="0 0 36 16" fill="none" xmlns="http://www.w3.org/2000/svg">
<path d="M6.57656 2.7885C6.1535 3.26212 5.47955 3.63742 4.80672 3.58244C4.71783 2.9439 5.05312 2.25991 5.44017 1.83597C5.86209 1.35284 6.60018 1.00608 7.19876 0.977539C7.26964 1.64462 6.99173 2.30008 6.57656 2.7885ZM7.192 3.70825C6.21426 3.65222 5.37491 4.23579 4.91135 4.23579C4.43767 4.23579 3.72771 3.73574 2.95474 3.75265C1.95224 3.76428 1.01501 4.30239 0.505319 5.16822C-0.555685 6.89038 0.22966 9.44031 1.24903 10.8443C1.74747 11.5378 2.34379 12.2979 3.13026 12.2767C3.87398 12.2482 4.17326 11.8147 5.07 11.8147C5.97798 11.8147 6.23564 12.2767 7.02773 12.2598C7.84121 12.2482 8.35652 11.5663 8.85496 10.8728C9.42315 10.0852 9.65718 9.31345 9.66955 9.27539C9.65718 9.25847 8.09324 8.69182 8.08199 6.98447C8.06961 5.55198 9.31176 4.8701 9.36464 4.83098C8.66706 3.8404 7.56555 3.73574 7.19088 3.70931L7.192 3.70825ZM12.8357 1.76937V12.1879H14.5403V8.62628H16.8974C19.0476 8.62628 20.5598 7.22233 20.5598 5.19571C20.5598 3.16486 19.0779 1.77043 16.9559 1.77043L12.8357 1.76937ZM14.5403 3.13525H16.5036C17.9798 3.13525 18.8248 3.88374 18.8248 5.19994C18.8248 6.51613 17.9798 7.27096 16.4924 7.27096H14.5403V3.13525ZM23.664 12.2651C24.7363 12.2651 25.7264 11.7534 26.1787 10.9373H26.2147V12.1879H27.7899V7.00032C27.7899 5.50335 26.5252 4.52968 24.5731 4.52968C22.7684 4.52968 21.4317 5.51498 21.3856 6.86395H22.9147C23.0441 6.22012 23.6651 5.80148 24.527 5.80148C25.57 5.80148 26.1506 6.26347 26.1506 7.11239V7.68432L24.0297 7.8059C22.0483 7.92113 20.9817 8.68654 20.9817 10.0249C20.9817 11.3739 22.0843 12.2662 23.6651 12.2662L23.664 12.2651ZM24.1276 11.0314C23.2185 11.0314 22.639 10.618 22.639 9.98582C22.639 9.33036 23.1959 8.94449 24.2558 8.88317L26.1494 8.77322V9.36208C26.1494 10.3379 25.2763 11.0314 24.1208 11.0314H24.1276ZM29.8939 15.0233C31.5512 15.0233 32.3321 14.4175 33.0116 12.5949L36 4.63329H34.2718L32.2679 10.7829H32.2319L30.2281 4.63329H28.447L31.3307 12.2154L31.1777 12.6774C30.9133 13.4544 30.4925 13.7557 29.742 13.7557C29.607 13.7557 29.3493 13.7399 29.2436 13.7293V14.98C29.3426 15.0064 29.7656 15.018 29.8883 15.018L29.8939 15.0233Z" fill="#282828"/>
</svg>
