<svg width="24" height="24" viewBox="0 0 24 24" fill="none" xmlns="http://www.w3.org/2000/svg">
<path d="M11.9526 18.9989C11.577 18.9901 11.218 18.8423 10.9452 18.584L1.46328 9.48141C1.17392 9.20132 1.0074 8.81794 1.00024 8.4153C0.993078 8.01265 1.14585 7.6236 1.42506 7.3334C1.70428 7.0432 2.08716 6.87552 2.48978 6.86715C2.89241 6.85878 3.28192 7.0104 3.57296 7.28874L12 15.3839L20.427 7.28874C20.7181 7.0104 21.1076 6.85878 21.5102 6.86715C21.9128 6.87552 22.2957 7.0432 22.5749 7.3334C22.8542 7.6236 23.0069 8.01265 22.9998 8.4153C22.9926 8.81794 22.8261 9.20132 22.5367 9.48141L13.0548 18.584C12.908 18.7232 12.7349 18.8315 12.5456 18.9028C12.3563 18.974 12.1547 19.0067 11.9526 18.9989Z" fill="#9C9FA2"/>
</svg>
