<svg width="64" height="64" viewBox="0 0 64 64" fill="none" xmlns="http://www.w3.org/2000/svg">
<path d="M53.9229 26.1055C54.896 26.1055 55.8597 26.2971 56.7587 26.6696C57.6578 27.042 58.4748 27.5878 59.1629 28.276C59.851 28.9641 60.3969 29.781 60.7693 30.6801C61.1417 31.5792 61.3334 32.5428 61.3334 33.516C61.3334 34.4892 61.1417 35.4528 60.7693 36.3519C60.3969 37.251 59.851 38.0679 59.1629 38.756C58.4748 39.4442 57.6578 39.99 56.7587 40.3624C55.8597 40.7348 54.896 40.9265 53.9229 40.9265L53.9229 26.1055Z" fill="#282828"/>
<path d="M54.5403 29.1934C55.108 29.1934 55.6701 29.3052 56.1946 29.5224C56.719 29.7397 57.1956 30.0581 57.597 30.4595C57.9984 30.8609 58.3168 31.3374 58.534 31.8619C58.7513 32.3864 58.8631 32.9485 58.8631 33.5162C58.8631 34.0838 58.7513 34.646 58.534 35.1704C58.3168 35.6949 57.9984 36.1714 57.597 36.5729C57.1956 36.9743 56.719 37.2927 56.1945 37.5099C55.6701 37.7272 55.108 37.839 54.5403 37.839L54.5403 29.1934Z" fill="#9C9FA2"/>
<path d="M2.6665 24.0148C2.6665 21.4178 4.77181 19.3125 7.36884 19.3125H49.8379C52.4349 19.3125 54.5402 21.4178 54.5402 24.0148V43.0172C54.5402 45.6142 52.4349 47.7195 49.8379 47.7195H7.36884C4.77181 47.7195 2.6665 45.6142 2.6665 43.0172V24.0148Z" fill="#282828"/>
<path d="M42.167 23.8331C42.167 22.7943 43.0091 21.9521 44.0479 21.9521H50.6312C51.67 21.9521 52.5121 22.7943 52.5121 23.8331V42.6424C52.5121 43.6812 51.67 44.5234 50.6312 44.5234H44.0479C43.0091 44.5234 42.167 43.6812 42.167 42.6424V23.8331Z" fill="#30D065"/>
<path d="M29.9409 23.8331C29.9409 22.7943 30.783 21.9521 31.8218 21.9521H38.4051C39.4439 21.9521 40.286 22.7943 40.286 23.8331V42.6424C40.286 43.6812 39.4439 44.5234 38.4051 44.5234H31.8218C30.783 44.5234 29.9409 43.6812 29.9409 42.6424V23.8331Z" fill="#30D065"/>
<path d="M17.7148 23.8331C17.7148 22.7943 18.557 21.9521 19.5958 21.9521H26.179C27.2179 21.9521 28.06 22.7943 28.06 23.8331V42.6424C28.06 43.6812 27.2179 44.5234 26.179 44.5234H19.5958C18.557 44.5234 17.7148 43.6812 17.7148 42.6424V23.8331Z" fill="#30D065"/>
<path d="M5.48877 23.8331C5.48877 22.7943 6.33089 21.9521 7.3697 21.9521H13.953C14.9918 21.9521 15.8339 22.7943 15.8339 23.8331V42.6424C15.8339 43.6812 14.9918 44.5234 13.953 44.5234H7.3697C6.33089 44.5234 5.48877 43.6812 5.48877 42.6424V23.8331Z" fill="#30D065"/>
<path fill-rule="evenodd" clip-rule="evenodd" d="M26.82 10.667H39.6722C40.2945 10.667 40.7988 11.2501 40.7988 11.9696C40.7988 12.2975 40.6946 12.597 40.5214 12.8274L31.8308 25.6076H42.2981C42.9204 25.6076 43.4246 26.1907 43.4246 26.9102C43.4246 27.2931 43.2821 27.6351 43.0553 27.8761L20.9071 54.7268C20.4795 55.2461 19.7683 55.2674 19.3192 54.7711C18.959 54.3759 18.8762 53.768 19.077 53.2753L25.7201 37.0038H18.6144C17.9921 37.0038 17.4878 36.4207 17.4878 35.7012C17.4878 35.4956 17.5292 35.3006 17.6012 35.1287L25.7801 11.4862C25.9548 10.9794 26.3763 10.671 26.8223 10.6674L26.82 10.667Z" fill="#282828"/>
<path fill-rule="evenodd" clip-rule="evenodd" d="M27.4597 12.2109H37.5579C38.0468 12.2109 38.443 12.6564 38.443 13.206C38.443 13.4565 38.3611 13.6853 38.225 13.8613L29.221 27.032L40.6867 26.6545C41.1756 26.6545 41.5719 27.0999 41.5719 27.6495C41.5719 27.942 41.4599 28.2033 41.2816 28.3874L21.0069 52.9881C20.5366 53.4583 20.2432 53.9285 20.0701 53.7439C19.7871 53.4419 20.3516 52.2557 20.5094 51.8793L27.677 35.6776L19.5951 36.0597C19.1062 36.0597 18.71 35.6142 18.71 35.0646C18.71 34.9075 18.7425 34.7586 18.7991 34.6273L26.6426 12.8368C26.7799 12.4495 27.1111 12.214 27.4615 12.2113L27.4597 12.2109Z" fill="#FEDD5A"/>
</svg>
