<svg width="329" height="308" viewBox="0 0 329 308" fill="none" xmlns="http://www.w3.org/2000/svg">
<path d="M114.16 185.394L198.532 215.107L105.398 212.775L27.4582 172.826L22.207 170.137L114.16 185.394Z" fill="#282828"/>
<path d="M198.529 215.851H198.511L105.381 213.519C105.268 213.519 105.159 213.489 105.061 213.436L21.8699 170.798C21.5429 170.633 21.3888 170.253 21.5015 169.903C21.618 169.557 21.9639 169.339 22.3285 169.403L114.282 184.66C114.323 184.667 114.365 184.679 114.406 184.69L198.778 214.403C199.123 214.523 199.326 214.881 199.262 215.238C199.199 215.592 198.89 215.847 198.529 215.847V215.851ZM105.588 212.033L193.842 214.241L113.974 186.112L26.794 171.645L105.588 212.029V212.033Z" fill="#282828"/>
<path d="M102.93 111.385L107.598 117.219C108.745 118.652 109.718 120.262 110.511 122.041L105.843 116.207C105.05 114.428 104.08 112.818 102.93 111.385Z" fill="#30D065"/>
<path d="M86.7692 121.109L91.4377 126.943C90.9942 126.39 90.4116 126.029 89.6899 125.86C87.9457 125.45 86.3106 126.319 84.777 128.455C83.2509 130.603 81.7248 134.207 80.2025 139.27C78.6538 144.431 77.9584 148.253 78.1163 150.754C78.2103 152.165 78.5486 153.237 79.1387 153.974L74.4702 148.14C73.88 147.402 73.538 146.33 73.4478 144.92C73.2899 142.414 73.9815 138.596 75.5339 133.436C77.0525 128.372 78.5824 124.769 80.1085 122.621C81.6421 120.484 83.2772 119.615 85.0213 120.025C85.7468 120.195 86.3294 120.556 86.7692 121.109Z" fill="#30D065"/>
<path d="M63.0513 163.607L58.3828 157.773C61.3862 161.527 65.6374 164.047 71.1254 165.337C79.2972 167.259 86.4202 166.037 92.4758 161.662C98.5276 157.306 103.031 150.174 105.996 140.296C108.838 130.836 108.797 122.793 105.839 116.203L110.507 122.037C113.465 128.628 113.507 136.67 110.665 146.13C107.699 156.008 103.196 163.14 97.1443 167.496C91.0888 171.871 83.9657 173.094 75.7939 171.172C70.306 169.881 66.0547 167.361 63.0513 163.607Z" fill="#30D065"/>
<path d="M105.846 116.207C108.805 122.797 108.846 130.84 106.004 140.3C103.039 150.178 98.5354 157.31 92.4836 161.666C86.4281 166.041 79.305 167.263 71.1332 165.341C63.4388 163.532 58.1764 159.304 55.3723 152.653C52.5456 146.018 52.5719 137.93 55.4324 128.417C58.3944 118.554 62.8637 111.467 68.8478 107.183C74.8207 102.895 81.7784 101.676 89.6983 103.534C97.5168 105.374 102.907 109.602 105.85 116.207H105.846ZM81.0567 146.763C82.549 144.724 84.0863 141.064 85.6613 135.813C87.21 130.659 87.9241 126.826 87.7888 124.347C87.6347 121.865 86.7138 120.424 85.0223 120.025C83.2782 119.615 81.6431 120.484 80.1094 122.621C78.5833 124.769 77.0572 128.372 75.5349 133.435C73.9862 138.596 73.2908 142.418 73.4487 144.919C73.6103 147.406 74.5463 148.839 76.2453 149.238C77.9368 149.637 79.5381 148.817 81.0529 146.763" fill="white"/>
<path d="M163.65 117.61L168.319 123.445C171.574 127.511 171.544 133.876 167.169 138.337L162.5 132.503C166.875 128.041 166.905 121.677 163.65 117.61Z" fill="#30D065"/>
<path d="M162.496 132.503L167.161 138.333L81.7858 224.99L77.1211 219.159L162.496 132.503Z" fill="#30D065"/>
<path d="M64.7388 224.771L60.0703 218.937C61.4461 220.656 63.4119 221.968 65.8853 222.548C69.8434 223.477 74.1473 222.179 77.1168 219.155L81.7853 224.989C78.8158 228.01 74.5157 229.311 70.5538 228.382C68.0805 227.799 66.1146 226.49 64.7388 224.771Z" fill="#30D065"/>
<path d="M157.843 114.003C166.15 115.955 168.721 126.153 162.496 132.503L77.121 219.159C74.1515 222.179 69.8514 223.481 65.8895 222.552C57.5711 220.596 55.0001 210.406 61.2323 204.064L146.608 117.407C149.57 114.375 153.87 113.074 157.839 114.007L157.843 114.003Z" fill="white"/>
<path d="M170.809 169.29L175.477 175.124C176.62 176.55 177.586 178.149 178.375 179.917L173.707 174.082C172.917 172.314 171.951 170.719 170.809 169.29Z" fill="#30D065"/>
<path d="M154.72 179.041L159.388 184.876C158.933 184.308 158.317 183.932 157.539 183.751C155.795 183.341 154.16 184.202 152.637 186.347C151.104 188.483 149.578 192.087 148.055 197.157C146.507 202.318 145.811 206.14 145.977 208.623C146.063 210.041 146.405 211.12 146.999 211.862L142.331 206.027C141.737 205.286 141.395 204.207 141.308 202.789C141.146 200.302 141.838 196.484 143.387 191.323C144.909 186.252 146.439 182.649 147.969 180.512C149.495 178.364 151.126 177.507 152.87 177.917C153.649 178.101 154.265 178.473 154.72 179.041Z" fill="#30D065"/>
<path d="M130.911 221.42L126.242 215.586C129.249 219.344 133.497 221.868 138.992 223.158C147.13 225.069 154.242 223.846 160.316 219.475C166.395 215.123 170.898 208.025 173.852 198.192C176.694 188.732 176.652 180.689 173.698 174.08L178.367 179.914C181.317 186.523 181.362 194.566 178.521 204.026C175.566 213.859 171.063 220.961 164.985 225.309C158.911 229.68 151.799 230.903 143.661 228.992C138.165 227.702 133.918 225.178 130.911 221.42Z" fill="#30D065"/>
<path d="M173.705 174.08C176.656 180.689 176.701 188.731 173.86 198.191C170.905 208.024 166.402 215.126 160.324 219.475C154.249 223.846 147.138 225.068 139 223.157C131.305 221.348 126.05 217.124 123.239 210.481C120.435 203.838 120.442 195.78 123.288 186.309C126.25 176.446 130.719 169.359 136.696 165.063C142.683 160.79 149.634 159.567 157.542 161.425C165.372 163.265 170.762 167.493 173.709 174.083L173.705 174.08ZM149.28 204.131C150.799 201.682 152.238 198.214 153.588 193.723C154.934 189.243 155.633 185.598 155.689 182.795C155.727 179.997 154.802 178.372 152.877 177.92C151.133 177.51 149.502 178.371 147.976 180.516C146.442 182.652 144.916 186.256 143.394 191.326C141.845 196.487 141.15 200.309 141.315 202.792C141.466 205.286 142.405 206.73 144.108 207.129C146.033 207.58 147.747 206.584 149.288 204.131" fill="white"/>
<path d="M110.503 122.786C110.285 122.786 110.067 122.688 109.921 122.507L105.263 116.669C105.226 116.62 105.192 116.564 105.166 116.508C104.628 115.3 103.997 114.16 103.282 113.122C103.128 112.889 102.974 112.671 102.816 112.464C102.726 112.336 102.655 112.238 102.587 112.152C102.553 112.103 102.523 112.058 102.493 112.02L102.354 111.847C102.102 111.531 102.147 111.068 102.459 110.809C102.771 110.549 103.234 110.591 103.497 110.895C103.557 110.963 103.613 111.034 103.67 111.11L108.173 116.752C109.364 118.234 110.375 119.916 111.18 121.744C111.33 122.086 111.206 122.485 110.887 122.68C110.766 122.752 110.635 122.789 110.503 122.789V122.786Z" fill="#282828"/>
<path d="M77.0692 150.069C76.746 150.069 76.4227 150.031 76.0882 149.96C75.2838 149.768 74.6147 149.392 74.0847 148.835C73.8028 148.519 73.5773 148.18 73.3893 147.815C73.2878 147.605 73.2014 147.398 73.1187 147.18C72.8931 146.499 72.7578 145.762 72.709 144.964C72.5511 142.35 73.2653 138.4 74.8252 133.224C76.3588 128.116 77.93 124.403 79.4975 122.195C81.219 119.791 83.1323 118.821 85.1922 119.302C85.4929 119.378 85.7034 119.449 85.8951 119.539C86.0455 119.6 86.2183 119.686 86.3762 119.784C86.395 119.795 86.5078 119.863 86.5228 119.878C86.6318 119.961 86.7333 120.04 86.8198 120.111C86.8611 120.141 86.9401 120.205 87.0228 120.299C87.1393 120.405 87.2257 120.514 87.2934 120.596C87.3047 120.596 87.3836 120.694 87.4513 120.807C88.0527 121.59 88.4286 122.789 88.5225 124.305C88.5526 124.858 88.5413 125.423 88.4962 125.991C88.4737 126.284 88.2782 126.536 87.9963 126.634C87.1017 126.942 86.2221 127.702 85.3764 128.887C83.8991 130.952 82.3956 134.514 80.9033 139.48C79.6779 143.576 78.9825 146.852 78.8472 149.211C78.8284 149.523 78.6217 149.787 78.321 149.881C77.9 150.008 77.4827 150.072 77.058 150.072L77.0692 150.069ZM84.2111 120.679C82.9932 120.679 81.8543 121.465 80.7116 123.057C79.2419 125.129 77.7383 128.695 76.2536 133.649C74.7425 138.66 74.0509 142.433 74.1975 144.866C74.2426 145.536 74.3516 146.145 74.5283 146.679C74.5846 146.822 74.6485 146.988 74.7275 147.142C74.8515 147.387 75.0094 147.616 75.1898 147.823C75.5018 148.154 75.9115 148.38 76.4227 148.504C76.761 148.579 77.0956 148.598 77.4188 148.553C77.6293 146.138 78.3285 142.944 79.4937 139.043C81.0311 133.92 82.6098 130.211 84.181 128.014C85.0719 126.765 86.0379 125.889 87.0528 125.411C87.0678 125.061 87.0641 124.715 87.0491 124.381C86.9777 123.169 86.6995 122.244 86.2296 121.627L86.0454 121.405C86.0003 121.368 85.9364 121.307 85.9064 121.258C85.7974 121.176 85.7297 121.123 85.6545 121.067C85.5192 120.988 85.4177 120.939 85.3049 120.894C85.1584 120.826 85.0381 120.788 84.9103 120.754C84.6735 120.698 84.4442 120.672 84.2111 120.672V120.679Z" fill="#282828"/>
<path d="M82.9721 172.793C80.6191 172.793 78.1683 172.495 75.631 171.897C69.9852 170.573 65.5573 167.94 62.4712 164.073L57.8779 158.333C57.8516 158.303 57.8252 158.269 57.8027 158.235C57.5546 157.912 57.611 157.449 57.9343 157.197C58.2538 156.945 58.7199 156.998 58.9755 157.317L59.0394 157.396C59.0845 157.449 59.1296 157.502 59.1747 157.551C59.4002 157.833 59.6107 158.07 59.8212 158.292C60.1069 158.615 60.3813 158.893 60.667 159.168L61.1143 159.571C61.2045 159.653 61.2909 159.732 61.3811 159.8C61.5841 159.988 61.7382 160.112 61.8961 160.233C62.1404 160.436 62.3547 160.605 62.5765 160.767C62.802 160.932 63.0388 161.098 63.2719 161.252C63.4824 161.391 63.6891 161.527 63.9109 161.658C64.5611 162.072 65.2227 162.433 65.9594 162.772C66.2301 162.907 66.4932 163.027 66.7563 163.137C67.1736 163.321 67.5833 163.479 68.008 163.641L68.4704 163.799C68.7222 163.896 68.9365 163.96 69.1507 164.024C69.3612 164.1 69.5341 164.156 69.7071 164.197C70.2483 164.359 70.7671 164.491 71.3046 164.615C79.2245 166.469 86.2123 165.277 92.0498 161.064C97.9287 156.828 102.383 149.772 105.296 140.082C108.081 130.839 108.04 122.906 105.18 116.511C105.025 116.169 105.149 115.767 105.469 115.571C105.788 115.379 106.206 115.447 106.439 115.74L111.096 121.578C111.134 121.627 111.167 121.68 111.194 121.736C114.208 128.447 114.276 136.73 111.389 146.345C109.551 152.465 107.085 157.618 104.056 161.654C104.041 161.677 104.022 161.7 103.999 161.718C102.293 164.032 100.312 166.044 98.1129 167.703C98.0866 167.729 98.0565 167.752 98.0264 167.775L97.5866 168.098C93.2639 171.22 88.3699 172.785 82.9759 172.785L82.9721 172.793ZM63.7718 163.313C66.6436 166.823 70.7445 169.219 75.9731 170.445C83.8893 172.307 90.8695 171.115 96.7183 166.894L97.0792 166.627C97.1017 166.609 97.1243 166.586 97.1468 166.571C99.2781 164.972 101.195 163.024 102.842 160.778C102.86 160.752 102.883 160.725 102.905 160.703C105.807 156.817 108.183 151.84 109.961 145.92C112.727 136.696 112.697 128.793 109.871 122.432L107.965 120.044C109.457 125.934 109.04 132.795 106.717 140.507C103.71 150.516 99.0676 157.84 92.9181 162.268C86.7122 166.744 79.3298 168.019 70.9625 166.063C70.3949 165.928 69.8499 165.792 69.3086 165.631C69.1169 165.582 68.8951 165.514 68.6771 165.431C68.4591 165.367 68.2035 165.288 67.9592 165.19L67.5119 165.04C67.0232 164.856 66.5872 164.686 66.1662 164.498C65.888 164.382 65.5911 164.25 65.3092 164.107C64.7716 163.859 64.2642 163.595 63.7718 163.31V163.313Z" fill="#282828"/>
<path d="M78.2912 166.958C75.9381 166.958 73.4949 166.661 70.9539 166.066C70.3863 165.931 69.8412 165.795 69.3 165.634C69.1083 165.585 68.8865 165.517 68.6685 165.434C68.4505 165.37 68.1948 165.291 67.9505 165.194L67.5032 165.043C67.0145 164.859 66.5785 164.689 66.1575 164.501C65.8794 164.385 65.5824 164.253 65.3005 164.11C64.5262 163.753 63.8082 163.362 63.1241 162.925C62.9024 162.794 62.6731 162.643 62.4438 162.493C62.1882 162.323 61.9363 162.147 61.692 161.966C61.4477 161.786 61.2033 161.597 60.959 161.394C60.7899 161.266 60.5944 161.105 60.414 160.935C60.3426 160.887 60.2148 160.777 60.0982 160.668L59.6434 160.258C59.3089 159.942 59.0044 159.63 58.715 159.299C58.4932 159.073 58.2564 158.799 58.0309 158.513C56.6889 156.895 55.5575 155.018 54.6779 152.942C51.7986 146.179 51.8099 137.854 54.7155 128.202C57.7189 118.204 62.3235 110.929 68.4016 106.576C74.5473 102.175 81.7644 100.908 89.861 102.811C95.879 104.229 100.559 107.069 103.765 111.245C103.848 111.354 103.938 111.474 104.021 111.594C104.171 111.79 104.344 112.034 104.513 112.286C105.272 113.396 105.949 114.615 106.52 115.901C109.531 122.635 109.595 130.914 106.705 140.51C103.697 150.52 99.0552 157.843 92.9057 162.271C88.583 165.389 83.6889 166.958 78.2874 166.958H78.2912ZM82.8244 103.443C77.8439 103.443 73.3069 104.895 69.2699 107.784C63.4624 111.94 59.0495 118.952 56.1401 128.627C53.3398 137.937 53.3097 145.919 56.0499 152.355C56.8731 154.3 57.9294 156.053 59.1923 157.573C59.3953 157.828 59.6058 158.069 59.8163 158.287C60.102 158.611 60.3764 158.889 60.6621 159.16L61.1094 159.562C61.1996 159.645 61.286 159.724 61.3762 159.792C61.5792 159.98 61.7333 160.104 61.8912 160.224C62.1355 160.428 62.3498 160.597 62.5716 160.759C62.7971 160.924 63.0339 161.09 63.267 161.244C63.4775 161.383 63.6842 161.518 63.906 161.65C64.5563 162.064 65.2178 162.425 65.9545 162.764C66.2252 162.899 66.4883 163.019 66.7514 163.128C67.1687 163.313 67.5784 163.471 68.0031 163.632L68.4655 163.79C68.7173 163.888 68.9316 163.952 69.1459 164.016C69.3563 164.091 69.5293 164.148 69.7022 164.189C70.2434 164.351 70.7622 164.483 71.2997 164.607C79.2196 166.461 86.2074 165.269 92.0449 161.056C97.9238 156.82 102.378 149.763 105.291 140.074C108.077 130.831 108.035 122.898 105.175 116.503C104.637 115.296 104.006 114.156 103.291 113.118C103.137 112.885 102.983 112.666 102.825 112.46C102.735 112.332 102.664 112.234 102.596 112.147C99.604 108.25 95.2061 105.595 89.5302 104.255C87.2185 103.71 84.982 103.439 82.8319 103.439L82.8244 103.443Z" fill="#282828"/>
<path d="M77.0614 150.069C76.7382 150.069 76.4149 150.031 76.0804 149.96C75.276 149.768 74.6069 149.392 74.0769 148.835C73.795 148.519 73.5694 148.18 73.3815 147.815C73.2762 147.597 73.186 147.398 73.1033 147.157C72.8853 146.495 72.75 145.762 72.7011 144.964C72.5433 142.35 73.2575 138.4 74.8174 133.224C76.351 128.116 77.9222 124.403 79.4897 122.195C81.2112 119.791 83.1245 118.821 85.1844 119.302C85.4851 119.378 85.6956 119.449 85.8873 119.539C86.0376 119.6 86.2105 119.686 86.3684 119.784C86.3872 119.795 86.5 119.863 86.515 119.878C86.624 119.961 86.7255 120.04 86.812 120.111C86.8533 120.141 86.9323 120.205 87.0149 120.299C87.1315 120.405 87.2179 120.514 87.2856 120.596C87.2969 120.596 87.3758 120.694 87.4435 120.807C88.0449 121.59 88.4208 122.789 88.5147 124.305C88.5448 124.858 88.5335 125.423 88.4884 125.991C88.3493 128.424 87.6314 131.81 86.3571 136.03C84.7709 141.338 83.1846 145.096 81.6435 147.202C80.6023 148.613 79.4859 149.512 78.3282 149.873C77.9034 150.005 77.4824 150.069 77.0577 150.069H77.0614ZM84.2033 120.679C82.9854 120.679 81.8465 121.465 80.7038 123.057C79.2341 125.129 77.7305 128.695 76.2458 133.649C74.7347 138.66 74.0431 142.433 74.1897 144.866C74.2348 145.536 74.3438 146.145 74.5204 146.679C74.5768 146.849 74.6445 146.992 74.7197 147.142C74.8437 147.387 75.0016 147.616 75.182 147.823C75.494 148.154 75.9037 148.38 76.4149 148.504C76.9186 148.613 77.4073 148.598 77.8921 148.447C78.7417 148.18 79.6024 147.462 80.4519 146.315C81.8953 144.347 83.4064 140.74 84.94 135.598C86.1805 131.486 86.8796 128.221 87.0112 125.885C87.0525 125.366 87.0601 124.866 87.0375 124.384C86.9661 123.173 86.6879 122.248 86.2181 121.631L86.0339 121.409C85.9888 121.371 85.9249 121.311 85.8948 121.262C85.7858 121.18 85.7181 121.127 85.6429 121.07C85.5076 120.991 85.4061 120.943 85.2934 120.897C85.1468 120.83 85.0265 120.792 84.8987 120.758C84.6619 120.702 84.4326 120.675 84.1996 120.675L84.2033 120.679Z" fill="#282828"/>
<path d="M167.169 139.077C167.169 139.077 167.142 139.077 167.131 139.077C166.921 139.066 166.721 138.964 166.586 138.799L161.918 132.965C161.681 132.671 161.703 132.246 161.97 131.979C165.808 128.063 166.282 122.086 163.072 118.076C162.816 117.757 162.869 117.286 163.188 117.031C163.508 116.775 163.977 116.824 164.233 117.147L168.902 122.978C172.581 127.578 172.066 134.405 167.699 138.855C167.56 138.998 167.368 139.077 167.169 139.077ZM163.485 132.536L167.206 137.189C170.514 133.284 170.785 127.714 167.736 123.907L166.541 122.413C167.086 125.9 166.041 129.651 163.481 132.536H163.485Z" fill="#282828"/>
<path d="M81.7938 225.733C81.7938 225.733 81.7675 225.733 81.7562 225.733C81.5457 225.721 81.3465 225.62 81.2149 225.454L76.5464 219.616C76.3096 219.323 76.3322 218.898 76.5991 218.627L161.982 131.975C162.132 131.824 162.335 131.738 162.553 131.753C162.764 131.764 162.963 131.866 163.095 132.031L167.756 137.869C167.992 138.162 167.97 138.588 167.703 138.855L145.011 161.887C144.917 161.981 144.796 162.049 144.669 162.086C142.041 162.771 139.504 163.975 137.128 165.664C132.422 169.057 128.614 174.315 125.822 181.289C125.784 181.38 125.731 181.466 125.66 181.534L82.3238 225.511C82.1847 225.654 81.993 225.733 81.7938 225.733ZM78.1176 219.203L81.8502 223.871L124.491 180.593C127.385 173.424 131.343 167.992 136.256 164.452C138.722 162.699 141.353 161.439 144.086 160.698L166.169 138.283L162.444 133.615L78.1139 219.199L78.1176 219.203Z" fill="#282828"/>
<path d="M73.1277 229.42C72.2105 229.42 71.2934 229.319 70.3912 229.104C67.869 228.514 65.7152 227.175 64.1628 225.234L59.498 219.399C59.2424 219.08 59.295 218.61 59.6145 218.354C59.934 218.098 60.4039 218.147 60.6595 218.47L60.667 218.478C62.0089 220.152 63.8733 221.307 66.0648 221.822C69.7748 222.695 73.8043 221.472 76.5934 218.632C76.74 218.482 76.9504 218.403 77.1609 218.41C77.3714 218.421 77.5707 218.523 77.706 218.689L82.3745 224.523C82.6113 224.816 82.5888 225.241 82.3219 225.508C79.8448 228.029 76.4956 229.417 73.1314 229.417L73.1277 229.42ZM65.3242 224.305C66.6662 225.982 68.5343 227.141 70.7295 227.656C74.2328 228.48 78.0255 227.434 80.7845 224.922L77.0482 220.253C73.9321 223.045 69.6695 224.199 65.7227 223.27C65.1589 223.139 64.6176 222.969 64.0913 222.766L65.3205 224.301L65.3242 224.305Z" fill="#282828"/>
<path d="M68.4584 223.589C67.5412 223.589 66.6241 223.488 65.7219 223.273C61.6999 222.329 58.6214 219.429 57.49 215.517C56.2721 211.304 57.4712 206.828 60.7038 203.536L146.079 116.88C149.222 113.667 153.792 112.283 158.014 113.276C162.028 114.22 165.103 117.117 166.234 121.029C167.456 125.246 166.257 129.73 163.028 133.021L77.6526 219.677C75.1755 222.197 71.8226 223.586 68.4584 223.586V223.589ZM155.266 114.45C152.293 114.45 149.327 115.684 147.139 117.926L61.7639 204.586C58.9146 207.486 57.8509 211.417 58.9184 215.107C59.8995 218.496 62.5683 221.009 66.064 221.829C69.774 222.702 73.8035 221.479 76.5926 218.639L161.968 131.983C164.813 129.079 165.877 125.14 164.806 121.447C163.825 118.061 161.16 115.548 157.675 114.732C156.882 114.548 156.078 114.454 155.27 114.454L155.266 114.45Z" fill="#282828"/>
<path d="M178.37 180.655C178.152 180.655 177.934 180.557 177.791 180.376L173.119 174.549C173.077 174.501 173.044 174.444 173.021 174.388C172.656 173.575 172.254 172.793 171.818 172.059C171.641 171.762 171.465 171.476 171.273 171.209C171.251 171.175 171.228 171.141 171.213 171.108C170.972 170.743 170.751 170.442 170.529 170.156C170.51 170.13 170.42 169.994 170.401 169.968C170.202 169.633 170.296 169.2 170.619 168.975C170.939 168.753 171.378 168.817 171.623 169.121L176.058 174.659C177.227 176.126 178.238 177.788 179.054 179.609C179.208 179.951 179.084 180.354 178.765 180.549C178.644 180.624 178.509 180.658 178.377 180.658L178.37 180.655Z" fill="#282828"/>
<path d="M144.971 207.979C144.629 207.979 144.279 207.937 143.933 207.854C143.133 207.666 142.464 207.279 141.937 206.711C141.14 205.85 140.682 204.548 140.573 202.836C140.4 200.252 141.088 196.415 142.678 191.108C144.211 185.996 145.794 182.283 147.373 180.083C149.075 177.679 150.993 176.701 153.045 177.19C153.353 177.269 153.567 177.337 153.774 177.431C153.939 177.495 154.131 177.596 154.323 177.713C154.345 177.724 154.368 177.739 154.387 177.754C154.507 177.829 154.624 177.916 154.733 178.002C154.796 178.047 154.887 178.126 154.958 178.202C155.03 178.266 155.131 178.371 155.221 178.469C155.255 178.503 155.342 178.612 155.364 178.653C156.082 179.548 156.462 180.97 156.439 182.802C156.432 183.152 156.413 183.502 156.386 183.878C156.364 184.179 156.161 184.438 155.872 184.532C154.996 184.815 154.112 185.571 153.244 186.778C151.771 188.84 150.263 192.402 148.771 197.367C147.534 201.509 146.843 204.796 146.719 207.128C146.704 207.441 146.489 207.712 146.189 207.802C145.79 207.922 145.38 207.982 144.967 207.982L144.971 207.979ZM152.06 178.567C150.846 178.567 149.711 179.353 148.583 180.948C147.095 183.02 145.587 186.583 144.099 191.54C142.584 196.603 141.896 200.373 142.058 202.746C142.144 204.108 142.471 205.101 143.031 205.707C143.358 206.06 143.76 206.29 144.275 206.41C144.617 206.489 144.944 206.515 145.275 206.478C145.474 204.063 146.155 200.933 147.346 196.942C148.888 191.819 150.463 188.11 152.034 185.913C152.947 184.642 153.917 183.765 154.928 183.306C154.939 183.126 154.947 182.953 154.947 182.78C154.966 181.305 154.695 180.199 154.142 179.507C154.105 179.466 154.06 179.409 154.03 179.36C154.052 179.398 153.973 179.326 153.906 179.262C153.736 179.12 153.673 179.063 153.597 179.025C153.564 179.007 153.533 178.988 153.503 178.965C153.402 178.905 153.3 178.849 153.191 178.807C153.026 178.732 152.891 178.694 152.748 178.657C152.515 178.6 152.282 178.574 152.056 178.574L152.06 178.567Z" fill="#282828"/>
<path d="M150.792 230.605C148.45 230.605 146.018 230.312 143.496 229.721C137.865 228.389 133.437 225.752 130.34 221.889L126.156 216.649C125.908 216.341 125.945 215.893 126.242 215.63C126.539 215.367 126.987 215.382 127.265 215.66C127.269 215.664 127.374 215.773 127.378 215.78L127.513 215.92C127.693 216.138 127.806 216.247 127.915 216.36C128.208 216.687 128.494 216.958 128.783 217.217C128.983 217.409 129.174 217.586 129.374 217.74C129.979 218.252 130.584 218.707 131.208 219.121C131.388 219.241 131.565 219.358 131.757 219.471L132.027 219.64C132.215 219.753 132.399 219.862 132.584 219.963C132.96 220.166 133.35 220.373 133.745 220.561C134.053 220.716 134.358 220.855 134.67 220.979C135.08 221.163 135.467 221.314 135.854 221.457L136.324 221.618C136.579 221.72 136.794 221.784 137.008 221.848C137.218 221.923 137.391 221.98 137.564 222.021C138.105 222.183 138.624 222.314 139.162 222.438C147.048 224.293 154.021 223.097 159.888 218.88C165.782 214.663 170.24 207.633 173.142 197.988C175.923 188.723 175.878 180.782 173.018 174.395C172.864 174.053 172.988 173.65 173.307 173.455C173.627 173.263 174.04 173.331 174.273 173.624L178.946 179.451C178.987 179.5 179.021 179.556 179.043 179.613C182.05 186.346 182.114 194.633 179.235 204.244C176.239 214.212 171.59 221.509 165.41 225.926C161.076 229.048 156.178 230.612 150.784 230.612L150.792 230.605ZM131.648 221.137C134.527 224.639 138.624 227.039 143.838 228.273C151.728 230.123 158.704 228.927 164.553 224.71C170.458 220.49 174.92 213.456 177.818 203.811C180.581 194.595 180.554 186.684 177.732 180.301L175.807 177.901C177.303 183.795 176.89 190.672 174.567 198.409C171.571 208.378 166.925 215.668 160.756 220.084C154.52 224.564 147.146 225.843 138.823 223.883C138.256 223.748 137.711 223.612 137.169 223.45C136.974 223.401 136.752 223.334 136.538 223.251C136.324 223.187 136.064 223.108 135.824 223.01L135.377 222.856C134.922 222.691 134.501 222.525 134.098 222.341C133.783 222.22 133.433 222.059 133.099 221.893C132.696 221.701 132.283 221.483 131.885 221.265C131.806 221.223 131.727 221.178 131.651 221.133L131.648 221.137Z" fill="#282828"/>
<path d="M146.124 224.77C143.783 224.77 141.347 224.473 138.825 223.878C138.257 223.743 137.712 223.608 137.171 223.446C136.975 223.397 136.754 223.329 136.539 223.247C136.325 223.183 136.066 223.104 135.825 223.006L135.378 222.852C134.923 222.686 134.502 222.521 134.1 222.336C133.784 222.216 133.435 222.054 133.1 221.889C132.698 221.697 132.284 221.479 131.886 221.26C131.679 221.148 131.476 221.027 131.277 220.907L130.987 220.726C130.8 220.617 130.597 220.482 130.397 220.35C129.725 219.906 129.07 219.413 128.454 218.887C128.232 218.71 127.999 218.507 127.777 218.296C127.469 218.014 127.146 217.709 126.845 217.375C126.717 217.247 126.563 217.089 126.424 216.912V216.916C126.417 216.916 126.357 216.852 126.3 216.792C126.289 216.78 126.18 216.664 126.169 216.652L125.913 216.344C125.842 216.261 125.766 216.167 125.695 216.073C124.421 214.474 123.368 212.699 122.549 210.758C119.685 203.972 119.692 195.67 122.571 186.082C123.131 184.22 123.759 182.418 124.436 180.729C127.334 173.488 131.311 168.011 136.257 164.449C138.783 162.655 141.482 161.376 144.286 160.642C148.417 159.551 152.939 159.566 157.717 160.695C163.784 162.117 168.49 164.99 171.707 169.241C171.967 169.568 172.226 169.926 172.459 170.291C172.47 170.306 172.482 170.328 172.497 170.351C172.707 170.648 172.906 170.964 173.102 171.295C173.568 172.077 173.997 172.909 174.38 173.774C177.395 180.5 177.458 188.786 174.572 198.405C171.576 208.373 166.93 215.663 160.762 220.079C156.416 223.201 151.515 224.766 146.124 224.766V224.77ZM150.654 161.327C148.575 161.327 146.572 161.579 144.662 162.087C142.031 162.771 139.494 163.975 137.122 165.664C132.416 169.057 128.608 174.316 125.815 181.29C125.157 182.937 124.541 184.698 123.992 186.518C121.218 195.764 121.192 203.728 123.917 210.186C124.684 211.999 125.661 213.658 126.826 215.118L127.514 215.919C127.695 216.137 127.807 216.246 127.916 216.359C128.21 216.686 128.495 216.957 128.785 217.217C128.988 217.412 129.191 217.589 129.394 217.751C129.98 218.251 130.585 218.706 131.209 219.116C131.39 219.237 131.566 219.353 131.758 219.466L132.029 219.635C132.217 219.748 132.401 219.857 132.585 219.959C132.961 220.162 133.352 220.369 133.747 220.557C134.055 220.711 134.359 220.85 134.671 220.975C135.081 221.159 135.468 221.309 135.855 221.452L136.325 221.614C136.581 221.716 136.795 221.78 137.009 221.843C137.22 221.919 137.393 221.975 137.566 222.016C138.107 222.178 138.626 222.31 139.163 222.434C147.049 224.288 154.022 223.092 159.889 218.876C165.783 214.659 170.241 207.628 173.143 197.984C175.925 188.719 175.88 180.778 173.019 174.391C172.655 173.578 172.252 172.796 171.816 172.062C171.64 171.765 171.463 171.479 171.271 171.212C171.249 171.178 171.226 171.144 171.211 171.111C170.971 170.746 170.749 170.445 170.527 170.159C167.516 166.179 163.096 163.49 157.375 162.15C155.059 161.605 152.815 161.33 150.654 161.33V161.327Z" fill="#282828"/>
<path d="M144.971 207.983C144.629 207.983 144.279 207.941 143.929 207.858C143.129 207.67 142.46 207.283 141.933 206.715C141.137 205.853 140.678 204.552 140.569 202.84C140.396 200.256 141.084 196.419 142.674 191.112C144.208 186 145.79 182.287 147.369 180.086C149.072 177.683 150.989 176.705 153.041 177.194C153.349 177.273 153.563 177.34 153.77 177.434C153.936 177.498 154.127 177.6 154.319 177.717C154.341 177.728 154.364 177.743 154.383 177.758C154.541 177.852 154.665 177.946 154.778 178.048C154.789 178.048 154.879 178.127 154.95 178.202C155.022 178.266 155.123 178.371 155.214 178.469C155.247 178.503 155.334 178.612 155.356 178.653C156.074 179.548 156.454 180.97 156.431 182.802C156.424 183.152 156.405 183.502 156.379 183.878C156.187 186.613 155.488 189.998 154.296 193.937C152.932 198.466 151.455 202.028 149.906 204.526C148.801 206.305 147.545 207.407 146.177 207.802C145.783 207.922 145.377 207.979 144.967 207.979L144.971 207.983ZM152.06 178.567C150.846 178.567 149.711 179.353 148.583 180.948C147.094 183.02 145.587 186.583 144.099 191.541C142.584 196.604 141.896 200.373 142.057 202.746C142.144 204.108 142.471 205.101 143.031 205.707C143.358 206.06 143.76 206.29 144.275 206.41C144.794 206.531 145.279 206.523 145.764 206.376C146.775 206.087 147.741 205.199 148.647 203.743C150.128 201.358 151.552 197.913 152.879 193.512C154.037 189.679 154.717 186.402 154.902 183.777C154.928 183.427 154.947 183.099 154.954 182.783C154.973 181.309 154.702 180.203 154.15 179.511C154.112 179.469 154.067 179.413 154.037 179.364C154.06 179.402 153.981 179.33 153.913 179.266C153.89 179.251 153.793 179.165 153.774 179.146C153.717 179.093 153.624 179.041 153.593 179.022C153.563 179.007 153.537 178.988 153.511 178.969C153.409 178.909 153.308 178.853 153.199 178.811C153.033 178.736 152.898 178.698 152.755 178.661C152.522 178.604 152.289 178.578 152.064 178.578L152.06 178.567Z" fill="#282828"/>
<path d="M78.6748 145.973C78.4944 145.973 78.314 145.909 78.1712 145.773L73.2696 141.229C72.9689 140.951 72.9501 140.481 73.2282 140.176C73.5102 139.871 73.98 139.86 74.2807 140.134L79.1823 144.679C79.483 144.957 79.5018 145.427 79.2236 145.732C79.0771 145.89 78.8778 145.969 78.6786 145.969L78.6748 145.973Z" fill="#282828"/>
<path d="M80.2023 140.01C79.9842 140.01 79.7662 139.916 79.6196 139.732L74.9511 133.901C74.6955 133.582 74.7481 133.112 75.0676 132.856C75.3871 132.6 75.857 132.649 76.1126 132.972L80.7811 138.803C81.0367 139.123 80.9841 139.593 80.6646 139.849C80.5293 139.958 80.3639 140.01 80.1985 140.01H80.2023Z" fill="#282828"/>
<path d="M82.7105 132.988C82.5112 132.988 82.3158 132.909 82.1692 132.754L77.2488 127.53C76.9669 127.232 76.9819 126.758 77.2827 126.476C77.5834 126.194 78.0532 126.206 78.3352 126.506L83.2555 131.731C83.5374 132.028 83.5224 132.502 83.2217 132.785C83.0789 132.92 82.8947 132.988 82.7105 132.988Z" fill="#282828"/>
<path d="M86.4603 127.397C86.2272 127.397 85.9979 127.288 85.8551 127.085L81.5324 121.006C81.2956 120.671 81.3707 120.205 81.7053 119.968C82.0398 119.731 82.5059 119.806 82.7427 120.141L87.0654 126.22C87.3022 126.555 87.2271 127.021 86.8925 127.258C86.761 127.352 86.6106 127.397 86.4603 127.397Z" fill="#282828"/>
<path d="M78.1924 172.389C77.9706 172.389 77.7526 172.291 77.606 172.103L73.2457 166.491C72.9938 166.168 73.054 165.701 73.3773 165.449C73.6968 165.197 74.1666 165.253 74.4185 165.581L78.7788 171.193C79.0306 171.517 78.9705 171.983 78.6472 172.235C78.5119 172.34 78.3503 172.393 78.1924 172.393V172.389Z" fill="#282828"/>
<path d="M88.3405 172.232C88.1112 172.232 87.882 172.123 87.7354 171.924L83.4728 165.995C83.2322 165.661 83.3074 165.198 83.6419 164.957C83.9727 164.717 84.4388 164.792 84.6794 165.127L88.9419 171.055C89.1825 171.39 89.1073 171.852 88.7728 172.093C88.6412 172.187 88.4909 172.232 88.3368 172.232H88.3405Z" fill="#282828"/>
<path d="M96.7078 168.806C96.4935 168.806 96.2793 168.711 96.1327 168.531L91.5431 162.907C91.2837 162.588 91.3288 162.121 91.6483 161.862C91.9641 161.602 92.434 161.647 92.6933 161.967L97.2829 167.591C97.5423 167.91 97.4972 168.377 97.1777 168.636C97.0386 168.749 96.8732 168.806 96.7078 168.806Z" fill="#282828"/>
<path d="M101.416 164.025C101.172 164.025 100.935 163.904 100.792 163.686L96.7855 157.525C96.5599 157.178 96.6577 156.72 97.0035 156.494C97.3456 156.272 97.8079 156.366 98.0334 156.712L102.04 162.874C102.266 163.22 102.168 163.679 101.822 163.904C101.698 163.987 101.555 164.025 101.416 164.025Z" fill="#282828"/>
<path d="M106.001 158.062C105.775 158.062 105.549 157.957 105.403 157.761L100.881 151.679C100.637 151.348 100.704 150.881 101.035 150.637C101.362 150.392 101.828 150.46 102.076 150.791L106.598 156.874C106.843 157.205 106.775 157.671 106.444 157.916C106.309 158.013 106.155 158.062 106.001 158.062Z" fill="#282828"/>
<path d="M109.664 149.967C109.457 149.967 109.251 149.88 109.104 149.711L104.559 144.509C104.289 144.2 104.319 143.73 104.631 143.459C104.939 143.192 105.409 143.219 105.68 143.531L110.224 148.733C110.495 149.042 110.465 149.512 110.153 149.783C110.014 149.907 109.837 149.967 109.664 149.967Z" fill="#282828"/>
<path d="M111.752 142.748C111.552 142.748 111.357 142.669 111.21 142.515L106.794 137.843C106.512 137.546 106.523 137.072 106.824 136.79C107.124 136.508 107.594 136.519 107.876 136.82L112.293 141.492C112.575 141.789 112.563 142.263 112.263 142.545C112.12 142.68 111.936 142.748 111.752 142.748Z" fill="#282828"/>
<path d="M112.714 135.906C112.489 135.906 112.267 135.805 112.12 135.609L108.128 130.283C107.884 129.956 107.948 129.489 108.279 129.241C108.606 128.996 109.072 129.06 109.32 129.391L113.312 134.718C113.556 135.045 113.492 135.511 113.162 135.76C113.026 135.861 112.872 135.91 112.714 135.91V135.906Z" fill="#282828"/>
<path d="M73.1134 229.416C72.8314 229.416 72.5608 229.254 72.4368 228.979L69.7304 222.991C69.5612 222.615 69.7266 222.174 70.1025 222.005C70.4746 221.836 70.9182 222.005 71.0873 222.378L73.7937 228.366C73.9629 228.742 73.7975 229.182 73.4216 229.352C73.3239 229.397 73.2186 229.419 73.1134 229.419V229.416Z" fill="#282828"/>
<path d="M87.8405 219.594C87.6075 219.594 87.3782 219.485 87.2316 219.278L82.8863 213.113C82.6495 212.778 82.7285 212.312 83.0668 212.075C83.4013 211.838 83.8674 211.917 84.1042 212.255L88.4495 218.421C88.6863 218.756 88.6074 219.222 88.2691 219.459C88.1375 219.549 87.9871 219.594 87.8405 219.594Z" fill="#282828"/>
<path d="M93.7727 213.58C93.5547 213.58 93.3367 213.486 93.1901 213.301L88.5253 207.456C88.2697 207.136 88.3224 206.666 88.6419 206.41C88.9614 206.154 89.4275 206.207 89.6868 206.527L94.3516 212.372C94.6072 212.692 94.5546 213.162 94.2351 213.418C94.0997 213.527 93.9344 213.58 93.7727 213.58Z" fill="#282828"/>
<path d="M100.377 206.88C100.148 206.88 99.9222 206.774 99.7793 206.575L95.3288 200.523C95.0845 200.192 95.1559 199.725 95.4867 199.481C95.8175 199.24 96.2836 199.308 96.5279 199.639L100.978 205.691C101.223 206.022 101.151 206.489 100.821 206.733C100.685 206.831 100.531 206.876 100.381 206.876L100.377 206.88Z" fill="#282828"/>
<path d="M104.826 201.869C104.57 201.869 104.322 201.738 104.183 201.501L100.492 195.159C100.285 194.805 100.405 194.346 100.759 194.139C101.112 193.932 101.567 194.053 101.777 194.41L105.469 200.752C105.675 201.106 105.555 201.565 105.202 201.772C105.085 201.839 104.954 201.873 104.826 201.873V201.869Z" fill="#282828"/>
<path d="M110.467 196.626C110.238 196.626 110.005 196.517 109.862 196.314L105.716 190.498C105.479 190.164 105.554 189.697 105.889 189.46C106.22 189.223 106.686 189.298 106.926 189.633L111.072 195.449C111.309 195.783 111.234 196.25 110.899 196.487C110.768 196.581 110.618 196.626 110.467 196.626Z" fill="#282828"/>
<path d="M114.653 192.383C114.42 192.383 114.191 192.274 114.044 192.067L109.695 185.905C109.458 185.571 109.537 185.104 109.875 184.867C110.206 184.63 110.672 184.709 110.913 185.044L115.262 191.205C115.499 191.54 115.42 192.007 115.081 192.244C114.954 192.338 114.803 192.379 114.653 192.379V192.383Z" fill="#282828"/>
<path d="M118.752 188.23C118.523 188.23 118.297 188.125 118.154 187.926L113.7 181.873C113.456 181.542 113.527 181.076 113.858 180.831C114.189 180.59 114.655 180.658 114.899 180.989L119.353 187.042C119.598 187.373 119.526 187.839 119.195 188.084C119.06 188.181 118.906 188.227 118.756 188.227L118.752 188.23Z" fill="#282828"/>
<path d="M139.542 228.438C139.218 228.438 138.918 228.224 138.824 227.897L137.482 223.161C137.369 222.766 137.598 222.356 137.993 222.243C138.391 222.126 138.801 222.36 138.914 222.755L140.256 227.49C140.369 227.885 140.139 228.295 139.745 228.408C139.677 228.427 139.609 228.438 139.542 228.438Z" fill="#282828"/>
<path d="M147.368 230.394C147.041 230.394 146.744 230.18 146.65 229.853L145.157 224.56C145.045 224.165 145.278 223.755 145.672 223.642C146.067 223.525 146.477 223.762 146.589 224.157L148.082 229.45C148.195 229.845 147.961 230.255 147.567 230.368C147.499 230.387 147.431 230.398 147.364 230.398L147.368 230.394Z" fill="#282828"/>
<path d="M146.534 203.834C146.38 203.834 146.225 203.785 146.094 203.687L141.057 199.967C140.726 199.722 140.655 199.256 140.899 198.925C141.147 198.594 141.613 198.526 141.94 198.767L146.977 202.487C147.308 202.732 147.379 203.198 147.135 203.529C146.989 203.728 146.763 203.83 146.537 203.83L146.534 203.834Z" fill="#282828"/>
<path d="M148.251 197.254C148.127 197.254 148.003 197.224 147.886 197.16L142.406 194.065C142.049 193.861 141.921 193.41 142.124 193.049C142.327 192.692 142.782 192.567 143.139 192.767L148.619 195.863C148.976 196.066 149.104 196.517 148.901 196.878C148.766 197.119 148.51 197.254 148.255 197.254H148.251Z" fill="#282828"/>
<path d="M150.528 190.958C150.389 190.958 150.246 190.92 150.118 190.837L144.969 187.452C144.627 187.226 144.529 186.763 144.754 186.421C144.98 186.075 145.446 185.981 145.784 186.207L150.934 189.592C151.276 189.818 151.374 190.28 151.148 190.623C151.005 190.841 150.769 190.958 150.528 190.958Z" fill="#282828"/>
<path d="M153.545 185.989C153.376 185.989 153.203 185.932 153.064 185.812L147.489 181.084C147.178 180.816 147.136 180.346 147.403 180.034C147.674 179.722 148.14 179.684 148.452 179.948L154.026 184.676C154.338 184.943 154.38 185.413 154.113 185.725C153.966 185.898 153.756 185.989 153.545 185.989Z" fill="#282828"/>
<path d="M156.592 229.942C156.337 229.942 156.089 229.811 155.95 229.57L152.409 223.438C152.202 223.085 152.326 222.626 152.679 222.423C153.033 222.22 153.488 222.336 153.694 222.694L157.235 228.825C157.442 229.179 157.318 229.637 156.965 229.841C156.848 229.908 156.72 229.938 156.592 229.938V229.942Z" fill="#282828"/>
<path d="M162.806 227.464C162.557 227.464 162.317 227.34 162.174 227.114L158.261 220.828C158.043 220.478 158.152 220.02 158.498 219.801C158.844 219.587 159.302 219.689 159.524 220.038L163.437 226.324C163.655 226.674 163.546 227.133 163.2 227.351C163.08 227.426 162.941 227.464 162.806 227.464Z" fill="#282828"/>
<path d="M168.41 223.148C168.184 223.148 167.959 223.047 167.812 222.847L163.471 217.017C163.226 216.686 163.294 216.219 163.625 215.975C163.952 215.727 164.418 215.794 164.666 216.125L169.008 221.956C169.252 222.287 169.184 222.753 168.854 222.998C168.718 223.096 168.564 223.144 168.41 223.144V223.148Z" fill="#282828"/>
<path d="M172.11 218.699C171.911 218.699 171.716 218.62 171.569 218.466L166.54 213.143C166.258 212.846 166.269 212.372 166.57 212.09C166.87 211.808 167.337 211.823 167.622 212.12L172.652 217.443C172.934 217.74 172.918 218.214 172.622 218.496C172.479 218.632 172.294 218.699 172.11 218.699Z" fill="#282828"/>
<path d="M175.22 212.368C175.044 212.368 174.867 212.304 174.724 212.18L169.822 207.794C169.514 207.519 169.492 207.049 169.762 206.745C170.037 206.436 170.51 206.414 170.811 206.684L175.713 211.07C176.021 211.345 176.043 211.815 175.773 212.12C175.626 212.285 175.419 212.368 175.216 212.368H175.22Z" fill="#282828"/>
<path d="M178.138 206.023C177.972 206.023 177.803 205.966 177.664 205.85L172.687 201.719C172.371 201.456 172.326 200.99 172.589 200.67C172.853 200.354 173.319 200.309 173.638 200.572L178.615 204.702C178.931 204.966 178.976 205.432 178.713 205.752C178.566 205.929 178.356 206.023 178.141 206.023H178.138Z" fill="#282828"/>
<path d="M179.768 199.861C179.618 199.861 179.468 199.816 179.34 199.725L174.175 196.077C173.841 195.84 173.758 195.373 173.995 195.038C174.231 194.7 174.701 194.628 175.032 194.858L180.197 198.507C180.531 198.744 180.614 199.21 180.377 199.545C180.234 199.748 180.001 199.861 179.768 199.861Z" fill="#282828"/>
<path d="M180.534 194.358C180.361 194.358 180.188 194.298 180.049 194.177L175.602 190.348C175.29 190.081 175.257 189.611 175.523 189.299C175.79 188.99 176.26 188.952 176.572 189.22L181.019 193.049C181.331 193.316 181.365 193.786 181.098 194.098C180.951 194.268 180.744 194.358 180.534 194.358Z" fill="#282828"/>
<path d="M179.812 187.699C179.661 187.699 179.507 187.654 179.376 187.56L175.493 184.754C175.158 184.513 175.083 184.047 175.327 183.716C175.568 183.381 176.034 183.31 176.365 183.55L180.248 186.357C180.578 186.597 180.657 187.064 180.413 187.395C180.266 187.598 180.041 187.703 179.812 187.703V187.699Z" fill="#282828"/>
<path d="M125.124 181.757C124.861 181.757 124.609 181.617 124.474 181.373L120.73 174.598C120.531 174.237 120.662 173.786 121.019 173.586C121.38 173.387 121.831 173.519 122.03 173.876L125.774 180.651C125.973 181.012 125.842 181.463 125.485 181.662C125.368 181.726 125.248 181.757 125.124 181.757Z" fill="#282828"/>
<path d="M129.887 172.803C129.654 172.803 129.421 172.694 129.278 172.487L126.635 168.711C126.398 168.376 126.481 167.91 126.816 167.673C127.154 167.439 127.616 167.518 127.853 167.857L130.496 171.634C130.732 171.968 130.65 172.435 130.315 172.672C130.184 172.762 130.037 172.807 129.887 172.807V172.803Z" fill="#282828"/>
<path d="M133.676 167.541C133.473 167.541 133.274 167.459 133.127 167.297L130.748 164.671C130.473 164.367 130.492 163.896 130.8 163.622C131.105 163.347 131.575 163.366 131.849 163.675L134.228 166.3C134.503 166.605 134.484 167.075 134.176 167.35C134.033 167.477 133.856 167.541 133.676 167.541Z" fill="#282828"/>
<path d="M139.236 163.558C139.029 163.558 138.823 163.471 138.676 163.306L135.571 159.755C135.301 159.446 135.331 158.976 135.643 158.705C135.951 158.435 136.421 158.465 136.691 158.773L139.796 162.324C140.067 162.633 140.037 163.103 139.725 163.374C139.586 163.498 139.409 163.558 139.236 163.558Z" fill="#282828"/>
<path d="M145.017 161.56C144.814 161.56 144.607 161.478 144.461 161.312L139.518 155.764C139.243 155.455 139.27 154.985 139.578 154.714C139.886 154.44 140.356 154.466 140.627 154.774L145.57 160.323C145.844 160.631 145.818 161.101 145.509 161.372C145.367 161.5 145.19 161.56 145.013 161.56H145.017Z" fill="#282828"/>
<path d="M149.39 156.042C149.165 156.042 148.943 155.941 148.797 155.749L144.733 150.377C144.485 150.05 144.549 149.583 144.876 149.335C145.207 149.091 145.669 149.151 145.917 149.478L149.981 154.85C150.229 155.177 150.165 155.643 149.838 155.892C149.702 155.993 149.545 156.042 149.39 156.042Z" fill="#282828"/>
<path d="M153.948 152.495C153.703 152.495 153.463 152.375 153.32 152.153L149.219 145.747C148.997 145.401 149.099 144.942 149.445 144.72C149.787 144.498 150.249 144.596 150.471 144.946L154.572 151.352C154.794 151.698 154.692 152.157 154.346 152.379C154.222 152.458 154.083 152.495 153.944 152.495H153.948Z" fill="#282828"/>
<path d="M157.524 148.861C157.287 148.861 157.05 148.745 156.907 148.53L152.904 142.572C152.675 142.229 152.765 141.767 153.107 141.537C153.445 141.312 153.908 141.398 154.141 141.74L158.144 147.699C158.373 148.041 158.283 148.504 157.941 148.733C157.813 148.82 157.67 148.861 157.524 148.861Z" fill="#282828"/>
<path d="M161.614 143.497C161.373 143.497 161.136 143.381 160.994 143.163L157.302 137.558C157.077 137.215 157.171 136.753 157.513 136.527C157.855 136.301 158.317 136.395 158.543 136.738L162.234 142.343C162.46 142.685 162.366 143.148 162.024 143.373C161.896 143.456 161.757 143.497 161.614 143.497Z" fill="#282828"/>
<path d="M120.364 151.637C120.18 151.637 120 151.569 119.857 151.434C119.556 151.152 119.541 150.682 119.823 150.381L147.669 120.656C147.951 120.355 148.421 120.344 148.721 120.623C149.022 120.905 149.037 121.375 148.755 121.676L120.909 151.4C120.763 151.558 120.564 151.637 120.364 151.637Z" fill="#282828"/>
<path d="M130.699 182.133C130.642 182.133 130.586 182.125 130.529 182.114C130.131 182.02 129.883 181.617 129.977 181.218C131.766 173.586 137.747 167.101 145.204 164.701C145.595 164.577 146.016 164.791 146.14 165.183C146.268 165.574 146.05 165.991 145.659 166.119C138.686 168.361 133.101 174.421 131.424 181.557C131.345 181.899 131.041 182.133 130.702 182.133H130.699Z" fill="#282828"/>
<path d="M133.451 182.06C133.335 182.06 133.218 182.034 133.109 181.978C132.745 181.79 132.602 181.342 132.79 180.977L135.53 175.658C135.718 175.293 136.169 175.147 136.534 175.338C136.898 175.526 137.041 175.974 136.853 176.339L134.113 181.658C133.981 181.914 133.722 182.06 133.451 182.06Z" fill="#282828"/>
<path d="M60.6651 126.803C60.6237 126.803 60.5824 126.803 60.5373 126.792C60.1313 126.724 59.8607 126.341 59.9283 125.934C61.165 118.659 65.6907 112.077 72.0357 108.323C72.389 108.112 72.8438 108.229 73.0543 108.586C73.2648 108.939 73.1445 109.395 72.7912 109.605C66.8184 113.141 62.5558 119.34 61.3905 126.186C61.3266 126.548 61.0146 126.807 60.6576 126.807L60.6651 126.803Z" fill="#282828"/>
<path d="M61.1258 77.1191L61.0393 108.021L40.7189 103.326L36.6367 102.382L36.7232 71.4805L61.1258 77.1191Z" fill="white"/>
<path d="M131.872 93.4862L131.786 124.377L127.512 123.383L90.2617 114.773L90.3482 83.8828L131.872 93.4862Z" fill="white"/>
<path d="M173.464 84.1162L173.077 115.082L131.789 124.377L131.876 93.4864L173.464 84.1162Z" fill="white"/>
<path d="M227.144 72.0146L227.058 102.916L222.668 103.906L202.633 108.42L202.719 77.5179L227.144 72.0146Z" fill="white"/>
<path d="M74.5293 75.6196L61.1214 77.1205L36.7188 71.4818L62.3054 69.3076C62.5422 69.5333 62.779 69.759 63.0233 69.9885C66.271 72.9225 70.2554 74.6341 74.5293 75.6234V75.6196Z" fill="white"/>
<path d="M173.46 84.1163L131.872 93.4864L90.3477 83.883L123.625 78.6318C127.621 79.8581 131.876 80.2568 136.037 79.7979C137.382 79.6399 138.788 79.3766 139.908 78.6356C139.908 78.6356 139.912 78.6356 139.92 78.6356L173.46 84.12V84.1163Z" fill="white"/>
<path d="M227.145 72.0152L202.72 77.5184L186.602 75.6226C190.409 74.622 193.939 72.9857 196.882 70.3601C197.239 70.0366 197.581 69.7056 197.916 69.3633L227.141 72.0152H227.145Z" fill="white"/>
<path d="M90.3429 83.8835L90.2565 114.774L61.0312 108.022L61.1177 77.1201L90.3429 83.8835Z" fill="#30D065"/>
<path d="M123.628 78.6275L90.3503 83.8787L61.125 77.1191L74.5329 75.6182H74.5442C78.8293 76.6188 83.4076 76.8783 87.813 76.9348C97.9469 77.0401 108.096 76.3668 118.14 74.9449L118.151 74.9336C119.124 76.852 121.271 77.8789 123.342 78.541C123.44 78.5748 123.534 78.6049 123.631 78.6275H123.628Z" fill="#30D065"/>
<path d="M202.724 77.5186L202.638 108.42L173.074 115.082L173.461 84.1164L202.724 77.5186Z" fill="#30D065"/>
<path d="M202.721 77.5184L173.458 84.1163L139.918 78.6319C140.144 78.4927 140.358 78.3309 140.553 78.1504C141.425 77.3454 141.925 76.2508 142.207 75.0771C152.089 76.5141 162.062 77.2213 172.06 77.1724C176.898 77.1423 181.95 76.8564 186.596 75.6226H186.607L202.725 77.5184H202.721Z" fill="#30D065"/>
<path d="M124.256 55.8509C122.858 56.1594 121.557 56.8101 120.606 57.8634C119.302 59.3003 118.825 61.3015 118.486 63.2237C118.411 63.6638 118.332 64.1039 118.268 64.5478C117.953 66.4925 117.731 68.4598 117.596 70.4309C117.584 70.5588 117.573 70.698 117.573 70.8296L117.37 70.8522L117.347 70.6491C113.818 68.6818 110.145 66.9815 106.357 65.5634H106.345C97.121 62.0952 87.2727 60.3159 77.417 60.3498C73.925 60.3611 70.354 60.6206 67.1252 61.9786C65.6742 62.588 64.1857 63.5509 63.7647 65.0781C63.3625 66.4737 63.9715 67.9407 64.8924 69.0918C65.054 69.2874 65.2156 69.4679 65.3735 69.641C68.8467 73.286 74.2821 74.0646 79.2889 74.4784C80.3865 74.5687 81.4916 74.6552 82.5892 74.7229C82.6004 74.7342 82.6117 74.7342 82.623 74.7229C94.3695 75.5317 106.18 75.4339 117.919 74.4446C117.971 74.5612 118.024 74.6928 118.08 74.8094C118.103 74.8508 118.122 74.896 118.144 74.9373L118.133 74.9486C108.089 76.3705 97.9442 77.0438 87.8065 76.9385C83.4011 76.8821 78.8228 76.6225 74.5377 75.6219H74.5264C70.2526 74.6326 66.2681 72.9211 63.0205 69.987C62.7724 69.7613 62.5393 69.5357 62.3025 69.3062C58.4534 65.4543 56.2432 60.1805 55.2509 54.8202C54.1796 49.1289 54.3713 43.2984 54.548 37.5131C54.7021 32.544 54.9314 27.3266 57.4799 23.0534C60.8929 17.3207 67.9935 14.5221 74.6579 14.808C81.3224 15.1051 87.5997 18.0392 93.2531 21.5826C106.469 29.8695 117.325 41.8728 124.26 55.8509H124.256Z" fill="#30D065"/>
<path d="M142.683 70.4769C142.695 70.5295 142.695 70.586 142.683 70.6386V70.6499C142.672 71.3797 142.627 72.0906 142.559 72.8204C142.503 73.3921 142.439 73.9714 142.33 74.5394C142.296 74.7237 142.266 74.9043 142.21 75.0773C141.928 76.2472 141.428 77.3456 140.556 78.1506C140.36 78.3349 140.146 78.4929 139.921 78.6321H139.909C138.789 79.3693 137.38 79.6364 136.038 79.7944C131.877 80.2571 127.622 79.8583 123.626 78.6283C123.528 78.6057 123.434 78.5756 123.337 78.5418C121.265 77.8797 119.119 76.8528 118.145 74.9344C118.123 74.893 118.104 74.8479 118.082 74.8065C118.029 74.6899 117.976 74.5582 117.92 74.4416C117.503 73.3018 117.495 72.053 117.574 70.8267C117.574 70.6988 117.585 70.5596 117.597 70.428C117.732 68.4607 117.95 66.4933 118.27 64.5448C118.337 64.1047 118.412 63.6646 118.488 63.2207C118.826 61.2948 119.303 59.2974 120.608 57.8604C121.555 56.8072 122.859 56.1564 124.257 55.848C124.829 55.7088 125.419 55.6373 125.998 55.6148C126.096 55.6148 126.182 55.6035 126.276 55.6148C126.265 55.7314 126.265 55.8404 126.265 55.9495C126.9 55.8442 127.535 55.769 128.167 55.7088C130.264 55.5094 132.369 55.5282 134.467 55.7464C134.876 55.7916 135.282 55.8442 135.703 55.9232C137.143 56.1752 138.56 56.6304 139.631 57.6009C141.12 58.94 141.717 60.9826 142.09 62.9424C142.172 63.405 142.247 63.8564 142.311 64.3191C142.616 66.3541 142.74 68.4193 142.68 70.4731L142.683 70.4769Z" fill="#30D065"/>
<path d="M117.921 74.441C106.182 75.4303 94.3678 75.5244 82.625 74.7194C82.6138 74.7307 82.6025 74.7307 82.5912 74.7194C81.4936 74.6517 80.3885 74.5614 79.2909 74.4749C74.2841 74.0611 68.8488 73.2825 65.3756 69.6375C65.2139 69.4644 65.0523 69.2801 64.8944 69.0883C63.9735 67.9335 63.3646 66.4702 63.7668 65.0746C64.1915 63.5474 65.6763 62.5845 67.1272 61.9751C70.3561 60.6171 73.9233 60.3576 77.419 60.3463C87.2748 60.3087 97.1268 62.0917 106.347 65.5599H106.359C110.148 66.978 113.82 68.6783 117.35 70.6456L117.372 70.8487L117.575 70.8261C117.496 72.0524 117.504 73.3013 117.921 74.441Z" fill="#30D065"/>
<path d="M204.738 55.2378C203.723 60.4401 201.581 65.5747 197.916 69.3626C197.581 69.7049 197.236 70.0397 196.882 70.3594C193.939 72.985 190.409 74.6213 186.602 75.6219H186.59C181.945 76.8557 176.893 77.1416 172.055 77.1717C162.06 77.2206 152.088 76.5134 142.202 75.0765C142.255 74.9035 142.288 74.7229 142.322 74.5386C154.753 75.637 167.266 75.7272 179.7 74.8169H179.712C180.001 74.7944 180.291 74.7756 180.584 74.753C185.594 74.3693 191.033 73.6207 194.525 69.9946C194.785 69.7275 195.033 69.4266 195.247 69.1143H195.258C196.037 68.0197 196.51 66.6994 196.161 65.4392C195.747 63.912 194.266 62.9378 192.815 62.3209C189.594 60.9441 186.027 60.6658 182.523 60.6357C172.938 60.5454 163.346 62.1855 154.317 65.4054C150.4 66.8047 146.581 68.5012 142.931 70.5024L142.672 70.4685C142.732 68.4147 142.608 66.3496 142.303 64.3145C142.24 63.8519 142.164 63.4005 142.082 62.9378C141.71 60.978 141.116 58.9354 139.623 57.5963C138.552 56.6258 137.135 56.1706 135.695 55.9186C142.709 41.9555 153.64 29.9936 166.917 21.782C169.491 20.1984 172.179 18.7313 174.968 17.5878C178.359 16.1885 181.896 15.2518 185.549 15.1127C192.202 14.8644 199.299 17.7006 202.678 23.4522C205.204 27.7404 205.392 32.9577 205.528 37.9268C205.674 43.7122 205.817 49.5427 204.727 55.2302L204.738 55.2378Z" fill="#30D065"/>
<path d="M195.264 69.1185H195.253C195.039 69.4307 194.791 69.7317 194.531 69.9987C191.039 73.6249 185.597 74.3735 180.59 74.7572C180.3 74.7797 180.011 74.7986 179.718 74.8211H179.706C167.268 75.7314 154.759 75.6449 142.328 74.5428C142.437 73.9748 142.505 73.3917 142.557 72.8237C142.625 72.094 142.67 71.383 142.681 70.6533V70.642C142.768 70.6006 142.854 70.5555 142.941 70.5141C146.591 68.5129 150.41 66.8127 154.326 65.4171C163.352 62.1934 172.944 60.5533 182.533 60.6474C186.036 60.6775 189.603 60.9558 192.825 62.3326C194.276 62.9495 195.753 63.92 196.17 65.451C196.52 66.7111 196.046 68.0314 195.268 69.126L195.264 69.1185Z" fill="#30D065"/>
<path d="M174.977 17.5961C172.192 18.7397 169.501 20.2067 166.926 21.7903C153.649 30.0019 142.719 41.9638 135.705 55.9269C135.287 55.8517 134.878 55.7953 134.468 55.7501C132.374 55.5282 130.265 55.5132 128.168 55.7125C127.533 55.6335 126.913 55.5997 126.277 55.6222C126.304 53.8581 126.514 52.0751 126.777 50.3221C128.781 36.927 133.472 23.9457 140.478 12.3487C143.414 7.48492 147.214 2.53841 152.721 1.12028C158.487 -0.358034 164.667 2.60611 168.655 7.03729C171.418 10.1105 173.342 13.7819 174.977 17.5961Z" fill="#30D065"/>
<path d="M61.0337 108.766C60.9774 108.766 60.921 108.759 60.8684 108.748L36.4657 103.109C36.1274 103.03 35.8906 102.729 35.8906 102.383L35.9771 71.4813C35.9771 71.2556 36.0823 71.0412 36.259 70.902C36.4357 70.7628 36.6687 70.7102 36.8867 70.7591L61.2893 76.3977C61.6276 76.4767 61.8682 76.7777 61.8645 77.1237L61.778 108.025C61.778 108.251 61.6727 108.465 61.4961 108.605C61.3645 108.71 61.1991 108.766 61.0337 108.766ZM37.3754 101.789L60.2933 107.085L60.3759 77.7105L37.4581 72.4142L37.3754 101.789Z" fill="#282828"/>
<path d="M131.784 125.118C131.728 125.118 131.672 125.111 131.615 125.099L90.0947 115.496C89.7564 115.417 89.5158 115.116 89.5196 114.77L89.606 83.8797C89.606 83.654 89.7113 83.4396 89.8879 83.3005C90.0646 83.1613 90.2976 83.1086 90.5157 83.1575L132.04 92.7609C132.378 92.8399 132.619 93.1408 132.615 93.4869L132.529 124.377C132.529 124.603 132.423 124.817 132.247 124.96C132.115 125.066 131.95 125.122 131.784 125.122V125.118ZM91.0043 114.18L131.04 123.441L131.123 94.0775L91.087 84.8164L91.0043 114.18Z" fill="#282828"/>
<path d="M131.787 125.118C131.622 125.118 131.453 125.062 131.321 124.956C131.144 124.813 131.043 124.599 131.043 124.373L131.129 93.4829C131.129 93.1368 131.37 92.8359 131.712 92.7607L173.3 83.3905C173.522 83.3378 173.755 83.3942 173.932 83.5372C174.108 83.6801 174.21 83.8983 174.206 84.124L173.819 115.09C173.815 115.436 173.575 115.729 173.236 115.808L131.949 125.103C131.896 125.114 131.84 125.122 131.787 125.122V125.118ZM132.618 94.081L132.535 123.444L172.338 114.484L172.706 85.0494L132.618 94.081Z" fill="#282828"/>
<path d="M202.635 109.165C202.47 109.165 202.3 109.109 202.169 109.003C201.992 108.86 201.891 108.646 201.891 108.42L201.977 77.5187C201.977 77.1726 202.218 76.8717 202.56 76.7964L226.985 71.2932C227.207 71.2443 227.44 71.297 227.613 71.4399C227.789 71.5829 227.891 71.7973 227.891 72.023L227.804 102.925C227.804 103.271 227.56 103.572 227.222 103.647L202.8 109.15C202.748 109.161 202.691 109.169 202.639 109.169L202.635 109.165ZM203.466 78.1168L203.383 107.491L226.316 102.323L226.399 72.9483L203.462 78.1168H203.466Z" fill="#282828"/>
<path d="M61.1216 77.8649C61.0652 77.8649 61.0088 77.8574 60.9562 77.8461L36.5536 72.2075C36.1965 72.1247 35.9522 71.7937 35.9785 71.4288C36.0048 71.0639 36.2905 70.7705 36.6589 70.7404L62.2455 68.5625C62.4485 68.5361 62.6665 68.6189 62.8244 68.7656C63.0537 68.9875 63.2867 69.2095 63.5273 69.4352C66.4028 72.0307 70.0564 73.8174 74.6987 74.8933C75.052 74.976 75.2926 75.2995 75.2738 75.6606C75.255 76.0217 74.9731 76.3151 74.616 76.3565L61.2081 77.8574C61.1818 77.8574 61.1517 77.8612 61.1254 77.8612L61.1216 77.8649ZM41.4965 71.82L61.1667 76.3641L70.7293 75.2958C67.5004 74.156 64.794 72.5836 62.5274 70.5373C62.3583 70.3831 62.1966 70.2289 62.035 70.0746L41.5003 71.82H41.4965Z" fill="#282828"/>
<path d="M131.875 94.2317C131.818 94.2317 131.762 94.2241 131.709 94.2129L90.1851 84.6095C89.8393 84.5305 89.595 84.2145 89.61 83.8571C89.6213 83.4998 89.8844 83.2026 90.2378 83.15L123.515 77.8987C123.628 77.8799 123.741 77.8875 123.85 77.9213C127.733 79.1137 131.92 79.5087 135.961 79.0573C137.141 78.9182 138.487 78.6849 139.505 78.0154C139.622 77.9364 139.753 77.8988 139.889 77.8912C139.941 77.8912 139.994 77.8912 140.05 77.8987L173.587 83.3832C173.94 83.4396 174.2 83.7405 174.211 84.0979C174.222 84.4552 173.978 84.7675 173.628 84.8464L132.04 94.2166C131.988 94.2279 131.931 94.2354 131.879 94.2354L131.875 94.2317ZM94.2522 84.0189L131.879 92.7195L169.561 84.2295L140.073 79.4072C138.848 80.1294 137.4 80.3814 136.13 80.5281C131.935 80.9908 127.605 80.5958 123.579 79.3846L94.2522 84.0114V84.0189Z" fill="#282828"/>
<path d="M202.724 78.2638C202.694 78.2638 202.668 78.2638 202.638 78.26L186.523 76.3642C186.17 76.3228 185.892 76.0332 185.869 75.6758C185.843 75.3185 186.076 74.995 186.422 74.9047C190.485 73.8364 193.748 72.17 196.394 69.8077C196.736 69.4993 197.067 69.1795 197.39 68.8447C197.548 68.683 197.774 68.6002 197.992 68.6228L227.217 71.2747C227.581 71.3086 227.867 71.602 227.893 71.9669C227.916 72.3318 227.672 72.6628 227.315 72.7418L202.889 78.245C202.837 78.2563 202.78 78.2638 202.728 78.2638H202.724ZM190.102 75.2846L202.686 76.7667L222.372 72.3318L198.206 70.1387C197.939 70.4058 197.668 70.6654 197.386 70.9174C195.323 72.7606 192.921 74.205 190.102 75.2884V75.2846Z" fill="#282828"/>
<path d="M90.2588 115.515C90.2024 115.515 90.146 115.507 90.0934 115.496L60.8681 108.744C60.5298 108.665 60.2893 108.364 60.293 108.018L60.3795 77.1161C60.3795 76.8904 60.4847 76.676 60.6614 76.5368C60.838 76.3976 61.0711 76.3449 61.2891 76.3939L90.5144 83.1572C90.8527 83.2362 91.0932 83.5372 91.0895 83.8832L91.003 114.774C91.003 114.999 90.8978 115.214 90.7211 115.353C90.5895 115.458 90.4241 115.515 90.2588 115.515ZM61.7777 107.431L89.5183 113.837L89.601 84.4738L61.8605 78.0565L61.7777 107.431Z" fill="#282828"/>
<path d="M90.3461 84.6279C90.2897 84.6279 90.2333 84.6204 90.1807 84.6091L60.9554 77.8457C60.6021 77.763 60.3578 77.4395 60.3803 77.0784C60.3991 76.7172 60.6811 76.4238 61.0382 76.3825L74.4461 74.8816C74.5024 74.8816 74.6528 74.8816 74.7092 74.8966C79.2499 75.9574 84.1026 76.1492 87.8201 76.1944C97.8526 76.3035 107.986 75.6339 117.974 74.2195C118.075 74.197 118.173 74.1932 118.275 74.2082C118.504 74.2496 118.711 74.3888 118.816 74.5995C119.522 75.9988 121.034 77.0257 123.571 77.8344C123.657 77.8645 123.729 77.8909 123.796 77.9059C124.146 77.9849 124.386 78.3009 124.375 78.6582C124.364 79.0156 124.101 79.3128 123.747 79.3692L90.4701 84.6204C90.4325 84.6279 90.395 84.6279 90.3536 84.6279H90.3461ZM65.5262 77.3755L90.3724 83.1233L120.778 78.3234C119.631 77.7442 118.504 76.9279 117.752 75.7505C107.829 77.1348 97.7436 77.7893 87.7976 77.6802C84.0312 77.6313 79.1259 77.4395 74.4761 76.3712L65.5225 77.3755H65.5262Z" fill="#282828"/>
<path d="M173.073 115.823C172.903 115.823 172.738 115.767 172.607 115.658C172.43 115.515 172.328 115.296 172.332 115.071L172.719 84.1052C172.723 83.7591 172.964 83.4657 173.298 83.3867L202.561 76.7888C202.783 76.7399 203.016 76.7889 203.189 76.9356C203.365 77.0785 203.467 77.2929 203.467 77.5186L203.38 108.42C203.38 108.766 203.14 109.067 202.798 109.142L173.23 115.804C173.178 115.816 173.121 115.823 173.069 115.823H173.073ZM174.197 84.7146L173.828 114.149L201.896 107.826L201.978 78.4515L174.197 84.7146Z" fill="#282828"/>
<path d="M173.46 84.8614C173.418 84.8614 173.381 84.8614 173.339 84.8501L139.803 79.3656C139.495 79.3167 139.254 79.0798 139.194 78.7751C139.134 78.4704 139.269 78.1582 139.536 77.9964C139.728 77.8798 139.9 77.7482 140.047 77.609C140.731 76.977 141.201 76.093 141.487 74.9044C141.577 74.532 141.93 74.2762 142.317 74.3439C152.166 75.7771 162.119 76.4805 172.058 76.4316C176.159 76.4053 181.496 76.2097 186.405 74.9044C186.465 74.8893 186.533 74.878 186.597 74.878L202.813 76.7776C203.174 76.819 203.448 77.1162 203.467 77.4773C203.486 77.8384 203.241 78.1619 202.888 78.2409L173.625 84.8388C173.572 84.8501 173.516 84.8576 173.46 84.8576V84.8614ZM141.577 78.1506L173.437 83.3605L198.313 77.7519L186.653 76.3789C181.62 77.6955 176.219 77.8949 172.065 77.9212C162.296 77.9588 152.463 77.2892 142.75 75.9125C142.468 76.7889 142.077 77.5413 141.577 78.1544V78.1506Z" fill="#282828"/>
<path d="M89.8354 77.6923C89.1588 77.6923 88.4785 77.6923 87.8019 77.681C84.0167 77.6321 79.0813 77.4402 74.4127 76.3531C74.394 76.3531 74.3789 76.3456 74.3601 76.3418C69.4661 75.2058 65.5944 73.3062 62.5234 70.5339C62.2678 70.3007 62.0272 70.0675 61.7867 69.838C58.1631 66.2118 55.6559 61.0697 54.5208 54.9533C53.4457 49.2281 53.6262 43.3299 53.7991 37.6273C53.9457 32.914 54.1223 27.2265 56.84 22.6674C60.1441 17.1153 67.1468 13.7336 74.6871 14.0609C80.5397 14.3242 86.5652 16.5097 93.6469 20.9484C107.062 29.3593 117.877 41.3137 124.924 55.5176C125.026 55.7207 125.026 55.9614 124.928 56.1683C124.831 56.3752 124.639 56.5257 124.417 56.5746C123.075 56.8717 121.947 57.4886 121.162 58.3576C119.948 59.6967 119.523 61.6377 119.222 63.3492C119.147 63.7856 119.072 64.2182 119.004 64.6545C118.696 66.5391 118.474 68.4951 118.339 70.4737C118.328 70.5979 118.316 70.7145 118.316 70.8198C118.316 71.1997 118.027 71.5194 117.647 71.5608L117.444 71.5834C117.253 71.5984 117.05 71.5458 116.899 71.4179C116.802 71.3389 116.726 71.2336 116.678 71.117C113.302 69.255 109.761 67.6262 106.149 66.2682C106.126 66.2607 106.104 66.257 106.085 66.2494C96.9697 62.8226 87.4297 61.0847 77.7281 61.0847C77.6266 61.0847 77.5251 61.0847 77.4198 61.0847C74.2925 61.096 70.6614 61.2879 67.4137 62.6533C65.756 63.3492 64.7675 64.2257 64.4818 65.2639C64.0946 66.6143 64.9366 67.9422 65.4741 68.6155C65.617 68.7885 65.7711 68.9616 65.9214 69.1233C69.2556 72.6216 74.6007 73.3325 79.3519 73.7237C80.4344 73.814 81.5283 73.9005 82.6146 73.9683C82.6371 73.9683 82.6522 73.9683 82.6747 73.9683C94.331 74.7732 106.168 74.6792 117.858 73.6937C118.17 73.6598 118.467 73.8404 118.598 74.1262L118.76 74.4986C118.888 74.7883 118.884 75.2547 118.655 75.4729C118.542 75.5782 118.392 75.6572 118.237 75.676C108.833 77.0076 99.289 77.6847 89.8316 77.6847L89.8354 77.6923ZM74.6533 74.8861C74.6721 74.8861 74.6909 74.8936 74.7059 74.8974C79.2466 75.9581 84.0994 76.15 87.8169 76.1951C91.4592 76.2327 95.1053 76.1688 98.7627 76.0033C93.3612 76.0484 87.9597 75.8302 82.5996 75.4616C82.5808 75.4616 82.5657 75.4616 82.5469 75.4616C81.4456 75.3939 80.333 75.3036 79.2316 75.2171C76.5891 74.9989 73.7662 74.683 71.1463 73.8705C72.2476 74.2617 73.4166 74.6002 74.6533 74.8899V74.8861ZM73.6835 15.5316C67.0491 15.5316 61.0123 18.571 58.118 23.4348C55.5958 27.6628 55.4342 32.9065 55.2913 37.5371C55.1147 43.2999 54.9342 49.1153 55.983 54.6825C56.7385 58.7413 58.5353 64.4815 62.8317 68.781C63.0534 68.9954 63.2827 69.2173 63.527 69.4393C64.6209 70.4248 65.8237 71.2937 67.1544 72.0536C66.3236 71.5194 65.5493 70.895 64.8426 70.154C64.666 69.9621 64.4968 69.7703 64.3277 69.5672C63.0797 68.0061 62.6324 66.3435 63.0572 64.8689C63.4707 63.3756 64.7449 62.1681 66.8461 61.2916C70.3344 59.8246 74.1496 59.6177 77.4198 59.6064C87.3658 59.565 97.1915 61.3292 106.559 64.8463C106.581 64.8539 106.604 64.8576 106.623 64.8652C110.152 66.1855 113.614 67.7654 116.922 69.5597C117.061 67.8218 117.268 66.099 117.542 64.4326C117.606 63.9962 117.685 63.5486 117.764 63.101C118.125 61.0434 118.655 58.9218 120.068 57.3683C120.872 56.4768 121.944 55.7997 123.195 55.3821C116.268 41.7802 105.796 30.3261 92.8651 22.2198C86.0126 17.924 80.2164 15.81 74.6307 15.558C74.3188 15.5429 74.003 15.5392 73.691 15.5392L73.6835 15.5316Z" fill="#282828"/>
<path d="M132.683 80.7233C129.541 80.7233 126.391 80.2569 123.41 79.3428C123.339 79.3277 123.218 79.2901 123.094 79.245C121.264 78.662 118.666 77.6049 117.482 75.2727L117.415 75.1411L117.242 74.7499C116.742 73.3806 116.757 71.9776 116.832 70.7776C116.832 70.6761 116.843 70.5105 116.858 70.3601C116.994 68.3514 117.223 66.3502 117.535 64.4242C117.599 63.9879 117.678 63.5403 117.757 63.0926C118.118 61.035 118.648 58.9135 120.061 57.3599C121.053 56.2578 122.452 55.4829 124.102 55.1218C124.684 54.9826 125.32 54.8961 125.977 54.8735C126.177 54.866 126.267 54.866 126.372 54.881C126.556 54.9036 126.714 54.9901 126.831 55.118C127.255 55.0616 127.676 55.0127 128.101 54.9713C130.225 54.7682 132.394 54.7832 134.551 55.0127C134.98 55.0578 135.405 55.1143 135.845 55.197C137.739 55.528 139.103 56.1186 140.137 57.0553C141.844 58.5862 142.471 60.9372 142.825 62.8105C142.911 63.2882 142.986 63.7509 143.054 64.2249C143.362 66.2599 143.49 68.3514 143.43 70.4353C143.441 70.5256 143.441 70.6196 143.43 70.7099C143.415 71.4585 143.37 72.1656 143.302 72.8916C143.246 73.4897 143.174 74.0916 143.062 74.6822C143.02 74.9079 142.979 75.1148 142.919 75.3066C142.58 76.7172 141.949 77.8795 141.062 78.6996C140.844 78.9027 140.588 79.0983 140.31 79.2676C140.288 79.2826 140.265 79.2939 140.242 79.3052C138.983 80.1102 137.457 80.3772 136.126 80.5352C134.987 80.6631 133.834 80.7233 132.683 80.7233ZM125.665 56.3819C125.248 56.4158 124.831 56.4797 124.436 56.5738C123.079 56.8747 121.952 57.4916 121.166 58.3605C119.952 59.6997 119.527 61.6407 119.227 63.3522C119.151 63.7885 119.076 64.2211 119.009 64.6575C118.7 66.542 118.479 68.4981 118.343 70.4767C118.332 70.6008 118.321 70.7174 118.321 70.8228C118.253 71.9174 118.238 73.1286 118.621 74.1819L118.76 74.5016C119.516 75.995 121.027 77.0219 123.564 77.8306C123.651 77.8607 123.722 77.8871 123.79 77.9021C127.725 79.1096 131.909 79.5008 135.957 79.0532C137.138 78.914 138.483 78.6807 139.502 78.0112C139.536 77.9886 139.566 77.9698 139.6 77.9548C139.765 77.8494 139.915 77.7328 140.047 77.6087C140.731 76.9767 141.201 76.0928 141.487 74.9041C141.543 74.7198 141.569 74.5768 141.596 74.4339C141.705 73.8546 141.768 73.2941 141.821 72.7487C141.885 72.0415 141.93 71.3456 141.941 70.6347C141.941 70.6121 141.941 70.5858 141.945 70.5594C141.945 70.5256 141.941 70.488 141.941 70.4541C141.998 68.4379 141.878 66.4104 141.581 64.4318C141.517 63.9691 141.445 63.529 141.363 63.0776C141.036 61.336 140.513 59.3837 139.141 58.1574C138.322 57.4164 137.19 56.9386 135.581 56.6603C135.175 56.5851 134.785 56.5324 134.394 56.491C132.337 56.2766 130.266 56.2616 128.244 56.4534C127.628 56.5136 127.011 56.5851 126.395 56.6904C126.184 56.7242 125.959 56.664 125.793 56.5249C125.744 56.4835 125.703 56.4384 125.665 56.3857V56.3819Z" fill="#282828"/>
<path d="M98.4293 76.0021C93.133 76.0021 87.848 75.8215 82.5969 75.4604C82.5781 75.4604 82.5631 75.4604 82.5443 75.4604C81.4429 75.3927 80.3303 75.3024 79.2289 75.2159C74.2071 74.8021 68.5349 74.0385 64.8362 70.1528C64.6595 69.9609 64.4904 69.7691 64.3212 69.566C63.0733 68.0049 62.626 66.3423 63.0507 64.8677C63.4642 63.3743 64.7385 62.1669 66.8397 61.2904C70.3279 59.8234 74.1432 59.6165 77.4134 59.6052C87.3594 59.5638 97.1851 61.328 106.552 64.8451C106.575 64.8526 106.597 64.8564 106.616 64.8639C110.428 66.2934 114.16 68.0199 117.709 69.9985C117.791 70.0437 117.863 70.1039 117.919 70.1753C117.979 70.2092 118.036 70.2468 118.088 70.2957C118.246 70.4462 118.329 70.6606 118.314 70.8788C118.246 71.9245 118.231 73.1357 118.614 74.1927C118.693 74.4109 118.667 74.6517 118.543 74.8473C118.419 75.0429 118.208 75.167 117.979 75.1858C111.488 75.7312 104.955 76.0058 98.4293 76.0058V76.0021ZM82.6232 73.9746C82.6232 73.9746 82.657 73.9746 82.6758 73.9746C94.0314 74.757 105.564 74.6855 116.964 73.7714C116.795 72.9401 116.776 72.105 116.806 71.3264C116.754 71.2662 116.712 71.1947 116.682 71.1195C113.307 69.2575 109.766 67.6287 106.154 66.2708C106.131 66.2633 106.109 66.2595 106.09 66.252C96.9746 62.8251 87.4346 61.0873 77.7329 61.0873C77.6314 61.0873 77.5299 61.0873 77.4247 61.0873C74.2973 61.0986 70.6662 61.2904 67.4186 62.6559C65.7609 63.3518 64.7723 64.2282 64.4866 65.2664C64.0995 66.6169 64.9415 67.9447 65.479 68.618C65.6218 68.7911 65.7759 68.9641 65.9263 69.1258C69.2604 72.6241 74.6055 73.3351 79.3567 73.7263C80.4393 73.8166 81.5331 73.9031 82.6194 73.9708H82.627L82.6232 73.9746Z" fill="#282828"/>
<path d="M171.133 77.9208C161.477 77.9208 151.715 77.2136 142.103 75.8143C141.885 75.7842 141.694 75.6563 141.581 75.472C141.464 75.2877 141.434 75.0582 141.502 74.8513C141.547 74.7197 141.569 74.5768 141.596 74.4338C141.663 74.0539 142.006 73.753 142.396 73.7981C154.729 74.889 167.261 74.983 179.658 74.0765L180.542 74.0163C185.289 73.6514 190.642 72.9705 194.002 69.4835C194.235 69.2428 194.457 68.9757 194.652 68.6974C194.671 68.6673 194.697 68.6372 194.724 68.6108C195.164 67.9714 195.78 66.8015 195.46 65.6467C195.179 64.6047 194.198 63.7207 192.54 63.0136C189.303 61.6293 185.665 61.4149 182.534 61.3885C173.046 61.3171 163.627 62.8894 154.586 66.1169C150.651 67.5237 146.858 69.2202 143.31 71.1687C143.171 71.244 143.013 71.2741 142.855 71.2552L142.596 71.2214C142.216 71.1725 141.938 70.8452 141.949 70.4615C142.006 68.4453 141.885 66.4178 141.588 64.4392C141.524 63.9765 141.453 63.5364 141.37 63.085C141.043 61.3434 140.521 59.3911 139.149 58.1648C138.329 57.4238 137.198 56.9461 135.589 56.6677C135.356 56.6263 135.157 56.4796 135.052 56.269C134.946 56.0583 134.946 55.8101 135.052 55.5994C142.182 41.4069 153.072 29.5014 166.547 21.1619C169.502 19.3413 172.174 17.9532 174.708 16.9113C178.508 15.3427 182.053 14.5151 185.545 14.3797C193.111 14.1051 200.069 17.5131 203.343 23.0878C206.015 27.6243 206.166 33.0937 206.297 37.9198C206.44 43.6751 206.587 49.6185 205.482 55.385C204.324 61.3246 201.896 66.3388 198.464 69.886C198.118 70.2434 197.761 70.5857 197.393 70.9167C194.566 73.4445 191.1 75.22 186.804 76.3485C186.785 76.356 186.762 76.3598 186.74 76.3635C181.688 77.6989 176.249 77.8983 172.073 77.9246C171.761 77.9246 171.453 77.9246 171.141 77.9246L171.133 77.9208ZM161.086 76.1792C164.747 76.3635 168.385 76.4463 172.058 76.4312C176.159 76.4049 181.496 76.2093 186.405 74.904C186.428 74.8965 186.45 74.8927 186.469 74.889C187.27 74.6783 188.04 74.4413 188.777 74.1818C186.142 74.9905 183.301 75.2952 180.643 75.4983L179.767 75.5585C173.558 76.0137 167.322 76.2206 161.082 76.1754L161.086 76.1792ZM195.803 69.634C195.581 69.9424 195.336 70.2396 195.066 70.5142C194.348 71.259 193.555 71.891 192.713 72.4213C194.058 71.6653 195.276 70.7963 196.393 69.8033C196.735 69.4948 197.066 69.1751 197.389 68.8403C201.471 64.6235 203.245 59.0375 204.012 55.0954C205.087 49.4906 204.94 43.6262 204.801 37.9575C204.673 33.3081 204.531 28.0419 202.054 23.8364C199.054 18.7281 192.638 15.6135 185.593 15.8618C182.282 15.9897 178.903 16.7796 175.268 18.2842C172.806 19.2923 170.208 20.6465 167.322 22.422C154.357 30.4418 143.825 41.8319 136.815 55.3963C138.22 55.7461 139.292 56.284 140.141 57.0514C141.848 58.5824 142.475 60.9334 142.829 62.8067C142.915 63.2844 142.99 63.7471 143.058 64.221C143.314 65.9175 143.445 67.6554 143.449 69.3933C146.821 67.6027 150.392 66.0266 154.087 64.71C163.292 61.4224 172.881 59.8049 182.549 59.8952C185.826 59.9253 189.646 60.1547 193.126 61.6406C195.22 62.5321 196.49 63.7471 196.896 65.248C197.269 66.5758 196.908 68.1068 195.881 69.5512C195.863 69.5813 195.836 69.6077 195.814 69.634H195.803Z" fill="#282828"/>
<path d="M162.729 76.183C155.884 76.183 149.043 75.882 142.262 75.2839C142.051 75.2651 141.859 75.1598 141.732 74.9905C141.604 74.8212 141.555 74.6106 141.596 74.4C141.702 73.8545 141.762 73.294 141.814 72.7486C141.878 72.0414 141.923 71.3455 141.935 70.6346C141.938 70.3562 142.1 70.0967 142.344 69.9725L142.608 69.8409C146.197 67.8736 150.065 66.1395 154.072 64.71C163.278 61.4224 172.866 59.8049 182.534 59.8952C185.812 59.9253 189.631 60.1547 193.112 61.6406C195.205 62.5321 196.476 63.7471 196.882 65.2479C197.254 66.5758 196.893 68.1068 195.867 69.5512C195.848 69.5813 195.822 69.6077 195.799 69.634C195.578 69.9424 195.333 70.2396 195.063 70.5142C191.341 74.3774 185.669 75.1109 180.644 75.4983L179.768 75.5623C174.107 75.9761 168.412 76.183 162.725 76.183H162.729ZM143.186 73.8696C155.26 74.8965 167.525 74.9679 179.651 74.0764L180.535 74.0125C185.282 73.6476 190.635 72.9705 193.995 69.4798C194.228 69.239 194.45 68.9719 194.642 68.6936C194.664 68.6635 194.687 68.6334 194.713 68.6071C195.153 67.9676 195.769 66.7977 195.45 65.6429C195.168 64.601 194.187 63.717 192.529 63.0098C189.293 61.6255 185.654 61.4111 182.523 61.3848C173.036 61.3133 163.616 62.8857 154.576 66.1131C150.685 67.5012 146.93 69.1788 143.412 71.101C143.389 71.7066 143.352 72.2934 143.295 72.8915C143.265 73.2188 143.228 73.5461 143.186 73.8696Z" fill="#282828"/>
<path d="M135.707 56.6717C135.662 56.6717 135.617 56.6717 135.571 56.6604C135.173 56.5852 134.782 56.5363 134.391 56.4911C132.335 56.2767 130.264 56.2617 128.242 56.4535C128.185 56.4573 128.133 56.4535 128.08 56.4535C127.452 56.3745 126.873 56.352 126.302 56.367C126.103 56.3896 125.904 56.2955 125.757 56.1526C125.61 56.0096 125.532 55.814 125.535 55.6109C125.558 54.0574 125.716 52.391 126.043 50.2092C128.046 36.8141 132.82 23.5883 139.845 11.9612C142.608 7.38705 146.547 1.93648 152.539 0.397982C158.042 -1.01262 164.586 1.39481 169.21 6.53693C171.642 9.24153 173.63 12.5593 175.664 17.2989C175.743 17.4832 175.743 17.6901 175.667 17.8744C175.592 18.0587 175.446 18.2055 175.261 18.2807C172.803 19.2888 170.202 20.643 167.315 22.4185C154.076 30.6075 143.375 42.3099 136.368 56.2579C136.241 56.5137 135.981 56.6679 135.703 56.6679L135.707 56.6717ZM131.113 54.8285C132.256 54.8285 133.406 54.8887 134.553 55.009C134.797 55.0354 135.045 55.0655 135.293 55.1031C142.428 41.1249 153.219 29.3962 166.541 21.1545C169.228 19.4994 171.675 18.2017 174.002 17.2011C172.142 12.9806 170.307 9.97881 168.108 7.53376C163.853 2.79789 157.892 0.563493 152.915 1.83868C147.446 3.24552 143.743 8.39517 141.127 12.7285C134.203 24.1864 129.501 37.2204 127.524 50.4274C127.261 52.1878 127.11 53.5947 127.058 54.8736C127.426 54.8849 127.802 54.915 128.193 54.9601C129.159 54.8699 130.136 54.8247 131.121 54.8247L131.113 54.8285Z" fill="#282828"/>
<path d="M141.925 62.0016C141.741 62.0016 141.556 61.9339 141.413 61.7985C141.113 61.5163 141.102 61.0461 141.383 60.7452C150.495 51.0854 162.602 43.9647 175.469 40.6958C175.867 40.598 176.273 40.835 176.371 41.2337C176.472 41.6325 176.232 42.0387 175.833 42.1403C163.238 45.3377 151.386 52.3117 142.462 61.7684C142.316 61.9226 142.12 62.0016 141.921 62.0016H141.925Z" fill="#282828"/>
<path d="M118.285 61.047C118.101 61.047 117.913 60.9755 117.766 60.8363C109.681 53.0009 99.6449 47.3886 88.7404 44.6012C88.342 44.4997 88.1014 44.0934 88.2029 43.6947C88.3044 43.2959 88.7028 43.059 89.1088 43.1568C100.261 46.0043 110.531 51.7483 118.8 59.7643C119.093 60.0502 119.105 60.5204 118.819 60.8175C118.672 60.968 118.481 61.0432 118.285 61.0432V61.047Z" fill="#282828"/>
<path d="M66.4027 71.2479C66.1997 71.2479 65.9967 71.1651 65.8501 70.9996C65.5757 70.6949 65.6021 70.2247 65.9065 69.9501L77.1268 59.8653C77.4312 59.5907 77.9011 59.6132 78.1755 59.9217C78.4499 60.2264 78.4236 60.6966 78.1191 60.9712L66.8989 71.0561C66.756 71.1839 66.5794 71.2479 66.4027 71.2479Z" fill="#282828"/>
<path d="M74.6165 73.6784C74.4173 73.6784 74.2143 73.5994 74.0677 73.4377C73.7895 73.1367 73.8083 72.6628 74.1128 72.3844L86.3893 61.077C86.6938 60.7987 87.1636 60.8175 87.4418 61.1184C87.7199 61.4231 87.7011 61.8933 87.3967 62.1716L75.1202 73.479C74.9773 73.6107 74.7969 73.6746 74.6165 73.6746V73.6784Z" fill="#282828"/>
<path d="M85.9102 75.0739C85.7185 75.0739 85.5306 75.0025 85.384 74.8558C85.0908 74.5661 85.0908 74.0959 85.384 73.8025L96.6606 62.4613C96.95 62.1679 97.4236 62.1679 97.7131 62.4613C98.0063 62.7509 98.0063 63.2211 97.7131 63.5145L86.4364 74.8558C86.2898 75.0025 86.0981 75.0739 85.9102 75.0739Z" fill="#282828"/>
<path d="M96.6432 75.514C96.4552 75.514 96.2673 75.4426 96.1207 75.2996C95.8275 75.01 95.8237 74.5398 96.1132 74.2464L104.886 65.3314C105.176 65.0379 105.649 65.038 105.939 65.3238C106.232 65.6135 106.236 66.0837 105.946 66.3771L97.1732 75.2921C97.0266 75.4388 96.8349 75.514 96.6432 75.514Z" fill="#282828"/>
<path d="M106.532 75.0053C106.329 75.0053 106.126 74.9225 105.979 74.757C105.705 74.4523 105.731 73.9821 106.035 73.7075L112.332 68.0651C112.636 67.7905 113.106 67.8169 113.38 68.1216C113.655 68.4262 113.628 68.9002 113.324 69.171L107.028 74.8134C106.885 74.9413 106.708 75.0015 106.532 75.0015V75.0053Z" fill="#282828"/>
<path d="M147.358 76.1569C147.162 76.1569 146.967 76.0817 146.82 75.9274C146.535 75.6303 146.546 75.1601 146.847 74.8742L159.082 63.1906C159.379 62.9085 159.849 62.9198 160.13 63.217C160.416 63.5141 160.405 63.9843 160.104 64.2702L147.869 75.9538C147.726 76.093 147.542 76.1607 147.358 76.1607V76.1569Z" fill="#282828"/>
<path d="M157.882 75.9459C157.698 75.9459 157.514 75.8782 157.371 75.7428C157.074 75.4606 157.063 74.9905 157.345 74.6895L170.125 61.2267C170.407 60.9295 170.88 60.9183 171.177 61.2004C171.474 61.4825 171.486 61.9527 171.204 62.2536L158.424 75.7164C158.277 75.8707 158.082 75.9497 157.886 75.9497L157.882 75.9459Z" fill="#282828"/>
<path d="M171.071 75.6791C170.906 75.6791 170.741 75.6265 170.601 75.5099C170.282 75.2503 170.237 74.7801 170.496 74.4641L182.434 59.8239C182.694 59.5042 183.164 59.4553 183.483 59.7186C183.803 59.9782 183.848 60.4484 183.588 60.7643L171.654 75.4045C171.507 75.5851 171.293 75.6791 171.079 75.6791H171.071Z" fill="#282828"/>
<path d="M183.927 75.6C183.773 75.6 183.619 75.5549 183.488 75.4571C183.157 75.2126 183.085 74.7499 183.326 74.4151L192.358 62.0883C192.603 61.7573 193.065 61.6858 193.4 61.9266C193.73 62.1711 193.802 62.6338 193.561 62.9685L184.529 75.2991C184.382 75.4985 184.157 75.6038 183.927 75.6038V75.6Z" fill="#282828"/>
<path d="M124.897 304.998L77.0469 306.905L101.495 210.77L105.4 212.774L147.706 213.839L123.698 304.494C123.698 304.494 124.1 304.697 124.901 304.998H124.897Z" fill="white"/>
<path d="M101.502 210.77L77.0538 306.905L44.5508 283.467L67.4762 193.327L101.502 210.77Z" fill="white"/>
<path d="M198.532 215.106L176.193 302.944L155.32 303.775L178.001 214.595L198.532 215.106Z" fill="white"/>
<path d="M40.7733 179.646L19.047 265.076L1.31641 252.29L22.2082 170.137L40.7733 179.646Z" fill="white"/>
<path d="M67.4725 193.327L44.5508 283.467C44.5508 283.467 38.6795 282.794 29.1056 275.206C19.5205 267.627 19.0469 265.088 19.0469 265.088L40.7732 179.646L67.4725 193.327Z" fill="#30D065"/>
<path d="M178.004 214.596L155.218 304.205C155.218 304.205 154.522 306.947 141.813 307.241C132.788 307.451 127.206 305.853 124.917 305.003H124.906C124.105 304.698 123.703 304.495 123.703 304.495L147.711 213.84L178.008 214.596H178.004Z" fill="#30D065"/>
<path d="M77.0485 307.65C76.823 307.65 76.6125 307.549 76.4697 307.376C76.3231 307.191 76.2704 306.951 76.3268 306.725L100.775 210.589C100.831 210.371 100.981 210.187 101.188 210.097C101.391 210.003 101.628 210.006 101.835 210.112L105.59 212.038L147.723 213.098C147.948 213.106 148.163 213.215 148.298 213.396C148.433 213.576 148.478 213.813 148.422 214.031L124.576 304.073C124.737 304.141 124.929 304.22 125.158 304.306C125.489 304.43 125.685 304.773 125.628 305.123C125.572 305.472 125.279 305.732 124.925 305.747L77.0711 307.654C77.0711 307.654 77.0523 307.654 77.041 307.654L77.0485 307.65ZM101.985 211.857L78.0108 306.119L122.967 304.325C122.967 304.325 122.971 304.306 122.974 304.295L146.742 214.554L105.379 213.516C105.266 213.516 105.157 213.486 105.06 213.433L101.985 211.857Z" fill="#282828"/>
<path d="M77.0486 307.65C76.8945 307.65 76.7404 307.601 76.6126 307.511L44.1134 284.072C43.8653 283.892 43.7525 283.58 43.8277 283.286L66.7493 193.147C66.8057 192.929 66.956 192.744 67.1628 192.654C67.3658 192.56 67.6063 192.567 67.8093 192.669L101.835 210.112C102.143 210.27 102.301 210.619 102.218 210.958L77.7703 307.093C77.7102 307.33 77.5335 307.526 77.3042 307.609C77.2215 307.639 77.1351 307.654 77.0486 307.654V307.65ZM45.3914 283.158L76.5938 305.66L100.628 211.161L67.9597 194.414L45.3914 283.158Z" fill="#282828"/>
<path d="M155.322 304.521C155.096 304.521 154.886 304.419 154.743 304.246C154.597 304.062 154.544 303.821 154.6 303.595L177.278 214.415C177.364 214.08 177.616 213.854 178.018 213.854L198.549 214.366C198.775 214.374 198.985 214.479 199.124 214.659C199.259 214.84 199.308 215.073 199.252 215.291L176.913 303.129C176.83 303.449 176.552 303.674 176.221 303.689L155.348 304.521C155.348 304.521 155.329 304.521 155.318 304.521H155.322ZM178.574 215.352L156.288 302.99L175.612 302.218L197.583 215.822L178.578 215.348L178.574 215.352Z" fill="#282828"/>
<path d="M19.0456 265.82C18.8915 265.82 18.7374 265.771 18.6096 265.681L0.878973 252.895C0.630887 252.715 0.518129 252.403 0.593306 252.109L21.4851 169.952C21.5415 169.734 21.6919 169.549 21.8986 169.459C22.1016 169.365 22.3421 169.369 22.5451 169.474L41.1102 178.987C41.4184 179.145 41.5763 179.495 41.4936 179.834L19.7673 265.263C19.7072 265.5 19.5305 265.696 19.3012 265.779C19.2185 265.809 19.1321 265.824 19.0456 265.824V265.82ZM2.16075 251.985L18.5946 263.834L39.9036 180.04L22.6955 171.223L2.15699 251.985H2.16075Z" fill="#282828"/>
<path d="M44.547 284.212C44.5207 284.212 44.4907 284.212 44.4643 284.208C44.2163 284.178 38.2697 283.422 28.6432 275.789C19.1145 268.255 18.3702 265.509 18.3176 265.223C18.2988 265.118 18.2988 265.009 18.3289 264.903L40.0552 179.462C40.1116 179.244 40.2619 179.06 40.4687 178.969C40.6717 178.875 40.9122 178.883 41.1152 178.984L67.8145 192.665C68.1227 192.823 68.2806 193.173 68.1979 193.512L45.2763 283.651C45.1936 283.986 44.8929 284.212 44.5546 284.212H44.547ZM19.8212 265.061C20.0655 265.614 21.5615 268.296 29.5642 274.623C37.0556 280.559 42.2616 282.192 44.002 282.602L66.6041 193.719L41.2656 180.734L19.8212 265.058V265.061Z" fill="#282828"/>
<path d="M140.186 308C132.123 308 127.041 306.582 124.655 305.694C123.794 305.367 123.365 305.152 123.365 305.152C123.053 304.994 122.892 304.637 122.982 304.299L146.99 213.644C147.076 213.317 147.373 213.091 147.708 213.091H147.727L178.023 213.847C178.249 213.854 178.459 213.96 178.598 214.14C178.734 214.321 178.782 214.554 178.726 214.772L155.94 304.381C155.744 305.152 154.147 307.692 141.833 307.977C141.273 307.989 140.724 307.996 140.19 307.996L140.186 308ZM124.583 304.069C124.745 304.137 124.936 304.216 125.166 304.302C127.139 305.032 132.702 306.699 141.795 306.495C153.23 306.232 154.511 303.968 154.523 303.945L177.053 215.318L148.275 214.599L124.583 304.073V304.069Z" fill="#282828"/>
<path d="M270.586 117.549L321.985 134.52L284.425 161.659L300.785 168.961L249.298 207.801L271.406 173.054L249.198 161.264L270.586 117.549Z" fill="#282828"/>
</svg>
