<svg width="281" height="196" viewBox="0 0 281 196" fill="none" xmlns="http://www.w3.org/2000/svg">
<path d="M55.8638 61.4141L53.9998 64.1469L70.0676 77.4615L71.9336 74.7286L55.8638 61.4141Z" fill="#969EFF"/>
<path d="M75.9001 85.1413L74.0341 87.8741L89.009 83.4946L90.875 80.7637L75.9001 85.1413Z" fill="#969EFF"/>
<path d="M57.9891 80.416L56.1251 83.1469L86.1965 108.577L88.0625 105.844L57.9891 80.416Z" fill="#969EFF"/>
<path d="M57.9879 80.4159L88.0613 105.844L75.9001 85.1412L90.875 80.7636L81.8492 56L55.8649 61.4129L71.9346 74.7275L57.9879 80.4159Z" fill="#FAF1E8"/>
<path d="M51.5794 154.114C50.5128 154.211 49.5688 153.435 49.4709 152.382C49.373 151.329 50.1582 150.397 51.2248 150.3L79.2284 147.762C80.295 147.665 81.239 148.44 81.3369 149.494C81.4348 150.547 80.6496 151.479 79.583 151.576L51.5794 154.114Z" fill="#FAF1E8"/>
<path d="M45.5061 186.01C44.5237 186.432 43.3813 185.987 42.9545 185.017C42.5276 184.047 42.9779 182.919 43.9602 182.498L81.423 166.423C82.4053 166.001 83.5477 166.446 83.9745 167.416C84.4014 168.386 83.9511 169.514 82.9688 169.935L45.5061 186.01Z" fill="#FAF1E8"/>
<path d="M90.7826 195.647C89.9089 196.259 88.6984 196.055 88.0789 195.192C87.4594 194.33 87.6656 193.134 88.5393 192.523L104.939 181.041C105.813 180.429 107.023 180.633 107.643 181.496C108.262 182.359 108.056 183.554 107.182 184.166L90.7826 195.647Z" fill="#FAF1E8"/>
<path d="M19.2529 97L18.6593 107.359C18.5758 108.816 19.3382 110.194 20.6253 110.911L29.776 116.011L19.285 115.425C17.8094 115.343 16.4146 116.096 15.6881 117.366L10.5231 126.402L11.1167 116.043C11.2002 114.586 10.4379 113.209 9.15079 112.491L0 107.391L10.491 107.977C11.9666 108.06 13.3614 107.307 14.0879 106.036L19.2529 97Z" fill="#FAF1E8"/>
<path d="M182.951 25.0255C190.608 7.33183 201.374 2.08926 205.8 1.67969L211.358 2.90841L211.975 8.74487C211.152 12.0215 209.382 18.8819 208.888 20.1106C208.27 21.6465 188.509 33.6266 187.582 33.9338C186.841 34.1795 179.451 31.7835 175.849 30.5548L165.042 29.9404C158.969 27.8925 146.824 22.0766 146.824 15.1957C146.824 8.31481 154.235 7.20896 157.94 7.51614L167.203 12.431L179.554 27.4829L182.951 25.0255Z" fill="#969EFF"/>
<path d="M181.406 25.3329C185.111 23.8584 186.655 25.9472 186.964 27.176C218.088 6.28755 211.254 1.47513 203.946 1.67996C215.309 -0.531744 221.855 4.23981 223.708 6.90205C231.365 18.2063 217.018 26.5617 208.887 29.3263H172.76L173.995 26.8689C160.656 7.70072 151.558 8.02836 148.676 10.5882C154.604 1.74136 160.203 -0.0608056 162.262 0.143964C172.884 -0.101781 179.45 16.8342 181.406 25.3329Z" fill="#FAF1E8"/>
<path d="M232.662 62.7933C230.501 60.8478 226.054 56.834 225.56 56.3425L220.929 41.9049L202.711 38.2188L135.09 44.9767L169.364 68.6297L232.662 62.7933Z" fill="#525AAE"/>
<path d="M171.527 62.1794L227.106 57.5716L207.344 41.291L145.898 44.9772L171.527 62.1794Z" fill="#282828"/>
<mask id="mask0_4479_6187" style="mask-type:alpha" maskUnits="userSpaceOnUse" x="135" y="26" width="78" height="19">
<path d="M207.034 42.2126L212.592 26.8535L141.574 30.2325L135.398 44.9772L207.034 42.2126Z" fill="#969EFF"/>
</mask>
<g mask="url(#mask0_4479_6187)">
<path d="M207.034 42.2126L212.592 26.8535L141.574 30.2325L135.398 44.9772L207.034 42.2126Z" fill="#969EFF"/>
<path d="M176.463 44.0551L184.491 27.1602H167.818L159.172 44.0551H176.463Z" fill="#FAF1E8"/>
</g>
<mask id="mask1_4479_6187" style="mask-type:alpha" maskUnits="userSpaceOnUse" x="207" y="26" width="30" height="37">
<path d="M212.593 26.5469L234.263 43.0483C236.269 44.5757 237.106 47.1943 236.358 49.602L232.355 62.4871L207.035 42.2131L212.593 26.5469Z" fill="#727AD0"/>
</mask>
<g mask="url(#mask1_4479_6187)">
<path d="M212.593 26.8535L234.215 43.0529C236.247 44.575 237.101 47.2108 236.347 49.635L232.355 62.4866L207.035 42.2126L212.593 26.8535Z" fill="#727AD0"/>
<path d="M215.082 56.3148L223.84 32.6069L232.644 31.7978L223.667 57.3358L215.082 56.3148Z" fill="#DFCDBB"/>
</g>
<path d="M176.731 105.403L215.311 124.045L156.063 118.562L116.105 99.9199L176.731 105.403Z" fill="#282828"/>
<path d="M147.492 75.7935C148.594 71.4071 152.728 69.7622 154.657 69.488L159.066 65.3758L152.727 62.0859L140.051 64.005L136.469 76.616L147.492 85.663C147.033 84.2008 146.39 80.1799 147.492 75.7935Z" fill="#969EFF"/>
<path d="M170.362 76.0681C170.362 87.4238 161.356 96.6294 150.246 96.6294C139.135 96.6294 130.129 87.4238 130.129 76.0681C130.129 71.6385 145.839 91.6465 154.104 83.196C164.024 73.0524 144.847 57.4258 151.624 57.4258C162.734 57.4258 170.362 64.7124 170.362 76.0681Z" fill="#969EFF"/>
<path d="M134.292 63.6953C141.128 54.7812 152.892 52.2765 160.566 58.1016C168.241 63.9266 168.919 75.875 162.083 84.7891C155.247 93.7031 143.484 96.2076 135.81 90.3828C128.135 84.5578 127.456 72.6094 134.292 63.6953ZM150.847 65.7461C147.817 64.6364 144.004 67.4014 142.331 71.9219C140.658 76.4426 141.758 81.0073 144.788 82.1172C147.818 83.2269 151.631 80.462 153.304 75.9414C154.977 71.4207 153.877 66.856 150.847 65.7461Z" fill="white"/>
<path d="M203.432 66.1993L199.574 60.168L194.889 62.3612L170.639 89.228C166.046 95.2593 156.64 107.596 155.758 108.693C154.876 109.789 141.612 117.191 135.09 120.755L141.704 124.868L153.829 125.69L203.432 66.1993Z" fill="#969EFF"/>
<path d="M186.344 59.8945H199.847L148.315 121.853L135.363 120.756L186.344 59.8945Z" fill="white"/>
<path d="M187.176 108.143C188.278 103.757 192.412 102.112 194.341 101.838L198.749 97.7254L192.411 94.4355L179.735 96.3546L176.152 108.966L187.176 118.013C186.716 116.55 186.073 112.53 187.176 108.143Z" fill="#969EFF"/>
<path d="M210.046 108.418C210.046 119.773 201.039 128.979 189.929 128.979C178.819 128.979 169.812 119.773 169.812 108.418C169.812 103.988 185.523 123.996 193.787 115.546C203.708 105.402 184.531 89.7754 191.307 89.7754C202.417 89.7754 210.046 97.062 210.046 108.418Z" fill="#969EFF"/>
<path d="M173.976 96.0449C180.812 87.1308 192.576 84.6261 200.25 90.4512C207.924 96.2763 208.603 108.225 201.767 117.139C194.93 126.053 183.167 128.557 175.493 122.732C167.819 116.907 167.139 104.959 173.976 96.0449ZM190.53 98.0957C187.5 96.986 183.688 99.7509 182.015 104.271C180.342 108.792 181.442 113.357 184.472 114.467C187.502 115.576 191.314 112.812 192.987 108.291C194.66 103.77 193.56 99.2056 190.53 98.0957Z" fill="white"/>
<mask id="mask2_4479_6187" style="mask-type:alpha" maskUnits="userSpaceOnUse" x="101" y="100" width="56" height="82">
<path d="M116.107 100.193L156.34 118.562L140.357 181.342L103.057 158.766C101.807 158.01 101.206 156.526 101.578 155.118L116.107 100.193Z" fill="#969EFF"/>
</mask>
<g mask="url(#mask2_4479_6187)">
<path d="M116.107 100.193L156.34 118.562L140.357 181.342L103.057 158.766C101.807 158.01 101.206 156.526 101.578 155.118L116.107 100.193Z" fill="#969EFF"/>
<path d="M111.941 165.716L128.2 105.402L140.601 107.87L123.24 173.118L111.941 165.716Z" fill="#FAF1E8"/>
</g>
<mask id="mask3_4479_6187" style="mask-type:alpha" maskUnits="userSpaceOnUse" x="139" y="118" width="77" height="65">
<path d="M155.788 118.289L215.311 123.772L202.946 175.875C201.962 180.02 198.207 182.907 193.948 182.793L139.805 181.344L155.788 118.289Z" fill="#727AD0"/>
</mask>
<g mask="url(#mask3_4479_6187)">
<path d="M155.788 118.289L215.311 123.772L202.181 179.098C201.642 181.366 199.603 182.945 197.29 182.883L139.805 181.344L155.788 118.289Z" fill="#727AD0"/>
<path d="M163.746 183.263L179.454 119.66H195.712L179.454 183.263H163.746Z" fill="#DFCDBB"/>
</g>
<path d="M248.143 65.1301L276.471 74.4351L255.77 89.3155L264.787 93.3191L236.41 114.615L248.595 95.5633L236.355 89.0992L248.143 65.1301Z" fill="#282828"/>
</svg>
