<svg width="271" height="206" viewBox="0 0 271 206" fill="none" xmlns="http://www.w3.org/2000/svg">
<path d="M75.8851 158.273C75.0291 158.352 74.2714 157.721 74.1929 156.865C74.1143 156.009 74.7445 155.252 75.6005 155.173L98.0758 153.11C98.9318 153.031 99.6894 153.661 99.768 154.517C99.8466 155.373 99.2164 156.131 98.3603 156.21L75.8851 158.273Z" fill="white"/>
<path d="M71.0107 184.198C70.2223 184.54 69.3055 184.179 68.9629 183.39C68.6203 182.602 68.9817 181.685 69.7701 181.342L99.8371 168.277C100.625 167.935 101.542 168.296 101.885 169.084C102.228 169.873 101.866 170.79 101.078 171.132L71.0107 184.198Z" fill="white"/>
<path d="M107.349 192.03C106.648 192.527 105.676 192.362 105.179 191.661C104.682 190.959 104.847 189.988 105.549 189.491L118.711 180.159C119.412 179.662 120.383 179.827 120.881 180.528C121.378 181.23 121.212 182.201 120.511 182.698L107.349 192.03Z" fill="white"/>
<path d="M49.9404 111.852L49.4639 120.272C49.3969 121.456 50.0088 122.575 51.0418 123.158L58.3861 127.304L49.9661 126.827C48.7818 126.76 47.6624 127.372 47.0793 128.405L42.934 135.749L43.4104 127.329C43.4774 126.145 42.8656 125.026 41.8326 124.443L34.4883 120.297L42.9082 120.774C44.0925 120.841 45.212 120.229 45.795 119.196L49.9404 111.852Z" fill="white"/>
<path d="M184.77 114.055L234.171 131.439L179.639 130.075L134.004 106.702L130.93 105.128L184.77 114.055Z" fill="#282828"/>
<path d="M234.17 131.874H234.159L179.63 130.51C179.564 130.51 179.5 130.492 179.443 130.461L130.733 105.514C130.542 105.418 130.452 105.195 130.518 104.991C130.586 104.788 130.788 104.66 131.002 104.698L184.842 113.625C184.866 113.629 184.89 113.636 184.914 113.642L234.315 131.027C234.518 131.097 234.637 131.306 234.599 131.516C234.562 131.722 234.381 131.872 234.17 131.872V131.874ZM179.751 129.64L231.426 130.932L184.661 114.474L133.616 106.01L179.751 129.638V129.64Z" fill="#282828"/>
<path d="M178.199 70.752L180.933 74.1655C181.604 75.004 182.174 75.946 182.638 76.987L179.905 73.5735C179.441 72.5325 178.873 71.5905 178.199 70.752Z" fill="#30D065"/>
<path d="M168.735 76.4416L171.468 79.8551C171.208 79.5316 170.867 79.3203 170.445 79.2213C169.424 78.9814 168.466 79.4898 167.568 80.7399C166.675 81.9966 165.781 84.105 164.89 87.0674C163.983 90.087 163.576 92.3231 163.668 93.7867C163.723 94.612 163.921 95.2392 164.267 95.6706L161.533 92.2571C161.188 91.8257 160.988 91.1984 160.935 90.3731C160.842 88.9073 161.247 86.6734 162.156 83.6538C163.045 80.6915 163.941 78.583 164.835 77.3263C165.733 76.0762 166.69 75.5678 167.711 75.8077C168.136 75.9067 168.477 76.118 168.735 76.4416Z" fill="#30D065"/>
<path d="M154.851 101.307L152.117 97.8932C153.876 100.09 156.365 101.564 159.578 102.319C164.363 103.444 168.534 102.728 172.079 100.169C175.623 97.6203 178.259 93.4474 179.996 87.6679C181.66 82.1327 181.635 77.4272 179.903 73.5713L182.637 76.9848C184.369 80.8408 184.393 85.5463 182.729 91.0815C180.993 96.861 178.356 101.034 174.813 103.582C171.267 106.142 167.096 106.857 162.312 105.733C159.098 104.978 156.609 103.503 154.851 101.307Z" fill="#30D065"/>
<path d="M179.906 73.5733C181.638 77.4293 181.662 82.1347 179.998 87.67C178.262 93.4495 175.625 97.6223 172.082 100.171C168.536 102.731 164.365 103.446 159.581 102.321C155.075 101.263 151.994 98.7888 150.352 94.8976C148.697 91.0153 148.713 86.2834 150.387 80.7174C152.122 74.9467 154.739 70.8002 158.242 68.2934C161.74 65.7844 165.813 65.0713 170.451 66.1586C175.029 67.2348 178.185 69.7086 179.908 73.5733H179.906ZM165.391 91.4511C166.265 90.2582 167.165 88.1167 168.087 85.0443C168.994 82.0291 169.412 79.7864 169.333 78.336C169.242 76.8834 168.703 76.0405 167.713 75.8072C166.692 75.5673 165.734 76.0757 164.836 77.3258C163.943 78.5825 163.049 80.691 162.158 83.6534C161.251 86.673 160.844 88.909 160.936 90.3726C161.031 91.8274 161.579 92.6659 162.574 92.8992C163.564 93.1325 164.502 92.6527 165.389 91.4511" fill="white"/>
<path d="M213.752 74.3945L216.485 77.8081C218.391 80.1872 218.373 83.9111 215.812 86.5214L213.078 83.1078C215.64 80.4976 215.658 76.7737 213.752 74.3945Z" fill="#30D065"/>
<path d="M213.074 83.1074L215.806 86.5188L165.817 137.22L163.086 133.809L213.074 83.1074Z" fill="#30D065"/>
<path d="M155.839 137.093L153.105 133.68C153.911 134.685 155.062 135.454 156.51 135.793C158.828 136.336 161.348 135.577 163.086 133.807L165.82 137.221C164.081 138.988 161.563 139.75 159.244 139.206C157.796 138.865 156.644 138.099 155.839 137.093Z" fill="#30D065"/>
<path d="M210.35 72.2838C215.214 73.4261 216.719 79.3926 213.075 83.1077L163.086 133.809C161.347 135.577 158.83 136.338 156.51 135.794C151.639 134.65 150.134 128.688 153.783 124.977L203.772 74.2756C205.506 72.5017 208.024 71.7402 210.348 72.286L210.35 72.2838Z" fill="white"/>
<path d="M217.941 104.632L220.675 108.045C221.344 108.88 221.91 109.815 222.372 110.849L219.638 107.436C219.176 106.401 218.61 105.468 217.941 104.632Z" fill="#30D065"/>
<path d="M208.522 110.337L211.256 113.751C210.99 113.419 210.629 113.198 210.173 113.093C209.152 112.853 208.194 113.357 207.303 114.611C206.405 115.861 205.512 117.97 204.62 120.937C203.714 123.956 203.306 126.192 203.403 127.645C203.454 128.475 203.654 129.106 204.002 129.54L201.268 126.126C200.921 125.693 200.72 125.061 200.67 124.231C200.575 122.777 200.98 120.543 201.887 117.523C202.778 114.556 203.674 112.448 204.57 111.198C205.463 109.941 206.418 109.439 207.44 109.679C207.895 109.787 208.256 110.005 208.522 110.337Z" fill="#30D065"/>
<path d="M194.581 135.132L191.848 131.718C193.608 133.917 196.095 135.394 199.313 136.148C204.078 137.266 208.242 136.551 211.799 133.994C215.357 131.447 217.994 127.294 219.724 121.541C221.388 116.006 221.364 111.301 219.634 107.434L222.367 110.847C224.095 114.714 224.121 119.42 222.457 124.955C220.728 130.708 218.091 134.863 214.532 137.407C210.975 139.965 206.811 140.68 202.047 139.562C198.829 138.807 196.342 137.33 194.581 135.132Z" fill="#30D065"/>
<path d="M219.638 107.434C221.366 111.301 221.393 116.007 219.729 121.542C217.999 127.295 215.362 131.45 211.803 133.994C208.247 136.552 204.083 137.267 199.318 136.149C194.813 135.09 191.736 132.619 190.089 128.732C188.448 124.845 188.452 120.131 190.118 114.589C191.852 108.819 194.469 104.672 197.969 102.159C201.475 99.6585 205.544 98.9432 210.175 100.03C214.759 101.107 217.915 103.58 219.641 107.436L219.638 107.434ZM205.337 125.017C206.226 123.584 207.069 121.555 207.859 118.927C208.647 116.306 209.057 114.173 209.09 112.534C209.112 110.896 208.57 109.945 207.443 109.681C206.422 109.441 205.467 109.945 204.573 111.2C203.675 112.45 202.782 114.558 201.891 117.525C200.984 120.545 200.577 122.781 200.673 124.233C200.762 125.693 201.312 126.538 202.309 126.771C203.436 127.035 204.439 126.452 205.342 125.017" fill="white"/>
<path d="M182.632 77.4221C182.505 77.4221 182.377 77.3649 182.291 77.2593L179.564 73.8435C179.542 73.8149 179.522 73.7819 179.507 73.7489C179.192 73.0424 178.823 72.3755 178.404 71.7681C178.314 71.6316 178.224 71.504 178.132 71.3829C178.079 71.3081 178.037 71.2509 177.997 71.2002C177.977 71.1716 177.96 71.1452 177.942 71.1232L177.861 71.022C177.713 70.8371 177.74 70.5664 177.922 70.4145C178.105 70.2627 178.376 70.2869 178.53 70.4652C178.565 70.5048 178.598 70.5466 178.631 70.5906L181.268 73.8919C181.965 74.7591 182.557 75.7428 183.028 76.8125C183.116 77.0128 183.044 77.246 182.857 77.3605C182.786 77.4023 182.709 77.4243 182.632 77.4243V77.4221Z" fill="#282828"/>
<path d="M163.054 93.3855C162.865 93.3855 162.675 93.3635 162.479 93.3217C162.008 93.2095 161.617 92.9894 161.306 92.6636C161.141 92.4788 161.009 92.2807 160.899 92.0672C160.84 91.944 160.789 91.8229 160.741 91.6953C160.609 91.2969 160.529 90.8655 160.501 90.3989C160.408 88.8693 160.827 86.5584 161.74 83.53C162.638 80.5412 163.558 78.369 164.476 77.077C165.484 75.6707 166.604 75.1029 167.81 75.3846C167.986 75.4286 168.109 75.4704 168.222 75.5232C168.31 75.5584 168.411 75.609 168.503 75.6663C168.514 75.6729 168.58 75.7125 168.589 75.7213C168.653 75.7697 168.712 75.8159 168.763 75.8578C168.787 75.8754 168.833 75.9128 168.882 75.9678C168.95 76.0294 169.001 76.0932 169.04 76.1417C169.047 76.1417 169.093 76.1989 169.133 76.2649C169.485 76.7227 169.705 77.4248 169.76 78.3117C169.778 78.6353 169.771 78.9654 169.745 79.2977C169.731 79.4694 169.617 79.6168 169.452 79.6741C168.928 79.8545 168.413 80.2991 167.918 80.9924C167.053 82.2007 166.172 84.2849 165.299 87.1901C164.581 89.5868 164.174 91.5038 164.095 92.8837C164.084 93.0664 163.963 93.2205 163.787 93.2755C163.54 93.3503 163.296 93.3877 163.047 93.3877L163.054 93.3855ZM167.236 76.1901C166.522 76.1901 165.856 76.6501 165.187 77.581C164.326 78.7937 163.446 80.8802 162.576 83.7787C161.692 86.7103 161.287 88.9178 161.372 90.3417C161.399 90.7335 161.463 91.09 161.566 91.4025C161.599 91.4862 161.636 91.583 161.683 91.6733C161.755 91.8163 161.848 91.9506 161.953 92.0716C162.136 92.2653 162.376 92.3973 162.675 92.47C162.873 92.514 163.069 92.525 163.259 92.4986C163.382 91.0856 163.791 89.2171 164.473 86.9348C165.374 83.9372 166.298 81.7671 167.218 80.4818C167.74 79.7511 168.305 79.2383 168.899 78.9588C168.908 78.7541 168.906 78.5516 168.897 78.3557C168.855 77.6471 168.693 77.1057 168.417 76.7447L168.31 76.6148C168.283 76.5928 168.246 76.5576 168.228 76.529C168.164 76.4806 168.125 76.4498 168.081 76.4168C168.001 76.3706 167.942 76.3419 167.876 76.3155C167.79 76.2759 167.72 76.2539 167.645 76.2341C167.506 76.2011 167.372 76.1857 167.236 76.1857V76.1901Z" fill="#282828"/>
<path d="M166.511 106.681C165.133 106.681 163.698 106.507 162.213 106.157C158.907 105.382 156.314 103.842 154.507 101.579L151.818 98.2205C151.803 98.2029 151.787 98.1831 151.774 98.1633C151.629 97.974 151.662 97.7033 151.851 97.5558C152.038 97.4084 152.311 97.4392 152.461 97.6263L152.498 97.6725C152.524 97.7033 152.551 97.7341 152.577 97.7627C152.709 97.9278 152.833 98.0665 152.956 98.1963C153.123 98.3856 153.284 98.5484 153.451 98.7091L153.713 98.9446C153.766 98.993 153.816 99.0392 153.869 99.0789C153.988 99.1889 154.078 99.2615 154.171 99.332C154.314 99.4508 154.439 99.5498 154.569 99.6445C154.701 99.7413 154.84 99.8382 154.976 99.9284C155.099 100.01 155.22 100.089 155.35 100.166C155.731 100.408 156.118 100.619 156.55 100.818C156.708 100.897 156.862 100.967 157.016 101.031C157.261 101.139 157.501 101.231 157.749 101.326L158.02 101.418C158.167 101.476 158.293 101.513 158.418 101.55C158.542 101.594 158.643 101.627 158.744 101.652C159.061 101.746 159.365 101.823 159.679 101.896C164.317 102.981 168.408 102.283 171.826 99.8184C175.268 97.3402 177.876 93.2113 179.582 87.5419C181.213 82.1343 181.189 77.4927 179.514 73.7512C179.424 73.5509 179.496 73.3154 179.683 73.201C179.87 73.0887 180.115 73.1283 180.251 73.3L182.978 76.7158C183 76.7444 183.02 76.7752 183.035 76.8082C184.8 80.7345 184.84 85.5809 183.15 91.2063C182.073 94.7872 180.63 97.8023 178.856 100.164C178.847 100.177 178.836 100.19 178.823 100.201C177.823 101.555 176.664 102.732 175.376 103.703C175.361 103.718 175.343 103.732 175.325 103.745L175.068 103.934C172.537 105.761 169.671 106.676 166.513 106.676L166.511 106.681ZM155.269 101.134C156.95 103.188 159.352 104.59 162.413 105.307C167.048 106.397 171.135 105.699 174.56 103.23L174.771 103.073C174.784 103.062 174.797 103.049 174.81 103.04C176.058 102.105 177.181 100.965 178.145 99.6511C178.156 99.6357 178.169 99.6203 178.182 99.6071C179.881 97.3336 181.272 94.4218 182.313 90.9576C183.933 85.5611 183.916 80.937 182.26 77.2154L181.145 75.8178C182.018 79.2644 181.774 83.2788 180.414 87.7906C178.653 93.6471 175.935 97.9322 172.335 100.523C168.701 103.142 164.378 103.888 159.479 102.743C159.147 102.664 158.828 102.585 158.511 102.49C158.399 102.462 158.269 102.422 158.141 102.374C158.013 102.336 157.864 102.29 157.721 102.233L157.459 102.145C157.173 102.037 156.917 101.938 156.671 101.828C156.508 101.76 156.334 101.682 156.169 101.599C155.854 101.454 155.557 101.3 155.269 101.132V101.134Z" fill="#282828"/>
<path d="M163.773 103.267C162.395 103.267 160.964 103.093 159.476 102.745C159.144 102.666 158.825 102.587 158.508 102.492C158.396 102.464 158.266 102.424 158.138 102.376C158.011 102.338 157.861 102.292 157.718 102.235L157.456 102.147C157.17 102.039 156.915 101.94 156.668 101.83C156.505 101.761 156.331 101.684 156.166 101.601C155.713 101.392 155.293 101.163 154.892 100.908C154.762 100.83 154.628 100.742 154.494 100.654C154.344 100.555 154.197 100.452 154.054 100.346C153.91 100.241 153.767 100.131 153.624 100.012C153.525 99.9369 153.411 99.8423 153.305 99.7433C153.263 99.7147 153.189 99.6508 153.12 99.587L152.854 99.3471C152.658 99.1622 152.48 98.9796 152.31 98.7859C152.181 98.6538 152.042 98.4932 151.91 98.3259C151.124 97.3795 150.462 96.2813 149.947 95.0664C148.261 91.1092 148.267 86.2387 149.969 80.5912C151.727 74.7413 154.423 70.4848 157.982 67.9384C161.581 65.3634 165.806 64.6217 170.547 65.7353C174.071 66.5651 176.811 68.2267 178.688 70.6697C178.736 70.7335 178.789 70.804 178.838 70.8744C178.926 70.9888 179.027 71.1319 179.126 71.2793C179.57 71.9286 179.967 72.6417 180.301 73.3944C182.064 77.334 182.102 82.1781 180.409 87.7925C178.648 93.649 175.93 97.9341 172.33 100.525C169.799 102.349 166.933 103.267 163.77 103.267H163.773ZM166.427 66.1051C163.511 66.1051 160.854 66.9546 158.49 68.6449C155.09 71.0769 152.506 75.1793 150.803 80.8399C149.163 86.2871 149.146 90.9574 150.75 94.7231C151.232 95.8609 151.85 96.8865 152.59 97.7757C152.709 97.9253 152.832 98.0662 152.955 98.1939C153.123 98.3831 153.283 98.546 153.45 98.7045L153.712 98.9399C153.765 98.9884 153.816 99.0346 153.869 99.0742C153.988 99.1842 154.078 99.2569 154.17 99.3273C154.313 99.4461 154.439 99.5452 154.569 99.6398C154.701 99.7367 154.839 99.8335 154.976 99.9237C155.099 100.005 155.22 100.084 155.35 100.161C155.731 100.404 156.118 100.615 156.549 100.813C156.708 100.892 156.862 100.963 157.016 101.026C157.26 101.134 157.5 101.227 157.749 101.321L158.02 101.414C158.167 101.471 158.292 101.508 158.418 101.546C158.541 101.59 158.642 101.623 158.744 101.647C159.061 101.742 159.364 101.819 159.679 101.891C164.316 102.976 168.408 102.279 171.826 99.8137C175.268 97.3355 177.876 93.2067 179.581 87.5372C181.212 82.1297 181.188 77.488 179.513 73.7465C179.199 73.04 178.829 72.3732 178.411 71.7657C178.32 71.6293 178.23 71.5016 178.138 71.3806C178.085 71.3057 178.043 71.2485 178.003 71.1979C176.252 68.9178 173.677 67.364 170.353 66.5805C169 66.2613 167.69 66.1029 166.431 66.1029L166.427 66.1051Z" fill="#282828"/>
<path d="M163.054 93.3846C162.865 93.3846 162.675 93.3626 162.479 93.3207C162.008 93.2085 161.617 92.9884 161.306 92.6627C161.141 92.4778 161.009 92.2797 160.899 92.0662C160.838 91.9386 160.785 91.8219 160.736 91.6811C160.609 91.2937 160.529 90.8645 160.501 90.398C160.408 88.8684 160.827 86.5574 161.74 83.529C162.638 80.5402 163.558 78.368 164.476 77.0761C165.484 75.6697 166.604 75.1019 167.81 75.3836C167.986 75.4276 168.109 75.4694 168.222 75.5222C168.31 75.5575 168.411 75.6081 168.503 75.6653C168.514 75.6719 168.58 75.7115 168.589 75.7203C168.653 75.7687 168.712 75.815 168.763 75.8568C168.787 75.8744 168.833 75.9118 168.882 75.9668C168.95 76.0285 169.001 76.0923 169.04 76.1407C169.047 76.1407 169.093 76.1979 169.133 76.2639C169.485 76.7217 169.705 77.4238 169.76 78.3108C169.778 78.6343 169.771 78.9644 169.745 79.2967C169.663 80.7207 169.243 82.7015 168.497 85.1709C167.568 88.2763 166.639 90.475 165.737 91.7075C165.127 92.5328 164.473 93.0588 163.796 93.2701C163.547 93.3471 163.3 93.3846 163.052 93.3846H163.054ZM167.236 76.1891C166.522 76.1891 165.856 76.6491 165.187 77.5801C164.326 78.7927 163.446 80.8792 162.576 83.7777C161.692 86.7093 161.287 88.9168 161.372 90.3408C161.399 90.7325 161.463 91.089 161.566 91.4016C161.599 91.5006 161.639 91.5842 161.683 91.6723C161.755 91.8153 161.848 91.9496 161.953 92.0706C162.136 92.2643 162.376 92.3964 162.675 92.469C162.97 92.5328 163.256 92.524 163.54 92.436C164.038 92.2797 164.542 91.8594 165.039 91.1881C165.884 90.037 166.769 87.9264 167.667 84.9178C168.393 82.5122 168.803 80.6019 168.88 79.2351C168.904 78.9314 168.908 78.6387 168.895 78.357C168.853 77.6483 168.69 77.1069 168.415 76.7459L168.307 76.6161C168.281 76.5941 168.244 76.5589 168.226 76.5303C168.162 76.4818 168.122 76.451 168.078 76.418C167.999 76.3718 167.94 76.3432 167.874 76.3168C167.788 76.2771 167.718 76.2551 167.643 76.2353C167.504 76.2023 167.37 76.1869 167.233 76.1869L167.236 76.1891Z" fill="#282828"/>
<path d="M215.811 86.9539C215.811 86.9539 215.796 86.9539 215.789 86.9539C215.666 86.9473 215.549 86.8879 215.47 86.791L212.736 83.3775C212.598 83.2058 212.611 82.9571 212.767 82.8008C215.014 80.5097 215.292 77.0125 213.412 74.6664C213.262 74.4793 213.293 74.2042 213.48 74.0546C213.667 73.9049 213.943 73.9335 214.092 74.1228L216.826 77.5341C218.98 80.2258 218.679 84.2204 216.121 86.824C216.04 86.9077 215.928 86.9539 215.811 86.9539ZM213.654 83.1266L215.833 85.849C217.77 83.5645 217.928 80.305 216.143 78.0778L215.444 77.204C215.763 79.2442 215.151 81.4385 213.652 83.1266H213.654Z" fill="#282828"/>
<path d="M165.821 137.656C165.821 137.656 165.805 137.656 165.799 137.656C165.675 137.649 165.559 137.59 165.482 137.493L162.748 134.077C162.609 133.905 162.623 133.657 162.779 133.498L212.772 82.7988C212.86 82.7108 212.979 82.6602 213.106 82.669C213.23 82.6756 213.346 82.735 213.423 82.8318L216.152 86.2476C216.291 86.4193 216.278 86.6679 216.122 86.8242L202.835 100.3C202.78 100.355 202.709 100.395 202.635 100.417C201.096 100.817 199.611 101.522 198.22 102.51C195.464 104.495 193.235 107.572 191.599 111.652C191.577 111.705 191.547 111.756 191.505 111.795L166.131 137.526C166.049 137.609 165.937 137.656 165.821 137.656ZM163.668 133.835L165.854 136.566L190.82 111.245C192.515 107.05 194.833 103.872 197.709 101.801C199.153 100.776 200.693 100.038 202.293 99.6047L215.224 86.4897L213.043 83.7584L163.666 133.833L163.668 133.835Z" fill="#282828"/>
<path d="M160.747 139.813C160.21 139.813 159.673 139.753 159.145 139.628C157.668 139.282 156.407 138.499 155.498 137.363L152.767 133.95C152.617 133.763 152.648 133.487 152.835 133.338C153.022 133.188 153.297 133.217 153.447 133.406L153.451 133.41C154.237 134.39 155.329 135.065 156.612 135.367C158.784 135.878 161.143 135.162 162.776 133.501C162.862 133.413 162.985 133.366 163.109 133.371C163.232 133.377 163.349 133.437 163.428 133.534L166.161 136.947C166.3 137.119 166.287 137.368 166.13 137.524C164.68 138.998 162.719 139.811 160.749 139.811L160.747 139.813ZM156.178 136.82C156.964 137.801 158.058 138.479 159.343 138.781C161.394 139.263 163.615 138.651 165.23 137.18L163.043 134.449C161.218 136.082 158.722 136.758 156.411 136.214C156.081 136.137 155.764 136.038 155.456 135.919L156.176 136.817L156.178 136.82Z" fill="#282828"/>
<path d="M158.016 136.402C157.479 136.402 156.942 136.342 156.413 136.217C154.058 135.665 152.256 133.968 151.594 131.679C150.88 129.214 151.582 126.595 153.475 124.669L203.464 73.9673C205.304 72.0878 207.98 71.2779 210.452 71.8589C212.802 72.4113 214.602 74.106 215.265 76.3949C215.98 78.8621 215.278 81.4855 213.387 83.4113L163.399 134.113C161.949 135.587 159.985 136.4 158.016 136.4V136.402ZM208.843 72.5456C207.102 72.5456 205.365 73.2675 204.084 74.5792L154.096 125.283C152.428 126.98 151.805 129.28 152.43 131.439C153.004 133.422 154.567 134.892 156.614 135.372C158.786 135.882 161.145 135.167 162.778 133.505L212.767 82.8039C214.433 81.1048 215.056 78.8005 214.429 76.6392C213.854 74.6584 212.294 73.1882 210.253 72.7106C209.789 72.6028 209.318 72.5478 208.845 72.5478L208.843 72.5456Z" fill="#282828"/>
<path d="M222.371 111.28C222.244 111.28 222.116 111.223 222.032 111.117L219.297 107.708C219.273 107.679 219.253 107.646 219.24 107.613C219.026 107.138 218.791 106.68 218.535 106.251C218.432 106.077 218.328 105.91 218.216 105.754C218.203 105.734 218.19 105.714 218.181 105.694C218.04 105.481 217.91 105.305 217.78 105.137C217.769 105.122 217.717 105.043 217.706 105.027C217.589 104.832 217.644 104.578 217.833 104.446C218.02 104.317 218.278 104.354 218.421 104.532L221.018 107.772C221.702 108.63 222.294 109.603 222.772 110.668C222.862 110.869 222.79 111.104 222.602 111.218C222.532 111.262 222.453 111.282 222.376 111.282L222.371 111.28Z" fill="#282828"/>
<path d="M202.813 127.267C202.613 127.267 202.408 127.243 202.205 127.195C201.737 127.085 201.345 126.858 201.037 126.526C200.57 126.022 200.302 125.26 200.238 124.259C200.137 122.747 200.539 120.502 201.47 117.397C202.368 114.406 203.295 112.233 204.219 110.946C205.216 109.539 206.339 108.967 207.54 109.253C207.721 109.299 207.846 109.339 207.967 109.394C208.064 109.432 208.176 109.491 208.289 109.559C208.302 109.566 208.315 109.575 208.326 109.583C208.397 109.627 208.465 109.678 208.529 109.729C208.566 109.755 208.619 109.801 208.661 109.845C208.702 109.883 208.762 109.944 208.815 110.002C208.835 110.021 208.885 110.085 208.898 110.109C209.319 110.633 209.541 111.465 209.528 112.537C209.523 112.742 209.512 112.946 209.497 113.166C209.484 113.343 209.365 113.494 209.195 113.549C208.683 113.714 208.165 114.157 207.657 114.863C206.794 116.069 205.912 118.154 205.038 121.059C204.314 123.482 203.909 125.406 203.836 126.77C203.828 126.953 203.702 127.111 203.526 127.164C203.293 127.234 203.053 127.27 202.811 127.27L202.813 127.267ZM206.964 110.059C206.253 110.059 205.588 110.519 204.928 111.452C204.056 112.665 203.174 114.749 202.302 117.65C201.415 120.612 201.013 122.817 201.107 124.206C201.158 125.003 201.349 125.584 201.677 125.938C201.869 126.145 202.104 126.279 202.406 126.35C202.606 126.396 202.798 126.411 202.991 126.389C203.108 124.976 203.506 123.145 204.204 120.81C205.106 117.812 206.028 115.642 206.948 114.357C207.483 113.613 208.051 113.1 208.643 112.832C208.65 112.726 208.654 112.625 208.654 112.524C208.665 111.661 208.507 111.014 208.183 110.609C208.161 110.585 208.135 110.552 208.117 110.523C208.13 110.545 208.084 110.503 208.044 110.466C207.945 110.382 207.908 110.349 207.864 110.327C207.844 110.316 207.827 110.305 207.809 110.292C207.749 110.257 207.69 110.224 207.626 110.2C207.529 110.156 207.45 110.134 207.367 110.112C207.23 110.079 207.094 110.063 206.962 110.063L206.964 110.059Z" fill="#282828"/>
<path d="M206.224 140.506C204.852 140.506 203.428 140.334 201.952 139.989C198.655 139.21 196.062 137.667 194.249 135.407L191.799 132.341C191.654 132.16 191.676 131.898 191.85 131.744C192.024 131.59 192.285 131.599 192.448 131.762C192.45 131.764 192.512 131.828 192.514 131.832L192.594 131.914C192.699 132.041 192.765 132.105 192.829 132.171C193.001 132.363 193.168 132.521 193.337 132.673C193.454 132.785 193.566 132.889 193.683 132.979C194.037 133.278 194.392 133.545 194.757 133.787C194.863 133.857 194.966 133.925 195.078 133.991L195.237 134.09C195.347 134.157 195.455 134.22 195.563 134.28C195.783 134.399 196.012 134.52 196.243 134.63C196.423 134.72 196.601 134.801 196.784 134.874C197.024 134.982 197.251 135.07 197.477 135.154L197.752 135.248C197.902 135.308 198.028 135.345 198.153 135.382C198.276 135.426 198.377 135.459 198.479 135.484C198.796 135.578 199.099 135.655 199.414 135.728C204.032 136.813 208.114 136.113 211.55 133.646C215.001 131.179 217.611 127.065 219.31 121.422C220.939 116.001 220.912 111.355 219.237 107.618C219.147 107.418 219.22 107.183 219.407 107.068C219.594 106.956 219.836 106.996 219.972 107.167L222.708 110.576C222.732 110.605 222.752 110.638 222.765 110.671C224.526 114.611 224.563 119.459 222.878 125.082C221.124 130.915 218.401 135.184 214.783 137.768C212.245 139.595 209.377 140.51 206.219 140.51L206.224 140.506ZM195.015 134.966C196.7 137.015 199.099 138.42 202.152 139.142C206.772 140.224 210.856 139.524 214.281 137.057C217.739 134.588 220.351 130.472 222.048 124.829C223.666 119.437 223.65 114.809 221.997 111.074L220.87 109.67C221.746 113.118 221.504 117.142 220.144 121.669C218.39 127.501 215.67 131.766 212.058 134.35C208.407 136.971 204.089 137.72 199.216 136.573C198.884 136.494 198.565 136.415 198.248 136.32C198.133 136.291 198.003 136.252 197.878 136.203C197.752 136.166 197.601 136.12 197.46 136.062L197.198 135.972C196.931 135.875 196.685 135.779 196.449 135.671C196.265 135.6 196.06 135.506 195.864 135.409C195.629 135.297 195.386 135.169 195.153 135.041C195.107 135.017 195.061 134.991 195.017 134.964L195.015 134.966Z" fill="#282828"/>
<path d="M203.488 137.092C202.117 137.092 200.691 136.918 199.214 136.57C198.882 136.491 198.563 136.412 198.246 136.317C198.131 136.288 198.001 136.249 197.876 136.2C197.75 136.163 197.599 136.117 197.458 136.06L197.196 135.969C196.929 135.873 196.683 135.776 196.447 135.668C196.263 135.597 196.058 135.503 195.862 135.406C195.627 135.294 195.384 135.166 195.151 135.038C195.03 134.972 194.911 134.902 194.795 134.831L194.625 134.726C194.515 134.662 194.396 134.583 194.28 134.506C193.886 134.246 193.503 133.958 193.142 133.65C193.012 133.546 192.875 133.427 192.746 133.304C192.565 133.139 192.376 132.961 192.2 132.765C192.125 132.69 192.035 132.598 191.953 132.494V132.496C191.949 132.496 191.914 132.459 191.881 132.424C191.874 132.417 191.81 132.349 191.804 132.342L191.654 132.162C191.612 132.113 191.568 132.058 191.526 132.003C190.78 131.068 190.164 130.029 189.684 128.894C188.007 124.923 188.012 120.066 189.697 114.456C190.025 113.366 190.393 112.312 190.789 111.324C192.486 107.087 194.814 103.883 197.711 101.799C199.19 100.749 200.77 100 202.412 99.5713C204.831 98.933 207.478 98.9418 210.276 99.6021C213.828 100.434 216.583 102.115 218.467 104.602C218.619 104.794 218.771 105.003 218.907 105.217C218.914 105.225 218.921 105.239 218.929 105.252C219.053 105.426 219.169 105.61 219.284 105.804C219.557 106.262 219.808 106.748 220.032 107.255C221.797 111.19 221.835 116.038 220.144 121.666C218.39 127.498 215.67 131.763 212.058 134.347C209.514 136.174 206.644 137.09 203.488 137.09V137.092ZM206.14 99.9718C204.923 99.9718 203.75 100.119 202.632 100.416C201.091 100.817 199.606 101.521 198.217 102.509C195.461 104.495 193.232 107.571 191.597 111.652C191.212 112.616 190.851 113.646 190.529 114.711C188.905 120.121 188.89 124.78 190.485 128.559C190.934 129.62 191.507 130.59 192.189 131.444L192.592 131.913C192.697 132.041 192.763 132.105 192.827 132.171C192.999 132.362 193.166 132.521 193.335 132.672C193.454 132.787 193.573 132.89 193.692 132.985C194.035 133.278 194.39 133.544 194.755 133.784C194.861 133.854 194.964 133.923 195.076 133.989L195.235 134.088C195.345 134.154 195.453 134.217 195.561 134.277C195.781 134.396 196.01 134.517 196.241 134.627C196.421 134.717 196.599 134.798 196.782 134.871C197.022 134.979 197.249 135.067 197.475 135.151L197.75 135.245C197.9 135.305 198.026 135.342 198.151 135.38C198.274 135.424 198.375 135.457 198.477 135.481C198.794 135.575 199.097 135.652 199.412 135.725C204.029 136.81 208.112 136.11 211.548 133.643C214.999 131.176 217.609 127.062 219.308 121.419C220.937 115.999 220.91 111.353 219.235 107.615C219.022 107.14 218.786 106.682 218.531 106.253C218.428 106.079 218.324 105.912 218.212 105.756C218.199 105.736 218.186 105.716 218.177 105.696C218.036 105.483 217.906 105.307 217.776 105.139C216.013 102.811 213.425 101.237 210.075 100.454C208.72 100.135 207.406 99.974 206.14 99.974V99.9718Z" fill="#282828"/>
<path d="M202.811 127.269C202.611 127.269 202.406 127.245 202.202 127.197C201.733 127.087 201.341 126.86 201.033 126.528C200.566 126.024 200.298 125.262 200.234 124.261C200.133 122.749 200.535 120.504 201.466 117.398C202.364 114.407 203.291 112.235 204.215 110.948C205.212 109.541 206.335 108.969 207.536 109.255C207.717 109.301 207.842 109.341 207.963 109.396C208.06 109.433 208.173 109.493 208.285 109.561C208.298 109.568 208.311 109.577 208.322 109.585C208.415 109.64 208.487 109.695 208.553 109.755C208.56 109.755 208.613 109.801 208.655 109.845C208.696 109.882 208.756 109.944 208.809 110.001C208.828 110.021 208.879 110.085 208.892 110.109C209.313 110.633 209.535 111.465 209.522 112.537C209.517 112.741 209.506 112.946 209.491 113.166C209.379 114.766 208.969 116.747 208.272 119.051C207.473 121.701 206.608 123.785 205.701 125.247C205.054 126.288 204.319 126.933 203.518 127.164C203.287 127.234 203.049 127.267 202.809 127.267L202.811 127.269ZM206.962 110.059C206.251 110.059 205.586 110.519 204.926 111.452C204.055 112.664 203.172 114.749 202.301 117.649C201.414 120.612 201.011 122.817 201.106 124.206C201.156 125.003 201.348 125.584 201.676 125.938C201.867 126.145 202.103 126.279 202.404 126.349C202.708 126.42 202.992 126.415 203.276 126.33C203.868 126.16 204.433 125.641 204.964 124.789C205.831 123.394 206.665 121.378 207.442 118.803C208.12 116.56 208.518 114.643 208.626 113.107C208.641 112.902 208.652 112.711 208.657 112.526C208.668 111.663 208.509 111.016 208.186 110.611C208.164 110.587 208.137 110.554 208.12 110.525C208.133 110.547 208.087 110.505 208.047 110.468C208.034 110.459 207.977 110.408 207.966 110.397C207.933 110.367 207.878 110.336 207.86 110.325C207.842 110.316 207.827 110.305 207.812 110.294C207.752 110.259 207.693 110.226 207.629 110.202C207.532 110.158 207.453 110.136 207.369 110.114C207.233 110.081 207.096 110.065 206.964 110.065L206.962 110.059Z" fill="#282828"/>
<path d="M163.996 90.9881C163.89 90.9881 163.785 90.9506 163.701 90.8714L160.831 88.2127C160.655 88.0499 160.644 87.7748 160.807 87.5965C160.972 87.4182 161.247 87.4116 161.423 87.5723L164.293 90.231C164.469 90.3938 164.48 90.6689 164.317 90.8472C164.231 90.9396 164.115 90.9859 163.998 90.9859L163.996 90.9881Z" fill="#282828"/>
<path d="M164.892 87.5004C164.765 87.5004 164.637 87.4454 164.551 87.3375L161.818 83.9262C161.668 83.7391 161.699 83.464 161.886 83.3143C162.073 83.1647 162.348 83.1933 162.498 83.3826L165.231 86.7939C165.381 86.981 165.35 87.2561 165.163 87.4058C165.084 87.4696 164.987 87.5004 164.89 87.5004H164.892Z" fill="#282828"/>
<path d="M166.359 83.3909C166.242 83.3909 166.128 83.3447 166.042 83.2545L163.161 80.1974C162.996 80.0236 163.005 79.7463 163.181 79.5812C163.357 79.4161 163.632 79.4227 163.797 79.5988L166.678 82.6558C166.843 82.8297 166.834 83.107 166.658 83.2721C166.575 83.3513 166.467 83.3909 166.359 83.3909Z" fill="#282828"/>
<path d="M168.552 80.1208C168.416 80.1208 168.281 80.057 168.198 79.9381L165.667 76.3815C165.528 76.1856 165.572 75.9127 165.768 75.7741C165.964 75.6354 166.237 75.6794 166.375 75.8753L168.906 79.4319C169.045 79.6278 169.001 79.9007 168.805 80.0394C168.728 80.0944 168.64 80.1208 168.552 80.1208Z" fill="#282828"/>
<path d="M163.71 106.445C163.58 106.445 163.453 106.387 163.367 106.277L160.814 102.994C160.666 102.804 160.702 102.531 160.891 102.384C161.078 102.236 161.353 102.269 161.501 102.461L164.054 105.745C164.201 105.934 164.166 106.207 163.977 106.354C163.897 106.416 163.803 106.447 163.71 106.447V106.445Z" fill="#282828"/>
<path d="M169.655 106.353C169.521 106.353 169.387 106.289 169.301 106.172L166.805 102.704C166.664 102.508 166.708 102.237 166.904 102.096C167.098 101.955 167.371 101.999 167.512 102.195L170.007 105.664C170.148 105.86 170.104 106.13 169.908 106.271C169.831 106.326 169.743 106.353 169.653 106.353H169.655Z" fill="#282828"/>
<path d="M174.552 104.348C174.427 104.348 174.301 104.293 174.215 104.187L171.528 100.897C171.376 100.71 171.403 100.437 171.59 100.285C171.775 100.133 172.05 100.159 172.202 100.347L174.889 103.637C175.041 103.824 175.014 104.097 174.827 104.249C174.746 104.315 174.649 104.348 174.552 104.348Z" fill="#282828"/>
<path d="M177.31 101.55C177.167 101.55 177.028 101.48 176.945 101.352L174.598 97.7474C174.466 97.5449 174.524 97.2764 174.726 97.1443C174.926 97.0145 175.197 97.0695 175.329 97.272L177.675 100.877C177.807 101.08 177.75 101.348 177.548 101.48C177.475 101.528 177.391 101.55 177.31 101.55Z" fill="#282828"/>
<path d="M179.994 98.0622C179.862 98.0622 179.729 98.0006 179.644 97.8861L176.996 94.3273C176.853 94.1336 176.893 93.8607 177.086 93.7177C177.278 93.5746 177.551 93.6142 177.696 93.8079L180.344 97.3667C180.487 97.5604 180.447 97.8333 180.253 97.9764C180.174 98.0336 180.084 98.0622 179.994 98.0622Z" fill="#282828"/>
<path d="M182.14 93.3258C182.019 93.3258 181.898 93.2751 181.812 93.1761L179.151 90.1323C178.992 89.9518 179.01 89.6767 179.193 89.5182C179.373 89.362 179.648 89.3774 179.807 89.56L182.468 92.6039C182.626 92.7843 182.609 93.0594 182.426 93.2179C182.344 93.2905 182.241 93.3258 182.14 93.3258Z" fill="#282828"/>
<path d="M183.362 89.1025C183.245 89.1025 183.131 89.0563 183.045 88.9661L180.459 86.2326C180.294 86.0587 180.301 85.7814 180.477 85.6164C180.653 85.4513 180.928 85.4579 181.093 85.634L183.679 88.3674C183.844 88.5413 183.837 88.8186 183.661 88.9837C183.578 89.0629 183.47 89.1025 183.362 89.1025Z" fill="#282828"/>
<path d="M183.924 85.0989C183.792 85.0989 183.662 85.0394 183.576 84.925L181.239 81.8086C181.096 81.6171 181.133 81.3442 181.327 81.1989C181.518 81.0559 181.791 81.0933 181.937 81.287L184.274 84.4034C184.417 84.5949 184.38 84.8678 184.186 85.013C184.107 85.0725 184.016 85.1011 183.924 85.1011V85.0989Z" fill="#282828"/>
<path d="M160.738 139.811C160.573 139.811 160.415 139.716 160.342 139.555L158.758 136.052C158.659 135.832 158.755 135.574 158.975 135.475C159.193 135.376 159.453 135.475 159.552 135.693L161.137 139.197C161.236 139.417 161.139 139.674 160.919 139.773C160.862 139.8 160.8 139.813 160.738 139.813V139.811Z" fill="#282828"/>
<path d="M169.359 134.064C169.223 134.064 169.089 134.001 169.003 133.879L166.459 130.272C166.32 130.076 166.366 129.803 166.564 129.665C166.76 129.526 167.033 129.572 167.172 129.77L169.716 133.378C169.855 133.574 169.808 133.846 169.61 133.985C169.533 134.038 169.445 134.064 169.359 134.064Z" fill="#282828"/>
<path d="M172.831 130.545C172.704 130.545 172.576 130.49 172.49 130.382L169.759 126.962C169.609 126.775 169.64 126.499 169.827 126.35C170.014 126.2 170.287 126.231 170.439 126.418L173.17 129.838C173.32 130.025 173.289 130.3 173.102 130.45C173.023 130.514 172.926 130.545 172.831 130.545Z" fill="#282828"/>
<path d="M176.701 126.625C176.567 126.625 176.435 126.564 176.351 126.447L173.745 122.906C173.602 122.712 173.644 122.439 173.838 122.296C174.031 122.155 174.304 122.195 174.447 122.388L177.053 125.93C177.196 126.123 177.154 126.396 176.961 126.539C176.881 126.597 176.791 126.623 176.703 126.623L176.701 126.625Z" fill="#282828"/>
<path d="M179.308 123.693C179.158 123.693 179.013 123.616 178.931 123.478L176.77 119.767C176.649 119.56 176.72 119.292 176.926 119.171C177.133 119.049 177.4 119.12 177.523 119.329L179.684 123.04C179.805 123.247 179.735 123.515 179.528 123.636C179.46 123.676 179.383 123.696 179.308 123.696V123.693Z" fill="#282828"/>
<path d="M182.613 120.626C182.478 120.626 182.342 120.562 182.258 120.443L179.831 117.041C179.692 116.845 179.736 116.572 179.932 116.433C180.126 116.295 180.399 116.339 180.539 116.534L182.967 119.937C183.106 120.133 183.062 120.406 182.866 120.544C182.789 120.6 182.701 120.626 182.613 120.626Z" fill="#282828"/>
<path d="M185.061 118.142C184.924 118.142 184.79 118.079 184.704 117.957L182.158 114.352C182.019 114.157 182.066 113.884 182.264 113.745C182.457 113.606 182.73 113.653 182.871 113.848L185.417 117.453C185.556 117.649 185.51 117.922 185.312 118.061C185.237 118.116 185.149 118.14 185.061 118.14V118.142Z" fill="#282828"/>
<path d="M187.457 115.713C187.323 115.713 187.191 115.651 187.107 115.535L184.499 111.994C184.356 111.8 184.398 111.527 184.592 111.384C184.785 111.243 185.058 111.283 185.201 111.476L187.809 115.018C187.952 115.211 187.91 115.484 187.717 115.627C187.638 115.684 187.547 115.711 187.459 115.711L187.457 115.713Z" fill="#282828"/>
<path d="M199.633 139.238C199.444 139.238 199.268 139.113 199.213 138.921L198.427 136.15C198.361 135.919 198.495 135.679 198.726 135.613C198.96 135.545 199.199 135.682 199.266 135.913L200.051 138.684C200.117 138.915 199.983 139.155 199.752 139.221C199.712 139.232 199.673 139.238 199.633 139.238Z" fill="#282828"/>
<path d="M204.217 140.383C204.026 140.383 203.852 140.258 203.797 140.066L202.923 136.969C202.857 136.738 202.993 136.498 203.224 136.432C203.456 136.364 203.695 136.503 203.761 136.734L204.635 139.831C204.701 140.062 204.565 140.302 204.334 140.368C204.294 140.379 204.254 140.385 204.215 140.385L204.217 140.383Z" fill="#282828"/>
<path d="M203.728 124.843C203.638 124.843 203.547 124.814 203.47 124.757L200.521 122.58C200.328 122.437 200.286 122.164 200.429 121.97C200.574 121.777 200.847 121.737 201.038 121.878L203.988 124.055C204.181 124.198 204.223 124.471 204.08 124.664C203.994 124.781 203.862 124.84 203.73 124.84L203.728 124.843Z" fill="#282828"/>
<path d="M204.734 120.993C204.661 120.993 204.589 120.975 204.52 120.938L201.311 119.126C201.102 119.008 201.028 118.743 201.146 118.532C201.265 118.323 201.532 118.25 201.741 118.367L204.95 120.178C205.159 120.297 205.233 120.561 205.115 120.773C205.035 120.914 204.886 120.993 204.736 120.993H204.734Z" fill="#282828"/>
<path d="M206.069 117.308C205.987 117.308 205.904 117.286 205.829 117.238L202.814 115.257C202.614 115.125 202.556 114.855 202.688 114.654C202.82 114.452 203.093 114.397 203.291 114.529L206.307 116.51C206.507 116.642 206.564 116.912 206.432 117.113C206.348 117.24 206.21 117.308 206.069 117.308Z" fill="#282828"/>
<path d="M207.832 114.402C207.733 114.402 207.632 114.369 207.551 114.298L204.287 111.532C204.104 111.375 204.08 111.1 204.236 110.918C204.395 110.735 204.668 110.713 204.85 110.867L208.114 113.634C208.297 113.79 208.321 114.065 208.165 114.248C208.079 114.349 207.956 114.402 207.832 114.402Z" fill="#282828"/>
<path d="M209.618 140.119C209.468 140.119 209.323 140.042 209.241 139.901L207.168 136.314C207.047 136.107 207.12 135.838 207.327 135.719C207.533 135.6 207.8 135.669 207.921 135.878L209.994 139.465C210.115 139.672 210.042 139.941 209.836 140.059C209.767 140.099 209.692 140.117 209.618 140.117V140.119Z" fill="#282828"/>
<path d="M213.254 138.669C213.109 138.669 212.968 138.596 212.884 138.464L210.593 134.786C210.466 134.582 210.529 134.313 210.732 134.186C210.934 134.06 211.203 134.12 211.333 134.324L213.624 138.002C213.752 138.207 213.688 138.475 213.485 138.603C213.415 138.647 213.333 138.669 213.254 138.669Z" fill="#282828"/>
<path d="M216.536 136.144C216.404 136.144 216.272 136.085 216.186 135.968L213.644 132.557C213.501 132.363 213.541 132.09 213.735 131.947C213.926 131.802 214.199 131.841 214.344 132.035L216.886 135.446C217.029 135.64 216.99 135.913 216.796 136.056C216.717 136.113 216.627 136.142 216.536 136.142V136.144Z" fill="#282828"/>
<path d="M218.705 133.54C218.589 133.54 218.474 133.494 218.388 133.404L215.444 130.289C215.278 130.116 215.285 129.838 215.461 129.673C215.637 129.508 215.91 129.517 216.077 129.691L219.022 132.805C219.187 132.979 219.178 133.256 219.005 133.421C218.921 133.501 218.813 133.54 218.705 133.54Z" fill="#282828"/>
<path d="M220.525 129.836C220.421 129.836 220.318 129.799 220.234 129.726L217.364 127.16C217.184 126.999 217.17 126.724 217.329 126.546C217.49 126.365 217.767 126.352 217.943 126.511L220.813 129.077C220.993 129.237 221.007 129.513 220.848 129.691C220.762 129.788 220.641 129.836 220.522 129.836H220.525Z" fill="#282828"/>
<path d="M222.232 126.123C222.135 126.123 222.036 126.09 221.954 126.022L219.04 123.606C218.856 123.452 218.829 123.179 218.983 122.992C219.137 122.807 219.41 122.78 219.597 122.934L222.511 125.351C222.696 125.505 222.723 125.778 222.568 125.965C222.483 126.068 222.359 126.123 222.234 126.123H222.232Z" fill="#282828"/>
<path d="M223.186 122.518C223.098 122.518 223.01 122.491 222.935 122.439L219.911 120.304C219.716 120.165 219.667 119.892 219.806 119.696C219.944 119.498 220.22 119.456 220.413 119.591L223.437 121.725C223.633 121.864 223.682 122.137 223.543 122.333C223.459 122.452 223.323 122.518 223.186 122.518Z" fill="#282828"/>
<path d="M223.637 119.298C223.535 119.298 223.434 119.263 223.353 119.193L220.749 116.952C220.566 116.796 220.547 116.521 220.703 116.338C220.859 116.158 221.134 116.136 221.317 116.292L223.921 118.532C224.103 118.689 224.123 118.964 223.967 119.146C223.881 119.246 223.76 119.298 223.637 119.298Z" fill="#282828"/>
<path d="M223.214 115.403C223.126 115.403 223.035 115.377 222.958 115.322L220.685 113.68C220.489 113.539 220.445 113.266 220.588 113.073C220.729 112.877 221.002 112.835 221.195 112.976L223.469 114.618C223.663 114.758 223.709 115.031 223.566 115.225C223.48 115.344 223.348 115.406 223.214 115.406V115.403Z" fill="#282828"/>
<path d="M191.19 111.926C191.036 111.926 190.888 111.844 190.809 111.701L188.617 107.737C188.5 107.526 188.577 107.262 188.786 107.145C188.998 107.029 189.262 107.106 189.379 107.315L191.571 111.279C191.687 111.49 191.61 111.754 191.401 111.871C191.333 111.908 191.262 111.926 191.19 111.926Z" fill="#282828"/>
<path d="M193.979 106.688C193.843 106.688 193.706 106.624 193.623 106.503L192.075 104.293C191.937 104.097 191.985 103.824 192.181 103.686C192.379 103.549 192.65 103.595 192.788 103.793L194.336 106.003C194.474 106.199 194.426 106.472 194.23 106.611C194.153 106.663 194.067 106.69 193.979 106.69V106.688Z" fill="#282828"/>
<path d="M196.199 103.608C196.08 103.608 195.963 103.56 195.877 103.465L194.484 101.929C194.323 101.751 194.334 101.476 194.515 101.315C194.693 101.154 194.968 101.165 195.129 101.346L196.522 102.882C196.683 103.06 196.672 103.336 196.491 103.496C196.408 103.571 196.304 103.608 196.199 103.608Z" fill="#282828"/>
<path d="M199.453 101.277C199.332 101.277 199.211 101.227 199.125 101.13L197.307 99.0523C197.149 98.8718 197.166 98.5967 197.349 98.4383C197.529 98.2798 197.805 98.2974 197.963 98.4779L199.781 100.556C199.939 100.736 199.922 101.011 199.739 101.17C199.658 101.242 199.554 101.277 199.453 101.277Z" fill="#282828"/>
<path d="M202.839 100.109C202.72 100.109 202.599 100.06 202.513 99.9635L199.619 96.7173C199.458 96.5368 199.474 96.2617 199.654 96.1032C199.835 95.9425 200.11 95.9579 200.268 96.1384L203.162 99.3847C203.323 99.5652 203.308 99.8403 203.127 99.9988C203.043 100.074 202.94 100.109 202.837 100.109H202.839Z" fill="#282828"/>
<path d="M205.401 96.8799C205.269 96.8799 205.139 96.8205 205.054 96.7082L202.674 93.5654C202.529 93.3739 202.567 93.101 202.758 92.9557C202.952 92.8127 203.222 92.8479 203.368 93.0394L205.747 96.1822C205.892 96.3737 205.855 96.6466 205.663 96.7919C205.584 96.8513 205.492 96.8799 205.401 96.8799Z" fill="#282828"/>
<path d="M208.068 94.8051C207.925 94.8051 207.784 94.7347 207.7 94.6048L205.299 90.8567C205.169 90.6542 205.229 90.3857 205.431 90.2559C205.632 90.126 205.902 90.1832 206.032 90.3879L208.433 94.136C208.563 94.3385 208.504 94.607 208.301 94.7369C208.229 94.7831 208.147 94.8051 208.066 94.8051H208.068Z" fill="#282828"/>
<path d="M210.162 92.6787C210.023 92.6787 209.885 92.6104 209.801 92.485L207.457 88.9988C207.323 88.7985 207.376 88.5278 207.576 88.3935C207.774 88.2615 208.045 88.3121 208.181 88.5124L210.525 91.9986C210.659 92.1989 210.606 92.4696 210.406 92.6038C210.331 92.6544 210.248 92.6787 210.162 92.6787Z" fill="#282828"/>
<path d="M212.557 89.5407C212.416 89.5407 212.278 89.4725 212.194 89.3448L210.033 86.0655C209.901 85.8653 209.956 85.5945 210.156 85.4625C210.356 85.3304 210.627 85.3855 210.759 85.5857L212.92 88.8651C213.052 89.0653 212.997 89.336 212.797 89.4681C212.722 89.5165 212.641 89.5407 212.557 89.5407Z" fill="#282828"/>
<path d="M188.404 94.3027C188.296 94.3027 188.19 94.2631 188.107 94.1838C187.931 94.0188 187.922 93.7437 188.087 93.5676L204.391 76.1763C204.556 76.0002 204.831 75.9936 205.007 76.1565C205.183 76.3215 205.192 76.5966 205.027 76.7727L188.723 94.164C188.637 94.2565 188.521 94.3027 188.404 94.3027Z" fill="#282828"/>
<path d="M194.458 112.145C194.425 112.145 194.392 112.141 194.359 112.134C194.125 112.079 193.98 111.844 194.035 111.61C195.083 107.145 198.584 103.351 202.951 101.946C203.18 101.874 203.426 101.999 203.499 102.228C203.574 102.457 203.446 102.701 203.217 102.776C199.135 104.088 195.864 107.633 194.882 111.809C194.836 112.009 194.658 112.145 194.46 112.145H194.458Z" fill="#282828"/>
<path d="M196.069 112.103C196 112.103 195.932 112.088 195.868 112.055C195.655 111.945 195.571 111.683 195.681 111.47L197.286 108.358C197.396 108.144 197.66 108.058 197.873 108.171C198.087 108.281 198.17 108.542 198.06 108.756L196.456 111.868C196.379 112.018 196.227 112.103 196.069 112.103Z" fill="#282828"/>
<path d="M153.449 79.7726C153.425 79.7726 153.401 79.7726 153.374 79.766C153.137 79.7264 152.978 79.5019 153.018 79.2642C153.742 75.0078 156.392 71.1562 160.107 68.9597C160.314 68.8365 160.58 68.9047 160.703 69.1138C160.826 69.3207 160.756 69.587 160.549 69.7102C157.052 71.7791 154.556 75.4061 153.874 79.4117C153.837 79.623 153.654 79.7748 153.445 79.7748L153.449 79.7726Z" fill="#282828"/>
<path d="M153.718 50.7034L153.667 68.7836L141.769 66.0369L139.379 65.4845L139.43 47.4043L153.718 50.7034Z" fill="white"/>
<path d="M195.141 60.28L195.09 78.3536L192.588 77.7725L170.777 72.7347L170.828 54.6611L195.141 60.28Z" fill="white"/>
<path d="M219.491 54.7979L219.264 72.9155L195.09 78.3538L195.14 60.2802L219.491 54.7979Z" fill="white"/>
<path d="M250.926 47.7168L250.875 65.797L248.305 66.3758L236.574 69.0169L236.625 50.9367L250.926 47.7168Z" fill="white"/>
<path d="M161.564 49.8259L153.714 50.704L139.426 47.4049L154.407 46.1328C154.546 46.2649 154.684 46.3969 154.828 46.5312C156.729 48.2479 159.062 49.2493 161.564 49.8281V49.8259Z" fill="white"/>
<path d="M219.492 54.7977L195.141 60.2801L170.828 54.6613L190.312 51.5889C192.652 52.3064 195.143 52.5396 197.58 52.2711C198.368 52.1787 199.191 52.0246 199.847 51.5911C199.847 51.5911 199.849 51.5911 199.853 51.5911L219.492 54.7999V54.7977Z" fill="white"/>
<path d="M250.922 47.7176L236.621 50.9375L227.184 49.8283C229.413 49.2428 231.48 48.2855 233.203 46.7492C233.412 46.56 233.612 46.3663 233.808 46.166L250.92 47.7176H250.922Z" fill="white"/>
<path d="M170.823 54.6613L170.772 72.7349L153.66 68.7843L153.711 50.7041L170.823 54.6613Z" fill="#30D065"/>
<path d="M190.311 51.5861L170.827 54.6585L153.715 50.7035L161.565 49.8254H161.572C164.081 50.4108 166.762 50.5627 169.341 50.5957C175.275 50.6573 181.217 50.2633 187.098 49.4314L187.104 49.4248C187.674 50.5473 188.931 51.1481 190.144 51.5354C190.201 51.5553 190.256 51.5729 190.313 51.5861H190.311Z" fill="#30D065"/>
<path d="M236.626 50.9375L236.576 69.0177L219.266 72.9154L219.492 54.7978L236.626 50.9375Z" fill="#30D065"/>
<path d="M236.624 50.9372L219.49 54.7975L199.852 51.5886C199.984 51.5072 200.109 51.4125 200.224 51.3069C200.734 50.8359 201.027 50.1955 201.192 49.5088C206.978 50.3495 212.817 50.7633 218.671 50.7347C221.504 50.7171 224.462 50.5498 227.182 49.8279H227.189L236.626 50.9372H236.624Z" fill="#30D065"/>
<path d="M190.681 38.2598C189.862 38.4402 189.101 38.821 188.544 39.4372C187.78 40.278 187.501 41.4488 187.303 42.5735C187.259 42.831 187.213 43.0885 187.175 43.3482C186.99 44.486 186.86 45.6371 186.781 46.7904C186.775 46.8652 186.768 46.9466 186.768 47.0237L186.649 47.0369L186.636 46.918C184.569 45.767 182.419 44.7722 180.201 43.9424H180.194C174.793 41.9132 169.027 40.8722 163.256 40.892C161.211 40.8986 159.121 41.0505 157.23 41.845C156.38 42.2015 155.509 42.765 155.262 43.6585C155.027 44.475 155.383 45.3334 155.923 46.0069C156.017 46.1213 156.112 46.2269 156.204 46.3282C158.238 48.4608 161.42 48.9164 164.352 49.1585C164.995 49.2113 165.642 49.2619 166.284 49.3016C166.291 49.3082 166.298 49.3082 166.304 49.3016C173.182 49.7748 180.097 49.7175 186.97 49.1387C187.001 49.2069 187.032 49.284 187.065 49.3522C187.078 49.3764 187.089 49.4028 187.102 49.427L187.096 49.4336C181.215 50.2655 175.275 50.6595 169.339 50.5979C166.76 50.5649 164.079 50.413 161.57 49.8276H161.564C159.061 49.2487 156.728 48.2473 154.827 46.5307C154.681 46.3986 154.545 46.2666 154.406 46.1323C152.153 43.8786 150.858 40.793 150.277 37.6567C149.65 34.3268 149.762 30.9154 149.866 27.5305C149.956 24.6231 150.09 21.5705 151.583 19.0703C153.581 15.7162 157.738 14.0787 161.641 14.246C165.543 14.4199 169.218 16.1366 172.528 18.2098C180.267 23.0583 186.623 30.0813 190.683 38.2598H190.681Z" fill="#30D065"/>
<path d="M201.471 46.8174C201.477 46.8482 201.477 46.8812 201.471 46.912V46.9186C201.464 47.3456 201.438 47.7615 201.398 48.1885C201.365 48.523 201.328 48.862 201.264 49.1943C201.244 49.3022 201.226 49.4078 201.193 49.509C201.028 50.1935 200.736 50.8362 200.225 51.3072C200.111 51.415 199.985 51.5074 199.853 51.5889H199.847C199.191 52.0202 198.365 52.1765 197.58 52.2689C195.143 52.5396 192.652 52.3063 190.312 51.5867C190.255 51.5735 190.2 51.5558 190.143 51.536C188.93 51.1487 187.673 50.5478 187.103 49.4254C187.09 49.4012 187.079 49.3748 187.066 49.3506C187.035 49.2823 187.004 49.2053 186.971 49.1371C186.727 48.4702 186.723 47.7395 186.769 47.022C186.769 46.9472 186.776 46.8658 186.782 46.7888C186.861 45.6377 186.989 44.4866 187.176 43.3466C187.216 43.0891 187.26 42.8316 187.304 42.5719C187.502 41.445 187.781 40.2764 188.545 39.4356C189.1 38.8194 189.863 38.4386 190.682 38.2582C191.017 38.1767 191.362 38.1349 191.701 38.1217C191.758 38.1217 191.809 38.1151 191.864 38.1217C191.857 38.1899 191.857 38.2538 191.857 38.3176C192.229 38.256 192.601 38.2119 192.971 38.1767C194.199 38.0601 195.432 38.0711 196.66 38.1987C196.9 38.2251 197.137 38.256 197.384 38.3022C198.227 38.4496 199.056 38.7159 199.684 39.2838C200.555 40.0673 200.905 41.2624 201.123 42.409C201.171 42.6797 201.215 42.9438 201.253 43.2145C201.431 44.4052 201.504 45.6135 201.469 46.8152L201.471 46.8174Z" fill="#30D065"/>
<path d="M186.973 49.1367C180.1 49.7155 173.183 49.7705 166.307 49.2995C166.3 49.3061 166.294 49.3061 166.287 49.2995C165.645 49.2599 164.998 49.2071 164.355 49.1565C161.423 48.9144 158.241 48.4588 156.207 46.3262C156.113 46.2249 156.018 46.1171 155.926 46.0048C155.386 45.3292 155.03 44.473 155.265 43.6565C155.514 42.7629 156.383 42.1995 157.233 41.843C159.123 41.0485 161.212 40.8966 163.259 40.89C169.03 40.868 174.798 41.9112 180.197 43.9404H180.203C182.422 44.7701 184.572 45.7649 186.639 46.916L186.652 47.0348L186.771 47.0216C186.725 47.7391 186.729 48.4698 186.973 49.1367Z" fill="#30D065"/>
<path d="M237.805 37.9015C237.21 40.9454 235.956 43.9495 233.81 46.1658C233.614 46.3661 233.412 46.562 233.205 46.7491C231.481 48.2853 229.415 49.2427 227.185 49.8281H227.179C224.458 50.55 221.501 50.7172 218.668 50.7348C212.816 50.7635 206.977 50.3497 201.189 49.509C201.219 49.4077 201.239 49.3021 201.259 49.1942C208.537 49.8369 215.864 49.8897 223.145 49.3571H223.151C223.321 49.3439 223.49 49.3329 223.662 49.3197C226.596 49.0952 229.78 48.6572 231.825 46.5356C231.977 46.3793 232.122 46.2032 232.247 46.0206H232.254C232.71 45.3801 232.987 44.6076 232.782 43.8703C232.54 42.9768 231.673 42.4067 230.823 42.0458C228.937 41.2403 226.849 41.0774 224.797 41.0598C219.185 41.007 213.569 41.9666 208.282 43.8505C205.989 44.6692 203.753 45.6618 201.616 46.8327L201.464 46.8129C201.499 45.6112 201.426 44.4029 201.248 43.2123C201.211 42.9415 201.167 42.6774 201.118 42.4067C200.9 41.2601 200.553 40.065 199.679 39.2815C199.052 38.7137 198.222 38.4474 197.379 38.2999C201.486 30.1302 207.886 23.1315 215.659 18.3269C217.167 17.4004 218.741 16.542 220.374 15.873C222.359 15.0542 224.43 14.5062 226.569 14.4248C230.465 14.2795 234.62 15.939 236.599 19.3041C238.078 21.8131 238.188 24.8657 238.267 27.7731C238.353 31.1581 238.436 34.5694 237.798 37.8971L237.805 37.9015Z" fill="#30D065"/>
<path d="M232.257 46.0221H232.25C232.125 46.2048 231.979 46.3808 231.827 46.5371C229.783 48.6587 226.596 49.0967 223.664 49.3212C223.495 49.3344 223.325 49.3454 223.154 49.3586H223.147C215.865 49.8912 208.54 49.8406 201.262 49.1958C201.326 48.8634 201.365 48.5223 201.396 48.19C201.436 47.763 201.462 47.347 201.469 46.92V46.9134C201.519 46.8892 201.57 46.8628 201.62 46.8386C203.758 45.6677 205.994 44.673 208.287 43.8564C213.571 41.9703 219.188 41.0107 224.802 41.0657C226.854 41.0833 228.942 41.2462 230.828 42.0517C231.678 42.4126 232.543 42.9805 232.787 43.8762C232.992 44.6135 232.714 45.386 232.259 46.0265L232.257 46.0221Z" fill="#30D065"/>
<path d="M220.378 15.8772C218.747 16.5462 217.171 17.4046 215.664 18.3312C207.89 23.1357 201.49 30.1345 197.383 38.3041C197.139 38.2601 196.899 38.2271 196.659 38.2007C195.433 38.0708 194.198 38.062 192.97 38.1786C192.598 38.1324 192.235 38.1126 191.863 38.1258C191.879 37.0936 192.002 36.0504 192.156 35.0248C193.329 27.1875 196.076 19.5923 200.178 12.807C201.897 9.96122 204.122 7.06707 207.346 6.23734C210.723 5.3724 214.341 7.10669 216.676 9.69932C218.294 11.4974 219.42 13.6455 220.378 15.8772Z" fill="#30D065"/>
<path d="M153.663 69.2198C153.63 69.2198 153.597 69.2154 153.566 69.2088L139.278 65.9097C139.08 65.8635 138.941 65.6874 138.941 65.4849L138.992 47.4047C138.992 47.2727 139.054 47.1472 139.157 47.0658C139.261 46.9843 139.397 46.9535 139.525 46.9821L153.813 50.2813C154.011 50.3275 154.152 50.5035 154.149 50.706L154.099 68.7862C154.099 68.9183 154.037 69.0437 153.934 69.1252C153.857 69.1868 153.76 69.2198 153.663 69.2198ZM139.811 65.1372L153.23 68.236L153.278 51.0494L139.859 47.9505L139.811 65.1372Z" fill="#282828"/>
<path d="M195.09 78.7868C195.057 78.7868 195.024 78.7824 194.991 78.7758L170.681 73.157C170.482 73.1108 170.342 72.9347 170.344 72.7322L170.394 54.6586C170.394 54.5266 170.456 54.4011 170.559 54.3197C170.663 54.2382 170.799 54.2074 170.927 54.236L195.24 59.8549C195.438 59.9011 195.579 60.0772 195.577 60.2796L195.526 78.3532C195.526 78.4853 195.465 78.6107 195.361 78.6944C195.284 78.756 195.187 78.789 195.09 78.789V78.7868ZM171.213 72.3867L194.655 77.8052L194.703 60.6252L171.262 55.2066L171.213 72.3867Z" fill="#282828"/>
<path d="M195.092 78.787C194.995 78.787 194.896 78.754 194.819 78.6924C194.716 78.6087 194.656 78.4833 194.656 78.3512L194.707 60.2776C194.707 60.0751 194.848 59.8991 195.048 59.8551L219.398 54.3727C219.528 54.3419 219.665 54.3749 219.768 54.4585C219.872 54.5421 219.931 54.6698 219.929 54.8018L219.702 72.9195C219.7 73.1219 219.559 73.2936 219.361 73.3398L195.187 78.7782C195.156 78.7848 195.123 78.7892 195.092 78.7892V78.787ZM195.578 60.6276L195.53 77.8076L218.835 72.5651L219.051 55.3433L195.578 60.6276Z" fill="#282828"/>
<path d="M236.573 69.453C236.476 69.453 236.377 69.42 236.3 69.3584C236.196 69.2748 236.137 69.1493 236.137 69.0173L236.187 50.9371C236.187 50.7346 236.328 50.5585 236.528 50.5145L250.83 47.2946C250.96 47.266 251.096 47.2968 251.197 47.3804C251.301 47.4641 251.36 47.5895 251.36 47.7216L251.31 65.8018C251.31 66.0043 251.167 66.1803 250.968 66.2243L236.669 69.4442C236.639 69.4508 236.606 69.4552 236.575 69.4552L236.573 69.453ZM237.059 51.287L237.01 68.4736L250.438 65.4496L250.486 48.263L237.057 51.287H237.059Z" fill="#282828"/>
<path d="M153.715 51.1399C153.682 51.1399 153.649 51.1355 153.618 51.1289L139.33 47.8298C139.121 47.7814 138.978 47.5877 138.993 47.3742C139.009 47.1608 139.176 46.9891 139.392 46.9715L154.373 45.6972C154.492 45.6818 154.62 45.7302 154.712 45.816C154.846 45.9459 154.983 46.0757 155.124 46.2078C156.807 47.7264 158.946 48.7718 161.665 49.4013C161.871 49.4497 162.012 49.6389 162.001 49.8502C161.99 50.0615 161.825 50.2332 161.616 50.2574L153.766 51.1355C153.75 51.1355 153.733 51.1377 153.717 51.1377L153.715 51.1399ZM142.224 47.6031L153.741 50.2618L159.34 49.6367C157.45 48.9699 155.865 48.0499 154.538 46.8526C154.439 46.7624 154.344 46.6722 154.25 46.5819L142.226 47.6031H142.224Z" fill="#282828"/>
<path d="M195.142 60.7154C195.109 60.7154 195.076 60.711 195.045 60.7044L170.732 55.0856C170.529 55.0394 170.386 54.8545 170.395 54.6454C170.402 54.4363 170.556 54.2624 170.762 54.2316L190.247 51.1592C190.313 51.1482 190.379 51.1526 190.443 51.1724C192.716 51.8701 195.168 52.1012 197.534 51.8371C198.225 51.7557 199.013 51.6192 199.609 51.2274C199.678 51.1812 199.755 51.1592 199.834 51.1548C199.865 51.1548 199.895 51.1548 199.928 51.1592L219.565 54.3681C219.772 54.4011 219.923 54.5772 219.93 54.7863C219.937 54.9953 219.794 55.178 219.589 55.2242L195.238 60.7066C195.208 60.7132 195.175 60.7176 195.144 60.7176L195.142 60.7154ZM173.113 54.74L195.144 59.8307L217.208 54.8633L199.942 52.0418C199.224 52.4643 198.377 52.6118 197.633 52.6976C195.177 52.9683 192.641 52.7372 190.284 52.0286L173.113 54.7356V54.74Z" fill="#282828"/>
<path d="M236.624 51.3735C236.606 51.3735 236.591 51.3735 236.573 51.3713L227.138 50.262C226.931 50.2378 226.768 50.0683 226.755 49.8593C226.74 49.6502 226.876 49.4609 227.079 49.4081C229.458 48.783 231.368 47.808 232.918 46.4259C233.118 46.2454 233.312 46.0583 233.501 45.8625C233.593 45.7678 233.725 45.7194 233.853 45.7326L250.965 47.2842C251.178 47.304 251.345 47.4757 251.361 47.6892C251.374 47.9027 251.231 48.0964 251.022 48.1426L236.721 51.3625C236.69 51.3691 236.657 51.3735 236.626 51.3735H236.624ZM229.233 49.6304L236.602 50.4975L248.128 47.9027L233.978 46.6196C233.822 46.7758 233.664 46.9277 233.499 47.0751C232.29 48.1536 230.884 48.9987 229.233 49.6326V49.6304Z" fill="#282828"/>
<path d="M170.776 73.1681C170.743 73.1681 170.71 73.1637 170.679 73.1571L153.567 69.2065C153.369 69.1603 153.228 68.9843 153.23 68.7818L153.281 50.7016C153.281 50.5695 153.343 50.4441 153.446 50.3626C153.55 50.2812 153.686 50.2504 153.814 50.279L170.926 54.2362C171.124 54.2824 171.264 54.4585 171.262 54.661L171.212 72.7346C171.212 72.8666 171.15 72.9921 171.047 73.0735C170.97 73.1351 170.873 73.1681 170.776 73.1681ZM154.1 68.4384L170.342 72.1865L170.391 55.0065L154.148 51.2518L154.1 68.4384Z" fill="#282828"/>
<path d="M170.827 55.0968C170.794 55.0968 170.761 55.0924 170.731 55.0858L153.619 51.1286C153.412 51.0802 153.269 50.891 153.282 50.6797C153.293 50.4684 153.458 50.2967 153.667 50.2725L161.518 49.3944C161.551 49.3944 161.639 49.3944 161.672 49.4032C164.33 50.0238 167.172 50.1361 169.348 50.1625C175.223 50.2263 181.156 49.8345 187.004 49.007C187.063 48.9938 187.121 48.9916 187.18 49.0004C187.314 49.0246 187.435 49.106 187.497 49.2293C187.911 50.048 188.795 50.6489 190.281 51.122C190.332 51.1397 190.373 51.1551 190.413 51.1639C190.618 51.2101 190.759 51.3949 190.752 51.604C190.745 51.8131 190.591 51.987 190.384 52.02L170.9 55.0924C170.878 55.0968 170.856 55.0968 170.832 55.0968H170.827ZM156.295 50.8535L170.843 54.2165L188.646 51.4082C187.974 51.0692 187.314 50.5916 186.874 49.9028C181.064 50.7127 175.159 51.0956 169.335 51.0318C167.13 51.0032 164.258 50.891 161.535 50.2659L156.293 50.8535H156.295Z" fill="#282828"/>
<path d="M219.262 73.3492C219.163 73.3492 219.066 73.3162 218.989 73.2524C218.885 73.1688 218.826 73.0411 218.828 72.909L219.055 54.7914C219.057 54.589 219.198 54.4173 219.394 54.3711L236.528 50.5107C236.657 50.4821 236.794 50.5107 236.895 50.5966C236.999 50.6802 237.058 50.8056 237.058 50.9377L237.007 69.0179C237.007 69.2204 236.867 69.3964 236.666 69.4405L219.354 73.3382C219.323 73.3448 219.29 73.3492 219.26 73.3492H219.262ZM219.92 55.148L219.704 72.3698L236.138 68.6702L236.186 51.4835L219.92 55.148Z" fill="#282828"/>
<path d="M219.489 55.2333C219.465 55.2333 219.443 55.2333 219.419 55.2267L199.783 52.0178C199.602 51.9892 199.461 51.8505 199.426 51.6722C199.391 51.494 199.47 51.3113 199.627 51.2167C199.739 51.1484 199.84 51.0714 199.926 50.99C200.326 50.6202 200.602 50.103 200.769 49.4075C200.822 49.1897 201.028 49.04 201.255 49.0796C207.021 49.9181 212.849 50.3297 218.668 50.3011C221.07 50.2857 224.195 50.1712 227.069 49.4075C227.104 49.3987 227.144 49.3921 227.181 49.3921L236.676 50.5036C236.887 50.5278 237.048 50.7017 237.059 50.9129C237.07 51.1242 236.927 51.3135 236.72 51.3597L219.586 55.2201C219.555 55.2267 219.522 55.2311 219.489 55.2311V55.2333ZM200.822 51.3069L219.476 54.3551L234.042 51.0736L227.215 50.2703C224.268 51.0406 221.105 51.1572 218.673 51.1726C212.953 51.1947 207.195 50.8029 201.508 49.9974C201.343 50.5102 201.114 50.9504 200.822 51.3091V51.3069Z" fill="#282828"/>
<path d="M170.528 51.0387C170.132 51.0387 169.734 51.0387 169.337 51.0321C167.121 51.0035 164.231 50.8912 161.498 50.2552C161.487 50.2552 161.478 50.2508 161.467 50.2486C158.602 49.5839 156.335 48.4724 154.537 46.8504C154.387 46.7139 154.246 46.5775 154.105 46.4432C151.984 44.3216 150.516 41.313 149.851 37.7344C149.221 34.3846 149.327 30.9337 149.428 27.5971C149.514 24.8394 149.618 21.5117 151.209 18.8443C153.143 15.5958 157.244 13.6172 161.659 13.8086C165.085 13.9627 168.613 15.2414 172.76 17.8385C180.615 22.7596 186.947 29.754 191.073 38.0645C191.133 38.1833 191.133 38.3242 191.075 38.4453C191.018 38.5663 190.906 38.6543 190.776 38.6829C189.99 38.8568 189.33 39.2178 188.87 39.7262C188.159 40.5097 187.911 41.6453 187.735 42.6467C187.691 42.902 187.647 43.1551 187.607 43.4104C187.426 44.5131 187.297 45.6575 187.217 46.8152C187.211 46.8878 187.204 46.956 187.204 47.0177C187.204 47.2399 187.035 47.427 186.812 47.4512L186.694 47.4644C186.581 47.4732 186.462 47.4424 186.374 47.3676C186.317 47.3214 186.273 47.2598 186.245 47.1915C184.268 46.1021 182.195 45.1491 180.08 44.3546C180.067 44.3502 180.054 44.348 180.043 44.3436C174.705 42.3386 169.12 41.3218 163.439 41.3218C163.38 41.3218 163.32 41.3218 163.259 41.3218C161.428 41.3284 159.301 41.4406 157.4 42.2396C156.429 42.6467 155.85 43.1595 155.683 43.767C155.457 44.5571 155.95 45.334 156.264 45.728C156.348 45.8292 156.438 45.9304 156.526 46.0251C158.478 48.0719 161.608 48.4878 164.39 48.7167C165.024 48.7696 165.664 48.8202 166.3 48.8598C166.313 48.8598 166.322 48.8598 166.335 48.8598C173.16 49.3308 180.091 49.2758 186.936 48.6991C187.118 48.6793 187.292 48.785 187.369 48.9522L187.464 49.1701C187.539 49.3396 187.536 49.6125 187.402 49.7401C187.336 49.8018 187.248 49.848 187.158 49.859C181.651 50.6381 176.063 51.0343 170.526 51.0343L170.528 51.0387ZM161.639 49.3968C161.65 49.3968 161.661 49.4012 161.67 49.4034C164.328 50.0241 167.17 50.1363 169.346 50.1627C171.479 50.1847 173.614 50.1473 175.755 50.0505C172.593 50.0769 169.43 49.9492 166.291 49.7335C166.28 49.7335 166.272 49.7335 166.261 49.7335C165.616 49.6939 164.964 49.6411 164.319 49.5905C162.772 49.4628 161.119 49.278 159.585 48.8026C160.23 49.0315 160.915 49.2295 161.639 49.399V49.3968ZM161.071 14.6692C157.186 14.6692 153.652 16.4475 151.957 19.2932C150.48 21.767 150.386 24.835 150.302 27.5443C150.199 30.9161 150.093 34.3186 150.707 37.5759C151.149 39.9507 152.201 43.3092 154.717 45.8248C154.847 45.9502 154.981 46.0801 155.124 46.2099C155.765 46.7866 156.469 47.295 157.248 47.7395C156.762 47.427 156.308 47.0617 155.894 46.6281C155.791 46.5159 155.692 46.4036 155.593 46.2848C154.862 45.3714 154.6 44.3986 154.849 43.5359C155.091 42.6621 155.837 41.9557 157.068 41.4428C159.11 40.5845 161.344 40.4635 163.259 40.4569C169.082 40.4326 174.835 41.4648 180.32 43.5227C180.333 43.5271 180.346 43.5293 180.357 43.5337C182.424 44.3062 184.451 45.2306 186.388 46.2804C186.469 45.2636 186.59 44.2556 186.751 43.2806C186.788 43.0253 186.834 42.7634 186.881 42.5015C187.092 41.2976 187.402 40.0563 188.23 39.1473C188.701 38.6257 189.328 38.2296 190.061 37.9853C186.005 30.0269 179.873 23.3252 172.302 18.5823C168.29 16.0689 164.896 14.8321 161.626 14.6846C161.443 14.6758 161.258 14.6736 161.075 14.6736L161.071 14.6692Z" fill="#282828"/>
<path d="M195.617 52.8125C193.777 52.8125 191.932 52.5396 190.187 52.0048C190.145 51.996 190.075 51.974 190.002 51.9476C188.93 51.6064 187.409 50.988 186.716 49.6234L186.677 49.5464L186.575 49.3175C186.283 48.5164 186.291 47.6955 186.335 46.9934C186.335 46.934 186.342 46.8371 186.351 46.7491C186.43 45.5738 186.564 44.403 186.747 43.2761C186.784 43.0208 186.831 42.7589 186.877 42.497C187.088 41.2931 187.398 40.0518 188.226 39.1429C188.807 38.498 189.626 38.0446 190.592 37.8334C190.933 37.7519 191.305 37.7013 191.69 37.6881C191.807 37.6837 191.86 37.6837 191.921 37.6925C192.029 37.7057 192.122 37.7563 192.19 37.8312C192.438 37.7981 192.685 37.7695 192.934 37.7453C194.177 37.6265 195.447 37.6353 196.71 37.7695C196.961 37.7959 197.21 37.829 197.467 37.8774C198.577 38.0711 199.376 38.4166 199.981 38.9646C200.98 39.8604 201.348 41.2359 201.554 42.332C201.605 42.6115 201.649 42.8822 201.689 43.1595C201.869 44.3502 201.944 45.5738 201.909 46.7931C201.915 46.8459 201.915 46.901 201.909 46.9538C201.9 47.3918 201.874 47.8055 201.834 48.2303C201.801 48.5802 201.759 48.9324 201.693 49.2779C201.669 49.41 201.645 49.531 201.61 49.6433C201.411 50.4686 201.042 51.1487 200.522 51.6285C200.395 51.7473 200.245 51.8617 200.082 51.9608C200.069 51.9696 200.056 51.9762 200.042 51.9828C199.305 52.4538 198.412 52.61 197.633 52.7025C196.966 52.7773 196.29 52.8125 195.617 52.8125ZM191.507 38.5706C191.263 38.5905 191.019 38.6279 190.788 38.6829C189.993 38.859 189.333 39.2199 188.873 39.7283C188.162 40.5118 187.913 41.6475 187.737 42.6489C187.693 42.9042 187.649 43.1573 187.61 43.4126C187.429 44.5152 187.299 45.6597 187.22 46.8173C187.214 46.89 187.207 46.9582 187.207 47.0198C187.167 47.6603 187.159 48.369 187.383 48.9852L187.464 49.1723C187.907 50.046 188.792 50.6469 190.277 51.12C190.328 51.1377 190.37 51.1531 190.409 51.1619C192.714 51.8683 195.163 52.0972 197.533 51.8353C198.225 51.7539 199.012 51.6174 199.609 51.2257C199.629 51.2125 199.646 51.2015 199.666 51.1927C199.763 51.1311 199.851 51.0628 199.928 50.9902C200.329 50.6205 200.604 50.1032 200.771 49.4078C200.804 49.2999 200.819 49.2163 200.835 49.1327C200.899 48.7937 200.936 48.4658 200.967 48.1467C201.004 47.7329 201.031 47.3257 201.037 46.9098C201.037 46.8966 201.037 46.8812 201.039 46.8658C201.039 46.8459 201.037 46.8239 201.037 46.8041C201.07 45.6245 201 44.4382 200.826 43.2805C200.789 43.0098 200.747 42.7523 200.698 42.4882C200.507 41.4692 200.201 40.3269 199.398 39.6095C198.918 39.1759 198.255 38.8964 197.313 38.7335C197.076 38.6895 196.847 38.6587 196.618 38.6345C195.414 38.509 194.201 38.5002 193.017 38.6125C192.656 38.6477 192.295 38.6895 191.934 38.7511C191.811 38.7709 191.679 38.7357 191.582 38.6543C191.554 38.6301 191.529 38.6037 191.507 38.5729V38.5706Z" fill="#282828"/>
<path d="M175.56 50.0501C172.459 50.0501 169.365 49.9444 166.29 49.7332C166.279 49.7332 166.27 49.7332 166.259 49.7332C165.614 49.6935 164.963 49.6407 164.318 49.5901C161.378 49.348 158.056 48.9012 155.891 46.6277C155.787 46.5155 155.688 46.4032 155.589 46.2844C154.859 45.371 154.597 44.3982 154.845 43.5355C155.087 42.6618 155.834 41.9553 157.064 41.4425C159.106 40.5841 161.34 40.4631 163.255 40.4565C169.078 40.4323 174.832 41.4645 180.316 43.5223C180.329 43.5267 180.343 43.5289 180.354 43.5333C182.585 44.3696 184.771 45.3798 186.848 46.5375C186.897 46.5639 186.939 46.5991 186.972 46.6409C187.007 46.6607 187.04 46.6828 187.071 46.7114C187.163 46.7994 187.211 46.9248 187.203 47.0525C187.163 47.6643 187.154 48.373 187.379 48.9915C187.425 49.1191 187.41 49.26 187.337 49.3744C187.264 49.4889 187.141 49.5615 187.007 49.5725C183.206 49.8916 179.381 50.0523 175.56 50.0523V50.0501ZM166.305 48.8638C166.305 48.8638 166.325 48.8638 166.336 48.8638C172.985 49.3216 179.737 49.2798 186.413 48.745C186.313 48.2586 186.302 47.77 186.32 47.3144C186.289 47.2792 186.265 47.2374 186.247 47.1934C184.271 46.1039 182.198 45.1509 180.083 44.3564C180.07 44.352 180.056 44.3498 180.045 44.3454C174.708 42.3404 169.122 41.3236 163.442 41.3236C163.383 41.3236 163.323 41.3236 163.262 41.3236C161.43 41.3302 159.304 41.4425 157.403 42.2414C156.432 42.6485 155.853 43.1614 155.686 43.7688C155.459 44.5589 155.952 45.3358 156.267 45.7298C156.351 45.831 156.441 45.9323 156.529 46.0269C158.481 48.0737 161.611 48.4897 164.393 48.7186C165.027 48.7714 165.667 48.822 166.303 48.8616H166.308L166.305 48.8638Z" fill="#282828"/>
<path d="M218.129 51.1726C212.475 51.1726 206.76 50.7588 201.132 49.9401C201.004 49.9225 200.892 49.8476 200.826 49.7398C200.758 49.6319 200.74 49.4977 200.78 49.3766C200.806 49.2996 200.82 49.216 200.835 49.1324C200.875 48.9101 201.075 48.734 201.304 48.7604C208.525 49.3987 215.863 49.4537 223.121 48.9233L223.638 48.8881C226.418 48.6746 229.552 48.2762 231.52 46.236C231.656 46.0951 231.786 45.9389 231.9 45.776C231.911 45.7584 231.927 45.7408 231.942 45.7254C232.2 45.3512 232.561 44.6668 232.374 43.9911C232.208 43.3815 231.634 42.8643 230.663 42.4505C228.768 41.6406 226.638 41.5151 224.805 41.4997C219.25 41.4579 213.734 42.3779 208.441 44.2662C206.137 45.0893 203.916 46.0819 201.839 47.222C201.757 47.266 201.665 47.2836 201.572 47.2726L201.42 47.2528C201.198 47.2242 201.035 47.0327 201.042 46.8082C201.075 45.6286 201.004 44.4423 200.831 43.2846C200.793 43.0139 200.751 42.7564 200.703 42.4923C200.511 41.4733 200.206 40.331 199.402 39.6136C198.922 39.18 198.26 38.9005 197.318 38.7376C197.182 38.7134 197.065 38.6276 197.003 38.5043C196.942 38.3811 196.942 38.2358 197.003 38.1126C201.178 29.8087 207.554 22.8429 215.444 17.9635C217.174 16.8983 218.739 16.0862 220.222 15.4765C222.448 14.5588 224.523 14.0746 226.568 13.9954C230.998 13.8347 235.072 15.8287 236.989 19.0904C238.554 21.7446 238.642 24.9447 238.719 27.7684C238.802 31.1358 238.888 34.6132 238.241 37.9871C237.563 41.4623 236.141 44.3961 234.132 46.4715C233.93 46.6806 233.72 46.8809 233.505 47.0745C231.85 48.5535 229.821 49.5923 227.305 50.2526C227.294 50.257 227.281 50.2592 227.268 50.2614C224.31 51.0427 221.125 51.1594 218.68 51.1748C218.497 51.1748 218.317 51.1748 218.134 51.1748L218.129 51.1726ZM212.247 50.1536C214.39 50.2614 216.521 50.3098 218.671 50.301C221.072 50.2856 224.197 50.1712 227.072 49.4075C227.085 49.4031 227.098 49.4009 227.109 49.3987C227.578 49.2754 228.029 49.1367 228.46 48.9849C226.918 49.4581 225.254 49.6363 223.698 49.7552L223.185 49.7904C219.549 50.0567 215.898 50.1778 212.244 50.1514L212.247 50.1536ZM232.574 46.324C232.444 46.5045 232.301 46.6784 232.142 46.839C231.722 47.2748 231.258 47.6446 230.765 47.9549C231.553 47.5125 232.266 47.0041 232.919 46.4231C233.12 46.2426 233.313 46.0555 233.503 45.8596C235.893 43.3925 236.932 40.1242 237.381 37.8176C238.01 34.5383 237.924 31.1072 237.843 27.7905C237.768 25.0702 237.684 21.9889 236.234 19.5284C234.478 16.5396 230.721 14.7172 226.596 14.8625C224.657 14.9373 222.679 15.3995 220.55 16.2799C219.109 16.8697 217.588 17.662 215.898 18.7008C208.307 23.3931 202.14 30.0574 198.035 37.9937C198.859 38.1984 199.486 38.5131 199.983 38.9621C200.982 39.8579 201.35 41.2334 201.557 42.3294C201.607 42.609 201.652 42.8797 201.691 43.157C201.841 44.1496 201.918 45.1664 201.92 46.1832C203.894 45.1356 205.985 44.2134 208.148 43.4431C213.538 41.5195 219.153 40.5731 224.814 40.626C226.733 40.6436 228.969 40.7778 231.007 41.6472C232.233 42.1688 232.977 42.8797 233.214 43.7578C233.432 44.5347 233.221 45.4305 232.62 46.2756C232.609 46.2932 232.594 46.3086 232.58 46.324H232.574Z" fill="#282828"/>
<path d="M213.206 50.1559C209.198 50.1559 205.193 49.9798 201.222 49.6299C201.099 49.6189 200.987 49.5573 200.912 49.4582C200.837 49.3592 200.808 49.2359 200.833 49.1127C200.894 48.7936 200.929 48.4656 200.96 48.1465C200.998 47.7327 201.024 47.3256 201.031 46.9096C201.033 46.7468 201.128 46.5949 201.271 46.5223L201.425 46.4452C203.526 45.2942 205.791 44.2796 208.137 43.4432C213.527 41.5197 219.142 40.5733 224.802 40.6261C226.722 40.6437 228.958 40.778 230.996 41.6473C232.222 42.1689 232.965 42.8798 233.203 43.758C233.421 44.5349 233.21 45.4306 232.609 46.2758C232.598 46.2934 232.582 46.3088 232.569 46.3242C232.439 46.5047 232.296 46.6785 232.138 46.8392C229.959 49.0995 226.638 49.5287 223.695 49.7553L223.183 49.7928C219.868 50.0349 216.534 50.1559 213.204 50.1559H213.206ZM201.764 48.8024C208.833 49.4032 216.014 49.445 223.114 48.9234L223.631 48.886C226.411 48.6725 229.545 48.2764 231.513 46.2339C231.649 46.0931 231.779 45.9368 231.891 45.774C231.905 45.7564 231.918 45.7387 231.933 45.7233C232.191 45.3492 232.552 44.6647 232.365 43.9891C232.2 43.3794 231.625 42.8622 230.654 42.4484C228.76 41.6385 226.629 41.5131 224.796 41.4977C219.241 41.4558 213.725 42.3758 208.432 44.2642C206.154 45.0763 203.956 46.0579 201.896 47.1825C201.882 47.5369 201.86 47.8802 201.827 48.2301C201.81 48.4216 201.788 48.6131 201.764 48.8024Z" fill="#282828"/>
<path d="M197.385 38.74C197.359 38.74 197.333 38.74 197.306 38.7334C197.073 38.6894 196.844 38.6608 196.615 38.6344C195.411 38.5089 194.198 38.5001 193.014 38.6123C192.981 38.6145 192.951 38.6123 192.92 38.6123C192.552 38.5661 192.213 38.5529 191.879 38.5617C191.762 38.5749 191.645 38.5199 191.56 38.4363C191.474 38.3526 191.428 38.2382 191.43 38.1194C191.443 37.2104 191.535 36.2354 191.727 34.9589C192.9 27.1216 195.695 19.3833 199.808 12.5804C201.426 9.90411 203.733 6.71504 207.241 5.81489C210.463 4.98956 214.295 6.39812 217.002 9.40672C218.426 10.9891 219.59 12.9303 220.781 15.7034C220.827 15.8113 220.827 15.9323 220.783 16.0402C220.739 16.148 220.653 16.2338 220.545 16.2779C219.106 16.8677 217.583 17.66 215.892 18.6988C208.141 23.4901 201.875 30.3371 197.773 38.4979C197.698 38.6476 197.546 38.7378 197.383 38.7378L197.385 38.74ZM194.696 37.6616C195.365 37.6616 196.038 37.6968 196.71 37.7672C196.853 37.7826 196.998 37.8002 197.143 37.8222C201.32 29.6438 207.639 22.7814 215.439 17.9593C217.013 16.9909 218.446 16.2316 219.808 15.6462C218.718 13.1768 217.644 11.4205 216.357 9.98995C213.865 7.21905 210.375 5.91172 207.461 6.65782C204.259 7.48095 202.091 10.4939 200.559 13.0294C196.505 19.7332 193.752 27.3593 192.594 35.0865C192.44 36.1166 192.352 36.9397 192.321 37.688C192.537 37.6946 192.757 37.7122 192.986 37.7386C193.551 37.6858 194.124 37.6594 194.7 37.6594L194.696 37.6616Z" fill="#282828"/>
<path d="M201.026 41.8585C200.918 41.8585 200.81 41.8189 200.727 41.7397C200.551 41.5746 200.544 41.2995 200.709 41.1234C206.044 35.4716 213.133 31.3053 220.667 29.3928C220.9 29.3355 221.138 29.4742 221.195 29.7075C221.254 29.9408 221.113 30.1785 220.88 30.2379C213.505 32.1086 206.566 36.1891 201.341 41.7221C201.255 41.8123 201.141 41.8585 201.024 41.8585H201.026Z" fill="#282828"/>
<path d="M187.182 41.2996C187.074 41.2996 186.964 41.2578 186.878 41.1763C182.144 36.5919 176.268 33.3082 169.883 31.6773C169.65 31.6179 169.509 31.3802 169.568 31.1469C169.628 30.9136 169.861 30.775 170.099 30.8322C176.629 32.4983 182.641 35.859 187.483 40.5491C187.655 40.7163 187.662 40.9914 187.494 41.1653C187.409 41.2534 187.296 41.2974 187.182 41.2974V41.2996Z" fill="#282828"/>
<path d="M156.806 47.268C156.687 47.268 156.568 47.2195 156.482 47.1227C156.322 46.9444 156.337 46.6693 156.515 46.5086L163.085 40.6081C163.263 40.4474 163.538 40.4606 163.699 40.6411C163.86 40.8194 163.844 41.0945 163.666 41.2552L157.096 47.1557C157.013 47.2305 156.909 47.268 156.806 47.268Z" fill="#282828"/>
<path d="M161.616 48.6904C161.499 48.6904 161.381 48.6442 161.295 48.5496C161.132 48.3735 161.143 48.0962 161.321 47.9333L168.509 41.3175C168.688 41.1546 168.963 41.1656 169.126 41.3417C169.288 41.52 169.277 41.7951 169.099 41.9579L161.911 48.5738C161.827 48.6508 161.722 48.6882 161.616 48.6882V48.6904Z" fill="#282828"/>
<path d="M168.23 49.5063C168.118 49.5063 168.008 49.4645 167.922 49.3787C167.75 49.2092 167.75 48.9341 167.922 48.7624L174.524 42.1268C174.694 41.9551 174.971 41.9551 175.141 42.1268C175.312 42.2963 175.312 42.5714 175.141 42.743L168.538 49.3787C168.452 49.4645 168.34 49.5063 168.23 49.5063Z" fill="#282828"/>
<path d="M174.51 49.7648C174.4 49.7648 174.29 49.723 174.204 49.6394C174.033 49.4699 174.03 49.1948 174.2 49.0231L179.337 43.807C179.506 43.6354 179.784 43.6354 179.953 43.8026C180.125 43.9721 180.127 44.2472 179.957 44.4189L174.821 49.635C174.735 49.7208 174.623 49.7648 174.51 49.7648Z" fill="#282828"/>
<path d="M180.302 49.4668C180.183 49.4668 180.064 49.4184 179.978 49.3215C179.818 49.1432 179.833 48.8681 180.011 48.7075L183.698 45.4062C183.876 45.2455 184.151 45.2609 184.312 45.4392C184.473 45.6174 184.457 45.8948 184.279 46.0532L180.592 49.3545C180.509 49.4294 180.405 49.4646 180.302 49.4646V49.4668Z" fill="#282828"/>
<path d="M204.205 50.1405C204.091 50.1405 203.977 50.0965 203.891 50.0063C203.723 49.8324 203.73 49.5573 203.906 49.39L211.07 42.5541C211.244 42.389 211.519 42.3956 211.684 42.5695C211.851 42.7434 211.845 43.0185 211.669 43.1858L204.505 50.0217C204.421 50.1031 204.313 50.1427 204.205 50.1427V50.1405Z" fill="#282828"/>
<path d="M210.372 50.0175C210.264 50.0175 210.156 49.9779 210.072 49.8986C209.899 49.7336 209.892 49.4585 210.057 49.2824L217.54 41.4054C217.705 41.2316 217.982 41.225 218.156 41.39C218.33 41.5551 218.337 41.8302 218.172 42.0063L210.689 49.8832C210.603 49.9735 210.488 50.0197 210.374 50.0197L210.372 50.0175Z" fill="#282828"/>
<path d="M218.091 49.8605C217.995 49.8605 217.898 49.8297 217.816 49.7615C217.629 49.6096 217.603 49.3345 217.755 49.1496L224.745 40.5838C224.897 40.3967 225.172 40.3681 225.359 40.5222C225.546 40.6741 225.572 40.9492 225.42 41.134L218.433 49.6998C218.347 49.8055 218.221 49.8605 218.096 49.8605H218.091Z" fill="#282828"/>
<path d="M225.619 49.8149C225.529 49.8149 225.439 49.7885 225.362 49.7313C225.168 49.5883 225.126 49.3175 225.267 49.1217L230.556 41.9094C230.699 41.7157 230.969 41.6739 231.165 41.8148C231.359 41.9578 231.401 42.2285 231.26 42.4244L225.971 49.6389C225.885 49.7555 225.753 49.8171 225.619 49.8171V49.8149Z" fill="#282828"/>
<path d="M191.056 184.033L163.039 185.149L177.354 128.901L179.64 130.074L204.411 130.697L190.354 183.738C190.354 183.738 190.59 183.857 191.058 184.033H191.056Z" fill="white"/>
<path d="M177.357 128.901L163.043 185.149L144.012 171.435L157.435 118.695L177.357 128.901Z" fill="white"/>
<path d="M234.172 131.439L221.093 182.832L208.871 183.318L222.151 131.14L234.172 131.439Z" fill="white"/>
<path d="M141.802 110.691L129.081 160.675L118.699 153.194L130.932 105.127L141.802 110.691Z" fill="white"/>
<path d="M157.432 118.696L144.011 171.436C144.011 171.436 140.573 171.042 134.968 166.602C129.355 162.168 129.078 160.682 129.078 160.682L141.799 110.691L157.432 118.696Z" fill="#30D065"/>
<path d="M222.153 131.14L208.812 183.569C208.812 183.569 208.404 185.173 200.963 185.345C195.679 185.468 192.411 184.533 191.07 184.036H191.064C190.595 183.857 190.359 183.738 190.359 183.738L204.416 130.697L222.155 131.14H222.153Z" fill="#30D065"/>
<path d="M163.041 185.585C162.909 185.585 162.786 185.525 162.702 185.424C162.616 185.316 162.585 185.175 162.618 185.043L176.933 128.796C176.966 128.668 177.054 128.56 177.175 128.507C177.294 128.452 177.433 128.454 177.554 128.516L179.752 129.643L204.422 130.264C204.554 130.268 204.679 130.332 204.759 130.437C204.838 130.543 204.864 130.682 204.831 130.809L190.869 183.492C190.964 183.531 191.076 183.578 191.21 183.628C191.404 183.701 191.518 183.901 191.485 184.106C191.452 184.31 191.28 184.462 191.074 184.471L163.054 185.587C163.054 185.587 163.043 185.587 163.037 185.587L163.041 185.585ZM177.642 129.537L163.604 184.689L189.927 183.639C189.927 183.639 189.929 183.628 189.931 183.622L203.847 131.115L179.629 130.508C179.563 130.508 179.499 130.49 179.442 130.459L177.642 129.537Z" fill="#282828"/>
<path d="M163.043 185.584C162.953 185.584 162.862 185.556 162.788 185.503L143.759 171.789C143.614 171.684 143.548 171.501 143.592 171.329L157.013 118.59C157.046 118.462 157.134 118.354 157.255 118.301C157.373 118.246 157.514 118.251 157.633 118.31L177.556 128.516C177.736 128.608 177.828 128.813 177.78 129.011L163.466 185.259C163.43 185.397 163.327 185.512 163.193 185.56C163.144 185.578 163.094 185.587 163.043 185.587V185.584ZM144.507 171.254L162.777 184.42L176.849 129.13L157.721 119.331L144.507 171.254Z" fill="#282828"/>
<path d="M208.869 183.754C208.737 183.754 208.614 183.694 208.53 183.593C208.444 183.485 208.414 183.344 208.447 183.212L221.724 131.034C221.775 130.838 221.923 130.706 222.158 130.706L234.179 131.005C234.311 131.01 234.435 131.071 234.516 131.177C234.595 131.283 234.624 131.419 234.591 131.547L221.511 182.939C221.463 183.127 221.3 183.259 221.106 183.267L208.885 183.754C208.885 183.754 208.874 183.754 208.867 183.754H208.869ZM222.484 131.582L209.435 182.858L220.749 182.407L233.614 131.857L222.486 131.58L222.484 131.582Z" fill="#282828"/>
<path d="M129.079 161.111C128.989 161.111 128.899 161.082 128.824 161.029L118.442 153.548C118.297 153.443 118.231 153.26 118.275 153.088L130.508 105.019C130.541 104.892 130.629 104.784 130.75 104.731C130.869 104.676 131.009 104.678 131.128 104.74L141.998 110.306C142.179 110.398 142.271 110.603 142.223 110.801L129.502 160.785C129.467 160.924 129.363 161.038 129.229 161.086C129.181 161.104 129.13 161.113 129.079 161.113V161.111ZM119.193 153.016L128.815 159.949L141.292 110.922L131.216 105.763L119.191 153.016H119.193Z" fill="#282828"/>
<path d="M144.01 171.872C143.994 171.872 143.977 171.872 143.961 171.869C143.816 171.852 140.334 171.409 134.698 166.944C129.119 162.535 128.683 160.929 128.652 160.762C128.641 160.7 128.641 160.636 128.659 160.575L141.38 110.584C141.413 110.456 141.501 110.348 141.622 110.295C141.741 110.24 141.882 110.245 142 110.304L157.633 118.309C157.814 118.401 157.906 118.606 157.858 118.804L144.437 171.544C144.388 171.74 144.212 171.872 144.014 171.872H144.01ZM129.532 160.667C129.676 160.99 130.551 162.56 135.237 166.262C139.623 169.735 142.672 170.69 143.691 170.93L156.925 118.925L142.088 111.328L129.532 160.665V160.667Z" fill="#282828"/>
<path d="M200.01 185.789C195.289 185.789 192.313 184.959 190.916 184.44C190.412 184.248 190.161 184.123 190.161 184.123C189.978 184.031 189.884 183.822 189.936 183.623L203.993 130.582C204.044 130.391 204.218 130.259 204.414 130.259H204.425L222.164 130.701C222.296 130.706 222.419 130.767 222.501 130.873C222.58 130.978 222.608 131.115 222.575 131.243L209.234 183.672C209.119 184.123 208.184 185.609 200.974 185.776C200.646 185.782 200.325 185.787 200.012 185.787L200.01 185.789ZM190.874 183.489C190.969 183.529 191.081 183.575 191.215 183.626C192.371 184.053 195.628 185.028 200.952 184.909C207.647 184.755 208.397 183.43 208.404 183.417L221.596 131.562L204.746 131.141L190.874 183.491V183.489Z" fill="#282828"/>
<path d="M76.2795 48.9307L74.1887 52.0097L92.2117 67.0109L94.3047 63.9318L76.2795 48.9307Z" fill="#30D065"/>
<path d="M98.7537 75.6646L96.6607 78.7436L113.458 73.8092L115.551 70.7324L98.7537 75.6646Z" fill="#30D065"/>
<path d="M78.6617 70.3408L76.5709 73.4176L110.301 102.069L112.395 98.9896L78.6617 70.3408Z" fill="#30D065"/>
<path d="M78.6619 70.3408L112.395 98.9896L98.7537 75.6647L115.551 70.7325L105.427 42.832L76.2805 48.9307L94.3057 63.9318L78.6619 70.3408Z" fill="white"/>
<path d="M90.4303 65.9613C90.4875 65.9613 90.5426 65.9503 90.5954 65.9283L94.4711 64.3393C94.612 64.282 94.7132 64.1544 94.7374 64.0025C94.7594 63.8507 94.7044 63.6988 94.5856 63.602L76.5626 48.5964C76.468 48.5172 76.3425 48.482 76.2215 48.4996C76.1004 48.5172 75.9904 48.5854 75.9221 48.6866L73.8313 51.7679C73.7059 51.9527 73.7411 52.2036 73.9127 52.3467L90.1486 65.8601C90.2278 65.9261 90.3269 65.9613 90.4281 65.9613H90.4303ZM93.4719 63.8067L90.5074 65.0237L74.7755 51.9307L76.3755 49.5736L93.4741 63.8089L93.4719 63.8067Z" fill="#282828"/>
<path d="M99.9878 78.2034C100.03 78.2034 100.069 78.1968 100.111 78.1858L113.585 74.2308C113.682 74.2022 113.765 74.1406 113.823 74.0569L115.913 70.9757C116.017 70.8238 116.012 70.6236 115.905 70.4739C115.797 70.3242 115.605 70.2604 115.429 70.3132L98.6321 75.2454C98.5022 75.2828 98.3988 75.3775 98.3504 75.5029C98.302 75.6284 98.313 75.767 98.379 75.8837L99.6137 77.9877C99.6929 78.1241 99.8382 78.2034 99.99 78.2034H99.9878ZM113.189 73.4385L100.19 77.2548L99.4112 75.9255L114.511 71.4907L113.189 73.4385Z" fill="#282828"/>
<path d="M110.302 102.502C110.322 102.502 110.342 102.502 110.362 102.498C110.485 102.48 110.595 102.412 110.663 102.311L112.754 99.2293C112.877 99.0444 112.844 98.7957 112.675 98.6527L78.9463 70.0039C78.8517 69.9224 78.7284 69.8872 78.6052 69.9048C78.4819 69.9224 78.3719 69.9885 78.3036 70.0919L76.2062 73.1753C76.0808 73.3602 76.1138 73.6089 76.2854 73.752L110.02 102.396C110.1 102.465 110.199 102.5 110.302 102.5V102.502ZM111.812 99.0664L110.214 101.421L77.146 73.3448L78.7504 70.9855L111.81 99.0664H111.812Z" fill="#282828"/>
<path d="M112.398 99.4228C112.497 99.4228 112.596 99.3898 112.677 99.3215C112.84 99.1851 112.88 98.9518 112.774 98.7669L100.366 77.5483L99.4128 75.924L115.675 71.1481C115.792 71.1151 115.886 71.0337 115.941 70.9258C115.996 70.818 116.003 70.6948 115.961 70.5803L105.842 42.6776C105.769 42.4729 105.56 42.3519 105.344 42.4003L76.1936 48.5033C76.0307 48.5363 75.9008 48.6618 75.8612 48.8246C75.8216 48.9875 75.8766 49.157 76.0043 49.2648L93.4726 63.806L78.5045 69.9354C78.3636 69.9927 78.2624 70.1203 78.2382 70.27C78.214 70.4196 78.2712 70.5715 78.3878 70.6705L112.116 99.3193C112.198 99.3898 112.297 99.4228 112.398 99.4228ZM99.6131 77.9885L110.73 96.9996L79.4949 70.4703L94.4696 64.3386C94.6105 64.2814 94.7117 64.1537 94.7359 64.0019C94.7579 63.85 94.7029 63.6982 94.5841 63.6013L77.2522 49.1724L105.15 43.3313L114.984 70.4439L98.6315 75.2462C98.5016 75.2836 98.3982 75.3782 98.3498 75.5037C98.3014 75.6291 98.3124 75.7678 98.3784 75.8844L99.6131 77.9885Z" fill="#282828"/>
<path d="M110.872 74.4872C111.048 74.4872 111.211 74.3816 111.279 74.2077L112.065 72.1675C112.151 71.943 112.038 71.6921 111.816 71.6041C111.589 71.5182 111.339 71.6305 111.253 71.8528L110.467 73.893C110.381 74.1175 110.493 74.3684 110.718 74.4564C110.769 74.4762 110.824 74.485 110.874 74.485L110.872 74.4872Z" fill="#282828"/>
<path d="M108.004 75.5939C108.187 75.5939 108.358 75.4773 108.418 75.2924L109.166 72.9749C109.241 72.746 109.113 72.5017 108.884 72.4268C108.655 72.3542 108.411 72.4797 108.336 72.7086L107.588 75.0261C107.513 75.255 107.641 75.4993 107.87 75.5741C107.914 75.5873 107.96 75.5939 108.004 75.5939Z" fill="#282828"/>
<path d="M104.452 76.6792C104.657 76.6792 104.839 76.5339 104.879 76.3248L105.282 74.1966C105.326 73.9611 105.172 73.7322 104.934 73.6882C104.701 73.6442 104.469 73.7982 104.425 74.0337L104.023 76.162C103.979 76.3974 104.133 76.6263 104.37 76.6704C104.397 76.6748 104.425 76.677 104.452 76.677V76.6792Z" fill="#282828"/>
<path d="M101.371 77.81C101.574 77.81 101.754 77.667 101.798 77.4623L102.28 75.1074C102.328 74.8719 102.177 74.6408 101.941 74.5924C101.708 74.5461 101.477 74.6958 101.426 74.9313L100.944 77.2862C100.896 77.5217 101.048 77.7528 101.283 77.799C101.314 77.8056 101.343 77.8078 101.371 77.8078V77.81Z" fill="#282828"/>
<path d="M90.8816 65.2912C91.084 65.2912 91.2645 65.1504 91.3063 64.9457L91.905 62.0824C91.9534 61.8469 91.8037 61.6158 91.5682 61.5674C91.3305 61.5167 91.1017 61.6686 91.0532 61.9041L90.4546 64.7674C90.4062 65.0029 90.5558 65.234 90.7913 65.2824C90.8221 65.289 90.8507 65.2912 90.8816 65.2912Z" fill="#282828"/>
<path d="M87.82 63.5637C88.04 63.5637 88.2293 63.3964 88.2513 63.1741L88.6497 59.3512C88.6761 59.1113 88.5022 58.8978 88.2623 58.8736C88.0334 58.8428 87.8089 59.021 87.7847 59.2609L87.3864 63.0861C87.36 63.326 87.536 63.5394 87.7737 63.5637C87.7891 63.5637 87.8046 63.5659 87.82 63.5659V63.5637Z" fill="#282828"/>
<path d="M85.2236 61.1778C85.4238 61.1778 85.6065 61.0369 85.6483 60.8322L86.28 57.8346C86.3284 57.5992 86.1787 57.3681 85.9432 57.3196C85.7121 57.2712 85.4767 57.4209 85.4282 57.6564L84.7966 60.654C84.7482 60.8895 84.8978 61.1206 85.1333 61.169C85.1641 61.1756 85.1927 61.1778 85.2236 61.1778Z" fill="#282828"/>
<path d="M82.2382 58.8914C82.2382 58.8914 82.258 58.8914 82.269 58.8914C82.4649 58.8782 82.6278 58.7351 82.6652 58.5415L83.3981 54.822C83.4443 54.5865 83.2902 54.3576 83.0547 54.3114C82.8214 54.2674 82.5903 54.417 82.5441 54.6547L81.8927 57.9626C81.7628 58.0771 81.71 58.2597 81.7694 58.4336L81.8288 58.6031C81.8905 58.7792 82.0555 58.8936 82.2404 58.8936L82.2382 58.8914Z" fill="#282828"/>
<path d="M79.3247 56.2793C79.5338 56.2793 79.7165 56.1296 79.7539 55.9161L80.3767 52.2671C80.4164 52.0294 80.2579 51.8049 80.0202 51.7653C79.7847 51.7279 79.558 51.8841 79.5184 52.1218L78.8956 55.7709C78.8559 56.0086 79.0144 56.2331 79.2521 56.2727C79.2763 56.2771 79.3005 56.2793 79.3269 56.2793H79.3247Z" fill="#282828"/>
<path d="M76.4717 54.2282C76.6808 54.2282 76.8656 54.0786 76.9008 53.8651L77.5369 50.0972C77.5765 49.8595 77.418 49.635 77.1803 49.5954C76.9471 49.558 76.7182 49.7142 76.6786 49.9519L76.0425 53.7198C76.0029 53.9575 76.1613 54.182 76.399 54.2216C76.4232 54.226 76.4475 54.2282 76.4717 54.2282Z" fill="#282828"/>
<path d="M107.744 99.823C107.931 99.823 108.102 99.7041 108.16 99.5149L109.242 95.9957C109.313 95.7646 109.185 95.5225 108.954 95.4499C108.723 95.3772 108.479 95.5071 108.41 95.7382L107.328 99.2574C107.257 99.4863 107.385 99.7306 107.616 99.801C107.658 99.8142 107.702 99.8208 107.744 99.8208V99.823Z" fill="#282828"/>
<path d="M104.025 96.5424C104.197 96.5424 104.359 96.439 104.43 96.2695L105.585 93.4084C105.676 93.1861 105.568 92.9308 105.343 92.8405C105.123 92.7525 104.868 92.8581 104.778 93.0826L103.622 95.9438C103.532 96.166 103.64 96.4214 103.862 96.5116C103.915 96.5336 103.97 96.5424 104.025 96.5424Z" fill="#282828"/>
<path d="M100.61 94.0554C100.79 94.0554 100.959 93.9432 101.021 93.7627L102.093 90.6639C102.172 90.4372 102.051 90.1885 101.822 90.1093C101.596 90.03 101.347 90.1511 101.268 90.3778L100.196 93.4766C100.117 93.7033 100.238 93.952 100.464 94.0312C100.51 94.0466 100.559 94.0554 100.607 94.0554H100.61Z" fill="#282828"/>
<path d="M96.977 90.9095C97.1376 90.9095 97.2939 90.8193 97.3687 90.663L98.9093 87.4696C99.015 87.2539 98.9225 86.992 98.7068 86.8885C98.489 86.7851 98.2293 86.8753 98.1258 87.091L96.5852 90.2845C96.4796 90.5002 96.572 90.7621 96.7877 90.8655C96.8493 90.8941 96.9131 90.9095 96.977 90.9095Z" fill="#282828"/>
<path d="M93.4806 87.9764C93.6501 87.9764 93.813 87.8773 93.8812 87.7101L95.27 84.4066C95.3646 84.1843 95.259 83.929 95.0367 83.8365C94.8166 83.7441 94.5591 83.8475 94.4666 84.0698L93.0779 87.3733C92.9832 87.5956 93.0889 87.8509 93.3112 87.9434C93.3662 87.9654 93.4234 87.9764 93.4806 87.9764Z" fill="#282828"/>
<path d="M90.4571 85.2671C90.6222 85.2671 90.7807 85.1725 90.8533 85.0118L92.242 81.968C92.3411 81.7479 92.2464 81.4904 92.0264 81.3914C91.8107 81.2924 91.5488 81.3892 91.4497 81.6071L90.061 84.6509C89.9619 84.8688 90.0566 85.1285 90.2767 85.2275C90.3361 85.2539 90.3977 85.2671 90.4571 85.2671Z" fill="#282828"/>
<path d="M87.1177 82.5974C87.2894 82.5974 87.4523 82.4961 87.5205 82.3267L88.874 79.0122C88.9643 78.7899 88.8586 78.5346 88.6363 78.4443C88.414 78.3541 88.1588 78.4597 88.0685 78.682L86.715 81.9943C86.6247 82.2166 86.7304 82.4719 86.9527 82.5622C87.0077 82.5842 87.0627 82.5952 87.1177 82.5952V82.5974Z" fill="#282828"/>
<path d="M83.7258 79.9097C83.8821 79.9097 84.0339 79.8261 84.111 79.6764L85.6098 76.8285C85.722 76.615 85.6406 76.3531 85.4271 76.2408C85.2158 76.1286 84.9517 76.21 84.8394 76.4235L83.3407 79.2714C83.2284 79.4849 83.3098 79.7468 83.5233 79.8591C83.5871 79.8921 83.6576 79.9097 83.7258 79.9097Z" fill="#282828"/>
<path d="M81.067 77.2842C81.2342 77.2842 81.3927 77.1874 81.4653 77.0267L82.7242 74.2008C82.8211 73.9807 82.7242 73.7232 82.5041 73.6264C82.2862 73.5295 82.0265 73.6264 81.9297 73.8465L80.6708 76.6724C80.574 76.8925 80.6708 77.15 80.8909 77.2468C80.9481 77.2732 81.0097 77.2842 81.0692 77.2842H81.067Z" fill="#282828"/>
<path d="M78.4526 75.2598C78.6243 75.2598 78.785 75.1586 78.8554 74.9891L80.1231 71.9057C80.2155 71.6834 80.1077 71.4281 79.8876 71.3379C79.6653 71.2476 79.41 71.3533 79.3198 71.5756L78.0499 74.659C77.9596 74.8813 78.0653 75.1366 78.2876 75.2268C78.3426 75.2488 78.3976 75.2598 78.4526 75.2598Z" fill="#282828"/>
<path d="M247.701 86.1732L268.196 92.9351L253.219 103.749L259.743 106.658L239.213 122.134L248.028 108.289L239.173 103.592L247.701 86.1732Z" fill="#282828"/>
</svg>
