<svg width="330" height="334" viewBox="0 0 330 334" fill="none" xmlns="http://www.w3.org/2000/svg">
<path d="M150.356 45.4064C164.436 13.1366 184.231 3.57511 192.369 2.82812L202.588 5.06909L203.724 15.7137C202.21 21.6896 198.955 34.2016 198.046 36.4426C196.911 39.2438 160.575 61.0932 158.872 61.6534C157.509 62.1016 143.921 57.7317 137.298 55.4908L117.427 54.3703C106.261 50.6353 83.9297 40.0281 83.9297 27.4787C83.9297 14.9293 97.5556 12.9125 104.368 13.4727L121.401 22.4366L144.111 49.8884L150.356 45.4064Z" fill="#969EFF"/>
<path d="M147.517 45.9672C154.33 43.2781 157.168 47.0877 157.736 49.3287C214.965 11.2322 202.399 2.45525 188.962 2.82883C209.855 -1.2049 221.891 7.49751 225.298 12.3529C239.378 32.9698 212.997 48.2083 198.046 53.2505H131.62L133.891 48.7686C109.364 13.8096 92.6349 14.4071 87.3359 19.0758C98.2366 2.94081 108.532 -0.345998 112.317 0.0274626C131.847 -0.42073 143.921 30.4672 147.517 45.9672Z" fill="#FAF1E8"/>
<path d="M241.763 114.288C237.788 110.74 229.613 103.419 228.705 102.523L220.188 76.1916L186.691 69.4688L62.3555 81.794L125.375 124.933L241.763 114.288Z" fill="#525AAE"/>
<path d="M129.349 113.167L231.543 104.763L195.208 75.0703L82.2266 81.7932L129.349 113.167Z" fill="#282828"/>
<mask id="mask0_4583_4118" style="mask-type:alpha" maskUnits="userSpaceOnUse" x="62" y="48" width="143" height="34">
<path d="M194.642 76.7542L204.862 48.7422L74.2807 54.9048L62.9258 81.7964L194.642 76.7542Z" fill="#969EFF"/>
</mask>
<g mask="url(#mask0_4583_4118)">
<path d="M194.642 76.7542L204.862 48.7422L74.2807 54.9048L62.9258 81.7964L194.642 76.7542Z" fill="#969EFF"/>
<path d="M138.434 80.114L153.196 49.3008H122.537L106.641 80.114H138.434Z" fill="#FAF1E8"/>
</g>
<mask id="mask1_4583_4118" style="mask-type:alpha" maskUnits="userSpaceOnUse" x="194" y="48" width="56" height="66">
<path d="M204.86 48.1797L247.474 80.367C249.497 81.8949 250.342 84.5292 249.584 86.9483L241.196 113.728L194.641 76.752L204.86 48.1797Z" fill="#727AD0"/>
</mask>
<g mask="url(#mask1_4583_4118)">
<path d="M204.86 48.7383L247.426 80.3708C249.475 81.8931 250.336 84.5446 249.573 86.9801L241.196 113.726L194.641 76.7503L204.86 48.7383Z" fill="#727AD0"/>
<path d="M209.435 102.469L225.537 59.2301L241.726 57.7546L225.219 104.331L209.435 102.469Z" fill="#DFCDBB"/>
</g>
<path d="M138.926 192L209.864 226L100.924 216L27.4531 182L138.926 192Z" fill="#282828"/>
<path d="M85.1593 138C87.1861 130 94.7865 127 98.3334 126.5L106.44 119L94.7857 113L71.4777 116.5L64.8906 139.5L85.1593 156C84.3148 153.333 83.1325 146 85.1593 138Z" fill="#969EFF"/>
<path d="M127.212 138.5C127.212 159.211 110.652 176 90.2232 176C69.7949 176 53.2344 159.211 53.2344 138.5C53.2344 130.421 82.1206 166.912 97.317 151.5C115.558 133 80.2968 104.5 92.7567 104.5C113.185 104.5 127.212 117.789 127.212 138.5Z" fill="#969EFF"/>
<path d="M60.8906 115.933C73.4608 99.6752 95.0904 95.1078 109.201 105.731C123.312 116.355 124.56 138.148 111.99 154.405C99.42 170.663 77.7905 175.23 63.6797 164.606C49.569 153.983 48.3205 132.19 60.8906 115.933ZM91.3301 119.674C85.7588 117.65 78.7483 122.693 75.6719 130.938C72.5955 139.182 74.6181 147.507 80.1895 149.531C85.7607 151.555 92.7712 146.513 95.8477 138.269C98.924 130.024 96.9013 121.698 91.3301 119.674Z" fill="white"/>
<path d="M188.016 120.5L180.922 109.5L172.309 113.5L127.719 162.5C119.274 173.5 101.979 196 100.358 198C98.7363 200 74.3473 213.5 62.3555 220L74.5162 227.5L96.8108 229L188.016 120.5Z" fill="#969EFF"/>
<path d="M156.602 109H181.43L86.678 222L62.8633 220L156.602 109Z" fill="white"/>
<path d="M158.124 197C160.151 189 167.751 186 171.298 185.5L179.405 178L167.751 172L144.443 175.5L137.855 198.5L158.124 215C157.28 212.333 156.097 205 158.124 197Z" fill="#969EFF"/>
<path d="M200.177 197.5C200.177 218.211 183.616 235 163.188 235C142.76 235 126.199 218.211 126.199 197.5C126.199 189.421 155.085 225.912 170.282 210.5C188.523 192 153.262 163.5 165.722 163.5C186.15 163.5 200.177 176.789 200.177 197.5Z" fill="#969EFF"/>
<path d="M133.855 174.933C146.426 158.675 168.055 154.108 182.166 164.731C196.277 175.355 197.525 197.148 184.955 213.405C172.385 229.663 150.755 234.23 136.645 223.606C122.534 212.983 121.285 191.19 133.855 174.933ZM164.295 178.674C158.724 176.65 151.713 181.693 148.637 189.938C145.56 198.182 147.583 206.507 153.154 208.531C158.726 210.555 165.736 205.513 168.812 197.269C171.889 189.024 169.866 180.698 164.295 178.674Z" fill="white"/>
<mask id="mask2_4583_4118" style="mask-type:alpha" maskUnits="userSpaceOnUse" x="0" y="182" width="102" height="149">
<path d="M27.4541 182.5L101.432 216L72.0434 330.5L3.45959 289.326C1.16139 287.946 0.0551292 285.24 0.739746 282.673L27.4541 182.5Z" fill="#969EFF"/>
</mask>
<g mask="url(#mask2_4583_4118)">
<path d="M27.4541 182.5L101.432 216L72.0434 330.5L3.45959 289.326C1.16139 287.946 0.0551292 285.24 0.739746 282.673L27.4541 182.5Z" fill="#969EFF"/>
<path d="M19.793 302L49.6881 192L72.4894 196.5L40.5675 315.5L19.793 302Z" fill="#FAF1E8"/>
</g>
<mask id="mask3_4583_4118" style="mask-type:alpha" maskUnits="userSpaceOnUse" x="71" y="215" width="139" height="119">
<path d="M100.416 215.5L209.862 225.5L185.719 326.404C184.729 330.54 180.979 333.419 176.727 333.306L71.0273 330.5L100.416 215.5Z" fill="#727AD0"/>
</mask>
<g mask="url(#mask3_4583_4118)">
<path d="M100.416 215.5L209.862 225.5L185.719 326.404C184.729 330.54 180.979 333.419 176.727 333.306L71.0273 330.5L100.416 215.5Z" fill="#727AD0"/>
<path d="M115.051 334L143.932 218H173.828L143.932 334H115.051Z" fill="#DFCDBB"/>
</g>
<path d="M270.228 118.549L322.316 135.52L284.252 162.659L300.831 169.961L248.655 208.801L271.06 174.054L248.554 162.264L270.228 118.549Z" fill="#282828"/>
</svg>
