<svg width="221" height="348" viewBox="0 0 221 348" fill="none" xmlns="http://www.w3.org/2000/svg">
<path d="M63.1348 15.4141L57.821 23.1415L103.626 60.7901L108.945 53.0626L63.1348 15.4141Z" fill="#969EFF"/>
<path d="M120.252 82.5111L114.933 90.2386L157.622 77.8547L162.941 70.1328L120.252 82.5111Z" fill="#969EFF"/>
<path d="M69.1908 69.1484L63.877 76.8704L149.602 148.776L154.922 141.049L69.1908 69.1484Z" fill="#969EFF"/>
<path d="M69.1893 69.1483L154.92 141.048L120.252 82.5098L162.941 70.1315L137.211 0.109375L63.1372 15.4152L108.948 53.0637L69.1893 69.1483Z" fill="#FAF1E8"/>
<path d="M105.209 262.504C103.033 262.701 101.108 261.12 100.908 258.971C100.708 256.823 102.31 254.922 104.486 254.724L161.606 249.546C163.781 249.349 165.707 250.93 165.907 253.079C166.106 255.227 164.505 257.129 162.329 257.326L105.209 262.504Z" fill="#FAF1E8"/>
<path d="M92.8208 327.567C90.8171 328.427 88.4869 327.52 87.6162 325.541C86.7455 323.563 87.664 321.262 89.6677 320.402L166.082 287.612C168.086 286.752 170.416 287.659 171.287 289.638C172.157 291.616 171.239 293.917 169.235 294.777L92.8208 327.567Z" fill="#FAF1E8"/>
<path d="M185.174 347.225C183.391 348.473 180.922 348.058 179.659 346.298C178.395 344.538 178.815 342.099 180.598 340.852L214.049 317.431C215.831 316.183 218.3 316.599 219.563 318.359C220.827 320.118 220.407 322.557 218.624 323.805L185.174 347.225Z" fill="#FAF1E8"/>
<path d="M39.2711 146L38.0602 167.132C37.8899 170.104 39.445 172.913 42.0703 174.377L60.7356 184.78L39.3365 183.585C36.3267 183.416 33.4816 184.952 31.9998 187.544L21.4645 205.976L22.6753 184.845C22.8456 181.873 21.2906 179.063 18.6653 177.6L0 167.196L21.399 168.392C24.4089 168.56 27.2539 167.025 28.7358 164.432L39.2711 146Z" fill="#FAF1E8"/>
</svg>
