<svg width="218" height="349" viewBox="0 0 218 349" fill="none" xmlns="http://www.w3.org/2000/svg">
<path d="M62.2989 16.415L57.0553 24.1425L102.255 61.7911L107.504 54.0636L62.2989 16.415Z" fill="#30D065"/>
<path d="M118.66 83.5091L113.411 91.2366L155.536 78.8528L160.785 71.1309L118.66 83.5091Z" fill="#30D065"/>
<path d="M68.2731 70.1484L63.0295 77.8704L147.622 149.776L152.871 142.049L68.2731 70.1484Z" fill="#30D065"/>
<path d="M68.2721 70.1483L152.87 142.048L118.66 83.5098L160.785 71.1315L135.395 1.10938L62.3 16.4152L107.505 54.0637L68.2721 70.1483Z" fill="white"/>
<path d="M97.7879 59.1573C97.9314 59.1573 98.0694 59.1297 98.2019 59.0745L107.922 55.0865C108.275 54.9429 108.529 54.6225 108.59 54.2414C108.645 53.8602 108.507 53.4791 108.209 53.2361L63.0092 15.5765C62.7719 15.3776 62.4573 15.2892 62.1537 15.3334C61.8502 15.3776 61.5742 15.5488 61.4031 15.8029L56.1595 23.5359C55.8449 23.9999 55.9332 24.6296 56.3637 24.9886L97.0814 58.9033C97.2801 59.069 97.5285 59.1573 97.7824 59.1573H97.7879ZM105.416 53.7498L97.9811 56.8043L58.5274 23.9446L62.5401 18.0289L105.421 53.7553L105.416 53.7498Z" fill="#282828"/>
<path d="M121.759 89.8831C121.864 89.8831 121.964 89.8665 122.069 89.8389L155.859 79.9131C156.102 79.8412 156.312 79.6866 156.455 79.4767L161.699 71.7437C161.958 71.3626 161.947 70.8599 161.677 70.4843C161.406 70.1087 160.926 69.9486 160.485 70.0811L118.359 82.4594C118.034 82.5533 117.774 82.7908 117.653 83.1057C117.531 83.4205 117.559 83.7685 117.725 84.0612L120.821 89.3418C121.02 89.6842 121.384 89.8831 121.765 89.8831H121.759ZM154.866 77.9246L122.267 87.5024L120.313 84.1662L158.183 73.0362L154.866 77.9246Z" fill="#282828"/>
<path d="M147.626 150.864C147.676 150.864 147.726 150.864 147.775 150.852C148.084 150.808 148.36 150.637 148.531 150.383L153.775 142.65C154.084 142.186 154.001 141.562 153.576 141.203L68.9893 69.3027C68.7519 69.0983 68.4428 69.0099 68.1337 69.0541C67.8246 69.0983 67.5487 69.264 67.3776 69.5236L62.1174 77.2621C61.8028 77.7261 61.8856 78.3502 62.3161 78.7093L146.92 150.598C147.118 150.77 147.367 150.858 147.626 150.858V150.864ZM151.413 142.241L147.405 148.151L64.4743 77.6874L68.498 71.7662L151.407 142.241H151.413Z" fill="#282828"/>
<path d="M152.875 143.137C153.123 143.137 153.372 143.054 153.576 142.882C153.984 142.54 154.084 141.955 153.819 141.491L122.7 88.2379L120.31 84.1615L161.093 72.1754C161.386 72.0926 161.623 71.8882 161.761 71.6175C161.899 71.3469 161.916 71.0376 161.811 70.7503L136.432 0.722673C136.25 0.208982 135.726 -0.0948138 135.185 0.0267044L62.0784 15.3435C61.6699 15.4264 61.3443 15.7412 61.2449 16.15C61.1456 16.5587 61.2836 16.984 61.6037 17.2547L105.412 53.7488L67.8739 69.1319C67.5206 69.2756 67.2668 69.5959 67.2061 69.9715C67.1453 70.3471 67.2888 70.7283 67.5814 70.9768L152.168 142.877C152.373 143.054 152.621 143.137 152.875 143.137ZM120.812 89.3426L148.691 137.055L70.3577 70.4742L107.913 55.0855C108.266 54.9419 108.52 54.6216 108.581 54.2404C108.636 53.8593 108.498 53.4782 108.2 53.2351L64.7333 17.0227L134.699 2.36317L159.36 70.4079L118.35 82.4603C118.024 82.5542 117.765 82.7917 117.644 83.1065C117.522 83.4214 117.55 83.7694 117.715 84.0621L120.812 89.3426Z" fill="#282828"/>
<path d="M149.057 80.5544C149.499 80.5544 149.907 80.2893 150.078 79.8529L152.049 74.7326C152.264 74.1692 151.982 73.5395 151.425 73.3185C150.856 73.1031 150.227 73.3848 150.012 73.9427L148.042 79.063C147.826 79.6264 148.108 80.2561 148.671 80.4771C148.798 80.5268 148.936 80.5489 149.063 80.5489L149.057 80.5544Z" fill="#282828"/>
<path d="M141.868 83.3331C142.326 83.3331 142.757 83.0404 142.906 82.5764L144.782 76.7601C144.97 76.1856 144.65 75.5725 144.076 75.3847C143.502 75.2024 142.889 75.5173 142.701 76.0917L140.825 81.908C140.637 82.4825 140.957 83.0956 141.531 83.2834C141.642 83.3165 141.757 83.3331 141.868 83.3331Z" fill="#282828"/>
<path d="M132.955 86.0556C133.468 86.0556 133.926 85.6911 134.026 85.1663L135.036 79.825C135.146 79.234 134.76 78.6596 134.164 78.5491C133.579 78.4386 132.999 78.8253 132.889 79.4163L131.879 84.7576C131.768 85.3486 132.155 85.9231 132.751 86.0335C132.817 86.0446 132.889 86.0501 132.955 86.0501V86.0556Z" fill="#282828"/>
<path d="M125.233 88.8953C125.741 88.8953 126.193 88.5362 126.304 88.0226L127.513 82.1123C127.634 81.5213 127.253 80.9414 126.663 80.8198C126.078 80.7038 125.498 81.0794 125.371 81.6705L124.162 87.5807C124.041 88.1717 124.422 88.7517 125.012 88.8677C125.09 88.8842 125.161 88.8898 125.233 88.8898V88.8953Z" fill="#282828"/>
<path d="M98.9262 57.4767C99.434 57.4767 99.8866 57.1232 99.9915 56.6095L101.493 49.4234C101.614 48.8324 101.239 48.2524 100.648 48.1309C100.052 48.0038 99.4782 48.385 99.3568 48.976L97.8554 56.1621C97.734 56.7532 98.1093 57.3331 98.6999 57.4547C98.7772 57.4712 98.8489 57.4767 98.9262 57.4767Z" fill="#282828"/>
<path d="M91.2445 53.1417C91.7965 53.1417 92.2711 52.7219 92.3263 52.164L93.3254 42.5696C93.3916 41.9675 92.9556 41.4318 92.3539 41.371C91.7799 41.2937 91.2169 41.7411 91.1562 42.3432L90.1571 51.9431C90.0909 52.5452 90.5325 53.0809 91.1286 53.1417C91.1672 53.1417 91.2059 53.1472 91.2445 53.1472V53.1417Z" fill="#282828"/>
<path d="M84.7302 47.1539C85.2324 47.1539 85.6906 46.8004 85.7954 46.2867L87.3795 38.7636C87.501 38.1726 87.1256 37.5926 86.535 37.4711C85.9555 37.3495 85.3649 37.7251 85.2435 38.3162L83.6594 45.8393C83.5379 46.4303 83.9133 47.0102 84.5038 47.1318C84.5811 47.1483 84.6529 47.1539 84.7302 47.1539Z" fill="#282828"/>
<path d="M77.2504 41.4142C77.2504 41.4142 77.3 41.4142 77.3276 41.4142C77.8189 41.381 78.2273 41.022 78.3212 40.5359L80.1591 31.2011C80.2751 30.6101 79.8887 30.0356 79.2981 29.9196C78.713 29.8092 78.1335 30.1848 78.0176 30.7813L76.3838 39.0832C76.0581 39.3704 75.9257 39.8289 76.0747 40.2653L76.2237 40.6906C76.3783 41.1325 76.7922 41.4197 77.2559 41.4197L77.2504 41.4142Z" fill="#282828"/>
<path d="M69.9402 34.8583C70.4645 34.8583 70.9227 34.4827 71.0165 33.9469L72.5785 24.7889C72.6779 24.1923 72.2805 23.6289 71.6844 23.5295C71.0938 23.4356 70.5253 23.8278 70.4259 24.4243L68.8639 33.5824C68.7645 34.1789 69.1619 34.7423 69.7581 34.8417C69.8188 34.8528 69.8795 34.8583 69.9457 34.8583H69.9402Z" fill="#282828"/>
<path d="M62.7821 29.7113C63.3064 29.7113 63.7701 29.3357 63.8584 28.7999L65.4535 19.3436C65.5529 18.747 65.1554 18.1836 64.5593 18.0842C63.9743 17.9903 63.4003 18.3825 63.3009 18.979L61.7057 28.4353C61.6064 29.0319 62.0038 29.5953 62.5999 29.6947C62.6606 29.7057 62.7213 29.7113 62.7821 29.7113Z" fill="#282828"/>
<path d="M141.204 144.142C141.674 144.142 142.104 143.844 142.248 143.369L144.963 134.537C145.14 133.957 144.82 133.349 144.24 133.167C143.661 132.985 143.048 133.31 142.877 133.89L140.161 142.723C139.985 143.297 140.305 143.91 140.884 144.087C140.989 144.12 141.1 144.137 141.204 144.137V144.142Z" fill="#282828"/>
<path d="M131.878 135.906C132.308 135.906 132.717 135.647 132.893 135.221L135.791 128.041C136.017 127.483 135.747 126.842 135.184 126.616C134.632 126.395 133.992 126.66 133.765 127.223L130.868 134.404C130.641 134.962 130.912 135.603 131.469 135.829C131.602 135.884 131.74 135.906 131.878 135.906Z" fill="#282828"/>
<path d="M123.317 129.665C123.769 129.665 124.194 129.383 124.349 128.93L127.037 121.153C127.235 120.584 126.932 119.96 126.358 119.761C125.789 119.562 125.166 119.866 124.967 120.435L122.279 128.212C122.08 128.781 122.384 129.405 122.952 129.604C123.068 129.643 123.19 129.665 123.311 129.665H123.317Z" fill="#282828"/>
<path d="M114.212 121.771C114.615 121.771 115.007 121.545 115.194 121.153L119.058 113.138C119.323 112.597 119.091 111.939 118.55 111.68C118.004 111.42 117.353 111.647 117.093 112.188L113.23 120.203C112.965 120.744 113.196 121.401 113.737 121.661C113.892 121.733 114.052 121.771 114.212 121.771Z" fill="#282828"/>
<path d="M105.437 114.408C105.862 114.408 106.271 114.16 106.442 113.74L109.925 105.449C110.162 104.891 109.897 104.25 109.34 104.018C108.788 103.786 108.142 104.046 107.91 104.604L104.427 112.895C104.19 113.453 104.455 114.093 105.012 114.325C105.15 114.381 105.294 114.408 105.437 114.408Z" fill="#282828"/>
<path d="M97.855 107.609C98.269 107.609 98.6664 107.371 98.8485 106.968L102.331 99.3289C102.58 98.7765 102.342 98.1303 101.79 97.8817C101.25 97.6332 100.593 97.8762 100.344 98.423L96.8615 106.062C96.6131 106.609 96.8505 107.261 97.4024 107.509C97.5514 107.576 97.706 107.609 97.855 107.609Z" fill="#282828"/>
<path d="M89.4834 100.909C89.9139 100.909 90.3223 100.655 90.4934 100.23L93.8879 91.9112C94.1142 91.3533 93.8493 90.7126 93.2918 90.4861C92.7344 90.2597 92.0941 90.5248 91.8678 91.0827L88.4733 99.3956C88.247 99.9535 88.5119 100.594 89.0694 100.821C89.2074 100.876 89.3454 100.904 89.4834 100.904V100.909Z" fill="#282828"/>
<path d="M80.9731 94.1653C81.365 94.1653 81.7458 93.9554 81.939 93.5798L85.6978 86.4323C85.9793 85.8966 85.7751 85.2393 85.2397 84.9575C84.7098 84.6758 84.0475 84.8802 83.766 85.416L80.0072 92.5635C79.7257 93.0993 79.9299 93.7566 80.4653 94.0383C80.6253 94.1211 80.802 94.1653 80.9731 94.1653Z" fill="#282828"/>
<path d="M74.3044 87.575C74.7239 87.575 75.1213 87.332 75.3035 86.9288L78.4606 79.8365C78.7035 79.2842 78.4606 78.6379 77.9087 78.3949C77.3623 78.1519 76.7109 78.3949 76.4681 78.9472L73.3109 86.0395C73.068 86.5918 73.3109 87.2381 73.8629 87.4811C74.0064 87.5474 74.1609 87.575 74.3099 87.575H74.3044Z" fill="#282828"/>
<path d="M67.7548 82.4942C68.1854 82.4942 68.5883 82.2401 68.7649 81.8148L71.9442 74.0763C72.176 73.5184 71.9055 72.8776 71.3536 72.6512C70.7961 72.4247 70.1558 72.6898 69.9295 73.2477L66.7448 80.9862C66.5185 81.5441 66.7834 82.1848 67.3409 82.4113C67.4789 82.4665 67.6169 82.4942 67.7548 82.4942Z" fill="#282828"/>
<path d="M103.818 263.504C101.672 263.701 99.7715 262.12 99.5744 259.971C99.3774 257.823 100.958 255.922 103.105 255.724L159.47 250.546C161.617 250.349 163.517 251.93 163.714 254.079C163.911 256.227 162.33 258.129 160.184 258.326L103.818 263.504Z" fill="white"/>
<path d="M91.594 328.567C89.6168 329.427 87.3175 328.52 86.4583 326.541C85.5991 324.563 86.5054 322.262 88.4826 321.402L163.887 288.612C165.864 287.752 168.164 288.659 169.023 290.638C169.882 292.616 168.976 294.917 166.999 295.777L91.594 328.567Z" fill="white"/>
<path d="M182.726 348.225C180.968 349.473 178.531 349.058 177.284 347.298C176.037 345.538 176.452 343.099 178.211 341.852L211.22 318.431C212.978 317.183 215.415 317.599 216.662 319.359C217.909 321.118 217.494 323.557 215.735 324.805L182.726 348.225Z" fill="white"/>
<path d="M38.752 147L37.5572 168.132C37.3892 171.104 38.9236 173.913 41.5143 175.377L59.9329 185.78L38.8166 184.585C35.8466 184.416 33.0391 185.952 31.5769 188.544L21.1808 206.976L22.3756 185.845C22.5437 182.873 21.0092 180.063 18.4186 178.6L0 168.196L21.1162 169.392C24.0863 169.56 26.8937 168.025 28.356 165.432L38.752 147Z" fill="white"/>
</svg>
