<svg width="747" height="382" viewBox="0 0 747 382" fill="none" xmlns="http://www.w3.org/2000/svg">
<g clip-path="url(#clip0_4352_7352)">
<path d="M63.1736 6.50406C61.9838 5.04249 62.2065 2.89506 63.671 1.70765C65.1356 0.520247 67.2874 0.7425 68.4773 2.20407L103 44.6109C104.19 46.0724 103.967 48.2198 102.502 49.4073C101.038 50.5947 98.8861 50.3724 97.6962 48.9108L63.1736 6.50406Z" fill="white"/>
<path d="M623.42 40.2825C622.114 41.642 622.16 43.8004 623.522 45.1034C624.884 46.4064 627.047 46.3606 628.353 45.0011L676.281 -4.902C677.586 -6.26151 677.54 -8.41992 676.178 -9.72294C674.816 -11.026 672.653 -10.9802 671.347 -9.62067L623.42 40.2825Z" fill="white"/>
<path d="M551.875 37.9414C551.085 39.6514 551.833 41.6769 553.547 42.4656C555.26 43.2543 557.29 42.5075 558.08 40.7975L574.936 4.32811C575.726 2.61812 574.977 0.592525 573.264 -0.196177C571.55 -0.984878 569.521 -0.238022 568.73 1.47197L551.875 37.9414Z" fill="white"/>
<path d="M424.141 37.496C423.221 39.1399 423.81 41.2172 425.457 42.1356C427.105 43.054 429.186 42.4659 430.107 40.8219L451.613 2.4051C452.533 0.761141 451.944 -1.31609 450.297 -2.23453C448.649 -3.15297 446.568 -2.56482 445.648 -0.920858L424.141 37.496Z" fill="white"/>
<path d="M359.196 42.6048C359.348 44.4818 360.996 45.8804 362.876 45.7287C364.757 45.577 366.159 43.9325 366.007 42.0555L361.64 -11.8648C361.488 -13.7418 359.84 -15.1404 357.96 -14.9887C356.079 -14.8371 354.677 -13.1925 354.829 -11.3155L359.196 42.6048Z" fill="white"/>
<path d="M297.465 44.0317C298.613 45.5261 300.757 45.8088 302.255 44.663C303.752 43.5172 304.036 41.3769 302.888 39.8825L277.25 6.51171C276.102 5.01727 273.957 4.73462 272.46 5.88038C270.962 7.02615 270.679 9.16646 271.827 10.6609L297.465 44.0317Z" fill="white"/>
<path d="M213.097 47.2996C214.597 48.4426 216.741 48.156 217.887 46.6595C219.032 45.1629 218.745 43.0231 217.245 41.8801L195.88 25.5954C194.38 24.4524 192.236 24.739 191.091 26.2355C189.945 27.7321 190.232 29.8719 191.732 31.0149L213.097 47.2996Z" fill="white"/>
<path d="M490.955 48.3007C489.707 49.7128 487.548 49.8477 486.133 48.602C484.718 47.3563 484.582 45.2016 485.831 43.7894L500.678 26.9926C501.927 25.5804 504.086 25.4455 505.501 26.6912C506.916 27.9369 507.051 30.0916 505.803 31.5038L490.955 48.3007Z" fill="white"/>
<path d="M674.307 77.9034C672.573 78.6448 671.769 80.649 672.512 82.3801C673.255 84.1111 675.263 84.9134 676.998 84.1721L703.083 73.0233C704.818 72.282 705.622 70.2777 704.879 68.5466C704.136 66.8156 702.127 66.0133 700.393 66.7546L674.307 77.9034Z" fill="white"/>
<path d="M676.669 125.786C674.839 125.326 672.982 126.435 672.522 128.261C672.062 130.087 673.173 131.94 675.003 132.399L701.583 139.069C703.413 139.528 705.269 138.42 705.729 136.594C706.19 134.767 705.079 132.915 703.249 132.455L676.669 125.786Z" fill="white"/>
<path d="M122.95 3.14956C122.551 1.30902 123.723 -0.505818 125.567 -0.903996C127.412 -1.30217 129.23 -0.132907 129.629 1.70763L135.381 28.2399C135.78 30.0804 134.608 31.8953 132.764 32.2934C130.92 32.6916 129.101 31.5224 128.702 29.6818L122.95 3.14956Z" fill="white"/>
<path d="M31.9515 58.2767C30.2337 57.4974 29.4741 55.476 30.255 53.7617C31.0359 52.0474 33.0615 51.2894 34.7793 52.0687L83.4062 74.1285C85.124 74.9078 85.8836 76.9293 85.1027 78.6436C84.3218 80.3579 82.2962 81.1159 80.5784 80.3366L31.9515 58.2767Z" fill="white"/>
<path d="M47.0934 126.401C45.3176 127.038 43.3607 126.117 42.7226 124.345C42.0845 122.573 43.0067 120.62 44.7825 119.983L67.9926 111.66C69.7684 111.023 71.7253 111.944 72.3634 113.716C73.0015 115.488 72.0793 117.441 70.3035 118.078L47.0934 126.401Z" fill="white"/>
<path d="M62.2105 288.219C60.3904 288.716 58.5112 287.647 58.0132 285.831C57.5151 284.014 58.5868 282.139 60.4069 281.642L108.194 268.593C110.014 268.096 111.893 269.165 112.391 270.981C112.889 272.798 111.817 274.673 109.997 275.17L62.2105 288.219Z" fill="white"/>
<path d="M61.6158 346.003C60.0431 347.044 57.9228 346.615 56.8801 345.045C55.8374 343.476 56.267 341.36 57.8397 340.319L117.817 300.634C119.39 299.594 121.51 300.023 122.553 301.592C123.596 303.161 123.166 305.277 121.593 306.318L61.6158 346.003Z" fill="white"/>
<path d="M143.156 348.995C141.831 350.335 139.668 350.35 138.325 349.028C136.981 347.706 136.966 345.547 138.291 344.206L163.162 319.042C164.487 317.701 166.65 317.686 167.994 319.008C169.337 320.331 169.352 322.49 168.027 323.83L143.156 348.995Z" fill="white"/>
<path d="M632.381 346.722C633.706 348.062 635.869 348.077 637.212 346.755C638.556 345.433 638.571 343.274 637.246 341.933L615.557 319.988C614.232 318.648 612.069 318.633 610.726 319.955C609.382 321.278 609.367 323.436 610.692 324.777L632.381 346.722Z" fill="white"/>
<path d="M394.579 346.029C395.069 347.848 393.989 349.718 392.167 350.208C390.344 350.697 388.47 349.619 387.98 347.8L382.777 328.497C382.287 326.679 383.367 324.808 385.189 324.319C387.012 323.83 388.886 324.908 389.376 326.726L394.579 346.029Z" fill="white"/>
<path d="M298.504 346.029C298.014 347.848 299.094 349.718 300.917 350.208C302.739 350.697 304.613 349.619 305.103 347.8L310.306 328.497C310.796 326.679 309.716 324.808 307.894 324.319C306.071 323.83 304.197 324.908 303.707 326.726L298.504 346.029Z" fill="white"/>
<path d="M491.637 343.835C492.887 345.246 492.754 347.401 491.34 348.648C489.926 349.896 487.767 349.763 486.517 348.352L470.708 330.505C469.458 329.094 469.591 326.939 471.005 325.692C472.419 324.444 474.578 324.577 475.828 325.988L491.637 343.835Z" fill="white"/>
<path d="M59.1601 194.029L61.3584 212.373C61.6676 214.953 63.4192 217.134 65.8754 217.996L83.3385 224.127L64.9571 226.321C62.3717 226.63 60.1867 228.378 59.3225 230.829L53.1784 248.256L50.9801 229.913C50.6709 227.333 48.9193 225.152 46.4631 224.29L29 218.158L47.3814 215.964C49.9668 215.656 52.1518 213.908 53.016 211.456L59.1601 194.029Z" fill="white"/>
<path d="M691.667 227.962L695.863 245.956C696.453 248.487 698.433 250.463 700.97 251.052L719 255.24L700.969 259.428C698.433 260.017 696.453 261.993 695.863 264.524L691.667 282.517L687.47 264.524C686.88 261.993 684.9 260.017 682.364 259.428L664.333 255.24L682.364 251.052C684.9 250.463 686.88 248.487 687.47 245.956L691.667 227.962Z" fill="white"/>
<path d="M222.678 316.531L232.969 326.945C234.417 328.41 236.572 328.926 238.528 328.277L252.435 323.661L242 333.931C240.532 335.375 240.015 337.527 240.665 339.479L245.291 353.357L235 342.943C233.552 341.478 231.397 340.962 229.441 341.611L215.534 346.227L225.969 335.957C227.437 334.513 227.954 332.362 227.304 330.41L222.678 316.531Z" fill="white"/>
<path d="M554.593 330.674L553.565 341.109C553.421 342.577 554.125 343.999 555.38 344.777L564.308 350.305L553.852 349.279C552.381 349.135 550.956 349.837 550.177 351.09L544.638 360L545.665 349.565C545.81 348.097 545.106 346.675 543.851 345.898L534.923 340.369L545.379 341.395C546.85 341.54 548.275 340.837 549.054 339.584L554.593 330.674Z" fill="white"/>
</g>
<defs>
<clipPath id="clip0_4352_7352">
<rect width="747" height="382" fill="white"/>
</clipPath>
</defs>
</svg>
