<svg width="48" height="48" viewBox="0 0 48 48" fill="none" xmlns="http://www.w3.org/2000/svg">
<path d="M46 8.62506V40.1724C46 40.8615 45.4438 41.4177 44.7547 41.4177H44.2939C38.0881 41.4177 31.87 42.1275 25.8182 43.5223L24.328 43.8626C24.274 43.8792 24.2159 43.8917 24.1619 43.8959C24.108 43.9042 24.054 43.9083 24.0001 43.9083C23.9461 43.9083 23.8921 43.9042 23.8382 43.8959C23.8008 43.8917 23.7593 43.8876 23.7219 43.8751L23.6721 43.8626L22.1861 43.5223C16.13 42.1275 9.91141 41.4177 3.70608 41.4177H3.24532C2.55624 41.4177 2 40.8615 2 40.1724V8.62506C2 7.93598 2.55624 7.37974 3.24532 7.37974H3.76834C4.8227 7.37974 5.90193 7.40049 6.98121 7.442V34.361C6.98121 35.0501 7.53745 35.6063 8.22652 35.6063C10.9745 35.6063 13.6561 36.1418 16.1879 37.192C18.4959 38.1468 20.5837 39.4916 22.406 41.1852C22.5845 41.3388 22.763 41.4883 22.9331 41.646C22.9913 41.6958 23.0494 41.7456 23.1033 41.7996C23.2154 41.8992 23.3275 42.003 23.4396 42.1109C23.4396 42.1151 23.4396 42.1151 23.4437 42.1151C23.6139 42.2022 23.809 42.2479 24 42.2479C24.1618 42.2479 24.3237 42.2188 24.4773 42.1524C24.5022 42.14 24.5313 42.1275 24.5562 42.1151L24.5603 42.1109C24.6724 42.003 24.7845 41.8992 24.8966 41.7996C24.9505 41.7456 25.0086 41.6958 25.0668 41.646C25.2369 41.4883 25.4154 41.3388 25.5939 41.1852C27.4162 39.4916 29.5042 38.1467 31.812 37.192C34.3482 36.1418 37.0298 35.6063 39.7734 35.6063C40.4625 35.6063 41.0187 35.0501 41.0187 34.361V7.43775C42.0979 7.39624 43.1772 7.37549 44.2316 7.37549H44.7546C45.4437 7.37964 46 7.93184 46 8.62506ZM38.5285 33.1446V4.0918C33.5266 4.38237 28.8568 6.4454 25.2454 9.9693V38.1959C26.9473 36.8344 28.8277 35.7261 30.8573 34.8876C33.3146 33.8706 35.8883 33.2899 38.5285 33.1446ZM22.7546 38.2005V9.97387C19.1432 6.44971 14.4733 4.38647 9.47146 4.09637V33.1492C12.1156 33.2903 14.6892 33.8715 17.1427 34.8926C19.1725 35.731 21.0529 36.839 22.7546 38.2005Z" fill="#F49C5D"/>
</svg>
