<svg width="25" height="24" viewBox="0 0 25 24" fill="none" xmlns="http://www.w3.org/2000/svg">
<path fill-rule="evenodd" clip-rule="evenodd" d="M11.3617 1.47149C11.9904 0.842838 13.0096 0.842838 13.6383 1.47149L23.0285 10.8617C23.3304 11.1636 23.5 11.5731 23.5 12C23.5 12.4269 23.3304 12.8364 23.0285 13.1383L13.6383 22.5285C13.0096 23.1572 11.9904 23.1572 11.3617 22.5285C10.7331 21.8999 10.7331 20.8806 11.3617 20.252L18.004 13.6098H3.10976C2.22071 13.6098 1.5 12.889 1.5 12C1.5 11.111 2.22071 10.3902 3.10976 10.3902H18.0039L11.3617 3.74803C10.7331 3.11938 10.7331 2.10014 11.3617 1.47149Z" fill="#282828"/>
</svg>
