<svg width="16" height="16" viewBox="0 0 16 16" fill="none" xmlns="http://www.w3.org/2000/svg">
<circle cx="8" cy="8" r="8" fill="#F49C5D"/>
<g clip-path="url(#clip0_4528_1548)">
<path fill-rule="evenodd" clip-rule="evenodd" d="M7.8126 5.44828C7.965 5.29588 8.21209 5.29588 8.36449 5.44828L10.6409 7.72471C10.7141 7.79789 10.7552 7.89715 10.7552 8.00065C10.7552 8.10415 10.7141 8.20341 10.6409 8.27659L8.36449 10.553C8.21209 10.7054 7.965 10.7054 7.8126 10.553C7.6602 10.4006 7.6602 10.1535 7.8126 10.0011L9.42283 8.39089H5.81212C5.59659 8.39089 5.42188 8.21618 5.42188 8.00065C5.42188 7.78512 5.59659 7.61041 5.81212 7.61041H9.42283L7.8126 6.00017C7.6602 5.84777 7.6602 5.60068 7.8126 5.44828Z" fill="#282828"/>
</g>
<defs>
<clipPath id="clip0_4528_1548">
<rect width="5.81818" height="5.81818" fill="white" transform="translate(5.08984 5.0918)"/>
</clipPath>
</defs>
</svg>
