<svg width="32" height="32" viewBox="0 0 32 32" fill="none" xmlns="http://www.w3.org/2000/svg">
<path d="M6.73957 28.2621C5.71612 29.2856 4.2346 29.4634 3.43051 28.6593C2.62642 27.8553 2.80425 26.3737 3.82771 25.3503L25.7488 3.42915C26.7723 2.40569 28.2538 2.22786 29.0579 3.03195C29.862 3.83604 29.6842 5.31756 28.6607 6.34101L6.73957 28.2621Z" fill="white"/>
<path d="M25.7487 28.2621C26.7722 29.2856 28.2537 29.4634 29.0578 28.6593C29.8619 27.8553 29.684 26.3737 28.6606 25.3503L6.73945 3.42915C5.71599 2.40569 4.23447 2.22786 3.43038 3.03195C2.62629 3.83604 2.80413 5.31756 3.82759 6.34102L25.7487 28.2621Z" fill="white"/>
</svg>
