<svg width="306" height="240" viewBox="0 0 306 240" fill="none" xmlns="http://www.w3.org/2000/svg">
<path d="M129.475 117.025L129.97 124.789C141.535 127.432 155.738 131.397 164.163 137.509C170.903 142.398 191.309 163.554 200.67 173.52L201.826 172.033L194.723 164.435C195.384 160.47 207.113 139.16 208.269 137.509C209.194 136.187 208.985 134.645 208.764 134.04C206.914 131 207.223 124.403 207.608 121.485L180.179 115.999C179.341 115.832 178.769 115.054 178.886 114.208C179.549 109.392 181.02 102.119 180.187 101.167C179.262 100.11 177.453 102.158 176.057 102.158C169.78 102.158 168.728 94.5924 170.44 91.9161C173.083 87.7863 177.627 88.423 180.021 90.099C181.673 91.2553 182.059 90.8148 182.334 90.2642L184.743 77.3963C184.875 76.5466 185.636 75.9399 186.493 76.0087C190.588 76.3375 196.96 76.9624 198.358 77.5445C200.34 78.3705 200.505 80.8484 199.018 82.5003C197.829 83.8218 197.642 85.6939 197.697 86.4648C198.622 92.0152 203.038 92.0813 205.13 91.4206V64.825H192.08C187.785 64.825 184.977 63.5034 185.968 60.1996C187.371 55.5246 188.611 49.297 181.508 49.297C175.222 49.297 175.066 55.2439 176.883 59.5388C178.132 62.4909 176.544 64.0285 175.198 64.6126C174.793 64.7885 174.347 64.825 173.906 64.825H158.051C157.321 64.825 156.73 64.2333 156.73 63.5035V20.2236C156.73 17.3042 159.096 14.9375 162.016 14.9375H251.714C254.633 14.9375 257 17.3042 257 20.2236V106.948C257 109.868 254.633 112.234 251.714 112.234H235.03C235.25 112.29 235.823 113.325 236.351 117.025C236.88 120.725 230.625 135.747 227.431 142.795L229.083 144.777C229.909 144.061 229.876 149.204 223.136 175.502C216.396 201.801 205.351 206.723 200.67 205.897C185.541 207.024 157.188 185.361 146.778 176.2C146.347 175.822 145.693 175.887 145.341 176.34C145.048 176.716 145.071 177.237 145.434 177.546C147.623 179.413 154.297 184.173 157.721 186.57C157.985 191.063 157.06 225.335 156.564 240.257H67.5269L66.7105 159.879C66.7052 159.383 66.3016 158.983 65.8055 158.983C65.2992 158.983 64.8912 159.384 64.9003 159.89C65.287 181.422 65.9007 222.747 65.3797 222.747C54.1468 220.104 49.6866 214.818 50.017 196.977C50.3474 179.136 53.1556 158.818 60.5892 145.272C66.536 134.436 85.643 125.78 94.4532 122.807C95.5104 119.767 95.8853 112.84 95.9407 109.757C91.9761 105.131 84.9096 96.211 81.7349 87.1256C76.9785 73.5135 82.0653 66.1464 85.2039 64.1641C85.3691 59.704 91.1507 52.4357 103.21 49.4623C115.268 46.4889 134.926 49.6275 138.56 56.4003C141.468 61.8185 139.111 64.2743 137.569 64.825C137.569 64.825 138.901 68.3038 140.377 71.9282C142.194 76.3883 141.534 76.8839 141.038 80.3529C140.543 83.8218 146.324 88.1168 147.15 91.4206C147.811 94.0636 144.562 95.1649 142.855 95.3851C143.02 104.801 143.02 109.922 140.543 113.886C138.56 117.058 132.338 117.3 129.475 117.025Z" fill="#282828"/>
<path d="M132.764 67.6343L136.563 65.9824C137.725 69.066 140.049 75.6956 140.049 77.5457C140.049 79.8584 139.058 78.5369 139.058 81.1799C139.058 83.823 145.665 90.5957 145.996 92.2477C146.26 93.5692 143.022 94.2299 141.37 94.3951C141.37 96.047 141.238 101.168 140.71 108.436C140.181 115.705 132.769 116.31 129.13 115.705V110.584H127.825L128.32 124.625C115.898 119.603 101.78 120.991 96.2734 122.312C97.1746 119.351 97.417 113.224 97.4287 110.313C97.2047 110.245 97.2506 110.163 97.4292 110.088C97.4292 110.161 97.429 110.236 97.4287 110.313C98.0334 110.495 100.604 110.57 107.836 110.088C117.436 109.448 119.122 98.8393 118.764 93.1196C118.709 92.9045 118.693 92.7206 118.723 92.578C118.738 92.753 118.752 92.9337 118.764 93.1196C119.115 94.4833 121.059 97.0997 123.018 98.3597C125.842 100.177 129.075 98.9103 129.625 97.8641L129.13 97.0382C127.147 98.624 124.78 97.6989 123.844 97.0382C115.915 91.4217 119.218 81.1799 124.174 80.6843C128.139 80.2879 129.46 84.0432 129.625 85.9704C131.74 85.7061 132.929 84.8692 133.259 84.4837C135.77 73.9115 133.975 68.8457 132.764 67.6343Z" fill="#FED095"/>
<path d="M209.92 132.553C210.977 134.007 210.361 136.352 209.92 137.344C219.303 136.419 224.622 140.042 226.109 141.969C228.752 135.802 234.203 122.708 234.864 119.668C235.69 115.869 231.395 105.462 229.412 102.158C227.827 99.515 223.135 99.515 220.988 99.8453L219.997 105.462C220.878 105.242 222.937 104.933 224.126 105.462C225.316 105.991 225.173 111.188 225.117 113.721C222.739 115.307 222.089 116.199 221.814 116.86C221.373 117.576 220.162 118.512 217.519 115.704C214.122 112.095 215.702 102.819 212.067 102.158C209.16 101.629 208.984 104.14 209.259 105.462C209.7 108.766 210.317 116.464 209.259 120.825C207.938 126.276 208.599 130.736 209.92 132.553Z" fill="#FED095"/>
<path d="M222.97 106.948C223.895 107.213 223.906 109.151 223.796 110.087L219.335 109.922C219.17 105.462 221.813 106.618 222.97 106.948Z" fill="#FED095"/>
<path d="M219.171 111.739H223.466V113.061C222.408 113.193 220.933 115.208 220.327 116.199L218.345 114.382L219.171 111.739Z" fill="#FED095"/>
<path d="M221.6 83.4736L217.352 111.905L217.324 111.763C216.176 105.861 215.006 99.8485 210.744 100.176C206.448 100.507 206.946 105.793 207.607 108.436C208.135 110.55 207.827 117.136 207.607 120.164L179.855 114.217C180.405 109.978 181.54 101.366 181.672 100.837C181.837 100.176 180.68 98.3592 178.698 99.8459C176.716 101.333 169.447 100.507 170.769 94.2294C172.09 87.9522 178.368 90.0997 180.68 91.5864C182.53 92.7758 183.213 91.7516 183.323 91.0908L185.966 77.2148C189.05 77.4351 195.646 77.9417 197.364 78.206C199.512 78.5364 199.181 81.1794 197.86 82.0054C196.538 82.8313 195.219 92.2471 202.816 93.2383C211.469 94.3671 211.571 86.6307 210.58 83.4921C210.273 82.2625 211.349 81.1309 212.592 81.3761L221.338 83.1007C221.511 83.1348 221.626 83.2991 221.6 83.4736Z" fill="#F49C5D"/>
<path d="M251.877 110.582H234.698C234.698 110.582 234.113 109.256 232.385 104.47C230.237 98.523 224.565 97.8072 221.317 98.0274L223.241 84.4226C223.46 82.8748 222.444 81.4208 220.911 81.1164C217.095 80.359 212.179 79.4826 211.24 79.6913C209.754 80.0217 208.102 81.6736 209.754 85.1426C211.075 87.9178 208.432 90.2635 206.945 91.0894V64.8242H222.143C224.125 64.8242 225.447 65.9805 223.299 69.7799C221.152 73.5793 223.63 82.004 232.054 80.3521C240.672 78.6624 237.506 70.2755 236.349 67.7976C235.424 65.8154 237.065 64.9894 238.001 64.8242H255.181V107.278C255.181 109.103 253.702 110.582 251.877 110.582Z" fill="#969EFF"/>
<path d="M237.176 62.842H255.017V20.7185C255.017 18.5289 253.242 16.7539 251.052 16.7539H207.112C207.222 21.214 207.376 30.6629 207.112 32.7773C206.847 34.8918 208.842 35.0824 209.589 34.4293C211.705 32.5807 214.655 32.2267 216.032 32.447C224.787 33.4381 223.796 43.5147 219.831 46.6534C215.867 49.792 210.746 46.8186 208.929 46.1578C207.475 45.6292 206.891 46.7084 206.781 47.3141V62.842H222.144C225.943 62.842 227.265 66.6413 225.613 68.954C223.961 71.2666 223.307 79.1735 230.238 78.8654C237.671 78.535 236.68 72.0926 234.698 68.128C233.221 65.173 235.359 62.842 237.176 62.842Z" fill="#F49C5D"/>
<path d="M204.963 32.9425V16.7539H162.84C160.65 16.7539 158.875 18.5289 158.875 20.7185V63.0073C163.335 62.8972 170.934 63.0073 173.412 63.0073C175.543 63.0073 175.881 61.3946 175.394 60.5294C173.907 57.8862 173.9 54.4104 174.072 53.4261C175.229 46.8185 184.479 46.3229 187.618 50.2875C190.757 54.2521 188.279 58.7124 187.618 60.5294C187.089 61.9831 188.114 63.3377 189.435 63.3377H204.963V47.975C204.963 44.1756 208.432 43.1843 210.745 44.8362C213.057 46.4881 221.295 46.8123 220.986 39.8807C220.656 32.4476 213.103 33.0132 209.754 35.916C207.276 38.0633 204.633 35.2552 204.963 32.9425Z" fill="#969EFF"/>
<path d="M59.924 28.9386C59.666 28.6806 59.666 28.2622 59.924 28.0042L67.9319 19.9963C68.1899 19.7382 68.6083 19.7382 68.8664 19.9963L76.8743 28.0042C77.1323 28.2622 77.1323 28.6806 76.8743 28.9386L68.8664 36.9465C68.6083 37.2046 68.1899 37.2046 67.9319 36.9465L59.924 28.9386Z" fill="#969EFF"/>
<circle cx="240.977" cy="185.743" r="4.12975" fill="#F49C5D"/>
<circle cx="59.9277" cy="121.65" r="3.13861" fill="#F49C5D"/>
</svg>
