<svg width="306" height="240" viewBox="0 0 306 240" fill="none" xmlns="http://www.w3.org/2000/svg">
<path fill-rule="evenodd" clip-rule="evenodd" d="M148.555 31.6092C164.878 21.8506 182.799 31.6092 190.074 42.6098C195.893 51.4104 194.036 69.8157 192.38 77.9183C190.109 98.0741 185.165 105.952 182.976 107.372C212.433 115.533 225.379 123.873 231.057 139.841C236.734 155.81 241.348 162.907 247.025 181.005C251.568 195.483 248.918 203.243 247.025 206.2C240.07 219.543 222.599 219.685 214.733 218.088L217.04 240.089H110.227L114.485 196.441C108.524 206.945 99.9362 208.861 96.3875 208.507C79.8866 207.087 72.6116 186.15 71.3696 172.311C70.1276 158.471 78.2893 144.277 81.8379 140.374C84.6768 137.251 94.1415 119.555 98.5191 111.098C97.7503 110.506 96.8412 107.904 97.632 106.13C99.0547 102.938 101.358 103.645 101.89 103.468C102.316 103.326 102.304 102.226 102.245 101.694C97.9868 89.2738 101.535 71.176 105.084 64.7885C107.923 59.6786 110.407 60.2936 111.294 61.2399C113.707 55.5622 117.031 56.1536 118.391 57.1591C122.791 51.7652 125.193 55.2665 125.843 57.6913C130.244 56.6977 130.516 60.8259 130.102 63.0142C130.811 61.7367 132.764 61.2991 133.651 61.2399C133.178 54.6159 135.496 39.4161 148.555 31.6092ZM139.503 83.7735C138.024 88.3867 134.677 98.2162 133.115 100.629C131.164 103.646 128.857 106.485 123.889 109.501L123.712 111.985C130.75 111.453 144.613 107.478 143.761 95.8387C142.697 94.5967 140.674 90.4094 141.1 83.5961L139.503 83.7735ZM127.97 72.0632C127.024 73.5418 125.451 78.8411 126.728 88.2093H127.438C128.798 85.7253 131.732 80.7574 132.583 80.7572C131.4 79.8109 128.822 76.7473 127.97 72.0632Z" fill="#282828"/>
<path d="M188.173 162.318C201.993 162.175 209.143 170.849 211.363 174.264C213.208 177.103 216.39 178.286 217.75 178.522C220.305 182.639 220.116 195.26 219.702 201.056L209.411 195.556C210.291 195.653 211.221 195.421 211.889 195.169C212.294 195.017 212.429 194.539 212.215 194.163C212.029 193.839 211.639 193.694 211.283 193.806C206.426 195.336 202.562 194.825 200.007 194.314C197.346 193.781 195.572 193.072 190.604 192.894C187.433 192.781 184.504 191.193 182.788 190.074C182.094 189.623 181.633 188.9 181.454 188.092C181.274 187.282 182.132 186.477 182.943 186.652C186.021 187.315 191.793 188.27 194.783 188.434C195.22 188.458 195.572 188.104 195.572 187.667C195.572 187.224 195.209 186.868 194.767 186.868C187.819 186.857 182.771 185.247 180.475 184.21C179.816 183.912 179.476 183.21 179.556 182.491C179.677 181.403 180.703 180.62 181.793 180.727C185.312 181.076 191.726 181.459 195.266 181.667C195.721 181.694 196.104 181.332 196.104 180.877C196.104 180.387 195.664 179.99 195.175 179.987C192.483 179.973 185.753 179.266 181.24 178.739C180.181 178.615 179.362 177.761 179.273 176.699C179.164 175.388 180.198 174.265 181.513 174.288C184.396 174.339 188.416 174.479 190.959 174.796C195.217 175.329 198.943 176.748 197.701 174.264C196.784 172.432 186.845 172.168 180.851 172.278C180.031 172.293 179.32 171.713 179.177 170.905C179.02 170.014 179.606 169.163 180.498 169.012C184.391 168.35 191.948 167.243 194.685 167.699C197.878 168.232 203.024 170.183 200.362 167.699C198.556 166.014 192.409 165.698 188.419 165.822C187.397 165.854 186.523 165.048 186.523 164.024C186.523 163.099 187.248 162.328 188.173 162.318Z" fill="#FED095"/>
<path d="M101.89 114.293C102.741 117.7 106.148 117.724 107.745 117.31C108.596 122.277 112.831 121.154 114.842 119.971C115.836 123.945 119.396 123.52 121.052 122.81C118.923 143.569 113.244 166.103 110.051 172.313C106.857 178.523 97.4537 190.588 85.3886 181.539C73.3234 172.49 83.7917 154.037 89.1146 144.279C93.3729 136.472 99.4055 121.036 101.89 114.293Z" fill="#FED095"/>
<path d="M115.906 58.2254C120.874 56.0965 115.906 67.2744 114.841 70.4681C113.99 73.0231 113.599 78.6299 113.599 80.759C111.924 80.9113 108.654 81.2989 107.222 81.7647C106.904 81.8684 106.808 82.2267 106.975 82.5177C107.183 82.8829 107.712 82.9774 108.097 82.8085C109.813 82.0555 114.116 81.3827 121.215 82.4228C121.629 82.4834 122.028 82.2344 122.148 81.834C122.309 81.2982 121.908 80.759 121.348 80.759H121.229C120.827 78.1763 121.405 70.2468 126.11 60.0514C126.39 59.4433 126.902 58.8383 127.561 58.9556C128.524 59.1269 129.303 60.4153 128.148 64.6129C126.197 71.7101 123.358 80.0493 125.487 88.2111C123.647 88.3226 119.535 89.3908 117.049 92.7248C116.79 93.0715 116.882 93.5561 117.228 93.8157C117.646 94.1293 118.251 93.9849 118.554 93.5592C119.898 91.6735 123.029 89.1429 128.148 89.6305C128.433 89.6298 131.697 84.544 133.294 82.001C134.063 82.6516 136.026 83.9173 137.73 83.7753C136.369 88.6842 133.367 98.7966 130.632 101.873C127.794 105.067 125.487 107.019 122.471 108.438C122.471 108.723 122.116 113.406 121.938 115.713C121.17 114.707 118.887 113.193 115.906 115.18C115.433 113.82 113.706 111.419 110.583 112.696C110.583 111.454 109.66 108.864 105.97 108.438C106.147 107.373 105.934 104.96 103.663 103.825L104.195 101.873C102.953 98.9751 100.931 90.3047 102.776 78.8073C104.621 67.3098 108.04 63.2526 109.518 62.6612C110.11 62.6021 110.938 63.6904 109.518 68.5164C108.099 73.3424 107.744 78.2159 107.744 80.0493H109.518C109.991 73.4844 111.931 59.9288 115.906 58.2254Z" fill="#FED095"/>
<path d="M165.588 90.1628C169.988 89.1692 175.759 89.8671 178.361 90.3402C178.376 90.3433 179.967 90.6657 181.379 91.9371C182.562 93.0017 183.152 98.8568 179.958 99.3891C177.403 99.815 176.234 98.088 175.879 97.0825H169.846C169.078 97.8515 167.715 100.099 164.169 99.3891C160.863 98.7276 160.088 91.4048 165.588 90.1628Z" fill="#FED095"/>
<path d="M139.682 43.1439C143.94 35.8693 159.199 24.1589 176.055 32.4981C189.54 39.1695 192.438 51.838 192.201 57.3383C185.343 53.4006 180.245 55.7053 177.977 57.8439C177.528 58.2667 177.461 58.9326 177.721 59.491C178.148 60.4061 179.323 60.7498 180.259 60.3698C181.462 59.8811 183.173 59.3655 185.281 59.1126C188.829 58.6868 191.373 60.4729 192.201 61.4192C191.492 81.4332 188.238 91.0499 186.7 93.3565C186.523 87.1465 181.555 83.7753 168.957 84.3076C158.879 84.7334 156.596 91.9371 156.715 95.4857C144.827 88.0337 143.94 78.9848 141.988 79.517C140.923 79.8073 141.853 81.0804 140.923 81.8236C138.276 83.9402 134.359 81.1138 130.811 76.1458C127.262 71.1778 128.681 64.258 132.585 63.1935C135.067 62.5167 136.891 63.8121 137.862 64.9958C138.199 65.4065 138.825 65.5248 139.228 65.1792C139.499 64.947 139.595 64.5637 139.427 64.249C138.359 62.2495 136.473 61.5282 135.601 61.4192C135.246 57.1609 135.424 50.4185 139.682 43.1439Z" fill="#FED095"/>
<path d="M123.711 60.7086C118.566 72.419 120.162 80.4033 119.807 80.5807C118.955 80.1548 116.614 80.0484 115.55 80.0484C115.195 76.145 119.454 55.7411 122.471 55.9185C124.884 56.0605 124.306 59.3549 123.711 60.7086Z" fill="#FED095"/>
<path d="M145.004 98.3243C156.218 112.519 173.334 111.572 180.49 109.325C178.787 115.996 170.909 128.31 167.183 133.633C150.718 126.82 143.053 112.696 141.278 106.486C144.401 103.789 145.063 99.9212 145.004 98.3243Z" fill="#FED095"/>
<path d="M204.789 203.54C204.789 205.402 203.28 206.911 201.418 206.911C199.556 206.911 198.047 205.402 198.047 203.54C198.047 201.678 199.556 200.169 201.418 200.169C203.28 200.169 204.789 201.678 204.789 203.54Z" fill="#F49C5D"/>
<path d="M188.82 201.765C188.82 203.627 187.311 205.137 185.449 205.137C183.587 205.137 182.078 203.627 182.078 201.765C182.078 199.904 183.587 198.394 185.449 198.394C187.311 198.394 188.82 199.904 188.82 201.765Z" fill="#F49C5D"/>
<path d="M202.66 210.459C202.66 212.223 201.23 213.653 199.466 213.653C197.702 213.653 196.273 212.223 196.273 210.459C196.273 208.696 197.702 207.266 199.466 207.266C201.23 207.266 202.66 208.696 202.66 210.459Z" fill="#F49C5D"/>
<path d="M196.273 214.363C196.273 216.127 194.843 217.557 193.079 217.557C191.315 217.557 189.885 216.127 189.885 214.363C189.885 212.599 191.315 211.169 193.079 211.169C194.843 211.169 196.273 212.599 196.273 214.363Z" fill="#F49C5D"/>
<path d="M195.208 220.396C195.208 221.571 194.255 222.525 193.079 222.525C191.903 222.525 190.95 221.571 190.95 220.396C190.95 219.22 191.903 218.266 193.079 218.266C194.255 218.266 195.208 219.22 195.208 220.396Z" fill="#F49C5D"/>
<path d="M194.853 225.186C194.853 226.068 194.138 226.783 193.256 226.783C192.374 226.783 191.659 226.068 191.659 225.186C191.659 224.304 192.374 223.589 193.256 223.589C194.138 223.589 194.853 224.304 194.853 225.186Z" fill="#F49C5D"/>
<path d="M189.885 209.395C189.885 211.159 188.455 212.589 186.691 212.589C184.927 212.589 183.498 211.159 183.498 209.395C183.498 207.631 184.927 206.201 186.691 206.201C188.455 206.201 189.885 207.631 189.885 209.395Z" fill="#F49C5D"/>
<path d="M199.466 195.91C200.886 196.62 204.079 196.561 205.499 196.443C205.499 197.448 204.824 199.388 202.128 199.104C199.431 198.82 199.23 196.857 199.466 195.91Z" fill="#F49C5D"/>
<path d="M183.32 192.539C185.165 194.1 187.992 194.254 189.175 194.136C189.352 195.378 187.578 199.104 184.385 197.685C181.83 196.549 182.61 193.781 183.32 192.539Z" fill="#F49C5D"/>
<path d="M121.395 118.905C121.395 120.473 120.124 121.744 118.556 121.744C116.988 121.744 115.717 120.473 115.717 118.905C115.717 117.337 116.988 116.066 118.556 116.066C120.124 116.066 121.395 117.337 121.395 118.905Z" fill="#F49C5D"/>
<path d="M114.652 116.776C114.652 118.343 113.381 119.614 111.813 119.614C110.246 119.614 108.975 118.343 108.975 116.776C108.975 115.208 110.246 113.937 111.813 113.937C113.381 113.937 114.652 115.208 114.652 116.776Z" fill="#F49C5D"/>
<path d="M108.975 112.872C108.975 114.44 107.704 115.711 106.136 115.711C104.568 115.711 103.297 114.44 103.297 112.872C103.297 111.304 104.568 110.033 106.136 110.033C107.704 110.033 108.975 111.304 108.975 112.872Z" fill="#F49C5D"/>
<path d="M104.361 107.194C104.361 108.762 103.09 110.033 101.522 110.033C99.9546 110.033 98.6836 108.762 98.6836 107.194C98.6836 105.626 99.9546 104.355 101.522 104.355C103.09 104.355 104.361 105.626 104.361 107.194Z" fill="#F49C5D"/>
<path d="M122.991 119.792C123.228 117.663 123.701 113.369 123.701 113.227C124.884 113.227 127.214 113.901 127.072 116.598C126.93 119.295 124.293 119.851 122.991 119.792Z" fill="#F49C5D"/>
<path d="M182.262 108.791L193.795 112.517C178.181 159.075 135.006 185.736 115.371 193.248C118.444 184.167 121.426 156.468 122.591 143.134C122.622 142.771 122.925 142.503 123.29 142.503C123.705 142.503 124.029 142.861 123.988 143.274L120.693 176.569C164.128 148.748 179.837 119.792 182.262 108.791Z" fill="#969EFF"/>
<path d="M134.533 111.453C136.236 111.027 139.738 108.495 140.566 107.727C144.682 123.34 159.077 132.448 165.761 135.051L160.438 141.083C147.663 136.257 137.786 119.141 134.533 111.453Z" fill="#969EFF"/>
<path d="M80.9492 179.408C91.0272 192.609 103.246 184.908 108.096 179.408C107.8 186.269 104.583 200.061 94.079 200.345C83.5752 200.629 80.9492 186.505 80.9492 179.408Z" fill="#969EFF"/>
<path d="M210.473 198.038L219.344 202.474C219.344 207.028 216.86 215.426 215.618 215.072C212.638 214.22 210.946 203.361 210.473 198.038Z" fill="#969EFF"/>
<path d="M212.554 172.312C213.032 168.015 213.356 153.614 213.477 145.688C213.484 145.2 213.882 144.809 214.37 144.809C214.864 144.809 215.259 145.206 215.245 145.699C215.132 149.651 214.537 164.379 214.063 172.512C214.04 172.9 213.719 173.198 213.33 173.198C212.864 173.198 212.503 172.775 212.554 172.312Z" fill="#969EFF"/>
<path d="M239.993 180.025C236.672 177.059 230.354 175.857 226.873 175.56C226.568 175.534 226.422 175.854 226.669 176.036C227.527 176.671 229.184 177.489 231.764 177.811C234.787 178.189 237.661 179.899 239.096 180.982C239.371 181.189 239.758 181.173 240.001 180.93C240.255 180.676 240.261 180.264 239.993 180.025Z" fill="#969EFF"/>
<path d="M154.15 57.9399C160.466 53.2953 166.985 55.2078 170.202 57.2848C170.974 57.7831 171.149 58.7885 170.738 59.6101C170.235 60.6154 169.022 61.0359 168.005 60.5573L166.818 59.9985C162.622 58.4109 158.336 59.2845 155.877 60.3032C155.076 60.635 154.082 60.3277 153.741 59.5308C153.499 58.9663 153.655 58.3037 154.15 57.9399Z" fill="#282828"/>
<path d="M133.286 66.9168C136.383 66.5595 138.363 69.0926 139.165 70.9302C139.362 71.3813 138.974 71.8172 138.487 71.8885C137.869 71.9789 137.174 72.2778 136.834 73.1268C136.451 74.0855 136.909 75.0442 137.466 75.7296C137.813 76.1579 137.812 76.829 137.371 77.1601C137.058 77.3947 136.618 77.3803 136.346 77.0995C133.856 74.5305 135.214 72.1916 136.494 71.0872C136.695 70.9134 136.817 70.6516 136.746 70.3953C136.299 68.7863 134.788 68.5136 133.64 68.5136C133.64 68.5136 132.398 68.6911 132.398 67.8039C132.398 66.9168 133.286 66.9168 133.286 66.9168Z" fill="#282828"/>
<path d="M185.276 68.8707C187.134 69.0771 188.166 68.2327 188.728 67.4155C189.006 67.0102 189.565 66.8398 189.966 67.1256C190.236 67.3192 190.354 67.669 190.215 67.9715C189.634 69.2351 188.247 70.9462 185.276 70.8224C182.5 70.7067 180.871 69.2871 180.042 68.1574C179.764 67.7776 179.907 67.2582 180.306 67.0085C180.707 66.7582 181.228 66.8664 181.563 67.199C182.235 67.8649 183.397 68.6619 185.276 68.8707Z" fill="#282828"/>
<path d="M162.21 69.0481C164.068 69.2545 165.1 68.4102 165.662 67.593C165.94 67.1876 166.5 67.0172 166.9 67.3031C167.171 67.4966 167.288 67.8464 167.149 68.1489C166.568 69.4125 165.181 71.1236 162.21 70.9998C159.434 70.8842 157.805 69.4645 156.977 68.3349C156.698 67.955 156.841 67.4356 157.241 67.186C157.641 66.9356 158.162 67.0439 158.497 67.3764C159.169 68.0424 160.332 68.8394 162.21 69.0481Z" fill="#282828"/>
<path d="M179.951 76.8547C179.951 76.5895 178.092 70.1083 176.98 66.2672C176.855 65.8349 176.415 65.5752 175.976 65.6729C175.523 65.7736 175.234 66.2168 175.347 66.6669C175.92 68.9415 177.194 72.7076 177.822 74.903C178.655 77.8182 179.241 80.0484 177.112 81.6453C175.648 82.7433 173.468 82.2597 172.17 81.7267C171.838 81.59 171.447 81.6654 171.217 81.9416C170.946 82.2671 170.991 82.7562 171.359 82.9655C172.876 83.8278 174.815 83.8776 175.692 83.7745C181.903 83.0439 179.951 77.2096 179.951 76.8547Z" fill="#282828"/>
<path d="M172.857 93.1793C175.506 93.4 177.396 92.9201 178.413 92.4732C178.752 92.324 179.187 92.4731 179.304 92.8246C179.375 93.0385 179.31 93.2763 179.123 93.4013C177.913 94.2074 175.474 94.9388 173.035 94.7762C170.975 94.6388 168.017 94.0516 166.231 93.4791C165.766 93.3299 165.551 92.8162 165.732 92.3624C165.934 91.8565 166.543 91.6384 167.047 91.8451C168.262 92.3436 170.308 92.9668 172.857 93.1793Z" fill="#282828"/>
<path d="M80.4527 26C91.0358 26 99.6155 34.5797 99.6155 45.1628C99.6153 55.7457 91.0357 64.3244 80.4527 64.3244H70.7352C70.6609 64.4269 70.5687 64.522 70.4549 64.6035L62.8883 70.0241C62.0821 70.6013 60.962 70.0144 60.9754 69.0229C61.0032 66.9677 61.0248 64.5907 61.0131 62.9475C61.0111 62.667 61.1044 62.3855 61.2628 62.1359C55.1616 58.9305 51.0001 52.5332 51 45.1628C51 34.5798 59.5787 26.0002 70.1616 26H80.4527Z" fill="#F49C5D"/>
<path d="M62.3477 41.6141C62.3477 40.6342 63.142 39.8398 64.122 39.8398H86.4781C87.458 39.8398 88.2524 40.6342 88.2524 41.6141C88.2524 42.5941 87.458 43.3884 86.4781 43.3884H64.122C63.142 43.3884 62.3477 42.5941 62.3477 41.6141Z" fill="#FFFDFB"/>
<path d="M62.3477 50.4856C62.3477 49.5057 63.142 48.7113 64.122 48.7113H77.6066C78.5865 48.7113 79.3809 49.5057 79.3809 50.4856C79.3809 51.4655 78.5865 52.2599 77.6066 52.2599H64.122C63.142 52.2599 62.3477 51.4655 62.3477 50.4856Z" fill="#FFFDFB"/>
<rect x="71.3633" y="224.027" width="7.64729" height="7.64729" transform="rotate(-45 71.3633 224.027)" fill="#969EFF"/>
<rect x="244.184" y="107.988" width="7.64729" height="7.64729" transform="rotate(-45 244.184 107.988)" fill="#969EFF"/>
<circle cx="84.7741" cy="79.7546" r="3.01631" fill="#F49C5D"/>
<circle cx="246.489" cy="60.5319" r="3.01631" fill="#F49C5D"/>
</svg>
