<svg width="306" height="240" viewBox="0 0 306 240" fill="none" xmlns="http://www.w3.org/2000/svg">
<path d="M187.351 36.7814C189.988 43.4916 184.555 48.3645 181.51 49.9622C181.41 53.1076 180.731 63.0531 178.814 77.6718C176.897 92.2906 171.025 101.337 168.329 104.033C170.606 104.633 175.668 107.179 177.915 108.377C188.22 101.667 197.986 109.775 201.581 114.668C207.272 107.628 219.555 105.232 226.445 111.672C231.956 116.825 231.537 124.104 230.638 127.1C230.738 126.85 231.417 126.74 233.334 128.298C235.731 130.245 229.44 144.624 225.696 150.466C222.7 155.139 212.165 160.901 207.272 163.197C210.388 166.433 208.97 169.338 207.872 170.387C214.312 193.004 212.365 207.533 200.083 211.727C190.257 215.082 183.008 207.932 180.611 203.938V183.316C180.611 182.876 180.255 182.519 179.815 182.519C179.414 182.519 179.076 182.807 179.03 183.205C177.362 197.469 178.779 225.912 179.713 238.538H75.9137C78.7895 233.385 79.7082 188.66 79.8081 166.942C76.5728 161.31 74.0662 148.519 73.2174 142.827C71.7195 124.554 78.3099 118.562 82.354 115.267C85.5893 112.631 105.071 102.286 114.407 97.4431C114.857 94.4474 122.046 90.5531 122.496 90.4033C122.855 90.2835 123.544 85.3607 123.844 82.9142C112.34 80.0384 112.56 68.2356 114.108 62.6937C108.716 44.3604 116.754 37.1808 121.447 35.8827C132.232 13.715 164.435 25.5478 173.871 31.8386C181.42 36.8713 186.003 37.2308 187.351 36.7814Z" fill="#282828"/>
<path d="M179.26 51.0113C179.62 52.3294 179.11 58.6502 178.811 61.6458C174.106 56.4191 169.517 58.032 167.129 60.0205C166.609 60.4535 166.7 61.2387 167.247 61.6367C167.628 61.9138 168.139 61.9245 168.554 61.703C173.914 58.8477 177.307 62.9994 178.362 65.5402C178.003 76.2046 174.118 89.5552 172.221 94.8974C170.673 99.7903 164.402 108.947 151.701 106.431C140.032 104.119 132.695 95.4783 129.876 90.4495C129.55 89.8681 128.74 89.7543 128.294 90.2496C128.046 90.5252 127.984 90.9246 128.146 91.2583C133.932 103.195 147.4 108.043 153.498 108.977L148.406 113.77C131.989 107.419 124.69 96.9444 123.092 92.5009C125.129 91.1828 125.638 85.2614 125.638 82.4655L126.32 82.0111C126.697 81.7601 126.817 81.2621 126.598 80.8665C126.39 80.4934 125.943 80.331 125.529 80.4354C124.468 80.703 123.502 80.7091 123.092 80.6681C113.805 78.8707 113.805 65.5402 116.352 62.6943C118.898 59.8484 124.29 61.9454 125.638 65.5402C126.986 69.1349 127.136 68.8354 127.885 68.8354C128.496 68.8354 129.632 67.3875 130.132 66.5886C138.4 54.9656 136.273 46.1684 134.176 43.2227C135.614 43.2227 144.061 46.0186 148.106 47.4165C163.803 53.5277 175.416 52.3594 179.26 51.0113Z" fill="#FED095"/>
<path d="M220.301 141.48C223.775 133.451 226.042 132.842 226.741 133.541C227.64 136.537 220.75 150.616 219.851 151.515C219.132 152.234 219.851 152.913 220.301 153.163C219.252 154.81 210.715 159.304 205.323 161.85C199.931 164.396 201.728 165.595 197.534 168.59C194.179 170.987 189.845 168.79 188.098 167.392C203.915 162.839 212.262 152.514 214.459 147.92C217.335 147.082 219.552 143.277 220.301 141.48Z" fill="#FED095"/>
<path d="M229.857 129.496C230.209 128.91 230.96 128.704 231.562 129.028C232.075 129.304 232.336 129.897 232.193 130.462C228.632 144.5 224.107 150.288 222.398 151.216C229.707 136.357 229.338 132.343 228.239 132.193L229.857 129.496Z" fill="#FED095"/>
<path d="M184.952 128.598C185.942 131.072 180.658 138.115 176.862 142.41C176.299 143.047 176.576 143.964 177.423 143.881C179.856 143.643 183.739 141.986 188.247 138.634C194.089 134.29 199.331 129.497 200.679 128.598C202.027 127.7 205.472 126.052 204.723 129.497C204.147 132.148 194.929 140.743 189.874 145.17C189.543 145.46 189.479 145.948 189.723 146.313C189.985 146.707 190.513 146.822 190.905 146.556C196.936 142.46 205.221 133.294 209.214 128.469C209.664 127.926 210.413 127.734 211.065 128.002C211.868 128.333 212.262 129.247 211.899 130.037C208.269 137.942 200.384 146.009 196.339 149.281C195.925 149.616 195.83 150.214 196.135 150.651C196.421 151.059 196.962 151.194 197.379 150.921C202.368 147.657 211.231 136.659 212.512 133.241C213.591 130.366 214.759 131.244 215.208 132.043C217.286 134.929 207.297 147.269 201.875 152.454C201.54 152.774 201.498 153.295 201.783 153.661C202.084 154.048 202.644 154.117 203.026 153.81C212.313 146.352 214.331 138.94 215.208 139.233C216.233 139.574 217.305 139.383 211.763 148.819C206.221 158.255 193.49 164.396 186.3 166.193C180.549 167.631 175.216 170.288 173.269 171.436C167.398 168.8 162.834 160.352 161.287 156.458C163.084 154.301 163.933 152.164 164.133 151.365C165.181 146.572 167.428 140.731 171.023 138.035C174.617 135.338 179.848 131.117 180.758 129.946C181.807 128.598 183.754 125.603 184.952 128.598Z" fill="#FED095"/>
<path d="M159.037 155.558C161.553 165.024 169.771 171.885 173.566 174.131L169.222 177.277C159.516 171.405 155.792 161.55 155.143 157.356L159.037 155.558Z" fill="#FFFDFB"/>
<path d="M205.32 163.796C205.819 166.692 204.81 172.963 196.782 174.88C188.754 176.797 185.249 171.785 184.5 169.039L187.945 167.541C188.544 168.889 190.881 171.465 195.434 170.986C199.987 170.506 201.925 166.892 202.324 165.144L205.32 163.796Z" fill="#FFFDFB"/>
<path d="M144.508 129.047L142.262 151.964L129.979 123.056C131.677 124.903 135.312 128.538 136.27 128.298C137.229 128.058 140.464 124.503 141.962 122.756L144.508 129.047Z" fill="#FFFDFB"/>
<path d="M159.486 126.65L157.539 147.021C157.539 146.302 155.243 134.539 154.094 128.747L155.892 122.606L159.486 126.65Z" fill="#FFFDFB"/>
<path d="M121.442 94.4473C128.512 106.909 141.264 113.619 146.756 115.417L136.12 126.051L128.359 118.983C127.946 118.606 127.608 118.143 127.376 117.635C120.244 102.056 120.264 96.6085 121.442 94.4473Z" fill="#FFFDFB"/>
<path d="M159.486 108.976C159.736 112.87 160.086 121.288 159.486 123.805C157.439 121.408 152.656 116.286 149.9 114.967C151.498 113.919 154.903 111.253 155.742 108.976H159.486Z" fill="#FFFDFB"/>
<path d="M148.406 116.314L154.248 120.958L152.6 127.698H145.86L143.164 121.557L148.406 116.314Z" fill="#969EFF"/>
<path d="M146.16 129.495H152.301L156.944 154.209L146.16 159.901L143.613 155.258L146.16 129.495Z" fill="#969EFF"/>
<path d="M108.244 135.415C109.922 141.902 118.269 163.445 122.344 173.682L143.413 162.058C143.78 161.856 144.242 161.968 144.474 162.317C144.737 162.71 144.606 163.244 144.193 163.472L112.623 180.9C112.206 181.13 111.682 180.967 111.47 180.541C111.269 180.14 111.42 179.652 111.813 179.434L120.846 174.431C119.676 173.494 111.258 148.835 106.915 135.784C106.767 135.34 107.1 134.889 107.568 134.889C107.888 134.889 108.164 135.106 108.244 135.415Z" fill="#FFFDFB"/>
<path d="M112.459 215.472C123.025 218.055 147.537 200.432 158.809 190.749C159.184 190.426 159.746 190.488 160.05 190.879C160.326 191.234 160.276 191.747 159.943 192.049C136.642 213.16 119.6 218.067 113.956 217.869C100.046 216.808 87.5558 188.405 81.7354 173.936C81.5733 173.533 81.7525 173.084 82.141 172.89C82.5775 172.672 83.1053 172.868 83.2874 173.32C89.7238 189.321 99.2105 212.234 112.459 215.472Z" fill="#FFFDFB"/>
<path d="M185.694 107.929C193.363 107.45 199.374 114.02 201.421 117.365C212.209 105.233 223.742 110.026 227.636 116.317C231.173 122.031 228.685 128.749 226.588 131.894C225.389 131.445 222.094 132.943 220.596 137.137C219.398 140.492 217.8 142.429 217.151 142.978C218.589 139.623 216.852 137.686 215.803 137.137C218.919 132.104 215.803 129.847 213.856 129.348C212.418 124.435 208.464 126.203 206.667 127.7C203.671 124.855 200.675 124.855 191.988 133.392C185.038 140.222 182.003 140.232 181.353 139.383C183.051 137.736 186.566 133.662 187.045 130.546C187.644 126.652 184.349 123.956 182.701 125.304C181.383 126.382 178.056 129.947 176.557 131.595C176.557 131.595 174.486 128.219 173.714 125.603C171.018 116.467 176.108 108.528 185.694 107.929Z" fill="#F49C5D"/>
<path d="M204.599 81.5195C206.39 83.2583 209.427 88.0516 207.989 93.9564C207.955 94.0963 207.98 94.2201 208.033 94.3054C208.05 94.3322 208.068 94.3521 208.084 94.3663C208.732 93.9688 209.53 93.2075 209.86 92.2152L210.639 89.8798L211.548 92.1672C212.415 94.3487 213.128 97.9633 212.245 101.16C211.796 102.781 210.93 104.318 209.445 105.476C207.961 106.633 205.935 107.355 203.265 107.477C200.621 107.597 198.521 106.956 196.933 105.795C195.351 104.639 194.346 103.018 193.794 101.292C193.243 99.5692 193.135 97.7158 193.361 96.0329C193.586 94.3595 194.152 92.7836 195.023 91.6518C196.563 89.6487 198.395 87.9675 199.885 86.4419C201.415 84.8737 202.592 83.4655 203.12 81.8803L203.572 80.5234L204.599 81.5195Z" fill="#282828"/>
<path d="M203.224 106.579C213.336 106.119 212.36 96.643 210.713 92.499C210.284 93.7835 209.27 94.711 208.489 95.1722C208.049 95.4316 207.542 95.2142 207.271 94.7815C207.078 94.4729 207.03 94.0972 207.116 93.7436C208.455 88.2429 205.615 83.7586 203.972 82.1641C202.774 85.7588 198.73 88.3051 195.735 92.1994C192.739 96.0938 193.341 107.028 203.224 106.579Z" fill="#F49C5D"/>
<path d="M203.17 104.377C207.817 104.163 207.368 99.7472 206.611 97.8161C206.414 98.4147 205.948 98.8469 205.589 99.0618C205.387 99.1827 205.154 99.0814 205.03 98.8797C204.941 98.7359 204.919 98.5609 204.958 98.3961C205.574 95.8328 204.269 93.743 203.514 93C202.963 94.6752 201.105 95.8617 199.729 97.6765C198.352 99.4913 198.629 104.587 203.17 104.377Z" fill="#282828"/>
<path d="M150.052 70.9313C152.16 71.2474 153.857 70.0482 154.804 69.0877C155.095 68.7925 155.56 68.7242 155.897 68.9651C156.165 69.1561 156.29 69.4982 156.155 69.798C155.338 71.6213 153.096 72.8784 150.352 72.8784C148.189 72.8784 146.308 71.1789 145.273 69.9032C144.998 69.5639 145.073 69.073 145.415 68.8C145.857 68.4463 146.527 68.6259 146.863 69.0812C147.415 69.8272 148.395 70.6827 150.052 70.9313Z" fill="#282828"/>
<path d="M171.921 72.4291C172.743 72.6118 173.937 71.5289 174.812 70.628C175.185 70.2438 175.809 70.2748 176.131 70.7031C176.307 70.9386 176.357 71.2501 176.224 71.5127C175.638 72.6674 174.308 74.0767 171.921 74.0767C169.724 74.0767 168.311 72.2651 167.625 70.9519C167.402 70.5259 167.604 70.0192 168.034 69.8042C168.457 69.5924 168.971 69.7302 169.259 70.1063C169.976 71.044 171.07 72.24 171.921 72.4291Z" fill="#282828"/>
<path d="M199.122 76.7116C196.206 83.7611 188.993 87.4175 184.895 88.64C184.392 88.7902 183.906 88.4017 183.906 87.8763C183.906 87.5095 184.154 87.1881 184.505 87.0819C192.625 84.6273 196.449 79.4495 197.671 76.2634C197.852 75.7905 198.431 75.5698 198.852 75.8507C199.134 76.0389 199.251 76.3982 199.122 76.7116Z" fill="#282828"/>
<path d="M179.143 93.1214C182.201 94.5374 186.245 94.67 188.524 94.5172C188.935 94.4897 189.292 94.8096 189.292 95.2212C189.292 95.4819 189.146 95.7219 188.899 95.8069C188.035 96.105 186.248 96.4526 183.751 96.0959C181.244 95.7378 179.34 95.0309 178.265 94.4301C177.882 94.2156 177.818 93.7211 178.081 93.3696C178.326 93.0434 178.773 92.9501 179.143 93.1214Z" fill="#282828"/>
<path d="M150.951 56.2542C154.83 56.1596 156.723 57.6769 157.471 58.9341C157.781 59.4551 157.533 60.0805 157.048 60.4443C156.46 60.8847 155.654 60.8473 155.022 60.4728C154.038 59.889 152.484 59.2499 150.352 59.2499C147.898 59.2499 145.656 60.3444 144.339 61.3946C143.814 61.813 143.037 61.8914 142.522 61.4618C142.039 61.0598 141.95 60.3516 142.391 59.9045C143.887 58.3882 146.872 56.3537 150.951 56.2542Z" fill="#282828"/>
<path d="M166.239 93.1032C165.589 94.7911 164.117 95.7955 162.95 95.3464C161.783 94.8974 161.363 93.1651 162.013 91.4772C162.662 89.7893 164.135 88.785 165.302 89.234C166.469 89.683 166.888 91.4153 166.239 93.1032Z" fill="#282828"/>
<path d="M167.123 78.871C165.243 73.8575 164.517 68.9351 164.328 66.3654C164.288 65.8236 163.844 65.3906 163.301 65.3906C162.824 65.3906 162.432 65.7318 162.438 66.2087C162.451 67.2582 162.626 69.2431 163.229 72.4304C164.278 77.9723 166.193 80.219 165.326 81.5671C164.428 82.9645 161.735 82.5188 159.879 81.9269C159.322 81.7492 158.704 82.0035 158.479 82.5434C158.281 83.0185 158.455 83.5658 158.936 83.7476C161.972 84.8933 169.559 85.3658 167.123 78.871Z" fill="#282828"/>
<circle cx="232.745" cy="44.7445" r="3.74455" fill="#F49C5D"/>
<circle cx="233.546" cy="217.546" r="2.54629" fill="#F49C5D"/>
<path d="M61 51.0905L70.0905 42L79.1809 51.0905L70.0905 60.1809L61 51.0905Z" fill="#969EFF"/>
</svg>
