<svg width="306" height="240" viewBox="0 0 306 240" fill="none" xmlns="http://www.w3.org/2000/svg">
<path d="M155.357 21.9531C177.626 17.694 188.264 29.6092 190.799 36.0992C205.401 38.4113 202.562 54.6059 199.317 62.4142C204.185 65.4563 204.185 72.4534 200.686 78.0814C197.188 83.7095 190.799 84.1658 189.582 84.3179C188.609 84.4396 188.163 90.7572 188.061 93.9008C199.135 96.6996 207.582 111.089 210.421 117.934C197.035 121.463 188.72 133.196 186.236 138.621L187.453 139.686C191.347 129.464 200.94 123.968 205.249 122.497C236.888 130.711 233.694 155.201 233.694 165.088C233.694 174.975 239.322 189.425 238.713 190.186C245.406 207.952 241.502 218.377 238.713 221.368C238.348 215.406 235.215 211.278 233.694 209.96C230.652 227.483 218.635 233.284 213.007 233.993L213.92 238.405H98.7729C101.572 234.024 110.384 178.575 114.44 151.398H113.071L107.139 188.665C103.133 191.758 93.3578 198.248 86.2999 199.465C77.4776 200.986 67.438 199.313 64.2437 187.752C61.0494 176.192 68.1985 138.773 70.1759 134.362C71.7579 130.833 76.2096 129.038 78.2377 128.582L80.5197 123.866C75.6522 113.401 76.0577 106.424 76.8689 104.244C76.2605 98.6162 77.173 97.8556 77.7814 96.943C78.3898 96.0303 77.4772 93.9008 77.7814 92.5318C78.0856 91.1628 80.8236 88.7291 83.7137 84.9263C86.0257 81.8841 90.2544 81.1236 92.0797 81.1236V78.0814L90.8349 77.7258C89.6809 77.3961 88.8854 76.3414 88.8854 75.1413C88.8854 73.6568 90.0888 72.4534 91.5733 72.4534H109.589C111.092 72.4534 112.31 73.6717 112.31 75.1745C112.31 76.3617 111.541 77.4118 110.409 77.7693L109.42 78.0814V83.5573C115.352 78.6899 117.178 83.4052 117.026 85.2305C116.848 87.3601 114.845 91.3149 113.679 93.9008C112.706 94.8743 112.26 101.405 112.158 104.548L119.764 120.064C121.832 118.238 127.014 117.478 129.346 117.326C126.791 113.553 122.4 112.306 120.524 112.154C130.259 101.932 138.473 97.1458 141.363 96.0303C137.712 90.5544 136.597 79.0448 136.496 73.9745C130.29 68.1335 131.476 58.8649 132.845 54.9608H137.257C137.135 52.0403 138.524 45.9356 139.234 43.2484C131.446 39.4761 132.744 31.7388 134.366 28.3417C135.279 29.5585 142.276 30.4712 145.622 27.1248C148.299 24.4477 153.228 22.5615 155.357 21.9531Z" fill="#282828"/>
<path d="M167.073 106.221C168.594 97.0948 175.896 96.1821 174.68 100.593C173.463 105.004 173.919 111.089 175.896 117.629C177.874 124.17 174.984 136.947 174.68 137.708C174.436 138.316 177.823 146.074 179.547 149.877C176.019 151.702 167.125 158.952 163.118 162.35L159.62 149.877C153.84 149.116 149.625 138.123 149.124 135.122C148.82 133.297 149.43 131.776 145.779 130.407C142.128 129.038 141.977 124.931 143.954 123.866C146.043 122.741 151.017 125.56 153.841 127.681C154.262 127.997 154.865 127.925 155.181 127.503C155.385 127.231 155.43 126.863 155.232 126.585C153.71 124.451 148.563 122.455 147.149 121.888C146.16 121.493 143.954 117.934 147.757 116.869C150.517 116.096 155.207 118.994 157.815 121.118C158.222 121.45 158.825 121.39 159.148 120.975C159.421 120.623 159.405 120.124 159.097 119.802C154.153 114.647 149.844 115.306 148.668 114.131C147.695 113.157 148.567 111.292 149.124 110.48C152.429 107.859 159.435 112.123 163.04 114.946C163.42 115.243 163.973 115.184 164.269 114.803C164.558 114.432 164.494 113.898 164.116 113.617C161.03 111.324 154.969 107.511 150.798 107.286C146.295 107.043 145.981 104.345 146.386 103.027C152.482 96.5795 164.902 105.989 170.972 112.082C171.335 112.446 171.929 112.433 172.271 112.049C172.593 111.686 172.561 111.131 172.2 110.808L167.073 106.221Z" fill="#FED095"/>
<path d="M85.3927 85.6865C89.6517 81.1841 96.9446 82.6572 100.147 83.7091C102.108 84.353 104.288 85.5748 105.82 86.5899C106.677 87.1583 106.829 88.3112 106.226 89.1452C105.695 89.8815 104.725 90.1482 103.873 89.8335C95.1503 86.6116 88.5828 87.9287 85.7444 89.2878C85.3579 89.4729 85.2183 89.9342 85.3924 90.3258C85.5665 90.7175 86.0057 90.9175 86.42 90.8074C94.8502 88.5674 102.084 91.0014 105.781 93.2165C106.951 93.9178 107.024 95.4664 106.108 96.4782C105.367 97.2972 104.182 97.5286 103.154 97.1247C95.9465 94.2916 88.9416 94.6096 86.0397 95.4913C85.6532 95.6087 85.449 96.008 85.5281 96.4042C85.6212 96.8699 86.0753 97.1709 86.543 97.089C94.3077 95.7288 99.6176 97.2325 102.233 98.7557C103.242 99.3432 103.281 100.639 102.558 101.555C101.929 102.352 100.879 102.678 99.895 102.426C92.8564 100.617 87.9085 101.228 85.8288 102.044C85.3698 102.224 85.1955 102.741 85.3514 103.208C85.5429 103.783 86.1601 104.093 86.7468 103.944C92.6022 102.453 98.0944 104.008 99.3864 105.156C100.755 106.373 98.6259 108.503 96.6485 108.655C94.6711 108.807 88.891 107.59 86.9135 109.111C85.3316 110.328 82.5023 117.629 81.2854 121.128C80.4236 118.694 78.5783 113.218 78.0914 110.785C77.4829 107.742 78.3957 104.7 78.6999 104.244C79.004 103.787 78.2435 100.745 78.3956 99.5284C78.5478 98.3116 79.4604 97.7031 79.7646 97.2468C80.0688 96.7904 79.4604 94.2046 79.4604 93.2919C79.4605 92.3793 80.0691 91.3142 85.3927 85.6865Z" fill="#FED095"/>
<path d="M193.998 63.1743C196.432 62.5659 203.429 63.3265 200.843 73.0614C198.775 80.8494 192.477 82.4922 189.587 82.3401L188.218 82.0358C185.906 87.6335 185.328 104.142 185.328 111.697C184.841 114.374 180.156 118.187 177.875 119.759C176.171 115.743 175.745 106.323 175.745 102.114C177.81 100.508 181.389 94.8108 183.194 91.6995C183.376 91.387 183.307 90.9916 183.036 90.7536C182.658 90.4234 182.07 90.5434 181.826 90.9818C179.749 94.7156 176.76 96.9967 175.441 97.7031C170.44 94.6341 167.173 99.9087 165.937 103.51C165.81 103.882 165.373 104.056 165.028 103.867C154.661 98.1811 149.709 98.6879 148.518 99.6805C140.121 95.9082 138.428 81.6809 138.631 75.0388C143.255 77.9593 148.366 74.9374 150.344 73.0614C149.481 74.1262 147.909 76.7424 148.518 78.6894C149.05 80.3931 152.494 80.7458 154.773 80.7055C155.277 80.6966 155.667 80.2764 155.667 79.7723C155.667 79.1964 155.162 78.754 154.587 78.7884C151.681 78.9621 150.89 78.1711 150.344 77.625L150.344 77.6247C149.857 77.1379 154.096 68.5995 156.276 64.3912L157.189 67.5855C159.136 76.2253 165.098 78.2838 167.836 78.2331C178.423 78.8415 181.171 69.2587 181.222 64.3912H184.265C184.094 66.6028 184.806 68.4478 185.527 69.6351C185.875 70.2072 186.657 70.0524 186.925 69.4393C189.009 64.6791 191.761 63.7337 193.998 63.1743Z" fill="#FED095"/>
<path d="M109.274 85.9907C111.099 83.8612 113.859 82.7069 115.206 83.8612C116.271 84.7738 113.837 89.9455 112.316 92.8356C111.553 94.2843 110.845 99.2749 110.795 101.81L109.274 98.3115V85.9907Z" fill="#FED095"/>
<path d="M171.638 40.9663C185.328 39.4453 185.633 49.7887 184.568 52.3745C183.716 54.4432 183.909 57.2927 184.112 58.4589C181.435 57.607 152.676 55.873 138.631 55.1125C139.726 47.2029 140.811 44.617 141.216 44.3127C154.906 48.7239 157.949 42.4874 171.638 40.9663Z" fill="#FED095"/>
<path d="M107.296 98.4644C107.31 98.4916 123.876 130.409 125.092 135.275C126.309 140.142 120.986 143.754 118.4 143.793C108.36 143.945 87.9778 144.523 83.1103 143.793C78.2428 143.063 76.7218 137.709 77.3301 135.275C80.2202 127.517 86.335 111.759 87.6735 110.785C89.0121 109.812 93.3016 109.974 95.279 110.177C102.215 109.325 101.718 106.07 100.603 104.549C105.227 103.575 104.963 100.594 104.253 99.225C105.592 99.59 106.839 98.8701 107.296 98.4644Z" fill="#FFFDFB"/>
<path d="M107.448 92.5322L106.231 91.4674L107.448 90.5548V92.5322Z" fill="#FFFDFB"/>
<path d="M109.277 74.127C109.863 74.127 110.338 74.6021 110.338 75.1882C110.338 75.5669 110.136 75.917 109.808 76.1068L108.207 77.034C107.737 77.3059 107.448 77.8076 107.448 78.3504V85.383C103.919 82.2192 96.8508 80.9212 93.7579 80.6677V78.3171C93.7579 77.7889 93.498 77.2946 93.0627 76.9953L91.7995 76.127C91.502 75.9224 91.3242 75.5845 91.3242 75.2235C91.3242 74.618 91.8152 74.127 92.4207 74.127H109.277Z" fill="#FFFDFB"/>
<path d="M169.204 59.5248L172.702 60.1332L163.728 75.0399L161.294 72.4541L169.204 59.5248Z" fill="#FFFDFB"/>
<path d="M144.714 57.8516L148.821 58.3079L139.39 73.0625L136.652 71.3893L144.714 57.8516Z" fill="#FFFDFB"/>
<path d="M152.79 86.2297C159.836 86.9243 164.064 84.7463 165.888 83.0224C166.299 82.6337 166.983 82.5974 167.359 83.0203C167.636 83.3321 167.655 83.7989 167.384 84.1157C162.996 89.2362 156.107 89.031 152.368 88.0942C151.836 87.9607 151.563 87.3904 151.751 86.8743C151.906 86.4465 152.337 86.185 152.79 86.2297Z" fill="#282828"/>
<path d="M195.368 69.8675C196.676 70.4121 195.968 72.7849 195.296 74.2585C195.167 74.5403 195.234 74.8762 195.472 75.0745C195.751 75.3072 196.167 75.2714 196.379 74.9759C197.624 73.2378 198.914 70.1862 196.281 68.6506C193.641 67.1108 191.3 69.6798 190.2 71.5733C190.01 71.9013 190.112 72.3135 190.415 72.5411C190.788 72.8206 191.319 72.7191 191.593 72.342C192.555 71.0152 194.146 69.3583 195.368 69.8675Z" fill="#282828"/>
<path d="M178.025 120.977C180.58 119.882 182.842 117.276 183.653 116.109L177.569 129.191C177.934 128.096 178.025 123.259 178.025 120.977Z" fill="#969EFF"/>
<path d="M146.691 132.689C148.394 144.371 154.702 149.928 157.642 151.247C158.981 152.04 160.634 160.197 161.293 164.176C159.833 164.541 156.121 169.297 154.448 171.629L158.555 179.387C155.635 195.936 154.6 225.729 154.448 238.557H125.852C126.105 236.986 127.221 226.084 129.654 195.054C132.088 164.024 139.085 139.027 142.279 130.408C143.983 132.841 145.93 132.943 146.691 132.689Z" fill="#969EFF"/>
<path d="M197.646 170.412C198.115 164.203 202.098 153.643 204.249 148.612C204.371 148.327 204.728 148.241 204.97 148.434C205.136 148.567 205.192 148.796 205.107 148.991C201.064 158.268 198.958 168.227 198.407 172.085L205.86 183.493C214.856 186.998 219.618 192.933 221.06 195.78C221.161 195.978 221.102 196.215 220.928 196.354C220.688 196.547 220.332 196.471 220.176 196.206C217.485 191.631 210.399 187.077 207.077 185.318L215.012 197.514C215.174 197.764 215.14 198.094 214.929 198.306C214.645 198.589 214.172 198.54 213.953 198.204L183.478 151.526C183.314 151.274 183.348 150.941 183.561 150.729C183.844 150.445 184.316 150.492 184.539 150.825L197.646 170.412Z" fill="#FFFDFB"/>
<path d="M177.416 208.135C191.157 229.381 203.519 234.229 208.732 234.062C209.146 234.049 209.511 234.366 209.511 234.781C209.511 235.043 209.361 235.288 209.104 235.34C206.644 235.841 200.247 233.088 197.19 231.559C186.478 226.023 169.427 199.296 161.991 186.203C161.847 185.949 161.911 185.639 162.135 185.453C162.414 185.22 162.834 185.285 163.03 185.591L177.416 208.135Z" fill="#FFFDFB"/>
<path d="M97.5589 179.082C98.6401 176.679 101.392 157.574 102.681 147.963C102.713 147.725 102.638 147.492 102.477 147.314C102.022 146.808 101.197 147.048 101.097 147.721C100.573 151.283 99.7788 157.986 98.6236 166.457C97.5006 174.692 96.2087 179.152 95.353 180.883C95.1804 181.232 95.2788 181.69 95.617 181.884C95.8654 182.026 96.1763 181.98 96.3291 181.738C96.7804 181.023 97.311 179.743 97.5589 179.082Z" fill="#FFFDFB"/>
<path d="M88.3157 115.93C89.2405 115.792 90.9586 115.715 92.752 115.986C94.5218 116.254 96.5364 116.886 97.873 118.309C99.2422 119.767 100.123 120.201 100.824 120.251C101.556 120.304 102.338 119.969 103.619 119.207C104.712 118.556 106.238 117.506 107.917 116.853C109.638 116.184 111.643 115.873 113.778 116.737L114.091 116.864L122.499 133.661C124.404 137.467 121.67 141.967 117.454 141.967H84.9699C80.8595 141.967 78.1224 137.671 79.8198 133.884L87.8338 116.001L88.3157 115.93Z" fill="#282828"/>
<path d="M121.982 134.065L113.674 117.584C109.93 116.08 106.583 118.607 104.239 119.992C101.693 121.496 100.196 121.947 97.3502 118.938C95.0738 116.531 90.2116 116.581 88.5143 116.832L80.652 134.252C79.2135 137.439 81.5331 141.054 85.0166 141.054H117.707C121.28 141.054 123.596 137.267 121.982 134.065Z" fill="#F49C5D"/>
<path d="M88.945 56.5178C89.674 55.5662 90.7486 54.9442 91.9353 54.7901L92.0545 54.7764L92.0572 54.7761C93.0424 54.6778 94.0243 54.889 94.8756 55.3656C95.4236 54.5655 96.2037 53.9426 97.1246 53.5923C98.3191 53.1363 99.6495 53.2122 100.788 53.7984C101.94 54.3855 102.796 55.4304 103.151 56.6764L103.184 56.7951C103.503 58.0245 103.314 59.3347 102.654 60.4199L102.652 60.4227L98.8117 66.6845L98.808 66.6905C98.3079 67.4915 97.2616 67.7404 96.4544 67.2504L96.4499 67.2478L96.4455 67.2449L90.19 63.3498C89.0852 62.6644 88.3162 61.5451 88.0665 60.2664C87.817 58.9889 88.1075 57.6632 88.8732 56.614L88.945 56.5178Z" fill="#282828"/>
<path d="M102.269 56.9297C102.562 57.9496 102.417 59.0459 101.869 59.9467L98.0284 66.2082C97.7929 66.5854 97.3027 66.702 96.9226 66.4712L90.6658 62.5755C89.7783 62.025 89.1582 61.1239 88.9568 60.0924C88.7554 59.0609 88.9909 57.9932 89.6066 57.1508C90.2078 56.3215 91.1286 55.7894 92.1424 55.6852C93.2288 55.5768 94.3129 55.9333 95.1317 56.6693L95.1858 56.7146L95.2137 56.6498C95.6198 55.6313 96.4277 54.8322 97.4446 54.4458C98.3967 54.0823 99.4585 54.1428 100.369 54.6125C101.293 55.0838 101.982 55.9245 102.269 56.9297Z" fill="#F49C5D"/>
<path d="M107.4 36.9631C108.546 36.6095 109.782 36.7247 110.839 37.2863L110.944 37.3442L110.946 37.3455C111.806 37.8359 112.485 38.5767 112.903 39.4583C113.813 39.1233 114.809 39.0672 115.763 39.315C117.001 39.635 118.042 40.4673 118.631 41.6047C119.229 42.75 119.322 44.0976 118.89 45.3194L118.848 45.435C118.396 46.6222 117.483 47.5807 116.317 48.0833L116.314 48.0846L109.557 50.9653L109.55 50.9681C108.679 51.3316 107.681 50.9285 107.307 50.0616L107.305 50.0569L107.303 50.052L104.459 43.2539C103.955 42.0553 103.976 40.6974 104.513 39.5104C105.05 38.3244 106.054 37.4119 107.286 36.9999L107.4 36.9631Z" fill="#282828"/>
<path d="M118.033 45.0145C117.681 46.0158 116.928 46.8253 115.96 47.2425L109.202 50.1231C108.792 50.2942 108.325 50.1054 108.149 49.6971L105.304 42.8978C104.899 41.935 104.915 40.8413 105.349 39.8837C105.782 38.9262 106.592 38.1921 107.582 37.8619C108.552 37.534 109.611 37.6335 110.498 38.1356C111.446 38.6764 112.124 39.5948 112.365 40.669L112.383 40.7373L112.443 40.7006C113.364 40.1054 114.485 39.9219 115.538 40.1958C116.525 40.4508 117.356 41.1149 117.826 42.025C118.306 42.9444 118.381 44.0291 118.033 45.0145Z" fill="#F49C5D"/>
<path d="M87.4004 27.4959C88.3067 26.7112 89.4848 26.3192 90.6781 26.408L90.7976 26.4187L90.8003 26.4189C91.7851 26.5217 92.7041 26.9269 93.4414 27.5657C94.1398 26.8929 95.0297 26.4404 96.0023 26.2834C97.2644 26.0781 98.552 26.4213 99.5489 27.2255C100.558 28.033 101.185 29.2294 101.282 30.5216L101.29 30.6444C101.354 31.9129 100.904 33.1579 100.038 34.0873L100.036 34.0898L95.0095 39.4464L95.0046 39.4516C94.353 40.135 93.278 40.1674 92.5865 39.5244L92.5825 39.521L92.5788 39.5172L87.2394 34.4385C86.2958 33.5441 85.7688 32.2924 85.7826 30.9897C85.7963 29.6881 86.3487 28.4485 87.3106 27.5756L87.4004 27.4959Z" fill="#282828"/>
<path d="M100.373 30.5913C100.455 31.6495 100.09 32.6938 99.3721 33.4653L94.3457 38.8217C94.0388 39.1436 93.5352 39.1587 93.2095 38.8559L87.8689 33.7763C87.1109 33.0578 86.6857 32.0501 86.6969 30.9992C86.708 29.9483 87.1544 28.9501 87.9276 28.2495C88.684 27.5588 89.6933 27.2237 90.7072 27.3265C91.7931 27.4398 92.7829 28.008 93.4361 28.8943L93.4799 28.9496L93.5202 28.8918C94.1238 27.9763 95.0764 27.357 96.1505 27.184C97.1564 27.0204 98.184 27.2941 98.9806 27.9381C99.7904 28.5863 100.296 29.549 100.373 30.5913Z" fill="#F49C5D"/>
<circle cx="74.0422" cy="224.042" r="3.04219" fill="#F49C5D"/>
<circle cx="244.955" cy="67.9548" r="3.95484" fill="#F49C5D"/>
</svg>
