<svg width="306" height="240" viewBox="0 0 306 240" fill="none" xmlns="http://www.w3.org/2000/svg">
<path d="M263.064 53.1719L254.385 54.4237L254.051 59.8485L263.064 53.1719Z" fill="#282828"/>
<path d="M261.061 53.9219L254.552 55.0903L254.051 59.0963L261.061 53.9219Z" fill="#F49C5D"/>
<path d="M227.246 67.7754C227.349 67.775 227.445 67.7858 227.521 67.7966C227.676 67.8186 227.85 67.8573 228.02 67.9006C228.368 67.9886 228.802 68.1208 229.251 68.267C230.154 68.561 231.187 68.9336 231.863 69.187L232.718 69.5075L232.478 70.3884C232.309 71.0058 232.04 71.9653 231.778 72.8403C231.647 73.2773 231.517 73.699 231.401 74.0488C231.293 74.375 231.176 74.7044 231.072 74.9124C231.005 75.0459 230.92 75.1489 230.878 75.1973C230.825 75.2595 230.766 75.3211 230.709 75.3783C230.594 75.4932 230.448 75.6261 230.283 75.7695C229.952 76.0581 229.506 76.4234 228.986 76.8339C227.944 77.6565 226.574 78.6841 225.164 79.6842C223.755 80.6825 222.29 81.6649 221.062 82.3917C220.45 82.7538 219.877 83.0646 219.387 83.2823C219.143 83.3911 218.901 83.4853 218.673 83.55C218.463 83.6097 218.182 83.669 217.891 83.64C217.645 83.6154 217.235 83.6564 216.673 83.7994C216.129 83.9379 215.51 84.1541 214.875 84.4217C213.594 84.9623 212.347 85.6707 211.606 86.263C210.295 87.3116 205.202 91.7848 202.797 93.9096L201.612 94.9574L201.172 93.4379C199.87 88.9412 201.148 85.0251 202.41 82.8367C202.207 82.7255 201.999 82.5997 201.792 82.4644C201.047 81.9794 200.192 81.3091 199.318 80.5863C197.516 79.0964 195.674 77.4222 194.175 76.2565L191.957 74.5319L194.766 74.4648C197.071 74.4099 201.954 74.1339 209.558 73.4669C217.016 72.8126 221.967 70.3605 223.413 69.3135L223.509 69.2441L223.619 69.1988C224.09 69.0045 224.815 68.7047 225.453 68.4372C225.773 68.3034 226.07 68.1784 226.302 68.0789C226.418 68.0291 226.517 67.9867 226.593 67.9531C226.631 67.9363 226.662 67.9223 226.686 67.9113C226.698 67.9059 226.707 67.9016 226.714 67.8983C226.72 67.8954 226.724 67.8937 226.724 67.8937L226.81 67.8553C227.01 67.7769 227.187 67.7756 227.246 67.7754Z" fill="#282828"/>
<path d="M209.641 74.465C217.252 73.7974 222.382 71.2936 223.996 70.1252C224.941 69.7357 226.9 68.9234 227.167 68.7899C227.434 68.6563 230.171 69.6244 231.507 70.1252C231.173 71.3492 230.439 73.9309 230.171 74.465C229.838 75.1327 219.656 82.8108 217.987 82.6439C216.317 82.477 212.645 84.1462 210.976 85.4815C209.641 86.5498 204.522 91.0454 202.129 93.1597C200.661 88.0854 202.742 83.8123 203.966 82.3101C202.497 82.4436 197.79 77.8034 194.785 75.4666C197.122 75.4109 202.029 75.1327 209.641 74.465Z" fill="#F49C5D"/>
<path d="M175.932 95.6519C171.926 103.13 164.025 104.443 160.576 104.165V107.67C168.421 109.673 176.432 116.016 176.933 117.184C177.334 118.119 176.432 120.022 175.932 120.856C189.452 130.204 198.799 143.056 206.644 150.901C209.649 146.895 213.989 128.534 216.492 120.856C218.996 113.178 220.498 109.172 223.67 107.002C226.841 104.832 234.853 98.8233 236.856 97.6549C238.859 96.4864 240.194 96.3195 241.363 97.9887C242.298 99.324 241.53 101.995 241.029 103.163C244.534 101.494 250.376 94.1496 255.718 91.312C259.991 89.042 261.282 90.3662 261.393 91.312C266.2 89.1755 266.067 93.7601 265.399 96.3195C268.07 99.8248 261.393 110.507 254.215 115.515C248.474 119.521 238.692 121.746 234.519 122.359L231.181 145.226C235.576 147.619 244 153.772 242.531 159.247C240.695 166.091 230.013 192.297 216.659 195.802C205.977 198.606 192.623 188.624 187.282 183.283C184.878 188.891 184.166 201.866 184.111 207.653C185.279 229.519 188.283 237.364 190.286 240.035H-1V230.187C-0.666167 218.836 24.0375 192.964 45.4028 179.611C66.7681 166.258 70.1065 161.25 84.6282 139.217C96.2456 121.591 110.612 115.737 116.342 115.014C114.172 114.013 107.563 111.91 98.4823 111.509C87.132 111.008 90.971 115.181 77.2839 113.345C66.3342 111.876 59.3682 102.05 57.2539 97.321C67.9366 100.926 73.9457 98.2669 75.615 96.4864C52.9144 94.2164 48.6858 79.1828 49.4091 71.9497C52.0798 74.2309 59.0903 77.4246 65.7669 71.9497C72.4436 66.4748 78.5639 64.3272 80.7894 63.9377C76.2493 58.0622 68.3263 59.0415 64.9324 60.2655C68.9384 52.9212 80.1218 50.2505 93.3082 51.419C103.857 52.3537 113.616 44.6867 117.177 40.7364C132.667 26.4483 150.783 29.4417 157.905 32.7244C175.665 34.4603 177.657 50.6957 176.433 58.5964C176.766 60.5994 177.634 65.3732 178.436 68.4445C179.437 72.2836 180.939 86.3046 175.932 95.6519Z" fill="#282828"/>
<path d="M135.034 67.7764C154.93 54.423 160.461 42.1268 160.239 37.5645C169.586 45.1758 173.258 53.0877 173.926 56.2591C169.148 56.3756 167.158 58.6193 166.581 60.1501C166.444 60.5131 166.627 60.8991 166.956 61.1046C167.399 61.3814 167.977 61.2528 168.308 60.8492C170.961 57.6177 173.784 58.725 174.927 59.7644C179.067 73.3848 177.653 84.468 176.429 88.3071C174.259 96.9868 171.659 101.613 161.073 102.495C153.653 103.113 145.66 98.7209 141.205 95.5493C140.927 95.3515 140.566 95.643 140.711 95.9516C145.535 106.202 154.541 108.498 158.569 108.337C158.792 110.618 159.437 115.581 159.571 117.184C159.704 118.786 162.575 122.97 164.077 124.862C163.966 126.086 161.741 128.734 153.729 129.535C146.451 130.263 139.357 126.639 135.95 124.217C135.338 123.783 134.904 123.151 134.658 122.442L132.029 114.847C134.166 110.04 134.032 95.9296 133.699 89.4755C136.903 86.2707 135.813 85.8033 134.867 85.9703C133.699 86.8048 130.094 88.2737 125.019 87.4725C118.676 86.471 120.012 72.2831 123.851 68.9448C127.69 65.6064 132.03 74.6199 133.365 74.9538C134.433 75.2208 134.589 70.2245 135.034 67.7764Z" fill="#FED095"/>
<path d="M228.507 152.904L232.847 123.36C232.013 123.137 230.157 122.663 229.843 122.191C229.509 121.69 230.01 120.95 234.182 120.689C238.58 120.414 246.979 117.573 250.373 116.182C258.894 111.731 263.146 103.09 264.396 98.7693C264.501 98.4055 264.334 98.0256 264.006 97.8377C263.651 97.6348 263.202 97.7144 262.936 98.0249C258.311 103.42 252.502 109.024 249.552 111.725C249.17 112.075 248.584 112.056 248.218 111.69C247.84 111.312 247.837 110.7 248.211 110.319L263.727 94.4987C264.189 94.0278 264.186 93.2727 263.719 92.8063C263.509 92.5962 263.229 92.4619 262.943 92.5398C259.929 93.3593 250.997 102.224 246.237 107.265C245.942 107.578 245.448 107.584 245.143 107.28C244.885 107.022 244.843 106.619 245.065 106.33C247.709 102.885 255.51 95.9869 259.624 92.5088C259.818 92.345 259.763 92.037 259.514 91.9873C256.696 91.4249 253.831 94.9708 247.87 99.9913C241.527 105.333 236.019 108.671 232.847 108.838C230.31 108.971 231.79 107.781 232.847 107.169C239.858 105.333 242.528 97.6545 239.19 98.656C235.852 99.6575 227.172 106.334 223.333 110.173C220.262 113.244 218.715 118.241 218.325 120.355L212.65 138.716C212.984 138.605 214.253 139.217 216.656 142.555C219.06 145.893 225.558 150.845 228.507 152.904Z" fill="#FED095"/>
<path d="M116.172 196.636C121.113 199.44 125.13 199.14 126.521 198.639C136.202 196.469 137.705 192.63 147.553 195.634C154.936 197.887 160.061 204.224 162.05 207.668C162.278 208.062 162.235 208.551 161.962 208.916C161.457 209.589 160.429 209.537 159.954 208.843C155.71 202.649 150.298 199.709 147.5 198.814C147.13 198.696 146.734 198.841 146.5 199.152C146.165 199.599 146.283 200.22 146.771 200.49C147.676 200.99 149.292 201.845 151.893 203.146C155.464 204.931 158.416 209.768 159.803 212.689C160.069 213.249 159.866 213.91 159.35 214.254C158.741 214.66 157.918 214.478 157.497 213.878C153.532 208.214 147.503 204.669 144.409 203.359C144.082 203.221 143.71 203.282 143.433 203.504C142.863 203.96 142.954 204.86 143.593 205.214C145.613 206.333 148.708 208.225 151.225 210.323C153.716 212.399 155.494 214.878 156.45 216.507C156.822 217.139 156.547 217.928 155.89 218.256C155.391 218.505 154.791 218.424 154.372 218.056C148.9 213.263 143.725 209.84 141.216 208.37C140.845 208.153 140.373 208.29 140.165 208.666C139.927 209.093 140.134 209.633 140.578 209.837C143.908 211.363 148.87 215.57 151.702 218.194C152.211 218.666 152.319 219.425 151.975 220.027C151.561 220.752 150.637 221.004 149.911 220.592C145.316 217.992 137.73 213.812 136.035 213.328C133.699 212.66 127.022 217.139 121.18 216.165C118.175 215.664 114.837 212.66 111.165 211.992C108.227 211.458 96.8101 207.541 91.4688 205.649C94.54 199.64 103.209 194.132 107.159 192.129C108.105 192.463 111.232 193.832 116.172 196.636Z" fill="#FED095"/>
<path d="M119.014 109.173C121.685 104.098 128.473 102.385 131.533 102.162L130.532 111.843H130.501C129.873 111.843 129.364 112.353 129.364 112.981C129.364 113.218 129.438 113.447 129.571 113.644C133.401 119.32 134.277 129.571 134.538 134.21C135.741 155.592 119.07 179.166 110.502 188.124C100.174 179.991 85.7893 178.587 79.2646 178.905C78.9008 178.923 78.6209 179.226 78.6209 179.59C78.6209 179.971 78.9337 180.281 79.3151 180.287C95.4381 180.545 104.473 185.153 106.997 187.456C97.3155 185.954 82.9607 190.628 70.275 202.479C60.4021 211.702 50.8873 220.304 47.0479 223.736C46.8507 223.912 46.7398 224.163 46.7398 224.427C46.7398 225.172 47.5478 225.591 48.1265 225.121C53.171 221.026 66.3533 208.722 72.9457 202.479C86.6996 213.028 93.8103 211.103 95.6464 208.822L100.316 210.427C100.68 210.552 100.863 210.958 100.716 211.314L88.8028 240.035H0.503906C1.03804 229.486 0.503906 228.852 2.17307 225.847C15.8602 202.145 42.2331 182.449 55.7533 174.27C69.2735 166.091 79.2885 151.069 80.457 149.233C81.6254 147.397 86.299 137.882 97.4825 127.033C105.595 119.162 113.314 116.919 117.006 116.693C117.671 116.653 118.331 116.817 118.918 117.132C125.133 120.467 127.65 127.359 128.26 131.121C128.329 131.547 128.69 131.873 129.122 131.873C129.546 131.873 129.909 131.56 129.91 131.135C129.914 125.802 123.52 116.608 120.016 115.015C117.078 113.679 118.124 110.564 119.014 109.173Z" fill="#F49C5D"/>
<path d="M160.574 109.34C167.919 111.476 173.761 116.128 175.764 118.186C173.086 121.108 171.684 127.211 171.204 130.628C171.135 131.115 171.519 131.54 172.011 131.54C172.436 131.54 172.79 131.216 172.843 130.794C173.452 125.928 175.022 123.268 175.764 122.526C182.04 125.998 198.743 144.448 206.309 153.239L202.197 165.259C202.066 165.644 202.229 166.068 202.585 166.266C203.045 166.522 203.625 166.296 203.791 165.796L212.318 140.052C222.6 154.207 235.409 159.637 240.527 160.583C239.86 163.365 237.189 171.099 231.848 179.779C225.171 190.628 217.159 196.136 209.314 194.634C203.038 193.432 192.455 185.231 187.949 181.281C194.067 160.512 186.933 146.627 182.125 140.676C181.843 140.326 181.329 140.29 180.987 140.583C180.674 140.851 180.616 141.32 180.843 141.666C192.211 158.984 188.909 169.093 185.445 183.117C182.641 194.467 182.273 207.097 182.44 211.994C184.043 227.35 187.225 237.087 188.616 240.036H173.761C173.649 238.478 173.293 232.458 172.759 220.84C172.225 209.223 175.207 195.97 176.765 190.795C178.935 183.284 181.973 164.422 176.765 149.066C171.557 133.71 167.251 126.198 165.749 124.362C161.075 119.689 160.352 112.4 160.574 109.34Z" fill="#F49C5D"/>
<path d="M163.918 87.8081C166.729 88.1595 168.89 87.9267 170.225 87.5227C170.749 87.3638 171.429 87.7558 171.429 88.304C171.429 88.5168 171.329 88.7196 171.147 88.8297C169.648 89.7363 167.299 89.9258 166.254 89.978C161.944 89.978 157.546 88.1251 155.298 86.6585C154.874 86.3817 154.786 85.8147 155.067 85.3932C155.351 84.9673 155.913 84.8374 156.357 85.0915C157.869 85.9559 160.609 87.3945 163.918 87.8081Z" fill="#282828"/>
<path d="M171.262 75.0087C170.058 73.4768 168.923 72.9511 167.988 67.7522C167.92 67.2169 167.398 66.8391 166.86 66.9614C166.468 67.0505 166.18 67.384 166.181 67.7767C166.181 72.0007 168.219 73.8904 169.832 76.139C170.515 77.0908 171.289 78.2187 170.379 78.9763C169.456 79.7446 168.272 80.0391 167.054 80.1059C166.535 80.1344 166.121 80.5724 166.179 81.0764C166.227 81.4873 166.58 81.803 167.003 81.7904C171.805 81.6472 173.064 78.9578 173.171 78.1667C173.275 77.4012 173.299 77.5982 171.262 75.0087Z" fill="#282828"/>
<path d="M151.895 58.9304C155.447 58.2199 157.79 59.082 159.026 59.9719C159.359 60.2122 159.39 60.677 159.143 61.0059C158.841 61.4081 158.237 61.4588 157.79 61.23C156.616 60.6302 154.607 60.2093 152.395 60.5996C150.017 61.0193 148.499 62.4162 147.545 63.5126C147.257 63.8438 146.773 63.9294 146.401 63.6968C146.017 63.4565 145.882 62.9578 146.143 62.5869C146.972 61.4081 148.764 59.5566 151.895 58.9304Z" fill="#282828"/>
<path d="M157.908 68.4456C157.908 70.1049 156.862 71.4501 155.571 71.4501C154.281 71.4501 153.234 70.1049 153.234 68.4456C153.234 66.7863 154.281 65.4411 155.571 65.4411C156.862 65.4411 157.908 66.7863 157.908 68.4456Z" fill="#282828"/>
<path d="M174.6 67.4441C174.6 68.9191 173.703 70.1148 172.597 70.1148C171.49 70.1148 170.594 68.9191 170.594 67.4441C170.594 65.9691 171.49 64.7734 172.597 64.7734C173.703 64.7734 174.6 65.9691 174.6 67.4441Z" fill="#282828"/>
<path d="M129.716 81.0039L127.361 78.125L126.449 76.6432C126.212 76.2583 125.714 76.128 125.319 76.3475C124.89 76.5862 124.754 77.1397 125.024 77.5503L128.085 82.203C128.413 82.7018 129.099 82.8104 129.565 82.4375C130.006 82.085 130.074 81.4406 129.716 81.0039Z" fill="#282828"/>
<path d="M124.082 61.6719C120.211 61.6719 117.008 64.8751 117.008 68.7456C117.008 72.6161 120.211 75.8193 124.082 75.8193C127.952 75.8193 131.155 72.6161 131.155 68.7456C131.155 64.8751 127.952 61.6719 124.082 61.6719Z" fill="#282828"/>
<path d="M123.803 65.168C122.19 65.168 120.855 66.5028 120.855 68.1157C120.855 69.7286 122.19 71.0634 123.803 71.0634C125.416 71.0634 126.751 69.7286 126.751 68.1157C126.751 66.5028 125.416 65.168 123.803 65.168Z" fill="#969EFF"/>
<path d="M137.153 68.1158C137.153 66.3916 134.373 65.2237 131.981 64.7231C133.371 62.6653 134.484 59.8844 133.26 58.6608C131.925 57.326 128.811 58.8833 127.198 59.94C126.697 57.5485 125.529 54.7676 123.805 54.7676C122.081 54.7676 120.913 57.5485 120.413 59.94C118.8 58.8833 115.685 57.326 114.35 58.6608C113.127 59.8844 114.239 62.6653 115.629 64.7231C113.238 65.2237 110.457 66.3916 110.457 68.1158C110.457 69.8399 113.238 71.0079 115.629 71.5084C114.295 73.5663 113.127 76.3472 114.35 77.5707C115.685 78.9056 118.8 77.3483 120.413 76.2359C120.913 78.6831 122.081 81.464 123.805 81.464C125.529 81.464 126.697 78.6831 127.198 76.2915C128.811 77.3483 131.87 78.9612 133.26 77.5707C134.484 76.3472 133.371 73.5663 131.981 71.5084C134.373 71.0079 137.153 69.8399 137.153 68.1158ZM128.088 69.8955C128.644 70.8966 128.922 72.009 128.31 72.6208C127.643 73.2882 126.419 72.8989 125.585 72.3983C125.251 73.5107 124.695 74.5118 123.805 74.5118C122.915 74.5118 122.359 73.5107 122.025 72.3983C121.191 72.8433 119.968 73.2882 119.3 72.6208C118.688 72.009 118.967 70.8966 119.523 69.8955C118.41 69.5618 117.409 69.0057 117.409 68.1158C117.409 67.2259 118.41 66.6697 119.523 66.336C118.967 65.3349 118.688 64.2225 119.3 63.6108C119.968 62.8877 121.191 63.3883 122.025 63.8332C122.359 62.7209 122.915 61.7198 123.805 61.7198C124.695 61.7198 125.307 62.7209 125.585 63.8332C126.419 63.3883 127.643 62.9433 128.31 63.6108C128.922 64.2225 128.644 65.3349 128.088 66.336C129.2 66.6697 130.201 67.2259 130.201 68.1158C130.201 69.0057 129.2 69.5618 128.088 69.8955Z" fill="#969EFF"/>
<path d="M200.992 41.7386C219.975 42.106 230.871 51.6958 234.96 57.7545C236.101 54.7826 237.376 52.5469 238.692 50.9745C240.069 49.3305 241.556 48.3372 243.041 48.0942C250.804 46.8238 254.533 51.2749 255.466 53.9933L255.515 54.1443L255.521 54.1677C256.762 58.8543 254.1 62.2035 252.242 63.609C252.479 69.3885 251.232 73.9496 248.968 77.4487C246.632 81.0584 243.265 83.4589 239.517 84.9104C232.063 87.7964 222.985 86.9806 216.936 84.3881L214.788 83.4675L216.936 82.5468C219.584 81.4122 222.069 79.4726 224.116 77.4689C225.599 76.0172 226.826 74.5578 227.69 73.4013C216.947 70.5472 210.377 64.9964 206.326 59.1462C202.115 53.0662 200.664 46.7233 199.987 42.9152L199.773 41.7148L200.992 41.7386Z" fill="#282828"/>
<path d="M243.199 49.0811C250.543 47.8793 253.826 52.1413 254.549 54.4225C255.751 58.9626 252.824 62.1006 251.211 63.1021C252.546 86.604 229.011 88.4734 217.327 83.4659C222.935 81.0623 227.675 75.3427 229.345 72.7833C206.644 67.4419 202.304 50.2495 200.969 42.7383C220.023 43.1071 230.684 52.935 234.384 58.7041C234.705 59.2052 235.511 59.1286 235.718 58.5702C238.035 52.2971 240.876 49.4613 243.199 49.0811Z" fill="#969EFF"/>
<circle cx="247.704" cy="54.4231" r="1.66917" fill="#282828"/>
<circle cx="197.8" cy="109.673" r="3.17142" fill="#F49C5D"/>
<circle cx="252.543" cy="181.113" r="3.17142" fill="#969EFF"/>
<rect x="57.0898" y="134.953" width="9.07744" height="9.07744" transform="rotate(-45 57.0898 134.953)" fill="#969EFF"/>
</svg>
