<svg width="306" height="240" viewBox="0 0 306 240" fill="none" xmlns="http://www.w3.org/2000/svg">
<path fill-rule="evenodd" clip-rule="evenodd" d="M136.097 29.6574C149.052 21.8306 161.399 25.609 165.954 28.4767C181.304 26.2838 191.425 39.6098 193.618 54.454C195.811 69.2982 199.185 77.5637 208.463 84.4798C217.74 91.3958 217.065 99.1553 215.21 106.746C213.354 114.337 218.921 117.542 220.27 118.385C221.62 119.229 229.211 123.614 229.042 134.073C228.907 142.44 223.925 146.218 221.451 147.062C223.61 152.729 230.11 159.432 233.09 162.074C232.584 164.155 230.594 168.349 226.68 168.484C222.767 168.619 222.351 169.103 222.632 169.328C224.656 187.714 229.818 217.976 223.475 224.994C217.133 232.011 202.615 228.986 196.317 226.512L202.559 239.5H106.24L113.999 221.451C108.883 222.632 97.5022 224.859 92.914 224.319C87.1787 223.644 81.2748 222.463 80.094 212.005C79.1494 203.638 85.0983 179.955 88.1908 169.159C80.7687 168.619 78.5758 163.311 78.4072 160.725C81.9158 159.106 84.7044 155.327 85.6602 153.64C75.3106 151.4 73.9106 144.582 74.8898 139.492C75.0321 138.753 76.1226 138.93 76.3085 139.66C76.9219 142.066 78.5684 144.012 82.2872 142.507C87.955 140.213 85.0984 133.454 82.9616 130.362C80.4314 121.422 83.4677 112.819 93.0827 106.577C100.775 101.584 99.886 93.3638 98.4802 89.8777C97.1308 87.8533 97.9746 79.2505 103.204 75.2021C107.94 71.5352 113.493 66.0932 116.361 60.864C119.228 55.6348 119.903 39.4411 136.097 29.6574ZM197.497 181.876C195.811 186.768 192.639 198.07 193.449 204.143C195.437 204.198 199.734 204.177 201.294 203.665L201.378 204.143C201.996 203.749 202.862 203.097 201.378 203.637C201.351 203.646 201.323 203.656 201.294 203.665L197.497 181.876ZM108.096 198.07L113.999 198.576L111.301 185.587L108.096 198.07Z" fill="#282828"/>
<path d="M130.196 62.8878C148.684 60.0539 155.442 46.1881 156.511 39.6094C158.4 53.239 172.254 61.8194 178.945 64.4059C177.731 67.6447 179.114 71.0408 179.957 72.3341C182.825 66.2615 190.585 67.1049 189.404 77.2259C188.459 85.3228 181.701 85.885 178.439 85.1541C174.222 100.842 161.571 112.818 145.378 104.89C132.423 98.5476 129.859 74.2458 130.196 62.8878Z" fill="#FED095"/>
<path d="M128.677 68.117L129.183 74.3583C128.846 73.796 127.705 73.1775 125.641 73.1775C123.954 73.1775 124.292 74.6957 125.641 74.8643C129.025 75.2874 130.201 80.8807 130.364 83.6359C124.966 83.4672 120.243 77.732 121.592 70.9846C122.672 65.5867 126.765 66.8238 128.677 68.117Z" fill="#FED095"/>
<path d="M154.655 111.975C162.887 112.38 168.993 105.509 171.017 102.022C170.477 113.358 173.266 116.979 174.728 117.373C171.22 128.034 161.234 134.072 156.679 135.759C155.33 134.545 154.093 135.028 153.643 135.422C142.307 130.834 137.562 122.04 136.606 118.216C141.194 115.382 141.441 107.589 140.991 104.047C142.116 106.521 146.423 111.57 154.655 111.975Z" fill="#FED095"/>
<path d="M175.908 118.385C179.822 121.624 190.921 124.233 195.981 125.132C193.822 135.928 190.359 146.724 188.898 150.772C186.367 150.266 179.553 149.996 172.535 152.965C165.518 155.934 156.791 164.66 153.305 168.653C153.362 168.54 153.44 167.202 153.98 163.423C154.655 158.7 155.355 157.753 154.149 157.351C152.631 156.845 151.9 164.211 151.619 167.978L144.534 160.725C133.198 150.469 121.93 149.029 117.713 149.591C115.824 147.027 114.452 132.667 114.002 125.807C124.663 124.592 132.613 121.028 135.256 119.397C139.709 129.923 148.358 135.253 152.125 136.771C151.225 138.796 151.281 142.844 154.485 142.844C158.543 142.844 158.309 138.908 157.69 137.109C170.645 130.631 175.233 121.927 175.908 118.385Z" fill="#FED095"/>
<path d="M110.447 183.328C109.503 181.979 108.592 178.942 108.254 177.593C107.061 174.894 102.025 175.906 98.6517 175.906C95.2781 175.906 93.0852 173.038 91.7357 171.352C90.6561 170.002 89.9281 169.777 89.6991 169.833C84.9778 183.328 81.4465 208.293 81.6152 210.318C81.7839 212.342 81.4336 222.969 94.9283 222.8C108.423 222.632 132.207 214.366 135.412 213.017C137.976 211.937 142.216 210.767 144.015 210.318C147.389 209.306 148.401 208.631 151.437 201.715C154.474 194.799 156.498 192.775 161.221 192.606C165.944 192.437 167.294 195.473 168.981 194.293C170.667 193.112 166.113 189.57 161.221 188.895C158.092 188.463 155.293 189.477 153.722 190.332C153.186 190.624 152.49 190.523 152.123 190.033C151.905 189.743 151.833 189.351 152.066 189.072C152.89 188.08 155 187.281 156.161 187.039C162.368 185.42 168.418 189.513 170.499 191.762C170.667 191.256 171.005 190.109 171.005 189.57C171.005 188.895 167.125 184.846 161.221 183.834C157.255 183.154 154.162 184.449 152.639 185.48C152.24 185.751 151.681 185.72 151.367 185.354C151.112 185.057 151.097 184.622 151.392 184.364C152.469 183.424 155.011 182.036 159.197 181.81C164.19 181.54 169.487 185.184 171.511 187.039C173.535 186.533 172.263 184.492 171.342 183.834C170.161 182.991 168.137 181.473 166.113 180.292C163.109 178.54 160.04 177.93 158.353 178.268C156.667 178.605 154.305 179.786 150.425 180.798C147.322 181.608 142.047 190.132 139.798 194.293C138.786 195.698 136.593 199.522 132.545 199.522C127.384 199.522 116.689 201.715 106.905 199.859C100.317 198.61 95.1268 199.954 92.7749 200.896C92.3723 201.057 91.9047 200.897 91.7108 200.509C91.527 200.141 91.6529 199.692 92.0201 199.507C96.3059 197.353 103.411 197.921 106.567 198.51C106.972 196.755 109.323 187.658 110.447 183.328Z" fill="#FED095"/>
<path d="M212.176 175.569C216.09 175.164 219.767 171.801 221.116 170.171C221.116 170.171 225.502 204.245 225.165 211.498C224.827 218.752 223.613 228.67 212.007 227.861C197.501 226.849 192.103 223.981 183.837 220.439C175.572 216.896 174.053 216.39 167.475 214.197C160.896 212.004 160.727 207.281 158.872 203.402C157.388 200.298 154.655 200.422 153.474 200.871C153.699 199.578 154.891 196.587 157.86 194.967C161.571 192.943 164.101 195.305 167.475 195.98C170.174 196.519 170.849 194.967 170.849 194.124C173.885 200.197 176.415 203.908 178.439 204.751C180.463 205.594 191.259 207.281 202.224 205.763C209.691 204.729 214.229 205.071 216.198 205.773C216.601 205.916 217.084 205.805 217.31 205.443C217.558 205.047 217.475 204.524 217.067 204.298C213.695 202.438 206.472 203.227 203.067 203.908C202.527 199.589 199.693 185.352 198.344 178.774L198.85 177.424C203.067 177.256 202.898 175.569 205.429 175.063C207.959 174.557 207.284 176.075 212.176 175.569Z" fill="#FED095"/>
<path d="M166.959 61.8213C170.287 62.1692 173.029 64.0747 174.291 65.328C174.632 65.6667 174.641 66.2084 174.368 66.6085C173.972 67.1876 173.147 67.2538 172.593 66.8397C171.296 65.8698 169.094 64.6973 166.467 64.3923C163.784 64.0806 161.59 64.7333 160.293 65.3662C159.73 65.6404 159.027 65.5475 158.63 65.0492C158.315 64.6542 158.258 64.0829 158.597 63.7112C159.901 62.2854 162.689 61.3748 166.959 61.8213Z" fill="#282828"/>
<path d="M140.666 61.8213C137.338 62.1692 135.846 63.7958 134.584 65.0492C134.243 65.3878 134.233 65.9295 134.507 66.3297C134.902 66.9088 135.728 66.9749 136.282 66.5609C137.579 65.5909 138.531 64.6973 141.158 64.3923C143.841 64.0806 146.035 64.7333 147.332 65.3662C147.895 65.6404 148.598 65.5475 148.995 65.0492C149.31 64.6542 149.367 64.0829 149.028 63.7112C147.724 62.2854 144.936 61.3748 140.666 61.8213Z" fill="#282828"/>
<path d="M150.148 78.9712C151.14 77.3188 152.288 76.7198 152.12 71.4906C152.126 70.9537 152.587 70.5204 153.12 70.5797C153.509 70.6228 153.824 70.9196 153.867 71.3078C154.339 75.4836 152.962 77.5171 151.656 79.9248C151.103 80.9438 150.481 82.1477 151.445 82.7924C152.422 83.4462 153.598 83.6017 154.782 83.5283C155.286 83.497 155.734 83.8826 155.734 84.3876C155.734 84.7992 155.429 85.1517 155.019 85.1877C150.367 85.5961 148.851 83.0815 148.659 82.3118C148.472 81.567 148.472 81.7642 150.148 78.9712Z" fill="#282828"/>
<path d="M181.98 81.9492C183.098 81.9492 184.004 82.8555 184.004 83.9734C184.004 84.1371 183.984 84.2961 183.948 84.4485C184.793 84.9876 185.354 85.9329 185.354 87.0097C185.354 88.6867 183.994 90.0461 182.318 90.0461C180.641 90.0461 179.281 88.6867 179.281 87.0097C179.281 86.1743 179.619 85.4176 180.165 84.8686C180.031 84.5986 179.956 84.2949 179.956 83.9734C179.956 82.8555 180.862 81.9492 181.98 81.9492Z" fill="#F49C5D"/>
<path d="M126.652 81.6119C127.057 80.5323 128.957 80.5998 129.857 80.7685C130.127 84.2771 130.869 85.9414 131.206 86.335C129.35 88.3592 126.483 87.0097 126.145 85.3229C125.875 83.9734 126.483 83.4111 126.82 83.2987C126.596 83.1862 126.247 82.6915 126.652 81.6119Z" fill="#F49C5D"/>
<path d="M157.023 139.431C157.023 140.664 156.041 141.664 154.83 141.664C153.619 141.664 152.637 140.664 152.637 139.431C152.637 138.198 153.619 136.604 154.83 136.604C156.041 136.604 157.023 138.198 157.023 139.431Z" fill="#969EFF"/>
<path d="M97.4682 134.58C100.572 129.722 106.746 127.158 112.481 126.145L115.372 148.966C115.549 150.366 116.78 151.381 118.191 151.412C133.616 151.751 145.26 162.351 150.654 169.668C151.607 170.96 153.545 171.125 154.631 169.944C161.356 162.632 169.445 155.491 175.4 153.304C179.938 151.636 184.206 151.781 187.146 152.363C188.802 152.69 190.629 151.794 191.045 150.159L197.329 125.471C212.511 125.808 217.234 140.652 219.933 147.062C222.143 152.311 227.973 159.826 231.235 162.75C229.379 167.979 223.644 166.967 221.451 167.979C219.852 168.717 217.738 171.843 214.704 173.208C211.33 174.726 207.956 173.04 205.932 173.208C204.313 173.343 201.209 175.401 199.353 175.401C200.534 167.304 200.365 161.569 199.859 157.352C199.649 155.598 199.591 150.87 199.772 148.308C199.807 147.825 199.43 147.4 198.945 147.4C198.514 147.4 198.16 147.738 198.151 148.169C198.081 151.523 198.224 158.039 198.847 164.268C199.47 170.497 196.373 181.249 194.63 185.86C192.876 192.607 191.988 201.379 191.763 204.921C189.57 204.808 184.374 204.449 181.135 203.909C177.087 203.234 175.738 200.029 174.894 198.174C174.219 196.689 172.701 193.844 172.027 192.607C173.241 190.583 172.758 188.952 172.364 188.39C174.388 187.546 175.232 184.679 173.376 183.498C171.521 182.317 172.195 182.317 168.316 179.787C164.436 177.257 160.05 175.739 158.026 176.413C156.002 177.088 154.146 178.269 153.471 178.437C152.797 178.606 145.881 178.775 141.832 187.546C138.593 194.564 135.647 196.993 134.579 197.33C129.451 198.815 119.847 198.961 115.686 198.848C115.011 193.45 113.268 186.703 112.481 184.004C106.678 174.693 108.264 161.682 109.782 156.34L110.252 145.857C110.271 145.411 109.915 145.038 109.468 145.038C109.004 145.038 108.64 145.439 108.657 145.903C108.778 149.045 108.309 155.235 107.589 157.858C106.143 163.128 106.915 171.521 107.589 175.401C106.51 174.187 104.833 174.155 104.216 174.22C101.011 174.558 98.649 174.726 96.2874 173.546C93.9258 172.365 93.2511 169.587 90.8895 168.485C89.034 167.619 87.1785 167.81 84.4795 166.798C82.3204 165.989 80.4873 162.75 80.0938 161.4C81.4432 160.726 82.2866 159.714 86.1664 155.665C89.8884 151.781 93.5885 140.652 97.4682 134.58Z" fill="#F49C5D"/>
<path d="M194.293 225.838C194.428 227.052 198.622 235.453 200.703 239.501L107.927 239.501L115.855 220.946C123.277 219.461 135.928 214.705 141.326 212.512C148.883 212.377 152.234 206.045 152.965 202.897C157.014 202.053 157.52 203.234 158.869 207.451C159.895 210.656 163.592 214.873 165.954 215.548C168.316 216.223 170.002 216.054 173.882 218.078C176.986 219.697 188.783 223.926 194.293 225.838Z" fill="#F49C5D"/>
<path d="M125.882 129.83L140.989 132.729C141.456 132.819 141.76 133.272 141.667 133.738C141.574 134.202 141.122 134.503 140.658 134.409L125.58 131.363C125.151 131.276 124.877 130.854 124.972 130.428C125.064 130.015 125.467 129.75 125.882 129.83Z" fill="#282828"/>
<path d="M183.602 129.234L170.037 133.013C169.587 133.138 169.32 133.603 169.44 134.055C169.563 134.52 170.044 134.792 170.505 134.658L184.029 130.738C184.443 130.618 184.682 130.186 184.563 129.771C184.445 129.359 184.016 129.119 183.602 129.234Z" fill="#282828"/>
<path d="M145.213 74.0209C145.213 75.9773 144.08 77.5632 142.683 77.5632C141.285 77.5632 140.152 75.9773 140.152 74.0209C140.152 72.0645 141.285 70.4785 142.683 70.4785C144.08 70.4785 145.213 72.0645 145.213 74.0209Z" fill="#282828"/>
<path d="M162.925 72.4735C166.028 71.5289 168.941 72.9796 170.009 73.823C171.224 74.5342 172.54 73.3322 173.046 72.6423C172.963 74.2224 172.192 75.1149 171.389 75.5804C170.64 76.0143 169.636 75.5607 168.845 75.203L168.829 75.1956C168.227 74.9236 167.356 74.6211 166.13 74.3291C163.915 73.8018 161.969 74.6479 160.821 75.4186C160.38 75.7146 159.768 75.685 159.418 75.2854C159.108 74.931 159.108 74.3984 159.487 74.1179C160.577 73.3094 162.231 72.7049 162.925 72.4735Z" fill="#282828"/>
<path d="M181.461 77.6237C182.24 75.6827 184.031 74.5824 185.273 74.0955C185.68 73.9362 186.105 74.2021 186.2 74.6281C186.292 75.0417 186.035 75.4479 185.639 75.6002C184.242 76.1385 183.402 77.0716 182.984 77.8556C182.755 78.2852 182.119 78.5791 181.706 78.3211C181.469 78.173 181.357 77.8829 181.461 77.6237Z" fill="#282828"/>
<path d="M153.98 88.1916C158.032 88.1916 161.371 87.3996 163.675 86.5587C164.964 86.0883 166.502 87.0744 166.076 88.3788C164.158 94.2453 157.861 96.6258 155.498 96.6258C148.769 96.6258 145.886 91.7338 145.104 88.241C144.964 87.6185 145.925 87.0646 146.527 87.2753C147.892 87.7528 150.207 88.1916 153.98 88.1916Z" fill="#282828"/>
<path d="M146.902 88.8663C154.459 91.1604 161.747 89.035 164.445 87.6855C163.658 90.1034 160.701 94.939 155.168 94.939C149.635 94.939 147.352 90.8905 146.902 88.8663Z" fill="#FFFDFB"/>
<path d="M110.611 76.898C108.561 76.7885 106.564 77.6654 105.115 79.3095L95.0551 90.8102C94.4509 91.512 94.4509 92.6295 95.0551 93.3313L105.183 104.832C106.616 106.464 108.588 107.34 110.619 107.245C112.649 107.15 114.552 106.094 115.862 104.333C117.153 102.61 117.741 100.35 117.484 98.1092C117.201 95.7093 116.046 93.5531 114.295 92.1641L114.185 92.0707L114.295 91.9774C116.029 90.5783 117.171 88.4249 117.442 86.0323C117.7 83.7914 117.111 81.5314 115.82 79.8085C114.52 78.0564 112.63 77.0001 110.611 76.898Z" fill="#282828"/>
<path d="M112.486 78.9712C110.436 78.8751 108.439 79.6448 106.99 81.088L96.9301 91.1831C96.3259 91.799 96.3259 92.78 96.9301 93.396L107.058 103.491C108.491 104.924 110.463 105.692 112.494 105.609C114.524 105.526 116.427 104.599 117.737 103.053C119.028 101.541 119.616 99.557 119.359 97.59C119.076 95.4833 117.921 93.5907 116.17 92.3715L116.06 92.2895L116.17 92.2075C117.904 90.9794 119.046 89.0893 119.317 86.9891C119.575 85.022 118.986 83.0383 117.695 81.526C116.395 79.988 114.505 79.0608 112.486 78.9712Z" fill="#969EFF"/>
<path d="M111.469 91.0581C111.469 90.8717 111.62 90.7207 111.806 90.7207H202.896C203.082 90.7207 203.233 90.8717 203.233 91.0581V93.0823C203.233 93.2686 203.082 93.4196 202.896 93.4196H111.806C111.62 93.4196 111.469 93.2686 111.469 93.0823V91.0581Z" fill="#969EFF"/>
<path d="M111.469 91.1245C111.469 90.9382 111.479 90.7871 111.491 90.7871H117.519C117.531 90.7871 117.541 90.9382 117.541 91.1245V93.1487C117.541 93.335 117.531 93.4861 117.519 93.4861H111.491C111.479 93.4861 111.469 93.335 111.469 93.1487V91.1245Z" fill="#282828"/>
<path d="M203.069 91.2285V93.4209L209.648 100.337H195.31L187.551 92.915V90.8906L195.31 84.4805H209.648L203.069 91.2285ZM200.616 99.2383C200.775 99.3967 201.005 99.4605 201.223 99.4062C201.682 99.2913 201.862 98.7335 201.556 98.3721L197.498 93.5898L194.799 93.4209L200.616 99.2383ZM201.734 85.2432C201.516 85.1887 201.286 85.2524 201.127 85.4111L195.311 91.2275L198.009 91.0596L202.066 86.2773C202.373 85.916 202.194 85.3583 201.734 85.2432Z" fill="#969EFF"/>
<rect x="63" y="39.0293" width="11.3547" height="11.3547" transform="rotate(-45 63 39.0293)" fill="#969EFF"/>
<rect x="228" y="68.0938" width="7.20465" height="7.20465" transform="rotate(-45 228 68.0938)" fill="#969EFF"/>
<circle cx="254.711" cy="30.7111" r="3.71105" fill="#F49C5D"/>
<circle cx="74.6989" cy="182.484" r="2.69894" fill="#F49C5D"/>
</svg>
