<svg width="306" height="240" viewBox="0 0 306 240" fill="none" xmlns="http://www.w3.org/2000/svg">
<path fill-rule="evenodd" clip-rule="evenodd" d="M137.678 32.5633C153.339 25.0413 165.578 30.354 169.739 33.9506C198.255 39.6537 192.09 76.3388 188.544 81.7338C184.999 87.1287 184.537 89.7491 184.999 94.5274C185.608 100.818 188.853 100.539 189.469 107.013C189.963 112.192 187.62 115.131 186.386 115.953C190.548 115.953 197.639 118.573 202.571 127.976C205.788 134.107 209.633 137.582 212.002 139.103C212.831 139.635 213.59 140.38 213.691 141.36C214.092 145.268 210.598 147.202 208.583 147.706C212.231 156.132 218.756 175.451 219.527 181.924C220.334 188.707 217.76 194.679 210.124 195.951C204.575 196.876 193.58 188.604 189.315 184.082C186.726 190.248 187.928 192.56 188.545 195.026C198.564 217.839 200.054 229.605 201.492 239.264H103.151C109.934 219.904 121.186 204.48 125.964 199.188C123.755 200.216 117.301 202.425 109.163 203.042C98.9898 203.812 95.5789 200.161 93.9031 193.793C92.3617 187.936 97.1401 165.637 99.9146 154.642C94.0421 155.672 91.4191 152.183 90.5352 149.389C90.2466 148.477 90.7379 147.554 91.4739 146.942C95.3707 143.704 98.6614 137.143 99.9146 133.987C88.5699 134.234 85.0144 129.877 84.6548 127.667C92.1767 128.407 95.3931 125.098 96.0611 123.351C81.7228 127.416 76.8856 120.592 76.0133 115.704C75.9015 115.077 76.5134 114.607 77.1326 114.757C86.2489 116.959 88.5148 110.887 88.6624 101.001C88.7857 92.7394 93.6462 87.8994 96.0611 86.5121C90.4211 87.1165 86.3853 92.0804 84.7595 96.7347C84.4558 97.6042 83.1846 97.7275 82.9851 96.8283C80.6916 86.4916 94.0581 79.1412 102.689 77.572C112.862 75.7224 113.479 70.1734 116.716 68.9402C113.88 67.5838 113.478 65.4464 113.479 64.4702C113.109 59.9077 117.538 58.8698 119.798 58.9212C121.648 43.1373 132.489 34.7726 137.678 32.5633ZM120.107 177.03C122.213 176.876 126.334 176.414 127.197 176.414C125.81 172.714 123.035 166.086 123.035 165.316L120.107 177.03Z" fill="#282828"/>
<path d="M132.747 131.522C142.612 131.892 148.058 136.094 149.548 138.15C153.196 146.062 160.215 161.98 159.105 162.35C157.718 162.812 154.635 167.128 154.327 167.59C154.018 168.053 153.402 170.211 146.003 172.523C140.084 174.372 131.514 175.76 127.969 176.222C127.106 172.646 124.526 166.357 123.345 163.891L123.807 161.425L124.732 161.887C126.085 160.684 127.634 145.693 127.948 137.805C127.96 137.486 127.704 137.225 127.384 137.225C127.041 137.225 126.777 137.523 126.803 137.865C127.19 142.801 125.448 154.614 124.27 160.654C123.345 159.678 121.033 157.633 119.183 157.263C116.871 156.801 115.175 158.65 112.401 158.034C110.439 157.598 107.16 153.872 105.156 153.255C103.553 152.762 101.714 153.05 100.994 153.255C94.3356 154.365 92.0544 150.327 91.7461 148.169C91.8489 148.066 92.8267 147.448 94.983 144.932C97.7575 141.695 101.765 130.134 106.698 124.123C110.408 119.601 117.95 117.084 121.495 116.57C127.784 121.009 131.617 128.388 132.747 131.522Z" fill="#F49C5D"/>
<path d="M182.072 116.416C182.935 119.006 182.843 126.23 182.688 129.518L192.862 156.184C196.808 159.76 196.407 164.97 196.099 167.744C202.757 157.386 200.517 145.857 198.565 141.387C200.661 141.757 201.493 148.117 201.648 151.252C202.007 151.252 202.881 150.882 203.497 149.402C204.114 147.922 206.323 147.141 207.351 146.936C211.543 145.826 212.489 142.466 212.437 140.924C206.272 137.841 202.264 129.518 197.332 123.198C193.386 118.142 185.514 116.57 182.072 116.416Z" fill="#F49C5D"/>
<path d="M183.767 178.843L188.237 183.158C187.724 185.316 186.234 188.707 186.234 191.79C186.234 193.556 188.237 198.367 189.471 200.576C195.482 211.982 198.924 228.373 200.26 239.265H104.694C109.996 222.125 122.266 205.406 127.969 198.572C136.724 194.75 146.722 189.478 150.627 187.32C156.331 183.775 158.334 181.771 166.658 183.467C174.15 184.993 181.404 181 183.767 178.843Z" fill="#F49C5D"/>
<path d="M139.527 66.6286C156.42 60.9563 163.11 47.5153 164.343 41.5039C166.193 52.7253 176.52 59.8465 181.453 62.0045C181.247 67.7076 181.009 77.7267 180.528 81.5802C180.104 84.9712 173.746 106.242 157.098 101.31C143.072 97.154 138.653 86.9237 138.756 82.6591L136.906 83.4298C136.803 82.5564 136.228 80.8095 134.748 80.8095C133.269 80.8095 133.104 82.5564 133.207 83.4298C131.481 83.4298 130.432 81.6829 130.124 80.8095C134.902 79.4222 134.594 75.1063 133.978 73.1025C134.902 73.1539 136.906 72.6401 138.293 71.2528C139.778 69.768 139.783 67.6049 139.527 66.6286Z" fill="#FED095"/>
<path d="M139.372 90.212C150.101 104.886 160.901 106.602 164.96 105.626C164.96 107.321 164.497 109.171 166.347 110.713C168.896 112.837 176.417 115.131 180.374 115.953C181.607 117.803 181.504 125.972 181.298 129.826C177.476 130.319 175.492 133.936 174.979 135.683C174.002 133.474 170.139 129.086 162.493 129.209C154.848 129.333 151.293 134.399 150.47 136.916C143.318 130.627 136.187 129.98 133.515 130.442C132.405 125.387 126.373 118.676 123.496 115.953C126.116 115.028 132.344 112.408 136.29 109.325C140.236 106.242 139.989 95.2986 139.372 90.212Z" fill="#FED095"/>
<path d="M175.905 61.6954C177.991 61.9041 179.71 63.0465 180.501 63.7979C180.715 64.001 180.721 64.3257 180.549 64.5657C180.301 64.9129 179.784 64.9525 179.437 64.7043C178.624 64.1227 177.243 63.4198 175.597 63.2369C173.915 63.05 172.54 63.4414 171.727 63.8208C171.374 63.9852 170.933 63.9295 170.684 63.6308C170.487 63.3939 170.451 63.0514 170.664 62.8286C171.481 61.9737 173.228 61.4278 175.905 61.6954Z" fill="#282828"/>
<path d="M154.941 61.0787C158.206 60.7727 160.535 61.3951 161.736 61.9684C162.089 62.1365 162.178 62.5709 161.971 62.9021C161.751 63.2541 161.282 63.3534 160.902 63.188C159.809 62.7133 157.978 62.3472 155.249 62.6201C152.724 62.8726 150.958 63.9177 150.034 64.7393C149.746 64.9957 149.304 65.0387 149.007 64.7918C148.777 64.5998 148.693 64.2782 148.859 64.0284C149.573 62.9539 151.505 61.4008 154.941 61.0787Z" fill="#282828"/>
<path d="M175.441 73.8722C177.141 73.8722 178.016 72.8766 178.424 72.0644C178.591 71.7311 178.985 71.5376 179.328 71.6846C179.581 71.7931 179.735 72.0594 179.656 72.3234C179.23 73.7439 177.723 75.4136 175.441 75.4136C172.938 75.4136 171.815 73.7836 171.28 72.5592C171.18 72.332 171.25 72.0693 171.438 71.9079C171.781 71.6142 172.346 71.7945 172.568 72.1875C173.02 72.9879 173.906 73.8722 175.441 73.8722Z" fill="#282828"/>
<path d="M156.158 73.7509C158.208 73.7509 159.261 72.7762 159.753 71.9811C159.955 71.6549 160.429 71.4655 160.842 71.6093C161.147 71.7156 161.333 71.9762 161.238 72.2347C160.725 73.6253 158.908 75.2599 156.158 75.2599C153.143 75.2599 151.79 73.6642 151.144 72.4655C151.025 72.2431 151.109 71.9859 151.335 71.8279C151.748 71.5404 152.429 71.7169 152.697 72.1016C153.241 72.8853 154.309 73.7509 156.158 73.7509Z" fill="#282828"/>
<path d="M170.355 76.956C169.534 75.5882 169.13 72.4764 169.107 70.4051C169.102 69.9606 168.72 69.6019 168.278 69.651C167.957 69.6867 167.696 69.9324 167.66 70.2538C167.269 73.7105 168.47 77.0819 169.551 79.0749C170.008 79.9185 170.339 81.0334 169.541 81.5671C168.733 82.1083 167.499 82.1855 166.519 82.1247C166.102 82.0989 165.73 82.418 165.73 82.8361C165.73 83.1768 165.983 83.4686 166.322 83.4984C170.173 83.8365 171.428 81.7549 171.588 81.1177C171.742 80.5012 171.742 79.2681 170.355 76.956Z" fill="#282828"/>
<path d="M164.034 88.361C167.341 89.0845 169.905 87.9454 171.253 87.0132C171.598 86.7747 172.091 86.8554 172.299 87.2195C172.428 87.445 172.416 87.7286 172.24 87.9197C170.776 89.51 167.956 90.024 166.654 90.0566C161.031 90.1971 157.373 87.9014 155.682 86.2102C155.417 85.9452 155.407 85.5279 155.632 85.2281C155.92 84.8443 156.48 84.794 156.861 85.0858C158.209 86.119 160.779 87.649 164.034 88.361Z" fill="#282828"/>
<path fill-rule="evenodd" clip-rule="evenodd" d="M127.967 55.5312C130.521 55.5312 132.591 57.6016 132.591 60.1554C132.591 61.6577 131.875 62.9923 130.765 63.837C131.534 63.2671 132.486 62.9299 133.516 62.9299C136.07 62.9299 138.14 65.0003 138.14 67.5541C138.14 70.108 136.07 72.1783 133.516 72.1783C132.84 72.1783 132.197 72.0329 131.618 71.7719C132.592 72.6197 133.208 73.8684 133.208 75.2611C133.208 77.815 131.138 79.8853 128.584 79.8853C126.03 79.8853 123.96 77.815 123.96 75.2611C123.96 75.1945 123.961 75.1283 123.964 75.0624C123.299 76.8009 121.616 78.0356 119.644 78.0356C117.09 78.0356 115.02 75.9653 115.02 73.4114C115.02 70.8576 117.09 68.7872 119.644 68.7872C119.649 68.7872 119.655 68.7872 119.661 68.7872L119.66 68.7869C119.655 68.787 119.649 68.7872 119.644 68.7872C117.09 68.7872 115.02 66.7169 115.02 64.1631C115.02 61.6092 117.09 59.5389 119.644 59.5389C121.394 59.5389 122.918 60.5118 123.703 61.9464C123.471 61.3956 123.343 60.7905 123.343 60.1554C123.343 57.6016 125.413 55.5312 127.967 55.5312ZM125.963 64.7796C124.176 64.7796 122.727 66.2288 122.727 68.0165C122.727 69.8043 124.176 71.2535 125.963 71.2535C127.751 71.2535 129.2 69.8043 129.2 68.0165C129.2 66.2288 127.751 64.7796 125.963 64.7796ZM130.558 63.986C130.56 63.9886 130.563 63.9913 130.565 63.9939C130.615 63.9523 130.666 63.9117 130.718 63.8722C130.665 63.9112 130.612 63.9493 130.558 63.986Z" fill="#F49C5D"/>
<path d="M136.598 86.5129C136.598 87.4493 135.839 88.2084 134.903 88.2084C133.966 88.2084 133.207 87.4493 133.207 86.5129C133.207 85.5764 134.903 81.8887 134.903 81.8887C134.903 81.8887 136.598 85.5764 136.598 86.5129Z" fill="#F49C5D"/>
<path d="M161.111 129.209C170.12 128.442 173.878 135.014 174.83 137.995C175.909 127.976 189.018 125.004 196.721 130.904C206.583 138.457 198.16 156.116 192.556 162.183C189.511 159.245 183.206 160.959 180.457 162.183C169.672 156.691 161.077 160.57 158.645 162.965C152.936 157.057 150.099 151.242 149.243 146.935C148.29 142.144 149.851 130.167 161.111 129.209Z" fill="#282828"/>
<path d="M161.114 130.751C169.869 130.011 173.908 135.734 174.832 138.612C176.682 131.521 187.57 126.605 195.179 132.138C205.352 139.536 196.772 156.029 191.325 161.887C188.366 159.051 182.283 160.705 179.611 161.887C169.129 156.584 161.782 159.883 159.418 162.195C153.869 156.492 151.308 151.401 150.476 147.243C149.55 142.618 150.17 131.675 161.114 130.751Z" fill="#969EFF"/>
<path d="M122.884 161.272L119.03 177.302C110.662 177.477 105.803 180.768 104.024 182.797C103.782 183.073 103.856 183.485 104.154 183.698C104.453 183.912 104.867 183.842 105.108 183.563C108.585 179.529 116.392 178.511 123.346 177.919C129.142 177.426 136.756 176.069 139.839 175.453C144.771 174.836 151.862 173.141 155.253 168.67C158.644 164.2 160.956 161.272 166.197 160.501C170.389 159.885 176.164 161.477 178.528 162.351C177.295 163.584 173.287 162.967 170.975 162.659C169.432 162.453 167.496 162.734 166.33 162.982C165.977 163.057 165.734 163.373 165.734 163.734C165.734 164.222 166.169 164.594 166.653 164.527C168.804 164.228 172.164 163.881 173.441 164.2C174.921 164.57 176.832 164.355 177.603 164.2C184.385 160.871 187.93 161.272 188.855 161.888C181.851 165.955 175.779 168.176 173.032 168.955C172.66 169.06 172.429 169.434 172.513 169.812C172.6 170.2 172.989 170.443 173.374 170.34C180.201 168.515 187.411 164.497 190.243 162.659C191.55 166.581 180.46 171.581 174.135 173.824C173.75 173.96 173.545 174.377 173.674 174.764C173.802 175.147 174.21 175.359 174.592 175.227C179.732 173.453 186.782 169.144 189.78 167.129C189.78 171.156 180.586 175.789 175.443 177.834C175.103 177.969 174.933 178.35 175.061 178.693C175.189 179.033 175.566 179.209 175.907 179.083C181.125 177.152 184.74 174.851 185.927 173.911C185.31 175.761 181.765 179.46 176.524 181.31C171.283 183.16 160.494 181.618 158.336 181.772C156.609 181.896 149.498 186.14 146.159 188.246C135.831 195.028 118.568 201.502 109.319 201.81C101.285 202.078 94.9844 201.04 94.9844 188.863C94.9844 179.121 99.1975 162.094 101.304 154.798C101.458 154.387 102.676 153.403 105.466 154.798C107.624 155.877 108.857 158.651 111.94 159.268C116.484 160.177 116.256 158.343 118.568 158.497C120.417 158.621 122.164 160.347 122.884 161.272Z" fill="#FED095"/>
<path d="M205.04 149.557C205.287 148.694 206.89 148.273 207.66 148.17C210.897 157.675 217.556 177.117 218.296 183.16C219.221 190.712 213.055 197.495 204.269 193.487C197.24 190.281 188.393 181.772 184.848 177.919C187.684 174.959 188.393 172.781 188.393 172.062C191.846 169.102 191.578 166.615 191.013 165.742C192.37 164.879 192.195 163.43 191.938 162.813L193.942 160.347C196.531 165.526 194.61 170.315 193.325 172.062L194.404 172.678C194.774 172.555 195.689 170.366 196.1 169.287C196.254 169.904 199.491 171.445 201.649 172.216C203.807 172.986 205.811 173.295 209.048 174.682C211.637 175.792 213.723 178.227 214.442 179.306L215.213 178.535C213.363 174.836 207.66 172.37 203.499 171.445C200.169 170.705 197.795 169.287 197.025 168.67C200.847 162.382 201.7 155.158 201.649 152.332C203.19 152.64 204.732 150.636 205.04 149.557Z" fill="#FED095"/>
<circle cx="218.145" cy="35.9945" r="5.39488" fill="#F49C5D"/>
<circle cx="82.6495" cy="165.624" r="2.77451" fill="#F49C5D"/>
<path d="M219.617 112.509C219.498 112.389 219.498 112.196 219.617 112.077L223.319 108.375C223.438 108.255 223.632 108.255 223.751 108.375L227.453 112.077C227.572 112.196 227.572 112.389 227.453 112.509L223.751 116.211C223.632 116.33 223.438 116.33 223.319 116.211L219.617 112.509Z" fill="#969EFF"/>
<path d="M87.984 40.3721C87.8647 40.2528 87.8647 40.0594 87.984 39.9401L91.6862 36.2379C91.8054 36.1186 91.9989 36.1186 92.1182 36.2379L95.8203 39.9401C95.9396 40.0594 95.9396 40.2528 95.8203 40.3721L92.1182 44.0742C91.9989 44.1935 91.8054 44.1935 91.6862 44.0742L87.984 40.3721Z" fill="#969EFF"/>
</svg>
