<svg width="240" height="267" viewBox="0 0 240 267" fill="none" xmlns="http://www.w3.org/2000/svg">
<path d="M120 12V254.5" stroke="#282828" stroke-width="1.5"/>
<path d="M226.008 73L15.9966 194.25" stroke="#282828" stroke-width="1.5"/>
<path d="M224.008 194L13.9966 72.75" stroke="#282828" stroke-width="1.5"/>
<path fill-rule="evenodd" clip-rule="evenodd" d="M120.025 0.0146523L125.997 11.9641C126.003 11.9748 125.999 11.9867 125.99 11.9937C125.98 12.0012 125.967 12.0019 125.956 11.9949L120.026 8.24863C120.016 8.24233 120.003 8.24233 119.994 8.24863L114.043 11.9954C114.033 12.0017 114.02 12.0017 114.01 11.9942C114 11.9866 113.997 11.9746 114.002 11.9645L119.975 0.0144911C119.98 0.00504112 119.989 0 120 0C120.011 0 120.021 0.00504112 120.025 0.0144911L120.025 0.0146523Z" fill="#282828"/>
<path fill-rule="evenodd" clip-rule="evenodd" d="M120.025 266.985L125.997 255.036C126.003 255.025 125.999 255.013 125.99 255.006C125.98 254.999 125.967 254.998 125.956 255.005L120.026 258.751C120.016 258.758 120.003 258.758 119.994 258.751L114.043 255.005C114.033 254.998 114.02 254.998 114.01 255.006C114 255.013 113.997 255.025 114.002 255.035L119.975 266.986C119.98 266.995 119.989 267 120 267C120.011 267 120.021 266.995 120.025 266.986L120.025 266.985Z" fill="#282828"/>
<path fill-rule="evenodd" clip-rule="evenodd" d="M236.224 67.2249L228.862 78.372C228.855 78.3822 228.843 78.3852 228.832 78.3802C228.821 78.3756 228.814 78.3645 228.815 78.352L229.094 71.3426C229.094 71.331 229.088 71.3202 229.078 71.315L222.858 68.0352C222.847 68.0293 222.84 68.0179 222.842 68.0057C222.844 67.9935 222.853 67.9851 222.864 67.9843L236.199 67.1817C236.21 67.1812 236.219 67.1865 236.224 67.1961C236.23 67.2057 236.23 67.2166 236.224 67.2249L236.224 67.2249Z" fill="#282828"/>
<path fill-rule="evenodd" clip-rule="evenodd" d="M5.02339 200.71L18.3582 199.908C18.3702 199.907 18.3789 199.898 18.38 199.887C18.3817 199.874 18.3757 199.863 18.3645 199.857L12.1546 196.594C12.1443 196.589 12.1381 196.578 12.1387 196.566L12.4083 189.54C12.4085 189.528 12.402 189.516 12.3906 189.512C12.3792 189.507 12.3674 189.511 12.3611 189.52L4.99833 200.667C4.99258 200.676 4.99272 200.686 4.99827 200.696C5.00382 200.706 5.01304 200.712 5.0233 200.71L5.02339 200.71Z" fill="#282828"/>
<path fill-rule="evenodd" clip-rule="evenodd" d="M234.228 199.668L226.866 188.521C226.859 188.51 226.847 188.507 226.836 188.512C226.825 188.517 226.818 188.528 226.819 188.541L227.098 195.55C227.098 195.562 227.092 195.572 227.082 195.578L220.862 198.857C220.851 198.863 220.844 198.875 220.846 198.887C220.848 198.899 220.857 198.907 220.868 198.908L234.203 199.711C234.214 199.711 234.223 199.706 234.228 199.697C234.234 199.687 234.234 199.676 234.228 199.668L234.228 199.668Z" fill="#282828"/>
<path fill-rule="evenodd" clip-rule="evenodd" d="M3.02339 66.1823L16.3582 66.9846C16.3702 66.9851 16.3789 66.9941 16.38 67.006C16.3817 67.0182 16.3757 67.0299 16.3645 67.0355L10.1546 70.2986C10.1443 70.3039 10.1381 70.3147 10.1387 70.3262L10.4083 77.3528C10.4085 77.365 10.402 77.3764 10.3906 77.381C10.3792 77.3857 10.3674 77.3821 10.3611 77.3728L2.99833 66.2254C2.99258 66.2165 2.99272 66.2061 2.99827 66.1965C3.00382 66.1869 3.01304 66.181 3.0233 66.1821L3.02339 66.1823Z" fill="#282828"/>
</svg>
