<svg width="32" height="32" viewBox="0 0 32 32" fill="none" xmlns="http://www.w3.org/2000/svg">
<path d="M30.2649 20.1455C29.9811 20.1455 29.709 20.2582 29.5084 20.4588C29.3078 20.6595 29.1951 20.9316 29.1951 21.2153V25.4943C29.1943 25.967 29.0063 26.42 28.6721 26.7542C28.3379 27.0884 27.8848 27.2765 27.4122 27.2773H4.59045C4.11781 27.2765 3.66475 27.0884 3.33055 26.7542C2.99635 26.42 2.80826 25.967 2.8075 25.4943V21.2153C2.8075 20.9316 2.6948 20.6595 2.49418 20.4588C2.29356 20.2582 2.02146 20.1455 1.73774 20.1455C1.45402 20.1455 1.18192 20.2582 0.981296 20.4588C0.780676 20.6595 0.667969 20.9316 0.667969 21.2153V25.4943C0.668724 26.5344 1.08223 27.5317 1.81767 28.2671C2.55312 29.0026 3.55037 29.4161 4.59045 29.4168H27.4122C28.4522 29.4161 29.4495 29.0026 30.1849 28.2671C30.9204 27.5317 31.3339 26.5344 31.3346 25.4943V21.2153C31.3346 20.9316 31.2219 20.6595 31.0213 20.4588C30.8207 20.2582 30.5486 20.1455 30.2649 20.1455Z" fill="#282828"/>
<path fill-rule="evenodd" clip-rule="evenodd" d="M7.81202 10.6976C7.32308 11.1865 7.32308 11.9793 7.81202 12.4682L15.1155 19.7717C15.3503 20.0065 15.6688 20.1385 16.0009 20.1385C16.3329 20.1385 16.6514 20.0065 16.8862 19.7717L24.1897 12.4682C24.6787 11.9793 24.6787 11.1865 24.1897 10.6976C23.7008 10.2086 22.908 10.2086 22.4191 10.6976L17.2529 15.8637V4.27938C17.2529 3.5879 16.6923 3.02734 16.0009 3.02734C15.3094 3.02734 14.7488 3.5879 14.7488 4.27938V15.8637L9.58267 10.6976C9.09372 10.2086 8.30097 10.2086 7.81202 10.6976Z" fill="#282828"/>
</svg>
