<svg width="32" height="32" viewBox="0 0 32 32" fill="none" xmlns="http://www.w3.org/2000/svg">
<path d="M3.58844 5.33398C3.28895 5.33398 3.00331 5.39348 2.74229 5.49851L15.2113 17.0274C15.7463 17.522 16.2263 17.5224 16.7626 17.0274L29.2551 5.49851C28.9941 5.39348 28.7084 5.33398 28.409 5.33398H3.58844ZM1.35554 7.28484C1.34234 7.38393 1.33203 7.48758 1.33203 7.59039V23.3853C1.33203 24.6353 2.33841 25.6417 3.58844 25.6417H28.409C29.659 25.6417 30.6654 24.6353 30.6654 23.3853V7.59039C30.6654 7.48758 30.6551 7.38393 30.6419 7.28484L18.3021 18.6844C17.0081 19.8789 14.9657 19.8808 13.6718 18.6844L1.35554 7.28484Z" fill="#FFFDFB"/>
</svg>
