<svg width="32" height="32" viewBox="0 0 32 32" fill="none" xmlns="http://www.w3.org/2000/svg">
<path d="M27.7331 5.33301H4.26641C2.5024 5.33301 1.06641 6.769 1.06641 8.53301V23.4663C1.06641 25.2304 2.5024 26.6663 4.26641 26.6663H27.7331C29.4971 26.6663 30.9331 25.2304 30.9331 23.4663V8.53301C30.9331 6.769 29.4971 5.33301 27.7331 5.33301ZM27.0224 7.46634L16.6411 15.2528C16.2638 15.5355 15.7371 15.5355 15.3598 15.2528L4.97846 7.46634H27.0238H27.0224ZM27.7331 24.533H4.26641C3.67706 24.533 3.19974 24.0544 3.19974 23.4663V8.79959L14.0797 16.9595C14.6437 17.3835 15.3224 17.5955 15.9997 17.5955C16.6771 17.5955 17.3558 17.3835 17.9197 16.9595L28.7997 8.79959V23.4663C28.7997 24.0544 28.3224 24.533 27.7331 24.533Z" fill="white"/>
</svg>
