<svg width="32" height="32" viewBox="0 0 32 32" fill="none" xmlns="http://www.w3.org/2000/svg">
<path d="M3.59235 5.33203C3.29286 5.33203 3.00722 5.39153 2.74619 5.49656L15.2152 17.0254C15.7502 17.5201 16.2302 17.5204 16.7665 17.0254L29.259 5.49656C28.998 5.39153 28.7123 5.33203 28.4129 5.33203H3.59235ZM1.35944 7.28289C1.34625 7.38198 1.33594 7.48562 1.33594 7.58844V23.3833C1.33594 24.6334 2.34231 25.6397 3.59235 25.6397H28.4129C29.6629 25.6397 30.6693 24.6334 30.6693 23.3833V7.58844C30.6693 7.48562 30.659 7.38198 30.6458 7.28289L18.306 18.6825C17.012 19.877 14.9696 19.8788 13.6757 18.6825L1.35944 7.28289Z" fill="#969EFF"/>
</svg>
