<svg width="24" height="24" viewBox="0 0 24 24" fill="none" xmlns="http://www.w3.org/2000/svg">
<path d="M19 8.06948C19 4.17044 15.86 0.998047 12 0.998047C8.14035 0.998047 5 4.17044 5 8.06948C5 11.7026 7.72768 14.7021 11.2222 15.0945V17.498H8.88889C8.45936 17.498 8.11111 17.8495 8.11111 18.2838C8.11111 18.7181 8.45936 19.0695 8.88889 19.0695H11.2222V22.2123C11.2222 22.6466 11.5705 22.998 12 22.998C12.4295 22.998 12.7778 22.6466 12.7778 22.2123V19.0695H15.1111C15.541 19.0695 15.8889 18.7181 15.8889 18.2838C15.8889 17.8495 15.541 17.498 15.1111 17.498H12.7778V15.0946C16.2727 14.7021 19 11.7027 19 8.06948ZM6.55556 8.06948C6.55556 5.03673 8.99788 2.56948 12 2.56948C15.0017 2.56948 17.4444 5.03673 17.4444 8.06948C17.4444 11.1022 15.0017 13.5695 12 13.5695C8.99788 13.5695 6.55556 11.1022 6.55556 8.06948Z" fill="#30D065"/>
</svg>
