<svg width="16" height="16" viewBox="0 0 16 16" fill="none" xmlns="http://www.w3.org/2000/svg">
<path fill-rule="evenodd" clip-rule="evenodd" d="M10.4932 0.666992C10.4932 0.666992 9.51913 2.22297 10.3631 3.81496C11.2076 5.40695 11.9479 6.66159 11.7785 8.00009C11.7785 8.00009 12.2071 5.82911 14.3762 5.26196C14.3762 5.26196 13.571 6.67296 14.0124 8.66342C14.4538 10.6534 13.4537 14.3685 9.34922 15.3337C9.34922 15.3337 12.9863 13.5365 10.3753 10.6174C10.3753 10.6174 10.3105 12.053 8.96602 12.4809C8.96602 12.4809 11.0831 9.13391 7.96593 6.02195C7.96593 6.02195 8.68028 8.18108 6.29026 10.0266C3.90023 11.872 5.08249 14.839 6.45915 15.2488C6.45915 15.2488 -1.04871 12.1369 3.41957 5.72061C3.41957 5.72061 3.57571 7.17993 4.71868 7.74708C4.71868 7.74708 4.54978 1.48715 10.4927 0.666992H10.4932Z" fill="white"/>
</svg>
