<svg width="40" height="40" viewBox="0 0 40 40" fill="none" xmlns="http://www.w3.org/2000/svg">
<path fill-rule="evenodd" clip-rule="evenodd" d="M3.56082 30.0622L2.68553 30.3047H2.68387C1.94809 30.5123 1.51627 31.2746 1.71725 32.0121L3.53926 38.614C3.74522 39.3498 4.50754 39.7832 5.24665 39.5839L6.0804 39.353C6.10531 39.3447 6.13188 39.3364 6.1568 39.3315C6.861 39.1139 7.27458 38.3864 7.10021 37.6689C7.0919 37.644 7.08526 37.6191 7.08028 37.5925L7.03377 37.4264C7.03045 37.4148 7.02713 37.4031 7.0238 37.3899L5.26825 31.032C5.23835 30.9257 5.19517 30.8228 5.14202 30.7264C5.05565 30.6617 4.99088 30.572 4.956 30.4707C4.85635 30.361 4.74009 30.2697 4.6122 30.1966C4.29331 30.0139 3.91298 29.9657 3.55918 30.0637L3.56082 30.0622ZM20.4837 24.8154C21.5832 24.9549 22.3821 25.3037 22.4618 26.0195C22.2359 27.8814 18.9441 27.9495 16.6372 27.996C16.0741 28.0076 15.5626 28.0176 15.1772 28.0491C14.8833 28.0757 14.664 28.3331 14.6873 28.6271C14.7106 28.9211 14.968 29.142 15.262 29.1204C15.6689 29.0889 16.1406 29.0772 16.6588 29.0673C19.3312 29.0125 23.1361 28.9344 23.5167 26.2122C24.7856 24.3836 25.9399 23.118 26.9746 22.4154C27.9163 21.7777 28.7385 21.6282 29.4444 21.9703V21.9736C29.4527 21.9769 29.461 21.9803 29.4693 21.9836C29.7583 22.1048 29.8895 22.2792 29.8629 22.5035V22.5051C29.7018 23.0947 29.3862 23.6312 28.9494 24.058C28.9428 24.0647 28.9362 24.0713 28.9295 24.0796L22.5568 31.321C22.5468 31.3326 22.5369 31.3443 22.5269 31.3575C21.9855 32.0668 21.2464 32.6032 20.4043 32.9005C19.3048 33.2759 18.1471 33.4453 16.9862 33.3988H16.9812C15.219 33.3207 13.4568 33.5798 11.7909 34.1628C10.3692 34.6727 9.03714 35.4068 7.84632 36.3353L6.30335 30.7479C6.26017 30.5917 6.20204 30.4406 6.12896 30.2944L6.48771 29.7962L6.48605 29.7978C7.34472 28.6502 8.35454 27.6237 9.48894 26.7484C10.5884 25.9645 11.8574 25.4529 13.1927 25.2536C13.5332 25.2271 13.9783 25.1722 14.5064 25.1058C15.2771 25.0095 16.2238 24.8932 17.1855 24.8185C18.2036 24.7238 19.2267 24.7155 20.2465 24.7902C20.3229 24.8168 20.4043 24.8268 20.4856 24.8168L20.4837 24.8154ZM28.1554 20.7562C28.3497 20.4987 28.4643 20.1898 28.4826 19.8676C28.4709 19.7049 28.3381 19.5687 28.0856 19.4624L28.0607 19.4507C27.4777 19.1684 26.4247 19.572 25.209 20.3924C23.7906 21.3973 22.51 22.5865 21.4039 23.9268C22.0732 24.0547 22.6811 24.3985 23.1362 24.9051C24.0231 23.6096 25.1176 22.4702 26.3749 21.5318C26.9064 21.1498 27.5143 20.8857 28.157 20.7579L28.1554 20.7562ZM36.5112 10.8706L37.3748 10.5899C38.1023 10.3507 38.5009 9.57011 38.2684 8.84095L36.1524 2.32538C35.9132 1.59958 35.1343 1.20097 34.4051 1.43346L33.5415 1.71415L33.5398 1.71249C32.814 1.95332 32.4154 2.73226 32.6479 3.46142L34.7622 9.97869C34.7971 10.0817 34.8436 10.1813 34.9017 10.276C34.9914 10.3358 35.0595 10.4238 35.0994 10.5251C35.2024 10.6281 35.3219 10.7145 35.4532 10.7809C35.7803 10.9487 36.1607 10.9785 36.5112 10.8656L36.5112 10.8706ZM33.9351 10.7526L33.5996 11.2658L33.5913 11.2808H33.5897C32.7874 12.46 31.8275 13.5246 30.7363 14.4448C29.6733 15.2752 28.4276 15.8433 27.1039 16.1023C26.7883 16.1405 26.3349 16.2169 25.7968 16.3083C25.0411 16.4362 24.111 16.594 23.1344 16.7135C20.6945 17.0108 18.0206 17.0789 17.8098 15.7486C17.9509 13.8784 21.2378 13.6658 23.54 13.5147C24.0964 13.4781 24.5997 13.4466 24.9966 13.3968L24.995 13.3951C25.2889 13.3602 25.4999 13.0912 25.4633 12.7972C25.4268 12.5032 25.1594 12.2923 24.8654 12.3288C24.4718 12.377 23.9968 12.4085 23.472 12.4418C20.8046 12.6145 17.0044 12.862 16.7472 15.5991C15.5597 17.4826 14.4651 18.7963 13.462 19.5437C12.5501 20.2247 11.733 20.4091 11.0138 20.0968L10.9872 20.0852C10.6933 19.9772 10.5554 19.8095 10.572 19.5852C10.6002 19.2032 10.8892 18.6634 11.439 17.9642L17.4814 10.452C17.4897 10.4404 17.4996 10.4287 17.5079 10.4171H17.5063C18.0178 9.68298 18.7303 9.11663 19.5608 8.78277C20.6453 8.35593 21.8013 8.1367 22.9689 8.13339C24.7311 8.13339 26.4767 7.79623 28.1128 7.14019C29.5097 6.56882 30.8068 5.77827 31.9561 4.79834L33.7449 10.3109C33.7947 10.4637 33.8578 10.6115 33.9359 10.7527L33.9351 10.7526Z" fill="#282828"/>
</svg>
