<svg width="40" height="40" viewBox="0 0 40 40" fill="none" xmlns="http://www.w3.org/2000/svg">
    <path d="M40.0009 37.9936H23.948C24.1765 33.7628 27.6878 30.3903 31.9747 30.3903C36.2613 30.392 39.772 33.7628 40.0009 37.9936ZM29.8024 16.1725H31.5665C31.6596 16.1725 31.7494 16.2013 31.8222 16.2555L35.7329 19.0929C35.9903 19.2792 36.3475 19.098 36.3475 18.7797V16.6076C36.3475 16.3672 36.5422 16.1725 36.7826 16.1725H38.2064C38.9784 16.1725 39.6065 15.5444 39.6065 14.7724L39.6099 9.26168C39.6099 8.4897 38.9818 7.85988 38.2098 7.85988H29.8026C29.0306 7.85988 28.4025 8.48797 28.4025 9.26168V14.7724C28.4025 15.5444 29.0304 16.1725 29.8024 16.1725ZM9.69635 29.5201C11.7364 29.5201 13.3972 27.8593 13.3972 25.8175C13.3972 23.7758 11.7364 22.1149 9.69466 22.1149C7.65463 22.1149 5.99209 23.7757 5.99209 25.8175C5.99209 27.8592 7.65459 29.5201 9.69635 29.5201ZM31.976 29.5201C34.016 29.5201 35.6768 27.8593 35.6768 25.8175C35.6768 23.7758 34.016 22.1149 31.9743 22.1149C29.9325 22.1149 28.2717 23.7757 28.2717 25.8175C28.2717 27.8592 29.9325 29.5201 31.976 29.5201ZM9.69289 30.392C5.40795 30.392 1.89507 33.7644 1.66797 37.9952H17.7208C17.494 33.7627 13.981 30.392 9.69289 30.392ZM21.6319 2.00395H10.5038C9.40333 2.00395 8.50774 2.89954 8.50774 4V11.2951C8.50774 12.3955 9.40333 13.2911 10.5038 13.2911H12.3881C12.6285 13.2911 12.8232 13.4858 12.8232 13.7262V16.6009C12.8232 17.1376 13.4276 17.4457 13.861 17.1308L19.038 13.3741C19.1125 13.3199 19.2022 13.2911 19.2936 13.2911H21.63C22.7304 13.2911 23.626 12.3955 23.626 11.2951L23.6277 3.99826C23.6277 2.89949 22.7323 2.00395 21.6319 2.00395Z" fill="#282828"/>
</svg>
