<svg width="40" height="40" viewBox="0 0 40 40" fill="none" xmlns="http://www.w3.org/2000/svg">
<path d="M33.72 11.0963C30.5507 9.49052 26.6592 10.4163 24.1564 12.9192L22.4934 14.5973L20.6117 12.7021C16.791 8.89649 10.1507 9.6353 7.44453 14.9305C6.93793 15.9151 6.67708 16.9705 6.64844 18.0275H6.73589C8.47282 18.0275 10.1359 18.6064 11.4824 19.6769C12.8861 18.6064 14.5929 18.0124 16.3149 18.0124C17.4729 18.0124 18.5856 18.2732 19.5988 18.7934C21.8695 19.9649 23.3893 22.035 23.7798 24.4944C24.1567 26.9113 23.3456 29.3705 21.6237 31.1059L18.7439 33.9857L21.8107 37.0525C22.1876 37.4144 22.7953 37.4144 23.1571 37.0525L35.9325 24.2771C39.7531 20.458 39.0144 13.8162 33.7191 11.0965L33.72 11.0963Z" fill="#282828"/>
<path d="M19.7816 29.2602L11.8871 37.1547C11.6564 37.3854 11.284 37.3854 11.0533 37.1547L3.29147 29.3929C1.74 27.8415 1.16554 25.435 2.16516 23.4827C3.84331 20.2094 7.94878 19.754 10.3072 22.1091L11.4696 23.2746L12.4994 22.2433C14.0509 20.6918 16.4573 20.1159 18.4085 21.117C21.6819 22.7952 22.1387 26.9006 19.7821 29.259L19.7816 29.2602Z" fill="#282828"/>
<path d="M17.2103 8.38551C16.6992 8.38551 16.2152 8.08245 16.0071 7.58038L14.8341 4.75033C14.5582 4.0869 14.8748 3.324 15.5382 3.0496C16.2016 2.77669 16.9645 3.09031 17.2405 3.75522L18.4135 6.58527C18.6894 7.2487 18.3728 8.0116 17.7094 8.286C17.5466 8.35385 17.3777 8.38551 17.2118 8.38551L17.2103 8.38551Z" fill="#282828"/>
<path d="M22.4824 7.33519C21.7632 7.33519 21.1797 6.75169 21.1797 6.03248V2.96872C21.1797 2.24951 21.7632 1.66602 22.4824 1.66602C23.2016 1.66602 23.7851 2.24951 23.7851 2.96872V6.03248C23.7851 6.75169 23.2016 7.33519 22.4824 7.33519Z" fill="#282828"/>
<path d="M27.7554 8.38488C27.5895 8.38488 27.4207 8.35171 27.2578 8.28537C26.5929 8.00945 26.2778 7.24803 26.5522 6.58464L27.7237 3.75459C27.9997 3.08965 28.7611 2.77758 29.4245 3.04897C30.0894 3.32489 30.4045 4.0863 30.1301 4.7497L28.9586 7.57975C28.7505 8.08184 28.2665 8.38488 27.7554 8.38488Z" fill="#282828"/>
</svg>
