<svg width="40" height="40" viewBox="0 0 40 40" fill="none" xmlns="http://www.w3.org/2000/svg">
<path d="M17.2318 15.127L2.36882 22.2343L16.5351 9.31891L22.1499 11.4955L29.9111 5.096L28.2575 2.91762L36.9466 2.64844L34.4545 11.0856L32.6503 8.70577L22.0854 16.9202L17.2318 15.127ZM9.19993 37.5082V26.6286C9.19993 26.3765 8.99459 26.1722 8.74129 26.1722H4.25524C4.00193 26.1722 3.79659 26.3765 3.79659 26.6286V37.5082H9.19993ZM12.9515 37.5082H18.3549V21.7602C18.3549 21.5081 18.1495 21.3038 17.8962 21.3038H13.4102C13.1569 21.3038 12.9515 21.5081 12.9515 21.7602V37.5082ZM27.5081 37.5082V24.083C27.5081 23.831 27.3028 23.6267 27.0495 23.6267H22.5653C22.312 23.6267 22.1066 23.831 22.1066 24.083V37.5082H27.5081ZM31.2598 37.5082H36.6649V15.9754C36.6649 15.7233 36.4596 15.519 36.2063 15.519H31.7202C31.4669 15.519 31.2616 15.7233 31.2616 15.9753L31.2598 37.5082ZM37.7129 37.1466H2.28965C2.12662 37.1412 1.96717 37.2036 1.85071 37.3159C1.73247 37.43 1.66797 37.5851 1.66797 37.7491C1.66797 37.9113 1.73246 38.0664 1.85071 38.1805C1.96717 38.2928 2.12662 38.3552 2.28965 38.3499H37.7129C37.876 38.3552 38.0354 38.2928 38.1519 38.1805C38.2701 38.0664 38.3346 37.9113 38.3346 37.7491C38.3346 37.5851 38.2701 37.43 38.1519 37.3159C38.0354 37.2036 37.876 37.1412 37.7129 37.1466Z" fill="#282828"/>
</svg>
