<svg width="40" height="40" viewBox="0 0 40 40" fill="none" xmlns="http://www.w3.org/2000/svg">
<path d="M6.80514 10.7083C7.3221 10.6441 7.84222 10.7629 8.28789 11.1087C9.25383 11.7396 8.81598 11.4502 9.25794 11.7353C9.5574 11.9278 9.86443 12.1284 10.171 12.3066C10.7162 12.6237 11.3187 12.9935 11.8816 13.275C12.5634 13.6181 13.2656 13.9248 13.9796 14.2012C14.0596 14.1967 14.141 14.1898 14.2221 14.1898C15.2326 14.1899 16.1587 14.539 16.8898 15.1224C17.5914 15.2972 18.2997 15.4449 19.0122 15.5569C19.7143 15.6674 20.3605 15.742 21.0662 15.7848C21.3727 15.8026 23.1902 15.9851 23.5516 15.9818C24.1384 16.0622 24.6539 16.232 25.0929 16.47C26.4942 17.1717 27.4562 18.6159 27.4562 20.2933V29.6487C26.8328 29.5811 26.1238 29.5261 25.8595 29.4762C24.9934 29.3087 24.5395 29.1916 24.0903 29.0205C21.5914 28.0651 19.9548 26.4746 19.2417 24.1149C19.0389 23.4472 18.9696 22.7171 18.9308 21.9746C18.5179 21.8533 18.1108 21.724 17.7085 21.5888C17.7362 21.997 17.8102 22.4005 17.8728 22.803C17.9513 23.4907 18.0435 24.0267 18.3286 24.914C19.2699 27.4591 21.0715 29.2381 23.6346 30.2184L24.1212 30.3844C24.615 30.5332 25.1277 30.6349 25.63 30.7311C25.8104 30.7658 26.6402 30.8774 27.3943 30.9525C27.6528 30.9765 27.925 31.0009 28.1984 31.0176C29.3247 31.0286 30.2045 31.9452 30.1938 33.0716C30.1823 34.1976 29.2659 35.1347 28.1398 35.124C25.2516 35.271 22.354 35.0443 19.6616 33.931C19.6499 33.9262 19.6374 33.9228 19.6258 33.9179L19.1277 33.6982C18.8955 33.591 17.3913 32.7002 16.9028 32.3294C16.8032 32.2547 16.714 32.1833 16.618 32.1015C15.6767 31.2887 15.0167 32.4762 15.7618 33.0716C16.6066 33.7487 17.5087 34.3153 18.4995 34.7822C18.4889 34.9529 18.5101 35.1243 18.4995 35.2949C18.4152 36.8629 18.3275 38.4307 18.2423 39.9987H10.2003C10.1151 38.4307 10.0274 36.8629 9.94316 35.2949V18.4671C9.94318 18.2225 9.96747 17.9826 10.0066 17.7493C8.56389 16.7611 7.1607 15.6375 5.77812 14.359C4.89114 13.6639 4.74202 12.3381 5.43632 11.4505C5.78196 11.0086 6.28846 10.7726 6.80514 10.7083Z" fill="#282828"/>
<path d="M18.8999 34.8961C21.4417 36.0154 24.2478 36.4145 27.5131 36.3219C27.4317 37.545 27.3426 38.7719 27.2527 39.9987H19.157C19.0718 38.4307 18.9841 36.8629 18.8999 35.2949V34.8961Z" fill="#282828"/>
<path d="M19.6079 8.76496C20.0431 6.18084 22.4924 4.43874 25.0766 4.87661C26.2631 5.07613 27.2724 5.70081 27.9738 6.56769C28.4163 6.38121 28.8571 6.28797 29.2254 6.24542C30.0451 6.15303 30.8968 6.49498 31.574 6.95831C33.2355 8.08497 33.2357 9.93227 33.6671 11.7256C33.7812 12.2101 33.9208 12.7163 34.131 13.1367C34.3377 13.5393 34.4585 13.6972 35.2638 14.4811C36.1477 15.4009 36.1199 16.873 35.1971 17.7607C34.2774 18.6441 32.8368 18.4489 31.9207 17.6972C30.6518 16.5673 30.369 14.9123 30.2264 14.1491C30.1694 13.8322 30.1591 13.6561 30.1271 12.8763C30.1057 12.3456 30.0943 11.3202 30.0978 10.9378C30.1013 10.4568 30.1689 9.93547 30.0408 9.50063C29.9482 9.18706 29.7525 8.92308 29.3572 8.75193C29.3254 8.73731 29.1351 8.66618 28.9422 8.638C29.0502 9.18575 29.0649 9.76207 28.9666 10.3454C28.5311 12.9295 26.0823 14.6703 23.4978 14.2353C20.9135 13.8002 19.1734 11.3493 19.6079 8.76496Z" fill="#282828"/>
<path d="M9.35071 5.7783C9.80348 3.09378 12.3464 1.28277 15.0311 1.73533C16.6815 2.01348 18.0004 3.08293 18.6671 4.49087C19.084 5.37118 19.2452 6.3841 19.0708 7.41404C18.6176 10.0983 16.0749 11.9098 13.3904 11.457C10.7065 11.0039 8.89847 8.45883 9.35071 5.7783Z" fill="#282828"/>
</svg>
