<svg width="40" height="40" viewBox="0 0 40 40" fill="none" xmlns="http://www.w3.org/2000/svg">
<path d="M37.2761 19.3642L35.1671 17.2552C35.1023 17.1904 35.0254 17.139 34.9407 17.1039C34.856 17.0688 34.7652 17.0508 34.6735 17.0508C34.5819 17.0508 34.4911 17.0688 34.4064 17.1039C34.3217 17.139 34.2448 17.1904 34.18 17.2552C34.1151 17.32 34.0637 17.397 34.0286 17.4817C33.9936 17.5664 33.9755 17.6571 33.9755 17.7488C33.9755 17.8405 33.9936 17.9313 34.0286 18.0159C34.0637 18.1006 34.1151 18.1776 34.18 18.2424L35.0973 19.1597H29.4012C29.2161 19.1597 29.0385 19.2333 28.9076 19.3642C28.7767 19.4951 28.7031 19.6727 28.7031 19.8578C28.7031 20.043 28.7767 20.2205 28.9076 20.3515C29.0385 20.4824 29.2161 20.5559 29.4012 20.5559H35.0973L34.1799 21.4733C34.1148 21.538 34.063 21.615 34.0276 21.6998C33.9923 21.7845 33.974 21.8755 33.9738 21.9673C33.9737 22.0592 33.9917 22.1502 34.0268 22.2351C34.0618 22.32 34.1133 22.3971 34.1783 22.4621C34.2433 22.527 34.3204 22.5785 34.4053 22.6136C34.4902 22.6487 34.5812 22.6667 34.6731 22.6665C34.7649 22.6664 34.8559 22.6481 34.9406 22.6127C35.0254 22.5773 35.1024 22.5256 35.1671 22.4604L37.2761 20.3514C37.341 20.2866 37.3924 20.2096 37.4275 20.1249C37.4626 20.0403 37.4806 19.9495 37.4806 19.8578C37.4806 19.7661 37.4626 19.6754 37.4275 19.5907C37.3924 19.506 37.341 19.429 37.2761 19.3642Z" fill="#282828"/>
<path d="M32.8902 3.89648H29.9075C29.7224 3.89648 29.5448 3.97004 29.4139 4.10096C29.283 4.23188 29.2094 4.40944 29.2094 4.5946C29.2094 4.77975 29.283 4.95731 29.4139 5.08823C29.5448 5.21916 29.7224 5.29271 29.9075 5.29271H31.2051L27.1771 9.32049C27.1123 9.3853 27.0609 9.46225 27.0258 9.54694C26.9907 9.63163 26.9727 9.7224 26.9727 9.81407C26.9727 9.90574 26.9907 9.99651 27.0258 10.0812C27.0609 10.1659 27.1123 10.2428 27.1771 10.3077C27.2419 10.3725 27.3189 10.4239 27.4036 10.459C27.4883 10.494 27.579 10.5121 27.6707 10.5121C27.7624 10.5121 27.8531 10.494 27.9378 10.459C28.0225 10.4239 28.0995 10.3725 28.1643 10.3077L32.1921 6.28012V7.57721C32.1921 7.76236 32.2656 7.93993 32.3965 8.07085C32.5275 8.20177 32.705 8.27532 32.8902 8.27532C33.0753 8.27532 33.2529 8.20177 33.3838 8.07085C33.5147 7.93993 33.5883 7.76236 33.5883 7.57721V4.5946C33.5883 4.40945 33.5147 4.23189 33.3838 4.10097C33.2529 3.97005 33.0753 3.8965 32.8902 3.89648Z" fill="#282828"/>
<path d="M32.8902 31.4399C32.705 31.4399 32.5275 31.5134 32.3965 31.6443C32.2656 31.7753 32.1921 31.9528 32.1921 32.138V33.4353L28.1643 29.4076C28.0995 29.3428 28.0225 29.2913 27.9378 29.2563C27.8531 29.2212 27.7624 29.2031 27.6707 29.2031C27.579 29.2031 27.4883 29.2212 27.4036 29.2563C27.3189 29.2913 27.2419 29.3428 27.1771 29.4076C27.1123 29.4724 27.0609 29.5493 27.0258 29.634C26.9907 29.7187 26.9727 29.8095 26.9727 29.9012C26.9727 29.9928 26.9907 30.0836 27.0258 30.1683C27.0609 30.253 27.1123 30.3299 27.1771 30.3948L31.2049 34.4225H29.9075C29.7224 34.4225 29.5448 34.4961 29.4139 34.627C29.283 34.7579 29.2094 34.9355 29.2094 35.1206C29.2094 35.3058 29.283 35.4834 29.4139 35.6143C29.5448 35.7452 29.7224 35.8187 29.9075 35.8187H32.8902C33.0753 35.8187 33.2529 35.7452 33.3838 35.6143C33.5147 35.4833 33.5883 35.3058 33.5883 35.1206V32.138C33.5883 31.9528 33.5147 31.7753 33.3838 31.6444C33.2529 31.5134 33.0753 31.4399 32.8902 31.4399Z" fill="#282828"/>
<path d="M9.74739 19.1597H4.05137L4.96869 18.2424C5.03351 18.1776 5.08492 18.1006 5.12 18.0159C5.15508 17.9312 5.17313 17.8405 5.17313 17.7488C5.17313 17.6571 5.15507 17.5664 5.11999 17.4817C5.0849 17.397 5.03348 17.32 4.96866 17.2552C4.90384 17.1904 4.82689 17.139 4.7422 17.1039C4.65751 17.0688 4.56674 17.0508 4.47507 17.0508C4.3834 17.0508 4.29263 17.0688 4.20795 17.1039C4.12326 17.139 4.04631 17.1904 3.98149 17.2552L1.87249 19.3642C1.80765 19.429 1.75622 19.506 1.72112 19.5907C1.68603 19.6754 1.66797 19.7662 1.66797 19.8578C1.66797 19.9495 1.68603 20.0403 1.72112 20.125C1.75622 20.2097 1.80765 20.2866 1.87249 20.3514L3.98149 22.4604C4.1124 22.5913 4.28994 22.6649 4.47507 22.6649C4.66021 22.6649 4.83775 22.5913 4.96866 22.4604C5.09957 22.3295 5.17311 22.152 5.17311 21.9668C5.17311 21.7817 5.09957 21.6041 4.96866 21.4732L4.05134 20.5559H9.74736C9.93252 20.5559 10.1101 20.4824 10.241 20.3514C10.3719 20.2205 10.4455 20.043 10.4455 19.8578C10.4455 19.6727 10.3719 19.4951 10.241 19.3642C10.1101 19.2332 9.93254 19.1597 9.74739 19.1597Z" fill="#282828"/>
<path d="M11.9698 9.32049L7.94174 5.29271H9.23937C9.42452 5.29271 9.60209 5.21916 9.73301 5.08823C9.86393 4.95731 9.93748 4.77975 9.93748 4.5946C9.93748 4.40944 9.86393 4.23188 9.73301 4.10096C9.60209 3.97004 9.42452 3.89648 9.23937 3.89648H6.25671C6.07156 3.8965 5.894 3.97005 5.76308 4.10097C5.63216 4.23189 5.5586 4.40945 5.55859 4.5946V7.57725C5.55859 7.7624 5.63214 7.93996 5.76307 8.07089C5.89399 8.20181 6.07155 8.27536 6.25671 8.27536C6.44186 8.27536 6.61942 8.20181 6.75035 8.07089C6.88127 7.93996 6.95482 7.7624 6.95482 7.57725V6.28012L10.9826 10.3076C11.1135 10.4385 11.2911 10.5121 11.4762 10.5121C11.6613 10.5121 11.8389 10.4385 11.9698 10.3076C12.1007 10.1767 12.1742 9.99919 12.1742 9.81406C12.1742 9.62893 12.1007 9.45139 11.9698 9.32049Z" fill="#282828"/>
<path d="M11.9698 29.4076C11.905 29.3428 11.828 29.2914 11.7433 29.2563C11.6586 29.2212 11.5679 29.2031 11.4762 29.2031C11.3845 29.2031 11.2937 29.2212 11.209 29.2563C11.1244 29.2914 11.0474 29.3428 10.9826 29.4076L6.95482 33.4354V32.1381C6.95482 31.9529 6.88127 31.7753 6.75035 31.6444C6.61942 31.5135 6.44186 31.4399 6.25671 31.4399C6.07156 31.4399 5.89399 31.5135 5.76307 31.6444C5.63214 31.7753 5.55859 31.9529 5.55859 32.1381V35.1207C5.5586 35.3059 5.63216 35.4834 5.76308 35.6143C5.894 35.7453 6.07156 35.8188 6.25671 35.8188H9.23937C9.42452 35.8188 9.60209 35.7453 9.73301 35.6143C9.86393 35.4834 9.93748 35.3059 9.93748 35.1207C9.93748 34.9356 9.86393 34.758 9.73301 34.6271C9.60209 34.4961 9.42452 34.4226 9.23937 34.4226H7.942L11.9698 30.3948C12.0346 30.33 12.0861 30.2531 12.1211 30.1684C12.1562 30.0837 12.1743 29.9929 12.1743 29.9012C12.1743 29.8096 12.1562 29.7188 12.1211 29.6341C12.0861 29.5494 12.0346 29.4725 11.9698 29.4076Z" fill="#282828"/>
<path d="M19.5733 9.39856C21.7086 9.39856 23.4396 7.66757 23.4396 5.53229C23.4396 3.397 21.7086 1.66602 19.5733 1.66602C17.438 1.66602 15.707 3.397 15.707 5.53229C15.707 7.66757 17.438 9.39856 19.5733 9.39856Z" fill="#282828"/>
<path d="M23.8289 11.6211H15.3181C14.7536 11.6368 14.2185 11.8758 13.8301 12.2857C13.4418 12.6956 13.232 13.2429 13.2468 13.8074V22.6741C13.2458 22.9245 13.3405 23.1658 13.5116 23.3487L14.7897 24.6978C14.9608 24.8807 15.0555 25.122 15.0544 25.3724V37.3C15.0474 37.5669 15.1466 37.8256 15.3302 38.0194C15.5138 38.2131 15.7667 38.3261 16.0336 38.3335H23.1134C23.3802 38.3261 23.6332 38.2131 23.8168 38.0194C24.0003 37.8256 24.0995 37.5669 24.0925 37.3V25.3725C24.0915 25.1221 24.1862 24.8808 24.3572 24.6979L25.6354 23.3487C25.8064 23.1658 25.9011 22.9245 25.9001 22.6741V13.8074C25.915 13.2429 25.7052 12.6956 25.3168 12.2857C24.9285 11.8758 24.3933 11.6368 23.8289 11.6211ZM23.05 16.7791L21.3627 18.5073C21.3573 18.5129 21.3533 18.5197 21.351 18.5272C21.3487 18.5347 21.3482 18.5426 21.3495 18.5503L21.7478 20.9905C21.7496 20.9991 21.7489 21.0081 21.7458 21.0164C21.7428 21.0247 21.7374 21.0319 21.7304 21.0373C21.7233 21.0427 21.7149 21.0459 21.7061 21.0467C21.6973 21.0475 21.6885 21.0457 21.6806 21.0417L19.595 19.8896C19.5884 19.886 19.581 19.884 19.5735 19.884C19.566 19.884 19.5586 19.886 19.552 19.8896L17.4664 21.0417C17.4585 21.0457 17.4497 21.0475 17.4409 21.0467C17.4321 21.0459 17.4237 21.0427 17.4166 21.0373C17.4096 21.0319 17.4043 21.0247 17.4012 21.0164C17.3981 21.0081 17.3974 20.9991 17.3992 20.9905L17.7975 18.5503C17.7988 18.5426 17.7983 18.5347 17.796 18.5272C17.7937 18.5197 17.7897 18.5129 17.7843 18.5073L16.097 16.7791C16.0908 16.7727 16.0864 16.7648 16.0843 16.7562C16.0822 16.7475 16.0824 16.7385 16.0851 16.73C16.0877 16.7215 16.0926 16.7139 16.0992 16.7079C16.1058 16.702 16.1139 16.6979 16.1226 16.6962L18.4544 16.3402C18.4619 16.3389 18.4691 16.3359 18.4752 16.3312C18.4812 16.3266 18.4861 16.3205 18.4893 16.3136L19.532 14.0934C19.5356 14.0854 19.5414 14.0785 19.5488 14.0737C19.5561 14.0689 19.5647 14.0663 19.5735 14.0663C19.5823 14.0663 19.5909 14.0689 19.5983 14.0737C19.6057 14.0785 19.6115 14.0854 19.615 14.0934L20.6578 16.3136C20.661 16.3205 20.6658 16.3266 20.6719 16.3312C20.678 16.3359 20.6851 16.3389 20.6927 16.3402L23.0244 16.6962C23.0332 16.6979 23.0412 16.702 23.0479 16.7079C23.0545 16.7139 23.0593 16.7215 23.062 16.73C23.0646 16.7385 23.0649 16.7475 23.0628 16.7562C23.0607 16.7648 23.0562 16.7727 23.05 16.7791Z" fill="#282828"/>
</svg>
