<svg width="18" height="18" viewBox="0 0 18 18" fill="none" xmlns="http://www.w3.org/2000/svg">
<path d="M11.5474 13.9559C12.1019 13.9585 12.6361 13.7483 13.0389 13.3689C13.4417 12.9896 13.6821 12.4703 13.7102 11.9191C13.7102 11.9099 13.7102 11.9007 13.7102 11.8897L15.8084 9.54412C16.0214 9.29827 16.3214 9.14354 16.6461 9.11205C16.9708 9.08056 17.2952 9.17473 17.5519 9.375C17.679 9.47962 17.7838 9.60852 17.86 9.75407C17.9363 9.89963 17.9825 10.0589 17.9959 10.2225C18.0093 10.3861 17.9897 10.5508 17.9382 10.7067C17.8867 10.8626 17.8043 11.0068 17.696 11.1305L13.507 15.9099C13.2309 16.2248 12.8903 16.4772 12.5079 16.65C12.1256 16.8228 11.7105 16.9121 11.2906 16.9118H4.99425L3.90083 18L0 14.2151L2.79449 11.4577C3.36198 10.8964 4.0768 10.5054 4.85715 10.3295C5.63749 10.1536 6.45182 10.2 7.20694 10.4632L7.82014 10.6783H11.5972C11.7566 10.6782 11.9143 10.71 12.0611 10.7718C12.2079 10.8336 12.3407 10.9241 12.4516 11.0379C12.5626 11.1518 12.6494 11.2867 12.707 11.4346C12.7645 11.5825 12.7916 11.7404 12.7867 11.8989C12.7663 12.2106 12.6263 12.5026 12.3956 12.7144C12.1649 12.9263 11.8612 13.0417 11.5474 13.0368H9.2811C9.15864 13.0368 9.04119 13.0852 8.9546 13.1714C8.868 13.2575 8.81936 13.3744 8.81936 13.4963C8.81936 13.6182 8.868 13.7351 8.9546 13.8213C9.04119 13.9075 9.15864 13.9559 9.2811 13.9559H11.5474ZM9.26079 5.16176C9.56559 5.33371 9.88366 5.48123 10.212 5.60294C10.3524 5.65809 10.4927 5.71507 10.6312 5.77574C10.7966 5.84604 10.9514 5.93884 11.0911 6.05147C11.1725 6.1069 11.2368 6.18374 11.2768 6.27342C11.3168 6.36309 11.331 6.46208 11.3178 6.55932C11.3046 6.65657 11.2645 6.74824 11.202 6.82411C11.1394 6.89998 11.0569 6.95705 10.9637 6.98897C10.7131 7.09386 10.4387 7.12942 10.1695 7.09191C9.72518 7.04347 9.29337 6.91516 8.89508 6.71323C8.81188 6.66208 8.71744 6.6318 8.61988 6.625C8.39824 6.625 8.32991 6.84743 8.29112 6.96691C8.21909 7.19669 8.15444 7.42831 8.09164 7.65993C7.98821 8.0386 8.05286 8.18015 8.40933 8.35294C8.80105 8.52997 9.21673 8.64888 9.64311 8.70588C9.71085 8.71332 9.77768 8.72748 9.84259 8.74816C9.85659 8.81895 9.86217 8.89114 9.85921 8.96323V9.41728C9.85549 9.47522 9.86412 9.53329 9.88454 9.58768C9.90496 9.64207 9.93671 9.69155 9.97769 9.73286C10.0187 9.77418 10.068 9.8064 10.1224 9.82741C10.1768 9.84842 10.235 9.85775 10.2933 9.85478H10.6072H10.9766C11.0336 9.85791 11.0905 9.84881 11.1436 9.82809C11.1966 9.80738 11.2446 9.77553 11.2842 9.73472C11.3238 9.69391 11.3541 9.64509 11.3731 9.59159C11.392 9.53808 11.3992 9.48114 11.3941 9.42463C11.3941 9.35662 11.3941 9.28676 11.3941 9.21875C11.3941 9.07904 11.3941 8.9375 11.3941 8.79779C11.3941 8.65809 11.4273 8.61397 11.5788 8.57169C12.0682 8.44376 12.5046 8.16518 12.8255 7.77573C13.0325 7.52714 13.182 7.23614 13.263 6.92348C13.3441 6.61081 13.3549 6.2842 13.2946 5.96691C13.2268 5.62871 13.0849 5.30955 12.8789 5.03217C12.673 4.75478 12.4082 4.52601 12.1033 4.36213C11.756 4.17977 11.3983 4.01773 11.032 3.87684L10.8917 3.81985C10.6772 3.73421 10.4757 3.61912 10.2933 3.47794C10.2301 3.43246 10.1799 3.37146 10.1475 3.3009C10.1152 3.23035 10.1017 3.15264 10.1086 3.07537C10.1233 2.99643 10.1585 2.9227 10.2106 2.86144C10.2628 2.80019 10.3301 2.75354 10.4059 2.7261C10.5165 2.68242 10.6342 2.65937 10.7532 2.65809C11.2416 2.62863 11.7295 2.72485 12.1698 2.9375C12.6241 3.15625 12.7239 2.82721 12.7608 2.6875C12.8218 2.50368 12.8753 2.31985 12.9289 2.12684L12.9917 1.90625C13.0108 1.85441 13.0193 1.79927 13.0166 1.74411C13.0139 1.68894 13.0001 1.63488 12.976 1.58514C12.9518 1.53541 12.9179 1.49101 12.8762 1.45459C12.8345 1.41817 12.7858 1.39048 12.7331 1.37316C12.4202 1.23574 12.0904 1.13994 11.7524 1.08824C11.4476 1.04044 11.4476 1.04044 11.4476 0.735294C11.4476 0.09375 11.3977 0 10.7679 0H10.4281C10.0587 0.0110294 9.95895 0.119485 9.94971 0.479779C9.94971 0.564338 9.94971 0.647059 9.94971 0.729779V0.863971C9.94971 1.13419 9.94971 1.13419 9.68005 1.23162C8.69746 1.5864 8.16922 2.25551 8.11011 3.21875C8.05655 4.02941 8.43518 4.66912 9.26079 5.16176Z" fill="#282828"/>
</svg>
