<svg width="40" height="40" viewBox="0 0 40 40" fill="none" xmlns="http://www.w3.org/2000/svg">
<path d="M19.8824 22.283L15.5469 38.4716C17.0048 38.8214 18.4993 38.9994 19.9988 38.9994C30.2251 38.9994 38.7439 30.6872 38.9983 20.4766H20.368L19.8824 22.283Z" fill="#969EFF"/>
<path d="M3.31172 10.9102C1.79336 13.7005 0.998415 16.8246 1 19.9998C1 28.433 6.57733 35.8612 14.6224 38.2284L19.4447 20.2302L3.31172 10.9102Z" fill="#969EFF"/>
<path d="M19.5187 1C13.0207 1.159 7.17315 4.54714 3.78516 10.0848L19.5187 19.1696V1Z" fill="#969EFF"/>
<path d="M23.4104 11.002H26.0639C26.3469 11.002 26.5759 11.285 26.5759 11.5139V17.3409C26.5759 17.6239 26.3469 17.8528 26.0639 17.8528H23.4104C23.1274 17.8528 22.8984 17.5698 22.8984 17.3409V11.5139C22.8984 11.2309 23.1274 11.002 23.4104 11.002Z" fill="#969EFF"/>
<path d="M28.7229 8.49805H31.3764C31.6594 8.49805 31.8884 8.78105 31.8884 9.01V17.3414C31.8884 17.6244 31.6594 17.8533 31.3764 17.8533H28.7229C28.4399 17.8533 28.2109 17.5703 28.2109 17.3414V9.01C28.2109 8.72699 28.4399 8.49805 28.7229 8.49805Z" fill="#969EFF"/>
<path d="M34.0393 4.6543H36.6928C36.9758 4.6543 37.2048 4.93731 37.2048 5.16625V17.3452C37.2048 17.6282 36.9758 17.8572 36.6928 17.8572H34.0393C33.7563 17.8572 33.5273 17.5742 33.5273 17.3452V5.16625C33.5273 4.88324 33.7563 4.6543 34.0393 4.6543Z" fill="#969EFF"/>
</svg>
