<svg width="40" height="40" viewBox="0 0 40 40" fill="none" xmlns="http://www.w3.org/2000/svg">
<path d="M39 26.7335C39.0033 28.0712 38.4771 29.3557 37.5364 30.3067L31.3262 36.5038L25.1159 30.3067C24.1706 29.3578 23.6399 28.0729 23.6399 26.7335C23.6399 25.3941 24.1706 24.1093 25.1159 23.1603C25.9309 22.3797 26.9784 21.8864 28.0993 21.7555C29.2202 21.6246 30.3532 21.8632 31.3262 22.4351C32.2991 21.8632 33.4321 21.6246 34.553 21.7555C35.6739 21.8864 36.7214 22.3797 37.5364 23.1603C38.4771 24.1113 39.0033 25.3959 39 26.7335ZM15.5038 16.1853C16.8077 16.1853 18.0823 15.7986 19.1665 15.0742C20.2506 14.3498 21.0956 13.3202 21.5946 12.1155C22.0936 10.9109 22.2242 9.58533 21.9698 8.30648C21.7154 7.02764 21.0875 5.85294 20.1655 4.93094C19.2435 4.00895 18.0688 3.38106 16.79 3.12668C15.5111 2.8723 14.1856 3.00286 12.9809 3.50184C11.7763 4.00082 10.7466 4.84581 10.0222 5.92997C9.29782 7.01412 8.91117 8.28874 8.91117 9.59264C8.91117 11.3411 9.60575 13.018 10.8421 14.2543C12.0785 15.4907 13.7553 16.1853 15.5038 16.1853ZM21.0021 26.7335C21 25.7239 21.1982 24.724 21.5853 23.7915C21.9723 22.859 22.5404 22.0126 23.2568 21.3012L23.3886 21.1693C21.2001 19.7518 18.6699 18.9505 16.0644 18.8497C13.4588 18.7489 10.8743 19.3524 8.58283 20.5967C6.29135 21.8409 4.37769 23.6799 3.04325 25.92C1.70882 28.1602 1.00297 30.7187 1 33.3262L1 34.6447H25.7356L23.2568 32.1658C22.5404 31.4544 21.9723 30.608 21.5853 29.6755C21.1982 28.7431 21 27.7431 21.0021 26.7335Z" fill="#969EFF"/>
</svg>
