<svg width="40" height="40" viewBox="0 0 40 40" fill="none" xmlns="http://www.w3.org/2000/svg">
<path fill-rule="evenodd" clip-rule="evenodd" d="M29.1767 26.5506C29.2018 26.5428 29.2911 26.5333 29.2363 26.5333H29.194L29.1767 26.5506ZM29.1893 31.9022H29.2316C29.2864 31.9022 29.2018 31.8944 29.172 31.8849L29.1846 31.9022H29.1893ZM7.1007 20.3448C7.07564 20.3526 6.98633 20.3621 7.04117 20.3621H7.08347L7.1007 20.3448ZM7.04117 14.0711C6.8422 14.0711 6.65263 14.1862 6.48344 14.3391C6.3111 14.4967 6.1325 14.73 6.07455 14.8198C5.81291 15.2107 5.62334 15.6615 5.50114 16.1234C5.3617 16.642 5.30217 17.1811 5.30217 17.6777C5.30217 18.1742 5.36484 18.7149 5.50114 19.2319C5.62334 19.6953 5.81291 20.1446 6.07455 20.5355C6.13408 20.6253 6.31582 20.8539 6.48344 21.0163C6.64794 21.1692 6.84221 21.2842 7.04117 21.2842H29.2316C31.0176 21.2842 32.4151 22.1638 33.4116 23.45C34.6445 25.0437 35.2728 27.2521 35.2728 29.2145C35.2728 31.1769 34.643 33.3853 33.4116 34.9789C32.4152 36.2667 31.0177 37.1447 29.2316 37.1447H15.9883V32.8209H29.2316C29.4306 32.8209 29.6202 32.7058 29.7893 32.5529C29.9617 32.3953 30.1403 32.162 30.1982 32.0722C30.4599 31.6812 30.6494 31.2304 30.7716 30.7686C30.9111 30.2499 30.9706 29.7109 30.9706 29.2143C30.9706 28.7178 30.9079 28.1771 30.7716 27.6601C30.6494 27.1967 30.4599 26.7474 30.1982 26.3565C30.1387 26.2666 29.957 26.0381 29.7893 25.8757C29.6248 25.7228 29.4306 25.6078 29.2316 25.6078H7.04117C5.25516 25.6078 3.85767 24.7282 2.86121 23.4419C1.62824 21.8483 1 19.6399 1 17.6775C1 15.7151 1.6298 13.5066 2.86121 11.9131C3.85763 10.6253 5.25512 9.74728 7.04117 9.74728H16.5774C16.8312 9.74728 17.038 9.53921 17.038 9.28386V7.63508L24.3921 11.9068L20.715 14.0427C20.715 14.0427 20.6978 14.0506 20.69 14.0553L17.038 16.1754V14.5267C17.038 14.2713 16.8312 14.0632 16.5774 14.0632H7.04117V14.0711ZM7.08347 14.9932H7.04117C6.98633 14.9932 7.07094 15.0011 7.1007 15.0106L7.08817 14.9932H7.08347ZM7.78065 34.9522L6.18419 39L9.38493 37.14C9.38493 37.14 9.40217 37.1321 9.41 37.1274L13.087 34.9915L6.24395 31.0161L7.78085 34.6005C7.82785 34.7109 7.83099 34.8338 7.78555 34.9536L7.78065 34.9522ZM39 7.92825C39 6.40714 38.4266 4.88285 37.2782 3.73235C36.1298 2.58185 34.618 2 33.1079 2C31.596 2 30.081 2.57693 28.9375 3.73235C27.7938 4.88778 27.2157 6.40888 27.2157 7.92825C27.2157 9.44935 27.7891 10.9736 28.9375 12.1241L33.1079 16.32L37.2782 12.1241C38.4266 10.9687 39 9.44762 39 7.92825ZM30.4929 5.36677C29.8255 6.03828 29.4119 6.96829 29.4119 7.996C29.4119 9.02371 29.8255 9.95062 30.4929 10.6252C31.1603 11.2967 32.0847 11.7129 33.1061 11.7129C34.1276 11.7129 35.0488 11.2967 35.7193 10.6252C36.3867 9.95372 36.8003 9.02371 36.8003 7.996C36.8003 6.96829 36.3867 6.04139 35.7193 5.36677C35.0519 4.69525 34.1276 4.27913 33.1061 4.27913C32.0847 4.27913 31.1634 4.69525 30.4929 5.36677Z" fill="#969EFF"/>
</svg>
