<svg width="48" height="48" viewBox="0 0 48 48" fill="none" xmlns="http://www.w3.org/2000/svg">
<g clip-path="url(#clip0_4352_5883)">
<path d="M4.62841 32.5293H8.97851C9.75022 32.5293 10.3779 31.8943 10.3779 31.1134V13.5304C10.3779 12.7495 9.75022 12.1144 8.97851 12.1144H4.62841C3.8567 12.1144 3.22905 12.7495 3.22905 13.5304V31.1134C3.22905 31.8943 3.8567 32.5293 4.62841 32.5293ZM4.41327 13.5306C4.41327 13.4108 4.50998 13.3129 4.62841 13.3129H8.97851C9.09694 13.3129 9.19365 13.4108 9.19365 13.5306V31.1136C9.19365 31.2335 9.09694 31.3313 8.97851 31.3313H4.62841C4.50998 31.3313 4.41327 31.2335 4.41327 31.1136V13.5306ZM32.8051 35.1977C32.8051 35.5292 32.5407 35.7968 32.213 35.7968H3.82114C1.71318 35.7968 0 34.0613 0 31.9303V8.39821C0 8.06669 0.264481 7.79906 0.592131 7.79906C0.919781 7.79906 1.18426 8.06668 1.18426 8.39821V31.9303C1.18426 33.4022 2.3665 34.5986 3.82119 34.5986H32.2115C32.5392 34.5986 32.8051 34.8681 32.8051 35.1977ZM32.7933 12.2387C30.8966 10.3194 28.3741 9.26292 25.6917 9.26292C23.0092 9.26292 20.4868 10.3194 18.59 12.2387C16.79 14.06 15.7676 16.4526 15.6669 19.013C15.665 19.0369 15.6531 19.0569 15.6531 19.0789C15.6531 19.0928 15.661 19.1048 15.661 19.1188C15.6571 19.2207 15.6472 19.3205 15.6472 19.4244C15.6472 22.0846 16.6558 24.5872 18.4834 26.4921C18.5308 26.57 18.594 26.6339 18.669 26.6839C19.6342 27.6405 20.7552 28.3754 21.973 28.8667C21.9789 28.8687 21.9849 28.8707 21.9908 28.8727C23.1533 29.3381 24.4027 29.5877 25.6895 29.5877C28.3718 29.5877 30.8944 28.5312 32.7912 26.6099C34.6879 24.6907 35.734 22.1383 35.734 19.4241C35.736 16.71 34.6901 14.158 32.7933 12.2387ZM18.3889 24.4973C17.4258 23.0834 16.8909 21.4257 16.8435 19.6802H18.1738C18.2922 19.6802 18.3889 19.7781 18.3889 19.8979L18.3889 24.4973ZM22.8022 27.8944V14.9952C22.8022 14.8753 22.8989 14.7775 23.0173 14.7775H27.3675C27.4859 14.7775 27.5826 14.8753 27.5826 14.9952V28.1802C26.9668 28.3161 26.3352 28.3899 25.6918 28.3899C24.6911 28.3919 23.72 28.214 22.8022 27.8944ZM31.9563 25.7655C31.0385 26.6941 29.9509 27.3852 28.7667 27.8285V14.9947C28.7667 14.2138 28.1391 13.5787 27.3674 13.5787H23.0173C22.2455 13.5787 21.6179 14.2138 21.6179 14.9947V27.3868C20.8778 26.9974 20.1909 26.4981 19.5731 25.8989V19.8977C19.5731 19.1168 18.9454 18.4817 18.1737 18.4817H16.8829C17.0921 16.4446 17.9764 14.5553 19.4271 13.0873C21.1008 11.3937 23.3252 10.4611 25.6915 10.4611C28.0578 10.4611 30.2823 11.3937 31.9559 13.0873C33.6294 14.7809 34.5513 17.0316 34.5513 19.426C34.5513 21.8206 33.63 24.0721 31.9563 25.7655ZM47.59 37.271L39.6435 29.2303C39.2468 28.8289 38.6724 28.7231 38.179 28.9028L36.4974 27.2013C40.1844 21.9587 39.7205 14.6251 35.0783 9.92807C29.9033 4.69167 21.4814 4.68962 16.3064 9.92807C13.8037 12.4604 12.424 15.8337 12.424 19.4244C12.424 19.5522 12.4378 19.676 12.4418 19.8038C12.4359 19.8358 12.424 19.8617 12.424 19.8957V31.1134C12.424 31.8943 13.0517 32.5294 13.8234 32.5294H18.1735C18.8722 32.5294 19.4465 32.0081 19.5512 31.3311C21.4223 32.3197 23.5164 32.8509 25.6913 32.8509C28.49 32.8509 31.1487 31.9721 33.377 30.3625L35.0586 32.064C34.881 32.5653 34.9856 33.1445 35.3803 33.5459L43.3268 41.5866C43.5991 41.8622 43.9584 42 44.3156 42C44.6748 42 45.0321 41.8622 45.3064 41.5866L47.59 39.2759C48.1367 38.7227 48.1367 37.8243 47.59 37.271ZM18.3886 31.1139C18.3886 31.2337 18.2919 31.3315 18.1735 31.3315H13.8234C13.705 31.3315 13.6083 31.2337 13.6083 31.1139V24.9607C14.2576 26.4167 15.1576 27.7608 16.3063 28.9231C16.9497 29.5741 17.6484 30.1453 18.3886 30.6406L18.3886 31.1139ZM17.1432 28.0762C14.8636 25.7695 13.6083 22.6977 13.6083 19.4266C13.6083 16.1553 14.8636 13.0838 17.1432 10.7769C19.4999 8.39234 22.5946 7.20006 25.6915 7.20006C28.7883 7.20006 31.8851 8.39234 34.2417 10.7769C36.5214 13.0836 37.7767 16.1555 37.7767 19.4266C37.7767 22.6979 36.5214 25.7694 34.2417 28.0762C31.9621 30.3829 28.9262 31.6531 25.6935 31.6531C22.4586 31.6531 19.423 30.3829 17.1432 28.0762ZM35.0785 28.923C35.3232 28.6753 35.5443 28.4157 35.7653 28.1541L37.2476 29.6539L35.8008 31.1178L34.3186 29.618C34.5771 29.3943 34.8337 29.1686 35.0785 28.923ZM46.7528 38.4274L44.4692 40.7381C44.3863 40.822 44.2482 40.822 44.1653 40.7381L36.2188 32.6974C36.1359 32.6135 36.1359 32.4737 36.2188 32.3898L38.5024 30.0792C38.5439 30.0372 38.5991 30.0153 38.6544 30.0153C38.7097 30.0153 38.7649 30.0372 38.8064 30.0792L46.7528 38.1199C46.8377 38.2038 46.8377 38.3416 46.7528 38.4274Z" fill="white" stroke="white" stroke-width="0.2"/>
</g>
<defs>
<clipPath id="clip0_4352_5883">
<rect width="48" height="48" fill="white"/>
</clipPath>
</defs>
</svg>
