<svg width="48" height="48" viewBox="0 0 48 48" fill="none" xmlns="http://www.w3.org/2000/svg">
<path d="M43.132 14.1775L41.833 13.4275C40.7582 12.808 39.3797 13.1762 38.7595 14.251L35.5 19.897V7.75C35.5 6.5095 34.4905 5.5 33.25 5.5H25V4.75C25 4.336 24.664 4 24.25 4H15.25C14.836 4 14.5 4.336 14.5 4.75V5.5H6.25C5.0095 5.5 4 6.5095 4 7.75V43.75C4 44.9905 5.0095 46 6.25 46H33.25C34.4905 46 35.5 44.9905 35.5 43.75V31.8977L42.8312 19.1995L43.9562 17.251C44.5765 16.1762 44.2067 14.7977 43.1327 14.1775H43.132ZM41.083 14.7265L42.382 15.4765C42.7405 15.6828 42.8635 16.1425 42.6565 16.501L41.9065 17.8L39.3085 16.3L40.0585 15.001C40.2647 14.6425 40.7237 14.5195 41.083 14.7265ZM31.1357 36.4563L28.5865 37.8715L28.5377 34.9563L38.5592 17.599L41.1572 19.099L31.1357 36.4563ZM15.9992 5.5H23.4992V7H21.2492C20.8352 7 20.4992 7.336 20.4992 7.75C20.4812 8.7355 19.0165 8.7355 18.9992 7.75C18.9992 7.336 18.6632 7 18.2492 7H15.9992V5.5ZM33.9992 43.75C33.9992 44.1632 33.6625 44.5 33.2492 44.5H6.24925C5.836 44.5 5.49925 44.1632 5.49925 43.75V7.75C5.49925 7.33675 5.836 7 6.24925 7H14.4992C14.4992 7.82725 15.172 8.5 15.9992 8.5H17.6275C18.2882 10.4747 21.2102 10.4733 21.8702 8.5H23.4985C24.3257 8.5 24.9985 7.82725 24.9985 7H33.2485C33.6617 7 33.9985 7.33675 33.9985 7.75V22.495L27.133 34.3862C27.0655 34.504 27.0302 34.6375 27.0325 34.774L27.106 39.1465C27.0985 39.694 27.748 40.0713 28.2197 39.79L32.0432 37.6675C32.1625 37.6015 32.2607 37.504 32.329 37.3862L33.9977 34.4957V43.75H33.9992Z" fill="#282828"/>
<path d="M13.75 19H10C9.586 19 9.25 19.336 9.25 19.75V23.5C9.25 23.914 9.586 24.25 10 24.25H13.75C14.164 24.25 14.5 23.914 14.5 23.5V19.75C14.5 19.336 14.164 19 13.75 19ZM13 22.75H10.75V20.5H13V22.75Z" fill="#282828"/>
<path d="M13.75 27.25H10C9.586 27.25 9.25 27.586 9.25 28V31.75C9.25 32.164 9.586 32.5 10 32.5H13.75C14.164 32.5 14.5 32.164 14.5 31.75V28C14.5 27.586 14.164 27.25 13.75 27.25ZM13 31H10.75V28.75H13V31Z" fill="#282828"/>
<path d="M13.75 35.5H10C9.586 35.5 9.25 35.836 9.25 36.25V40C9.25 40.414 9.586 40.75 10 40.75H13.75C14.164 40.75 14.5 40.414 14.5 40V36.25C14.5 35.836 14.164 35.5 13.75 35.5ZM13 39.25H10.75V37H13V39.25Z" fill="#282828"/>
<path d="M18.2508 22.375H26.5008C27.4841 22.3592 27.4886 20.8922 26.5008 20.875H18.2508C17.2676 20.8907 17.2631 22.3577 18.2508 22.375Z" fill="#282828"/>
<path d="M26.5008 29.1247H18.2508C17.2676 29.1405 17.2631 30.6075 18.2508 30.6247H26.5008C27.4841 30.609 27.4886 29.142 26.5008 29.1247Z" fill="#282828"/>
<path d="M24.8583 37.3749H18.2508C17.2668 37.3914 17.2638 38.8584 18.2508 38.8749H24.8583C25.8423 38.8584 25.8453 37.3914 24.8583 37.3749Z" fill="#282828"/>
</svg>
