<svg width="40" height="40" viewBox="0 0 40 40" fill="none" xmlns="http://www.w3.org/2000/svg">
<path d="M34.9998 18.7578H28.0407C27.6407 18.7578 27.3208 19.0778 27.3208 19.4377V23.6373H19.6418C19.2418 23.6373 18.9219 23.9573 18.9219 24.3573V28.5568H11.2429C10.8429 28.5568 10.523 28.8768 10.563 29.2368V33.4764H2.84397C2.44403 33.4764 2.16406 33.7963 2.16406 34.1563V37.676C2.16406 38.0359 2.48402 38.3559 2.88397 38.3559H35.0398C35.4397 38.3559 35.7197 38.0359 35.7197 37.676V19.4777C35.7197 19.0778 35.3997 18.7578 34.9998 18.7578Z" fill="#F49C5D"/>
<path d="M2.72287 26.2773L19.2407 16.7182L18.4808 19.5579C18.3208 20.1579 18.6808 20.7978 19.2807 20.9578C19.3607 20.9978 19.4807 20.9978 19.5607 20.9978C20.0806 20.9978 20.5205 20.6778 20.6805 20.1579L22.1603 14.6384C22.3203 14.0385 21.9603 13.3985 21.3604 13.2386L15.8411 11.7587C15.2412 11.5987 14.6013 11.9587 14.4413 12.5586C14.2814 13.1586 14.6413 13.7985 15.2412 13.9585L18.0809 14.7184L1.56302 24.2775C1.00309 24.5975 0.843114 25.2774 1.16307 25.8373C1.36305 26.1973 1.76299 26.3973 2.16294 26.3973C2.32292 26.3973 2.52289 26.3573 2.72287 26.2773Z" fill="#F49C5D"/>
<path d="M31.3998 1C27.2003 1 23.8008 4.39967 23.8008 8.59925C23.8008 12.7988 27.2003 16.1985 31.3998 16.1985C35.5992 16.1985 38.9988 12.7988 38.9988 8.59925C38.9988 4.39967 35.5992 1 31.3998 1ZM35.1193 7.51936L31.2798 11.319C31.0398 11.559 30.7199 11.6789 30.4399 11.6789C30.12 11.6789 29.84 11.559 29.6 11.319L27.7203 9.43917C27.2403 8.95922 27.2403 8.19929 27.7203 7.71934C28.2002 7.23939 28.9601 7.23939 29.44 7.71934L30.4799 8.75924L33.4395 5.79953C33.9195 5.31957 34.6794 5.31957 35.1593 5.79953C35.5592 6.27948 35.5592 7.03941 35.1193 7.51936Z" fill="#F49C5D"/>
</svg>
