<svg width="40" height="40" viewBox="0 0 40 40" fill="none" xmlns="http://www.w3.org/2000/svg">
<path d="M34.7208 25.9349C31.8783 28.7884 28.137 30.2042 24.3955 30.2042C21.0143 30.2042 17.6314 29.024 14.9011 26.6871L13.6434 27.9448L14.8347 29.1362C15.2724 29.5738 15.2724 30.2927 14.8347 30.732L7.71217 37.8545C6.94746 38.6192 5.93625 39 4.93766 39C3.93749 39 2.91524 38.6176 2.15053 37.8545C0.622674 36.3156 0.622674 33.8207 2.15053 32.2929L9.27307 25.1703C9.48637 24.957 9.76763 24.8338 10.071 24.8338C10.3744 24.8338 10.6556 24.957 10.8689 25.1703L12.0602 26.3616L13.3179 25.0913C10.4644 21.7543 9.22902 17.3159 10.0252 12.9678C10.1374 12.361 10.722 11.9565 11.3398 12.0687C11.9465 12.1809 12.351 12.7655 12.2388 13.3833C11.5089 17.3712 12.7776 21.4729 15.6548 24.3484C20.4754 29.169 28.3171 29.169 33.1378 24.3484C37.9584 19.5278 37.9584 11.6861 33.1378 6.86543C29.9699 3.69752 25.3292 2.49499 21.0365 3.71965C20.4408 3.88871 19.823 3.53953 19.6429 2.94385C19.4738 2.34817 19.823 1.71936 20.4187 1.55028C25.497 0.112468 30.9793 1.53922 34.7208 5.28071C40.4167 10.9766 40.4167 20.2357 34.7208 25.9316L34.7208 25.9349ZM4.93422 18.2259C7.10201 18.2259 8.86689 16.4626 8.86689 14.2932C8.86689 13.7196 8.72153 13.1587 8.48453 12.6421L12.9909 8.63044C13.5976 9.0128 14.3054 9.23716 15.0465 9.23716C15.7101 9.23716 16.3389 9.05704 16.9109 8.75368L22.8329 14.6757C22.5296 15.2493 22.3494 15.8781 22.3494 16.5401C22.3494 18.7079 24.1127 20.4728 26.2821 20.4728C27.3265 20.4728 28.3156 20.0683 29.0566 19.3273C29.7977 18.5863 30.2132 17.5861 30.2132 16.5402C30.2132 14.3724 28.4499 12.6075 26.2805 12.6075C25.6296 12.6075 24.9881 12.7987 24.4272 13.091L18.4942 7.15804C18.7976 6.59556 18.9777 5.95563 18.9777 5.3047C18.9777 4.23662 18.5511 3.23803 17.7753 2.47331C16.2806 1.04658 13.7082 1.07975 12.2577 2.5302C11.5167 3.27121 11.1123 4.26029 11.1123 5.30471C11.1123 5.88931 11.2466 6.4502 11.4836 6.95581L6.97721 10.9675C6.37048 10.5962 5.66264 10.3607 4.93267 10.3607C2.76488 10.3607 1 12.1241 1 14.2934C1 15.3726 1.41553 16.3727 2.20241 17.1358C2.94342 17.8437 3.91042 18.226 4.93267 18.226L4.93422 18.2259Z" fill="#F49C5D"/>
</svg>
