<svg width="48" height="48" viewBox="0 0 48 48" fill="none" xmlns="http://www.w3.org/2000/svg">
<path d="M17.5714 4C15.6052 4 14 5.60521 14 7.57143V18.2857H6.74972C5.23594 18.2857 4 19.5331 4 21.0494V32.6649C4 34.1812 5.23594 35.4286 6.74972 35.4286H14V40.4286C14 42.3948 15.6052 44 17.5714 44H40.4286C42.3948 44 44 42.3948 44 40.4286V15.4286C44 14.7781 43.7354 14.1645 43.2913 13.7098L34.5106 4.71987C34.0512 4.24952 33.4233 4 32.7807 4H17.5714ZM17.5714 5.42857H32.5714V12.5714C32.5714 14.1419 33.8581 15.4286 35.4286 15.4286H42.5714V40.4286C42.5714 41.6281 41.6281 42.5714 40.4286 42.5714H17.5714C16.3719 42.5714 15.4286 41.6281 15.4286 40.4286V35.4286H29.8217C31.3355 35.4286 32.5714 34.1812 32.5714 32.6649V21.0494C32.5714 19.5331 31.3355 18.2857 29.8217 18.2857H15.4286V7.57143C15.4286 6.37193 16.3719 5.42857 17.5714 5.42857ZM34 6.24191L41.5781 14H35.4286C34.6248 14 34 13.3752 34 12.5714V6.24191ZM6.74972 19.7143H29.8217C30.5635 19.7143 31.1429 20.2946 31.1429 21.0494V32.6649C31.1429 33.4197 30.5635 34 29.8217 34H6.74972C6.00793 34 5.42857 33.4197 5.42857 32.6649V21.0494C5.42857 20.2946 6.00793 19.7143 6.74972 19.7143Z" fill="#282828"/>
<path d="M8.99944 22.5713C8.60497 22.5713 8.2852 22.8911 8.28516 23.2856C8.28516 25.6665 8.28516 28.0475 8.28516 30.4284C8.28516 30.8229 8.60496 31.1427 8.99944 31.1427C9.39393 31.1427 9.71373 30.8229 9.71373 30.4284V28.2856H11.1423C12.7128 28.2856 13.9994 26.9989 13.9994 25.4284C13.9994 23.8579 12.7128 22.5713 11.1423 22.5713H8.99944ZM9.71373 23.9999H11.1423C11.9461 23.9999 12.5709 24.6246 12.5709 25.4284C12.5709 26.2322 11.9461 26.857 11.1423 26.857H9.71373V23.9999Z" fill="#282828"/>
<path d="M16.144 22.5713C15.9545 22.5713 15.7729 22.6466 15.6389 22.7805C15.505 22.9145 15.4297 23.0961 15.4297 23.2856V30.4284C15.4297 30.6179 15.505 30.7995 15.6389 30.9335C15.7729 31.0674 15.9545 31.1427 16.144 31.1427H16.7564C19.1642 31.1427 21.144 29.2299 21.144 26.857C21.144 24.4841 19.1642 22.5713 16.7564 22.5713H16.144ZM16.8583 24.0194C18.4682 24.0734 19.7154 25.3074 19.7154 26.857C19.7154 28.4066 18.4682 29.6406 16.8583 29.6946V24.0194Z" fill="#282828"/>
<path d="M23.2846 22.5713C22.8901 22.5713 22.5704 22.8911 22.5703 23.2856C22.5703 25.6665 22.5703 28.0475 22.5703 30.4284C22.5703 30.8229 22.8901 31.1427 23.2846 31.1427C23.6791 31.1427 23.9989 30.8229 23.9989 30.4284V27.4778H27.5703C27.9648 27.4778 28.2846 27.158 28.2846 26.7635C28.2846 26.369 27.9648 26.0492 27.5703 26.0492H23.9989V23.9999H27.5703C27.9648 23.9999 28.2846 23.6801 28.2846 23.2856C28.2846 22.8911 27.9648 22.5713 27.5703 22.5713H23.2846Z" fill="#282828"/>
</svg>
