<svg width="48" height="48" viewBox="0 0 48 48" fill="none" xmlns="http://www.w3.org/2000/svg">
<path d="M43.2889 24.6715C43.2889 22.863 42.3783 21.1866 40.9192 20.1764C41.5238 19.2911 41.866 18.2249 41.866 17.0916C41.866 14.5571 40.1534 12.4172 37.7728 11.8073C37.8633 11.4435 37.9285 11.0742 37.9285 10.6922C37.9285 8.16675 35.8737 6.11381 33.3501 6.11381C32.8541 6.11381 32.3707 6.20433 31.9109 6.35821C31.4456 4.43563 29.7149 3 27.6511 3C26.125 3 24.7781 3.78749 23.9942 4.97509C23.2103 3.78749 21.8634 3 20.3373 3C18.2753 3 16.5446 4.43563 16.0812 6.35821C15.6213 6.20433 15.138 6.11381 14.6419 6.11381C12.1165 6.11381 10.0636 8.16856 10.0636 10.6922C10.0636 11.0724 10.1269 11.4435 10.2192 11.8073C7.83684 12.4174 6.12606 14.5591 6.12606 17.0916C6.12606 18.2249 6.4664 19.2912 7.07288 20.1764C5.61195 21.1866 4.70312 22.863 4.70312 24.6715C4.70312 26.1451 5.29147 27.483 6.24373 28.466C5.79295 29.1938 5.54313 30.032 5.54313 30.8973C5.54313 33.0534 7.02941 34.8656 9.02985 35.3743C8.99726 35.6061 8.97735 35.8396 8.97735 36.0767C8.97735 38.8683 11.2475 41.1385 14.0392 41.1385C14.7289 43.4105 16.8271 45 19.2548 45C21.2824 45 23.0511 43.8867 23.9945 42.2428C24.9377 43.8867 26.7064 45 28.7342 45C31.1619 45 33.2601 43.4105 33.9536 41.1403C36.7451 41.1403 39.0154 38.8684 39.0154 36.0785C39.0154 35.8414 38.9955 35.6079 38.9629 35.3761C40.9633 34.8674 42.4496 33.0571 42.4496 30.8991C42.4496 30.0338 42.198 29.1956 41.749 28.4678C42.6995 27.483 43.2896 26.1469 43.2896 24.6715H43.2889ZM19.2549 43.5515C17.5459 43.5515 16.0578 42.4816 15.4875 40.9265C16.228 40.7057 16.9141 40.3164 17.4916 39.7751C17.783 39.5018 17.7993 39.0437 17.526 38.7523C17.2526 38.459 16.7928 38.4445 16.5031 38.7179C15.8315 39.3461 14.9553 39.6919 14.0356 39.6919C12.0424 39.6919 10.4222 38.0698 10.4222 36.0784C10.4222 35.8612 10.4475 35.6493 10.4837 35.4412C10.7209 35.3217 10.8874 35.0827 10.8874 34.8003C10.8874 34.4002 10.5634 34.0762 10.1633 34.0762C8.41269 34.0762 6.98791 32.6514 6.98791 30.9008C6.98791 30.3613 7.13092 29.8381 7.38618 29.3728C8.20083 29.8562 9.14766 30.1386 10.1615 30.1386C10.5615 30.1386 10.8856 29.8145 10.8856 29.4144C10.8856 29.0144 10.5615 28.6903 10.1615 28.6903C7.94742 28.6903 6.14608 26.889 6.14608 24.6749C6.14608 23.2774 6.88473 21.9865 8.05781 21.2624C8.50859 21.6426 9.02091 21.9594 9.5948 22.1839C9.6817 22.2183 9.7704 22.2346 9.85911 22.2346C10.1488 22.2346 10.4221 22.0608 10.5325 21.7747C10.6792 21.4018 10.4945 20.9818 10.1234 20.837C9.55313 20.6143 9.05891 20.2721 8.66067 19.8486C8.65524 19.8431 8.64981 19.8377 8.64438 19.8341C7.96732 19.1081 7.57084 18.1414 7.57084 17.0968C7.57084 15.158 8.93945 13.5449 10.8005 13.1756C10.9291 13.3766 11.0667 13.5721 11.2278 13.7513C11.3708 13.9106 11.5681 13.9921 11.7673 13.9921C11.9393 13.9921 12.1131 13.9306 12.2507 13.8075C12.5476 13.5413 12.5747 13.0833 12.3068 12.7846C11.7926 12.2089 11.5084 11.4685 11.5084 10.6955C11.5084 8.96839 12.9132 7.56539 14.6385 7.56539C15.8478 7.56539 16.9286 8.24244 17.4572 9.3341C17.631 9.69436 18.0655 9.84463 18.4239 9.66901C18.7842 9.49522 18.9344 9.06074 18.7588 8.7023C18.4456 8.05602 17.9822 7.5111 17.4282 7.08565C17.5875 5.6066 18.8222 4.44797 20.3374 4.44797C21.9541 4.44797 23.2702 5.76408 23.2702 7.38073V31.8694C21.0833 32.2188 19.4051 34.1124 19.4051 36.3953C19.4051 36.7954 19.7292 37.1194 20.1292 37.1194C20.5293 37.1194 20.8534 36.7954 20.8534 36.3953C20.8534 34.9144 21.8889 33.6761 23.2702 33.3467V39.5347C23.2702 41.7505 21.469 43.5515 19.2549 43.5515ZM37.8253 34.0726C37.4252 34.0726 37.1012 34.3966 37.1012 34.7967C37.1012 35.081 37.2677 35.3181 37.5049 35.4376C37.5429 35.6476 37.5664 35.8594 37.5664 36.0748C37.5664 38.068 35.9444 39.6883 33.953 39.6883C33.0333 39.6883 32.1571 39.3425 31.4855 38.7143C31.194 38.441 30.736 38.4554 30.4626 38.7487C30.1893 39.0402 30.2055 39.4982 30.497 39.7716C31.0745 40.3111 31.7607 40.7003 32.5011 40.923C31.9308 42.4817 30.4427 43.5516 28.7337 43.5516C26.5197 43.5516 24.7183 41.7503 24.7183 39.5362V16.2877C24.7183 14.3362 26.306 12.7485 28.2576 12.7485C28.6577 12.7485 28.9817 12.4244 28.9817 12.0243C28.9817 11.6242 28.6577 11.3002 28.2576 11.3002C26.8745 11.3002 25.6217 11.8669 24.7183 12.7793V7.38098C24.7183 5.76433 26.0345 4.44823 27.6511 4.44823C29.1646 4.44823 30.401 5.60685 30.5531 7.08048C30.0009 7.50592 29.5357 8.05085 29.2225 8.69714C29.0487 9.05739 29.1971 9.49005 29.5574 9.66385C29.9158 9.83945 30.3503 9.68919 30.5241 9.32893C31.0527 8.23908 32.1335 7.56022 33.3428 7.56022C35.0699 7.56022 36.4729 8.96503 36.4729 10.6903C36.4729 11.4633 36.1887 12.2038 35.6745 12.7795C35.4084 13.0764 35.4337 13.5362 35.7306 13.8023C35.8682 13.9254 36.0402 13.9869 36.214 13.9869C36.4132 13.9869 36.6105 13.9055 36.7535 13.7462C36.9146 13.5669 37.0522 13.3714 37.1808 13.1705C39.0436 13.5398 40.4105 15.1528 40.4105 17.0917C40.4105 18.1362 40.0158 19.103 39.3387 19.8289C39.3315 19.8343 39.3261 19.8398 39.3206 19.847C38.9224 20.2688 38.4281 20.611 37.8579 20.8336C37.4868 20.9785 37.3021 21.3985 37.4487 21.7714C37.561 22.0556 37.8325 22.2312 38.1222 22.2312C38.2109 22.2312 38.2996 22.2149 38.3865 22.1805C38.9604 21.956 39.4727 21.6392 39.9235 21.2591C41.0966 21.985 41.8352 23.274 41.8352 24.6716C41.8352 26.8856 40.0339 28.687 37.8198 28.687C37.4197 28.687 37.0957 29.011 37.0957 29.4111C37.0957 29.8112 37.4197 30.1352 37.8198 30.1352C38.8336 30.1352 39.7805 29.8528 40.5951 29.3695C40.8522 29.8347 40.9934 30.3597 40.9934 30.8974C41.0006 32.6498 39.5759 34.0726 37.8253 34.0726Z" fill="white"/>
<path d="M14.2436 21.8893C14.6437 21.8893 14.9678 21.5653 14.9678 21.1652C14.9678 19.6481 16.0413 18.3953 17.5023 18.1238C18.402 18.8624 19.5534 19.3078 20.808 19.3078C21.2081 19.3078 21.5321 18.9837 21.5321 18.5836C21.5321 18.1836 21.2081 17.8595 20.808 17.8595C18.7297 17.8595 17.0388 16.1686 17.0388 14.0904C17.0388 13.6903 16.7148 13.3662 16.3147 13.3662C15.9146 13.3662 15.5906 13.6903 15.5906 14.0904C15.5906 15.1313 15.9001 16.0998 16.4269 16.9145C14.7071 17.5753 13.5195 19.23 13.5195 21.1652C13.5195 21.5653 13.8435 21.8893 14.2436 21.8893Z" fill="white"/>
<path d="M27.5014 23.5182C27.9015 23.5182 28.2256 23.1942 28.2256 22.7941C28.2256 21.277 29.2991 20.0242 30.7601 19.7527C31.6598 20.4914 32.8112 20.9367 34.0658 20.9367C34.4659 20.9367 34.7899 20.6126 34.7899 20.2125C34.7899 19.8125 34.4659 19.4884 34.0658 19.4884C31.9875 19.4884 30.2966 17.7976 30.2966 15.7193C30.2966 15.3192 29.9726 14.9951 29.5725 14.9951C29.1724 14.9951 28.8484 15.3192 28.8484 15.7193C28.8484 16.7602 29.1579 17.7287 29.6848 18.5434C27.9649 19.2042 26.7773 20.8589 26.7773 22.7941C26.7773 23.1942 27.1014 23.5182 27.5014 23.5182Z" fill="white"/>
<path d="M21.8173 27.4038C21.8173 27.0037 21.4932 26.6796 21.0931 26.6796C20.016 26.6796 19.0149 27.0019 18.1749 27.5522C17.505 25.7763 15.8015 24.5488 13.8101 24.5488C13.41 24.5488 13.0859 24.8729 13.0859 25.273C13.0859 25.6731 13.41 25.9971 13.8101 25.9971C15.3851 25.9971 16.6867 27.1141 16.9655 28.633C16.2034 29.5581 15.7454 30.7421 15.7454 32.031C15.7454 32.4311 16.0694 32.7551 16.4695 32.7551C16.8696 32.7551 17.1936 32.4311 17.1936 32.031C17.1936 29.8785 18.9442 28.1297 21.095 28.1297C21.4932 28.1279 21.8173 27.8057 21.8173 27.4038Z" fill="white"/>
<path d="M34.552 27.5971C33.4748 27.5971 32.4737 27.9194 31.6319 28.4697C30.9621 26.6938 29.2585 25.4663 27.2671 25.4663C26.867 25.4663 26.543 25.7904 26.543 26.1904C26.543 26.5905 26.867 26.9146 27.2671 26.9146C28.8421 26.9146 30.1437 28.0316 30.4226 29.5505C29.6604 30.4756 29.2024 31.6595 29.2024 32.9485C29.2024 33.3486 29.5264 33.6726 29.9265 33.6726C30.3266 33.6726 30.6507 33.3486 30.6507 32.9485C30.6507 30.796 32.4013 29.0472 34.552 29.0472C34.9521 29.0472 35.2761 28.7231 35.2761 28.323C35.2761 27.9211 34.9521 27.5971 34.552 27.5971Z" fill="white"/>
</svg>
