<svg width="36" height="16" viewBox="0 0 36 16" fill="none" xmlns="http://www.w3.org/2000/svg">
<path d="M36.0012 4.63439L31.3019 15.1038H29.8484L31.5944 11.4401L28.5006 4.63327H30.0295L32.2683 9.85056H32.2976L34.4656 4.63327L36.0012 4.63439ZM16.4772 7.87178V12.1131H15V1.64379H18.9084C19.8399 1.62023 20.7422 1.94217 21.4398 2.54904C22.1317 3.11553 22.5119 3.91647 22.5007 4.76339C22.5119 5.62266 22.1193 6.44603 21.4398 6.98335C20.7602 7.579 19.9165 7.87178 18.9084 7.87178H16.4772ZM16.4716 2.93493V6.58625H18.9444C19.4889 6.6042 20.0222 6.40564 20.4036 6.04893C20.785 5.71016 20.9954 5.24799 20.9954 4.769C20.9954 4.2844 20.7839 3.82224 20.4036 3.48908C20.011 3.11553 19.4833 2.91698 18.9444 2.93381L16.4716 2.93493ZM25.4596 4.63439C26.3967 4.63439 27.1415 4.89688 27.686 5.41738C28.2305 5.93787 28.5006 6.65019 28.5006 7.55545V11.8843H27.2821V10.9084H27.2293C26.7016 11.7093 26.0041 12.112 25.131 12.112C24.3806 12.112 23.7596 11.8843 23.2556 11.4221C22.7628 10.9903 22.4883 10.3587 22.4996 9.70473C22.4996 8.98008 22.7628 8.40237 23.2961 7.96937C23.8237 7.54311 24.5325 7.32661 25.4168 7.32661C26.1728 7.32661 26.7939 7.47244 27.2799 7.75848V7.45449C27.2855 7.01027 27.092 6.584 26.7579 6.28562C26.4237 5.97601 25.9838 5.80102 25.5271 5.80663C24.8183 5.80663 24.2558 6.11623 23.8395 6.73544L22.7201 6.01079C23.3355 5.09319 24.249 4.63215 25.4562 4.63215L25.4596 4.63439ZM23.8136 9.73502C23.808 10.0738 23.9655 10.389 24.2355 10.5943C24.5168 10.822 24.8689 10.9454 25.2256 10.9387C25.7588 10.9387 26.2741 10.7166 26.6555 10.3251C27.0594 9.95152 27.2889 9.42542 27.2889 8.87575C26.8906 8.5482 26.3393 8.38443 25.6306 8.38443C25.1085 8.38443 24.681 8.51343 24.3356 8.77031C23.9902 9.0328 23.8136 9.35026 23.8136 9.73502Z" fill="black"/>
<path d="M0.636719 4.32236C1.0188 3.52848 1.55865 2.85749 2.239 2.29956C3.16092 1.54009 4.21843 1.08294 5.40411 0.942839C6.79686 0.778164 8.1058 1.04115 9.31614 1.76376C9.61687 1.94318 9.89789 2.14718 10.1666 2.36838C10.2331 2.42246 10.2257 2.45441 10.169 2.50848C9.61934 3.05412 9.06963 3.59976 8.52486 4.15032C8.46077 4.21422 8.42626 4.2093 8.35724 4.15769C6.75989 2.93123 4.43042 3.26304 3.23981 4.88521C3.03028 5.17032 2.86019 5.47755 2.74187 5.81181C2.73201 5.84131 2.71229 5.86834 2.6975 5.89784C2.3795 5.65697 2.05905 5.4161 1.74352 5.17278C1.37377 4.89012 1.00401 4.60747 0.636719 4.32236Z" fill="#E94335"/>
<path d="M2.69996 8.20312C2.80596 8.43662 2.8947 8.67995 3.02781 8.89869C3.58738 9.81301 4.38605 10.4004 5.43863 10.6093C6.38767 10.7986 7.29973 10.6708 8.15017 10.1964C8.17975 10.1817 8.20934 10.1669 8.23645 10.1522C8.25124 10.1669 8.26357 10.1841 8.27836 10.1964C8.91434 10.688 9.55278 11.1796 10.1888 11.6711C9.8831 11.9734 9.53553 12.2168 9.16577 12.4281C8.09348 13.0377 6.93244 13.2835 5.70978 13.1901C4.18638 13.0721 2.87251 12.4724 1.78789 11.3909C1.31214 10.9166 0.920199 10.3808 0.636719 9.76877C0.900478 9.56722 1.16424 9.36814 1.428 9.1666C1.85199 8.84462 2.27597 8.5251 2.69996 8.20312Z" fill="#34A853"/>
<path d="M10.194 11.6717C9.55798 11.1802 8.91954 10.6886 8.28356 10.197C8.26877 10.1847 8.25398 10.1675 8.24165 10.1528C8.46104 9.9832 8.68536 9.81852 8.86531 9.60223C9.16604 9.24339 9.36571 8.83785 9.46924 8.38315C9.48157 8.32662 9.47171 8.30695 9.41501 8.30941C9.38543 8.31187 9.35832 8.30941 9.32874 8.30941C8.323 8.30941 7.31479 8.30695 6.30906 8.31187C6.19813 8.31187 6.17348 8.28237 6.17594 8.17669C6.18087 7.46392 6.18087 6.75114 6.17594 6.03837C6.17594 5.94743 6.20059 5.92285 6.2918 5.92285C8.13565 5.92531 9.97951 5.92531 11.8258 5.92285C11.9047 5.92285 11.9368 5.94251 11.9565 6.02608C12.1068 6.70199 12.097 7.38035 12.0058 8.06363C11.9318 8.60927 11.7987 9.1377 11.5941 9.64893C11.2909 10.4035 10.8447 11.0622 10.2581 11.6275C10.2359 11.6447 10.2137 11.657 10.194 11.6717Z" fill="#4285F3"/>
<path d="M2.69978 8.20464C2.27579 8.52661 1.85181 8.84613 1.42782 9.16811C1.16406 9.36719 0.900299 9.56874 0.63654 9.77028C0.431941 9.39177 0.298829 8.99115 0.190367 8.57823C-0.0166967 7.77943 -0.0487423 6.96835 0.0646497 6.1548C0.153391 5.51576 0.33827 4.90131 0.63654 4.32617C1.0063 4.60882 1.37359 4.89393 1.74334 5.17658C2.06134 5.41991 2.37933 5.66078 2.69732 5.90165C2.64309 6.16463 2.56667 6.42271 2.54202 6.69307C2.49765 7.18464 2.54448 7.66391 2.68499 8.13582C2.69485 8.15548 2.69732 8.18006 2.69978 8.20464Z" fill="#FABB06"/>
</svg>
