<svg width="211" height="49" viewBox="0 0 211 49" fill="none" xmlns="http://www.w3.org/2000/svg">
<path d="M1.94077 29.8606C2.46104 39.7881 10.9306 47.4142 20.8581 46.8939L192.622 37.8921C202.55 37.3718 210.176 28.9022 209.656 18.9747C209.135 9.04723 200.666 1.42116 190.738 1.94144L18.974 10.9432C9.04654 11.4635 1.42049 19.9331 1.94077 29.8606Z" fill="#969EFF"/>
<path d="M20.9724 48.6429C24.0074 48.6971 27.032 48.6297 30.1376 48.3741C30.8452 48.316 30.7698 48.1552 31.0598 48.1133C31.5927 48.0362 32.5008 48.1664 32.6267 48.1598C33.4088 48.1211 33.0881 47.8494 33.1928 47.8328C34.3599 47.6546 34.0394 47.9999 35.1627 47.9726C36.6256 47.9371 38.4969 47.7803 40.2561 47.6719C40.8738 47.6331 40.5872 47.4285 41.9221 47.3771C42.8678 47.3404 45.7797 47.4381 47.1006 47.1015C47.1031 47.0004 46.9287 46.8981 46.8524 46.7979C48.7878 47.1173 49.4717 47.063 52.1791 46.8185C52.6075 46.7799 53.0229 46.931 53.7755 46.8277C54.5278 46.7244 54.5459 46.457 56.0657 46.3806C56.6048 46.3541 56.9416 46.5244 57.7686 46.4891C60.1205 46.3893 64.5853 45.9219 66.5142 45.8127C70.3129 45.5975 72.397 45.809 75.7655 45.521C76.025 45.4993 75.4434 45.3239 75.9195 45.2949C76.3997 45.2657 76.9142 45.5116 77.0327 45.5118C78.3119 45.515 80.9884 45.0092 81.7002 45.0161C83.4305 45.0337 81.7373 45.2427 84.1301 45.1689C86.4085 45.0987 89.5321 44.5798 91.7844 44.3923C94.3945 44.1748 95.2644 44.6452 97.205 44.0048C104.121 43.6738 111.063 43.3293 117.986 42.9939C117.961 42.8878 117.933 42.7819 117.903 42.676C118.455 42.7215 119.006 42.767 119.557 42.8116C119.47 42.7362 119.388 42.6605 119.301 42.5859C121.888 42.7588 124.187 42.7974 127.186 42.5555C127.245 42.5508 127.079 42.3454 127.128 42.3373C127.803 42.2616 128.568 42.3862 129.161 42.3164C130.593 42.1484 133.01 41.5548 131.965 42.1806C135.309 41.8875 139.257 41.8737 142.444 41.596C143.823 41.4761 144.22 41.1169 144.88 41.0628C145.54 41.0088 145.218 41.3165 145.454 41.3153C146.867 41.3059 149.186 41.1723 149.413 40.835C149.703 40.9498 150.01 41.0653 150.304 41.1806C150.117 40.8296 154.481 40.7501 155.623 40.6814C155.831 40.6688 155.852 40.5096 156.01 40.5029C157.766 40.4311 158.208 40.6559 159.716 40.6593C160.245 40.6606 159.413 40.4255 160.773 40.4745C160.892 40.4789 160.842 40.7319 162.46 40.6455C165.043 40.5077 169.99 40.3478 173.058 40.0635C173.31 40.0406 172.528 39.8085 173.684 39.8116C174.103 39.8123 173.913 40.0161 174.925 39.9646C178.847 39.7672 183.017 39.3258 187.027 39.3006C186.87 39.0899 185.432 38.9197 187.581 38.9444C187.925 38.9491 187.68 39.1574 187.834 39.1566C189.08 39.1477 190.152 38.952 191.502 38.9563C191.901 38.958 192.008 39.1059 192.506 39.1161C192.569 39.1175 192.629 39.117 192.687 39.1149C193.344 39.0865 193.682 38.8843 194.511 38.8522C195.922 38.7618 196.234 38.9265 197.788 38.0094C205.729 35.4782 211.417 27.2454 210.773 18.9162C210.672 17.2734 210.355 15.6467 209.826 14.093C209.054 11.3449 207.799 8.90353 205.769 6.66328C205.157 6.0149 204.862 6.08025 203.851 5.10534C203.651 4.86929 201.951 3.30879 201.366 3.65296C200.859 3.29661 200.513 3.11075 200.049 2.84753C200.448 2.95176 200.858 3.07553 201.239 3.19874C199.22 2.15818 197.526 1.35007 195.542 0.841929C194.079 0.506972 195.085 0.924958 194.186 0.767133C193.284 0.635578 192.858 0.541224 191.721 0.81704C191.356 0.679624 191.036 0.647103 190.671 0.66591C190.191 0.691163 189.631 0.803008 188.728 0.855552C188.562 0.865017 187.599 0.786486 186.802 0.854051C186.228 0.902691 186.068 1.11849 185.154 1.13427C185.004 1.13728 183.061 0.982096 182.445 0.990919C181.486 1.00401 179.98 1.34891 179.795 1.36183C177.108 1.54942 176.058 1.34192 174.171 1.87292C173.772 1.63705 172.171 1.57067 170.885 1.66304C169.26 1.77968 166.027 2.47421 165.553 1.94418C163.684 2.28926 163.88 2.12645 161.648 2.23854C159.616 2.34017 154.249 2.83372 152.601 2.88945C150.953 2.9459 151.739 2.59612 151.084 2.58929C150.01 2.57706 150.6 2.77385 149.868 2.809C147.796 2.90786 145.994 2.95879 144.012 2.9633C143.914 3.1283 143.808 3.29453 143.706 3.45974C143.601 3.41197 143.497 3.36411 143.392 3.31634C142.967 3.34024 142.49 3.36194 142.096 3.38741C145.382 2.51341 138.89 3.60736 136.93 3.72784C135.277 3.82901 132.507 3.64134 130.688 3.66478C130.246 3.67024 130.558 3.82664 130.468 3.82741C129.402 3.83399 129.234 3.7248 127.806 3.81582C127.051 3.8643 126.29 4.12047 125.554 4.16315C120.15 4.47547 114.921 4.53212 109.549 4.79021C108.636 4.83406 107.861 5.13872 107.094 5.18464C105.996 5.25026 105.292 5.07095 104.26 5.12168C103.232 5.17231 101.765 5.50763 101.066 5.50473C100.367 5.50258 101.546 5.19036 100.274 5.32569C99.6897 5.38786 100.734 5.51959 100.011 5.5632C97.7515 5.69936 94.5502 5.6362 92.1561 5.98535C92.2594 5.92421 92.4019 5.8666 92.5291 5.80664C89.967 5.96273 87.7095 6.21514 85.0645 6.37314C84.1396 6.42882 82.4623 6.35301 81.5528 6.40144C80.6435 6.4499 80.239 6.64873 79.5112 6.6918C79.212 6.7099 79.3207 6.54502 79.1201 6.55876C76.6106 6.73232 75.2473 7.08713 72.6159 7.19277C62.9746 7.58012 53.034 7.99925 43.2437 8.40571C42.8501 8.42212 42.5744 8.22919 41.9982 8.2287C41.1106 8.22773 41.0769 8.41282 40.9591 8.42545C40.1898 8.50612 40.4955 8.32042 39.4601 8.37469C37.1803 8.49416 33.5104 8.83682 31.2378 8.943C26.846 9.1481 23.0361 9.23012 18.8912 9.3619C18.0198 9.39127 17.1435 9.47812 16.2476 9.63387C15.8509 9.70614 16.1649 9.88646 15.4895 10.0411C10.8936 11.4603 9.52827 11.636 5.26393 16.0071C2.74186 18.7544 0.114313 24.3484 0.582711 29.9318C0.781149 33.4146 2.01276 36.6727 3.46408 38.9788C3.46456 38.9785 3.46505 38.9782 3.46553 38.978C4.21774 41.1365 6.36251 43.3496 8.50755 44.4576C4.15566 40.6898 1.58686 35.3723 1.37678 29.8902C0.946143 22.2452 5.67034 14.1979 13.6071 11.4034C15.3094 10.7962 17.1163 10.4494 18.9445 10.3793C31.8165 9.88666 45.2874 9.79748 58.1338 9.02698C59.5075 8.94449 60.046 8.65774 61.2065 8.65104C61.4027 8.64991 60.9064 8.87515 61.5092 8.86377C69.792 8.70108 78.5845 7.7862 86.7101 7.48633C88.901 7.40543 89.2559 7.60898 91.1842 7.56528C90.8403 7.47833 90.6132 7.38047 90.3125 7.29044C99.0839 6.50281 107.893 6.18737 116.793 5.67407C117.194 5.65056 117.234 5.43116 117.655 5.40103C118.497 5.34 119.316 5.53614 120.053 5.50568C121.014 5.4658 121.171 5.28466 122.058 5.2495C122.491 5.23261 122.37 5.40509 123.309 5.32771C123.387 5.32117 123.43 5.14461 124.056 5.13425C125.772 5.10652 129.28 5.0689 130.7 5.03811C132.514 4.99878 133.954 4.66074 134.638 4.60781C136.486 4.46493 136.462 4.73512 138.028 4.65312C149.179 4.07033 159.823 3.20652 171.238 2.61071C171.955 2.57325 174.623 2.73282 175.949 2.65131C176.394 2.62317 178.715 2.42243 179.063 2.39765C180.476 2.2986 181.688 2.05409 182.465 1.97537C183.973 1.82209 185.678 2.01542 186.502 2.00048C187.734 1.97851 189.776 1.85089 190.73 1.78935C190.899 1.77849 191.034 1.77196 191.125 1.76805C192.602 1.73474 192.125 1.3889 193.199 1.53473C193.512 1.59112 193.164 1.80604 194.258 1.94676C195.172 2.0824 195.581 1.97216 196.212 2.0895C196.852 2.20451 197.861 2.87161 198.224 3.01305C200.133 3.75316 201.065 4.01485 202.899 5.35761C203.658 5.90903 205.655 7.7091 206.97 9.84464C208.335 11.949 208.992 14.2299 209.055 14.5783C209.599 17.7341 208.306 12.5956 208.011 12.3841C207.241 10.9643 207.256 11.2454 206.584 9.7647C205.364 8.93289 202.458 4.67458 200.753 4.87537C199.931 3.7008 198.745 3.4627 197.416 3.1281C195.551 2.71945 197.041 2.79875 195.683 2.44714C195.139 2.30489 193.523 2.3195 192.712 2.25594C191.978 2.18652 191.623 2.01071 190.742 2.00843C190.643 2.00892 190.539 2.01132 190.426 2.01608C188.429 2.09977 186.828 2.27904 185.163 2.61095C184.851 2.51913 184.558 2.42619 184.25 2.33416C183.098 2.51083 181.942 2.68701 180.79 2.86287C180.97 2.75892 181.151 2.65414 181.331 2.5502C180.992 2.55425 180.651 2.55914 180.312 2.564C179.193 2.76477 178.125 2.95238 176.975 3.15964C173.801 2.77931 174.739 3.20332 172.994 3.36581C171.25 3.52822 170.222 3.26563 168.872 3.33469C167.052 3.42761 166.215 3.432 164.382 3.55069C163.319 3.6193 161.532 4.01834 162.987 3.45827C159.665 3.59357 155.114 3.69709 152.155 4.04842C151.282 4.15148 152.458 4.24219 152.31 4.26891C151.571 4.39729 150.931 4.18378 150.165 4.25931C148.893 4.38495 146.419 4.70695 145.417 4.80474C143.975 4.94572 141.686 4.74568 141.453 4.7345C140.147 4.67294 139.813 4.95609 139.395 4.95967C137.016 4.97777 136.486 4.89397 135.767 5.4921C135.14 5.28265 132.543 5.01098 131.943 5.45025C131.907 5.08383 129.773 5.25777 128.453 5.23486C128.214 5.35399 127.972 5.47269 127.733 5.59262C124.954 5.07916 119.514 5.84302 115.908 6.11041C115.817 6.11677 115.641 5.84998 115.101 5.94049C115.067 5.94738 115.129 6.06815 114.765 6.10329C113.567 6.21781 109.001 6.76695 108.474 6.79729C106.533 6.9095 106.183 6.72183 105.001 6.7644C103.445 6.82013 103.23 7.01731 101.748 7.06836C101.055 7.09259 100.412 6.88159 99.3232 6.97321C98.6788 7.02717 98.6249 7.22217 98.1144 7.26442C96.2983 7.41534 94.9559 7.36441 93.3546 7.6987C92.9014 7.11114 92.1534 7.60092 91.3566 7.68875C88.122 8.04646 84.065 8.00076 81.284 8.20221C72.6073 8.83221 64.925 9.61184 56.4444 10.1411C55.067 10.227 54.7189 9.93834 53.2748 10.0334C52.6258 10.0764 51.9676 10.3331 50.9049 10.3921C50.0509 10.44 48.8211 10.3915 47.7544 10.4481C47.4709 10.463 47.4566 10.6721 47.0393 10.6956C43.8744 10.8736 40.7756 10.888 37.5732 10.9541C36.3864 10.9784 35.668 11.2922 35.8436 10.8024C35.3971 10.9438 34.9622 11.0692 34.5431 11.2075C32.8971 10.9909 31.5823 11.3754 29.3732 11.4137C29.135 11.4169 27.4528 11.1728 26.5208 11.4614C26.445 11.2942 26.5841 11.1416 26.5484 10.9884C25.612 10.9721 24.1887 11.2444 23.5596 11.2976C22.9315 11.3507 22.4986 11.151 22.3091 11.1587C21.5882 11.1909 21.7715 11.4737 21.7166 11.4815C20.3221 11.6714 19.5693 11.7519 19.0167 11.7571C18.2751 11.7721 17.9138 11.6295 16.7274 11.5745C16.1808 11.4782 13.0652 12.7815 12.3368 12.8427C12.3694 12.9832 12.5924 13.0158 12.6966 13.1166C11.8018 13.5654 10.9429 14.0958 10.1416 14.6918C10.2389 14.4599 10.3788 14.2053 10.473 13.9845C8.79035 15.1974 7.30009 16.1584 6.19089 17.495C5.57303 18.2659 5.89672 18.3565 5.50872 18.7796C5.43387 18.8642 5.37675 18.5907 5.1726 18.8579C3.57317 21.0922 3.26 22.3401 2.63005 24.9753C2.38014 26.2116 1.83181 27.3146 2.08572 29.1717C2.09472 29.2304 2.14274 29.4885 2.19682 29.8472C2.29288 30.5165 2.43709 31.4954 2.27911 32.2707C2.4901 32.5927 2.63456 32.8826 2.81721 33.1073C2.77451 35.4432 3.15461 34.756 4.62408 37.3406C5.27227 38.772 8.71414 42.7336 10.2383 43.5793C11.061 44.1648 10.9231 44.3744 11.0742 44.479C12.0083 45.0643 12.1293 44.8243 13.0297 45.2683C13.9306 45.7028 15.0735 46.3811 16.1162 46.5708C16.9113 46.7057 16.346 46.2807 17.4878 46.5724C17.7275 46.6248 16.9923 46.8289 18.2522 46.855C18.4563 46.8838 20.4477 46.6382 20.8386 46.5215C19.7853 46.4666 16.8715 45.9796 15.8468 45.5865C10.2923 44.0503 3.76523 38.0261 3.60787 29.7732C3.04721 21.4464 10.5 13.0531 19.0777 12.9212C30.1107 12.386 40.548 11.8047 48.3929 11.3361C50.3488 11.2199 51.6132 10.866 52.8876 10.7742C54.162 10.6824 53.0972 11.0016 54.2536 10.9192C55.4101 10.836 56.2438 10.6064 57.3258 10.5335C64.6198 10.0414 71.9686 9.54002 79.2066 9.10981C81.0841 8.99848 82.5964 9.13336 84.3052 9.04381C84.9702 9.00883 84.9764 8.73239 85.4489 8.71005C90.5409 8.46502 95.2644 8.48319 100.326 8.18561C102.428 8.0617 104.687 7.71067 106.769 7.57976C108.484 7.47128 110.272 7.53662 111.816 7.45902C112.654 7.41753 113.085 7.18464 113.387 7.15224C114.439 7.04216 114.084 7.31766 114.623 7.28939C116.111 7.21054 116.835 6.86247 118.23 6.81358C118.778 6.79457 118.718 6.99535 119.514 6.98443C120.524 6.97027 120.141 6.80799 120.861 6.76373C120.904 6.76066 120.77 6.90898 121.152 6.89466C123.611 6.80294 126.685 6.75327 129.055 6.61938C133.956 6.34313 138.78 5.81802 143.345 5.52549C144.498 5.45214 144.201 5.6519 144.568 5.64157C146.334 5.59097 146.952 5.3382 148.803 5.32036C149.111 5.31719 150.361 5.50674 151.539 5.3804C152.175 5.31229 152.89 5.11568 153.432 5.05016C153.973 4.98465 154.072 5.21372 154.725 5.17966C155.915 5.11815 155.56 4.97434 157.263 4.91418C157.948 4.88956 160.247 4.99103 162.01 4.88173C164.891 4.70329 168.453 4.31386 171.85 4.13255C173.016 4.06986 174.526 4.23148 176.333 4.13918C178.542 4.02662 182.609 3.75873 184.873 3.63685C186.031 3.57457 186.101 3.31871 186.238 3.30101C187.12 3.18467 186.777 3.48437 187.37 3.44217C188.185 3.38415 188.934 3.13703 189.674 3.08454C190.146 3.05103 190.231 3.25418 190.334 3.25043C190.492 3.245 190.649 3.23946 190.806 3.23382C194.146 3.13548 197.174 3.84904 200.06 5.5359C204.813 8.31115 207.979 13.5704 208.17 19.0526C208.763 27.8355 201.219 36.0247 192.536 36.2443C187.636 36.4924 182.744 36.7552 177.868 37.04C176.179 37.1381 176.129 37.4026 174.643 37.4393C173.156 37.4768 171.692 36.9881 170.504 37.6747C170.458 37.5511 170.458 37.4613 170.412 37.349C167.354 37.6869 164.277 37.6643 161.276 37.799C159.054 37.8985 157.086 38.0217 155.036 38.1429C153.218 38.2511 153.387 38.4618 151.798 38.2586C143.983 38.8474 136.073 39.2183 128.332 39.9221C126.488 39.5494 124.76 39.9357 122.247 40.1368C121.937 40.1618 122.261 39.9736 121.341 40.0364C120.185 40.1148 119.6 40.4071 117.651 40.4948C117.135 40.5178 113.3 40.4287 111.894 40.651C110.488 40.8733 108.445 41.0676 106.984 41.2863C107.187 41.1634 107.445 41.0425 107.672 40.92C106.938 40.939 106.201 40.959 105.468 40.978C105.369 41.1181 105.269 41.2583 105.174 41.399C104.742 41.2932 104.31 41.189 103.874 41.0819C102.985 41.8214 103.922 41.5463 101.853 41.4794C100.817 41.4465 100.005 41.6101 98.9418 41.5956C98.5588 41.5898 98.304 41.3991 97.8819 41.3951C96.8472 41.3864 97.463 41.635 96.8258 41.6669C96.1838 41.6981 95.2463 41.4387 94.1037 41.6359C95.3328 42.1215 91.8541 42.1244 91.6664 41.707C91.2534 41.7278 90.9081 41.7637 90.4512 41.7755C90.9289 42.8296 88.7262 42.1793 87.8601 42.0768C86.9945 41.9746 87.0444 42.2619 86.843 42.2612C86.263 42.2601 86.6779 42.1179 86.2724 42.1351C83.5858 42.2517 81.0666 42.5607 78.4175 42.7157C78.0364 42.738 78.3659 42.5569 77.9223 42.5962C77.4782 42.6356 77.0604 42.8206 76.4022 42.8438C76.2256 42.8502 76.1627 42.7096 75.8878 42.7238C70.1276 43.0322 64.6644 43.4411 58.7906 43.7675C58.2591 43.797 57.8284 43.5637 56.8014 43.6263C55.7743 43.689 54.2273 44.0011 52.9526 44.0857C52.6142 44.1083 52.5112 43.9005 52.0626 43.9297C50.5362 44.0291 49.2294 44.2711 47.6443 44.3825C44.9657 44.5705 42.1518 44.5879 39.438 44.8561C38.9235 44.9065 39.0152 45.0795 38.274 45.1684C36.9949 45.3219 37.4644 45.038 37.2027 45.017C36.3466 44.9497 36.0975 45.3073 35.2704 45.262C35.1439 45.2549 35.3126 45.0417 35.1996 45.0445C33.4495 45.1006 33.3827 45.5831 31.5108 45.4243C29.8725 45.7856 32.6379 45.7344 32.9291 45.8654C33.64 46.1835 31.8316 46.6958 30.7598 46.8861C29.8368 47.0499 29.832 46.829 29.4622 46.8482C27.5053 46.95 24.5891 47.0607 23.1061 47.2434C22.2077 47.3535 23.8379 47.3602 23.381 47.4569C22.9282 47.5532 22.6239 47.4029 22.1649 47.6086C21.7059 47.8144 20.7779 48.3979 20.9724 48.6429ZM185.301 38.8402C182.255 38.1275 174.303 38.6354 170.035 38.9423C166.495 39.1973 163.475 40.0277 164.156 39.0179C167.987 38.8107 171.09 38.7457 175.14 38.5036C175.561 38.4783 178.069 38.2565 178.943 38.1945C179.434 38.1599 179.442 37.9986 180.111 37.9651C180.257 37.9583 181.075 38.1256 181.37 38.1045C182.381 38.0329 185.373 37.5534 185.793 37.5407C186.96 37.507 186.526 37.7798 187.031 37.7988C188.728 37.8601 188.894 37.4757 190.574 37.5097C190.832 37.5149 191.613 37.718 192.613 37.7071C192.776 37.7053 192.945 37.6956 193.118 37.6756C193.615 37.6228 194.432 37.3412 194.804 37.2782C196.838 36.9767 199.124 36.3371 200.755 35.3136C202.074 34.4617 201.565 34.464 202.208 33.9629C202.839 33.4546 203.77 33.015 204.186 32.623C204.859 32.0084 205.434 31.0512 205.602 30.8328C208.37 27.3516 209.736 23.2347 209.607 18.9773C209.574 17.9747 209.457 16.9664 209.245 15.9608C209.498 16.9442 209.668 17.9518 209.752 18.9697C209.975 21.6223 209.605 24.3355 208.667 26.849C207.577 28.6616 208.237 27.8081 207.651 29.0749C207.14 30.0573 206.638 30.0458 205.812 31.1931C205.812 31.1922 205.813 31.1913 205.814 31.1904C205.39 31.7754 204.54 33.203 203.217 34.1015C203.167 34.1278 202.931 34.0639 201.979 34.7317C199.852 36.2906 195.984 37.6331 193.051 37.8183C192.868 37.8352 192.732 37.8565 192.622 37.8817C192.215 37.9749 192.161 38.1325 191.359 38.198C190.617 38.2586 189.743 38.081 188.581 38.1918C187.123 38.332 186.443 38.752 185.411 38.2722C185.338 38.4666 185.39 38.6498 185.301 38.8402ZM104.589 42.6056C104.385 42.6374 101.668 43.3758 102.45 42.6984C106.129 42.2294 110.129 42.157 114.007 41.7986C112.713 42.4957 110.455 42.366 107.728 42.4629C107.727 42.4629 107.726 42.463 107.725 42.4631C107.596 42.4677 108.142 42.6035 107.41 42.6121C107.054 42.6162 105.682 42.4361 104.589 42.6056Z" fill="#282828"/>
</svg>
