<svg width="32" height="32" viewBox="0 0 32 32" fill="none" xmlns="http://www.w3.org/2000/svg">
<path fill-rule="evenodd" clip-rule="evenodd" d="M17.5177 1.96166C16.6795 1.12346 15.3205 1.12346 14.4823 1.96166L1.96194 14.482C1.55943 14.8845 1.3333 15.4304 1.3333 15.9997C1.3333 16.5689 1.55943 17.1148 1.96194 17.5174L14.4823 30.0377C15.3205 30.8759 16.6795 30.8759 17.5177 30.0377C18.3559 29.1995 18.3559 27.8405 17.5177 27.0023L8.66136 18.146H28.5203C29.7057 18.146 30.6666 17.1851 30.6666 15.9997C30.6666 14.8143 29.7057 13.8533 28.5203 13.8533H8.66136L17.5177 4.99704C18.3559 4.15884 18.3559 2.79986 17.5177 1.96166Z" fill="#282828"/>
</svg>
