<svg width="328" height="236" viewBox="0 0 328 236" fill="none" xmlns="http://www.w3.org/2000/svg">
<path d="M255.32 104.713C250.626 103.302 247.101 99.9584 245.989 98.2157H243.073C243.805 100.358 245.989 103.642 252.513 106.653C259.037 109.664 267.798 110.371 272.206 115.767C276.314 120.796 271.23 123.713 266.998 125.94C263.453 127.806 245.631 126.762 234.507 124.967C222.98 123.107 209.626 123.173 201.836 125.126C194.045 127.079 190.014 130.334 191.234 135.787C192.544 141.634 206.29 143.494 212.394 144.308C218.835 145.167 229.027 146.082 252.627 150.476C268.894 153.506 278.594 163.255 279.943 169.693C283.644 187.353 237.153 195.501 213.076 198.239L161.906 203.71L87.0317 209.132L55.1658 211.267C54.336 211.323 53.6914 212.012 53.6914 212.844C53.6914 213.764 54.4751 214.49 55.3928 214.419L87.0317 211.981L161.515 206.506C175.817 205.53 207.14 202.192 222.293 200.361C240.227 198.194 261.609 192.277 270.447 187.401C279.284 182.525 284.322 177.702 282.697 168.763C281.072 159.823 270.964 153.626 260.45 149.766C252.039 146.678 234.224 144.111 226.368 143.214C221.255 142.892 209.19 141.624 201.836 139.714C194.481 137.805 193.641 134.423 193.929 133.12C196.723 126.212 216.431 125.123 227.503 126.9C238.576 128.678 255.305 130.195 261.501 129.636C267.698 129.077 276.67 127.613 276.494 119.641C276.276 109.736 261.77 106.653 255.32 104.713Z" fill="#282828"/>
<path d="M253.755 178.938C262.593 174.062 267.631 169.239 266.005 160.299C266.005 149.983 250.572 147.739 242.855 147.907C258.452 148.473 262.951 157.025 263.252 161.23C266.953 178.889 220.461 187.038 196.385 189.775L145.215 195.247L70.3402 200.668L38.4744 202.804C37.6446 202.86 37 203.549 37 204.381C37 205.301 37.7837 206.027 38.7014 205.956L70.3402 203.517L144.824 198.043C159.125 197.067 190.448 193.729 205.602 191.898C223.536 189.731 244.917 183.814 253.755 178.938Z" fill="#282828"/>
<path d="M206.342 134.112C203.668 127.411 232.049 128.504 247.901 128.953C247.901 128.355 244.536 127.024 231.077 126.485C214.253 125.812 202.556 126.938 203.15 134.112C203.518 138.563 213.954 141.59 218.403 142.749L249.583 147.796C237.807 145.403 208.365 139.181 206.342 134.112Z" fill="#282828"/>
<path d="M136.732 18.4681C139.197 21.265 142.065 20.3446 143.191 19.5347C143.191 21.6206 141.997 22.7443 141.399 23.0454C145.395 27.5752 143.721 31.5916 142.384 33.0336C142.469 30.6139 141.763 29.8449 141.399 29.7628C141.906 31.057 140.813 32.9046 140.204 33.6666C140.591 34.6514 140.274 37.0429 139.113 37.9222C138.185 38.6256 138.117 39.1766 138.199 39.3641C138.762 41.0171 140.169 43.4087 139.36 45.0265C138.713 46.3207 136.675 46.1285 135.737 45.8705C135.421 46.5036 133.557 50.3723 130.356 51.568C127.796 52.5247 124.858 50.7709 123.709 49.7744C123.231 49.9151 121.915 52.1776 121.318 53.2914C123.322 55.7532 126.523 62.2948 127.296 65.2139C128.07 68.133 133.24 84.4518 133.592 85.1903C133.943 85.9289 148.082 100.946 148.82 101.755C149.411 102.402 149.324 102.963 149.207 103.162C151.821 104.463 157.465 107.657 159.125 110.02C161.2 112.974 161.059 116.878 160.919 119.059C160.806 120.803 158.902 121.99 157.964 122.365C157.008 123.715 155.245 123.959 154.483 123.912C154.248 124.264 153.54 124.925 152.583 124.756C151.388 124.545 151.001 123.455 150.719 120.677C150.438 117.898 149.418 116.738 146.71 115.683C144.544 114.838 142.947 111.884 142.419 110.513C139.268 110.119 128.75 102.212 123.885 98.3087C123.885 98.3087 123.497 102.986 123.604 105.983C123.687 108.317 124.145 111.719 124.295 112.784C124.321 112.974 124.198 113.146 124.027 113.233C123.303 113.6 123.427 114.383 123.604 114.768C127.906 123.314 136.778 141.082 137.847 143.783C138.916 146.484 139.887 149.903 140.239 151.274C143.498 163.76 149.763 188.786 148.75 189.011C147.484 189.293 147.062 190.735 147.695 190.594C148.328 190.453 152.725 192.285 155.819 193.865C158.546 195.258 162.034 195.116 163.029 195.116C164.023 195.116 167.241 194.795 168.726 199.281C170.323 204.103 163.743 206.031 161.8 206.6L161.692 206.632C159.899 207.159 143.826 210.817 138.656 209.586C134.52 208.601 134.237 205.283 134.612 203.748C134.021 199.499 134.858 196.092 135.35 194.92C134.858 194.85 134.823 193.302 134.612 193.302C134.401 193.302 132.713 193.373 132.291 193.302C131.868 193.232 126.699 174.944 125.89 172.235C125.081 169.527 120.087 152.435 120.016 151.907C119.946 151.38 114.987 145.12 112.806 141.954C111.062 139.422 111.025 138.179 111.224 137.875C111.224 137.875 114.248 129.012 115.233 122.505C115.294 122.102 115.344 121.644 115.383 121.165C115.454 120.314 114.366 120.125 114.099 120.936L113.791 121.872C110.696 132.47 104.415 154.025 104.049 155.46C103.683 156.894 101.81 159.856 100.919 161.157C94.5182 171.309 81.5616 191.684 80.9426 191.966C80.3237 192.247 79.1607 192.083 78.6566 191.966C79.2779 193.584 80.5487 197.136 80.6613 198.402C80.802 199.984 81.7867 201.673 83.4045 201.989C85.0223 202.306 89.5592 202.974 90.1571 207.3C90.755 211.626 87.8359 213.243 82.5605 213.806C77.285 214.369 71.2817 211.316 69.7613 210.336C68.2409 209.356 56.055 198.847 54.94 196.347C54.048 194.347 56.7758 191.999 58.2512 191.076C61.0893 187.211 64.6144 185.208 66.0222 184.69C66.1805 184.634 66.5776 184.352 66.9007 183.676C67.3046 182.832 66.2615 183.081 66.4969 181.669C66.6852 180.539 79.1288 159.962 85.3271 149.815C86.1232 142.596 87.8182 127.782 88.2301 126.272C88.642 124.762 88.0585 116.241 87.7153 112.169L86.491 111.189V98.4082L82.6714 107.664C85.2178 115.646 82.8183 123.53 81.3981 123.824C80.262 124.059 79.3904 122.844 79.0965 122.208C77.1769 126.556 74.4444 127.676 73.3181 127.692C72.1918 127.709 71.9959 126.272 71.9959 126.272C71.9959 126.272 70.2346 126.882 69.4494 126.272C68.6694 125.666 68.8128 123.824 68.8128 123.824C68.8128 123.824 67.2469 124.401 66.6092 123.824C66.4699 123.697 66.3702 123.512 66.2989 123.311C66.0589 122.635 66.4213 121.931 66.8279 121.34C67.775 119.964 69.0222 117.336 69.4494 113.491C69.9979 108.555 71.7673 105.884 72.5835 105.166C72.8773 98.7999 77.4805 80.6321 78.4599 77.6449C79.4393 74.6577 84.1451 67.2082 91.2947 56.6797C95.1161 51.0523 102.2 45.1688 106.03 44.835C110.026 43.6206 110.289 40.0478 109.921 38.4132C108.635 39.5538 107.507 39.2603 107.104 38.9709C110.233 37.6436 109 32.4922 107.993 30.0824C105.812 21.5021 111.785 17.7373 115.044 16.9274C123.873 8.98705 133.651 14.972 136.732 18.4681Z" fill="#282828"/>
<path d="M129.331 32.349C132.485 33.3248 134.417 29.8057 134.918 27.9242C136.393 32.5192 138.388 33.8807 139.116 34.0225C139.116 37.256 137.329 37.7098 136.904 38.8161C136.478 39.9223 139.457 43.2976 138.18 44.4038C137.159 45.2888 135.76 44.5456 135.174 43.9784C134.72 45.4155 133.103 48.6244 130.267 49.9632C127.43 51.302 124.736 49.1406 123.743 47.8926L120.141 52.1473C115.625 46.6559 110.752 44.9806 108.88 44.8293L111.546 41.6808C115.177 41.5674 118.354 38.4757 119.488 36.944C120.311 41.0852 123.005 40.5746 123.743 40.5463C124.48 40.5179 124.338 39.0146 123.431 39.1281C122.523 39.2415 121.474 39.2132 120.765 36.6604C120.055 34.1076 121.332 30.9591 123.743 30.789C126.154 30.6188 127.317 34.5614 126.352 35.4123C125.581 36.0931 125.842 36.528 126.069 36.6604C127.969 37.2277 127.912 35.072 127.941 34.3629C127.963 33.7956 128.877 32.7839 129.331 32.349Z" fill="white"/>
<path d="M134.802 36.4551C134.965 36.1298 135.361 35.9986 135.686 36.1619C136.012 36.3253 136.143 36.7213 135.98 37.0466L134.88 39.2364C134.717 39.5616 134.32 39.6929 133.995 39.5295C133.67 39.3662 133.539 38.9701 133.702 38.6449L134.802 36.4551Z" fill="#282828"/>
<path d="M129.229 46.4813C130.862 45.8283 133.044 46.582 134.045 47.0248L133.323 48.0495C133.347 47.7987 130.638 46.6974 129.229 46.4813Z" fill="#282828"/>
<path d="M107.497 46.1279C111.024 46.1279 114.788 48.7795 116.229 50.1053C118.857 52.0456 122.701 56.8061 124.997 63.0577C126.835 68.0589 130.671 80.3615 132.36 85.8876C133.602 87.1845 143.099 97.6854 147.692 102.774C146.828 105.908 143.549 108.537 142.018 109.461C135.332 105.408 129.504 101.544 123.217 95.3133C118.605 90.7438 113.032 77.2529 110.795 70.3589C110.674 69.9863 110.294 69.7615 109.91 69.8393C109.47 69.9286 109.201 70.3782 109.334 70.8077C113.276 83.5882 119.209 93.62 122.332 96.5639C121.974 102.255 122.481 109.713 122.78 112.731C108.851 114.96 93.629 112.234 87.7591 110.592C87.7093 109.398 87.8486 103.966 88.8037 91.7883C89.7026 80.3271 91.6207 70.4186 92.6215 66.2159C92.7159 65.8195 92.4702 65.4217 92.0726 65.3319C91.7201 65.2523 91.3651 65.4366 91.2613 65.7828C89.6733 71.0795 87.5028 90.4045 87.0049 92.6451C86.5899 94.5127 83.1717 102.819 81.5145 106.739C79.301 107.257 75.5197 106.119 73.9058 105.485C73.8625 104.361 76.759 86.0739 79.915 77.687C83.0709 69.3001 89.3395 62.5127 93.3168 56.8061C97.2941 51.0996 103.087 46.128 107.497 46.1279Z" fill="#50A3E9"/>
<path d="M143.425 110.168C146.749 108.216 148.547 105.222 149.03 103.969C149.511 104.736 152.855 107.232 154.574 108.006C156.293 108.779 157.261 109.064 159.093 113.257C159.636 114.5 159.863 115.661 159.882 116.667C159.912 118.268 158.643 117.933 158.362 116.357C157.915 113.849 157.134 112.936 156.813 113.257C156.365 113.705 157.709 117.043 157.261 119.811C157.13 120.621 156.894 121.181 156.621 121.56C156.063 122.337 155.232 121.58 155.179 120.625C155.024 117.836 154.53 114.326 153.898 114.426C153.35 114.513 153.515 116.136 153.68 119.5C153.844 122.863 153.445 123.423 152.855 123.423C151.962 123.423 151.8 120.578 151.47 118.336C151.14 116.094 148.799 115.048 146.887 114.158C145.357 113.446 143.941 111.201 143.425 110.168Z" fill="white"/>
<path d="M73.05 106.256C75.0312 108.464 79.6537 108.284 81.7174 107.919C81.7174 108.827 81.873 111.124 82.4957 113.049C83.274 115.454 81.7174 122.954 80.8683 122.459C80.2528 122.1 80.0556 118.77 80.024 116.692C80.0184 116.322 79.8075 115.991 79.5175 115.762C78.6825 115.101 78.1815 114.093 78.1815 113.443C78.1815 113.049 78.6749 112.235 78.0028 112.376C77.3306 112.518 77.1031 113.411 77.1031 114.077C77.1031 114.743 78.5535 116.102 78.9427 117.376C79.3318 118.649 79.0995 118.886 77.0122 122.954C74.9249 127.023 73.05 126.28 72.8731 125.997C72.6961 125.714 75.0441 123.494 75.9155 119.469C76.2575 117.889 76.6231 116.516 75.9155 116.692C75.208 116.869 73.5388 122.111 72.5836 123.703C71.6284 125.295 70.8212 125.714 70.1136 125.183C69.5476 124.758 69.7599 124.086 69.9368 123.803C72.2362 120.336 73.8283 115.136 73.05 115.136C72.2718 115.136 71.5641 117.294 70.8212 119.24C70.0783 121.185 68.4156 123.237 67.8142 122.954C67.333 122.728 67.4958 121.987 67.6373 121.645C69.4769 118.214 69.866 116.586 70.5736 112.695C71.1396 109.582 72.4604 107.105 73.05 106.256Z" fill="white"/>
<path d="M68.1819 183.784L77.0513 191.032C76.3841 191.837 74.2766 193.261 71.1844 192.516C68.6216 191.898 67.5253 189.009 67.1727 186.938C67.0454 186.19 67.2421 185.436 67.617 184.777L68.1819 183.784Z" fill="white"/>
<path d="M136.282 192.969C141.711 193.235 145.212 191.841 146.283 191.111C146.688 193.373 145.545 195.374 143.331 196.278C141.116 197.183 139.545 196.636 137.664 195.421C136.067 194.39 136.068 193.397 136.282 192.969Z" fill="white"/>
<path d="M70.674 193.797C73.8651 194.839 76.5421 193.363 77.4817 192.494L78.6136 195.741C78.7616 196.166 78.5699 196.634 78.1667 196.833L76.7806 197.517C76.5365 197.638 76.424 197.924 76.5209 198.179C76.6389 198.488 77.0098 198.614 77.2988 198.452C78.0209 198.047 78.9533 197.596 79.2214 197.73C79.4637 197.851 79.5948 198.459 79.6572 199.004C79.6999 199.377 79.4802 199.723 79.1384 199.878L77.5719 200.59C77.2387 200.742 77.0957 201.138 77.2554 201.468C77.3939 201.753 77.7182 201.897 78.0231 201.809L80.2474 201.163C80.516 201.58 81.7632 203.051 83.7843 203.37C86.8718 203.858 89.1028 205.95 88.6242 207.173C88.1455 208.396 78.3948 207.918 76.4446 207.918C73.9692 207.918 70.8087 203.96 69.5094 202.383C68.1177 200.694 62.3061 194.887 59.2922 191.989C62.0791 187.968 64.9033 186.608 65.967 186.431C65.967 188.824 66.685 192.494 70.674 193.797Z" fill="white"/>
<path d="M56.0327 195.419C55.7983 194.752 57.5877 193.339 58.5117 192.715C60.3146 194.387 64.6731 198.981 68.315 203.37C71.9569 207.76 73.3632 208.896 76.3499 209.347C83.7334 209.816 87.847 209.152 88.9809 208.761C89.1837 212.84 81.634 212.389 79.0198 212.322C76.4056 212.254 73.7913 211.465 69.8925 208.761C65.9937 206.057 56.3256 196.253 56.0327 195.419Z" fill="white"/>
<path d="M142.216 198.094C146.819 196.921 147.823 193.353 147.75 191.716C149.138 192.017 150.633 192.794 151.568 193.366C151.933 193.59 152.06 194.051 151.887 194.444L151.321 195.727C151.186 196.032 151.3 196.39 151.586 196.561C151.911 196.757 152.334 196.638 152.511 196.303L153.276 194.853C153.456 194.513 153.855 194.295 154.184 194.494C155.204 195.111 154.455 196.662 154.201 197.361C153.908 198.167 154.604 198.35 155.19 198.35C155.659 198.35 156.119 196.347 156.29 195.345C157.492 196.312 161.726 196.359 163.693 196.261C164.83 196.334 167.029 196.855 166.735 198.35C166.369 200.219 159.552 202.199 157.389 202.455C155.659 202.66 142.252 202.98 135.765 203.115C135.179 199.714 136.01 196.957 136.498 196.004C138.492 198.204 141.141 198.313 142.216 198.094Z" fill="white"/>
<path d="M156.907 204.009C161.431 203.463 165.703 201.03 167.274 199.882C167.897 201.107 167.534 202.108 167.274 202.455C162.691 207.55 141.438 208.461 138.059 207.941C135.355 207.525 135.524 205.341 135.947 204.302C136.791 204.594 151.253 204.691 156.907 204.009Z" fill="white"/>
<path d="M226.516 54.9295C226.516 52.4344 228.538 50.4117 231.033 50.4117H256.042C258.537 50.4117 260.559 52.4344 260.559 54.9295V93.6979C260.559 96.193 258.537 98.2157 256.042 98.2157H231.033C228.538 98.2157 226.516 96.193 226.516 93.6979V54.9295Z" fill="#282828"/>
<path d="M228.783 55.7008C228.783 54.0768 230.132 52.7603 231.795 52.7603H255.28C256.944 52.7603 258.292 54.0768 258.292 55.7008V92.9586C258.292 94.5826 256.944 95.8991 255.28 95.8991H231.795C230.132 95.8991 228.783 94.5826 228.783 92.9586V55.7008Z" fill="white"/>
<path d="M232.032 84.4027C232.032 83.1551 233.044 82.1438 234.291 82.1438H252.784C254.032 82.1438 255.043 83.1551 255.043 84.4027V90.2871C255.043 91.5347 254.032 92.546 252.784 92.546H234.291C233.044 92.546 232.032 91.5347 232.032 90.2871V84.4027Z" fill="#30D065"/>
<path d="M232.032 71.3713C232.032 70.1238 233.044 69.1124 234.291 69.1124H252.784C254.032 69.1124 255.043 70.1238 255.043 71.3713V77.2558C255.043 78.5033 254.032 79.5147 252.784 79.5147H234.291C233.044 79.5147 232.032 78.5033 232.032 77.2558V71.3713Z" fill="#30D065"/>
<path d="M232.032 58.3401C232.032 57.0925 233.044 56.0812 234.291 56.0812H252.784C254.032 56.0812 255.043 57.0925 255.043 58.3401V64.2245C255.043 65.4721 254.032 66.4834 252.784 66.4834H234.291C233.044 66.4834 232.032 65.4721 232.032 64.2245V58.3401Z" fill="#30D065"/>
<path d="M235.47 48.4247C235.47 46.3455 237.155 44.6599 239.235 44.6599H247.84C249.92 44.6599 251.605 46.3455 251.605 48.4247V50.6788H235.47V48.4247Z" fill="#282828"/>
<path d="M237.695 48.7058C237.695 47.8741 238.369 47.1998 239.201 47.1998H247.874C248.706 47.1998 249.38 47.8741 249.38 48.7058V50.6787H237.695V48.7058Z" fill="white"/>
<path d="M218.238 34.069C217.783 33.6132 217.783 32.8741 218.238 32.4183C218.694 31.9625 219.433 31.9625 219.889 32.4183L228.44 40.9692C228.896 41.425 228.896 42.1641 228.44 42.6199C227.984 43.0757 227.245 43.0757 226.789 42.6199L218.238 34.069Z" fill="#30D065"/>
<path d="M269.935 33.7724C270.391 33.3166 270.391 32.5775 269.935 32.1217C269.48 31.6659 268.741 31.6659 268.285 32.1217L259.734 40.6726C259.278 41.1284 259.278 41.8675 259.734 42.3233C260.19 42.7791 260.929 42.7791 261.385 42.3233L269.935 33.7724Z" fill="#30D065"/>
<path d="M242.37 36.7284C242.37 37.373 242.893 37.8956 243.537 37.8956C244.182 37.8956 244.704 37.373 244.704 36.7284V24.6356C244.704 23.991 244.182 23.4684 243.537 23.4684C242.893 23.4684 242.37 23.991 242.37 24.6356V36.7284Z" fill="#30D065"/>
</svg>
