<svg width="328" height="252" viewBox="0 0 328 252" fill="none" xmlns="http://www.w3.org/2000/svg">
<path d="M258.51 55.9997C266.823 56.5449 276.633 53.0474 283.918 49.5282C287.439 47.8279 291.849 50.2977 291.849 54.2069C291.849 56.0642 290.803 57.7725 289.132 58.5827C273.217 66.2993 263.33 67.7887 252.336 66.619C243.05 65.6312 230.521 59.1279 225.417 55.9997L198.745 50.8135C189.608 48.3439 183.681 48.8379 181.458 48.097C180.244 47.6922 178.988 47.3561 178.988 41.1821C178.988 36.2429 181.952 34.6788 183.434 34.5142C193.114 36.0947 216.938 42.5815 227.639 45.6274C232.908 48.7555 246.458 55.2094 258.51 55.9997Z" fill="#282828"/>
<path d="M185.406 42.0952C184.991 44.9292 183.552 47.0652 182.192 46.8661C180.832 46.667 180.066 44.2081 180.481 41.3741C180.896 38.5401 182.335 36.4041 183.695 36.6032C185.055 36.8023 185.821 39.2612 185.406 42.0952Z" fill="white"/>
<rect x="176.272" y="37.2307" width="7.90273" height="7.30432" rx="3" transform="rotate(8.23987 176.272 37.2307)" fill="#282828"/>
<path d="M177.683 39.201C177.722 38.9311 177.973 38.7439 178.243 38.783L181.854 39.306C182.124 39.345 182.311 39.5956 182.272 39.8656L181.8 43.1293C181.761 43.3993 181.51 43.5865 181.24 43.5474L177.629 43.0244C177.359 42.9853 177.172 42.7348 177.211 42.4648L177.683 39.201Z" fill="white"/>
<path d="M69.3396 56.2468C61.026 56.7919 51.2161 53.2945 43.9307 49.7753C40.4106 48.0749 35.9999 50.5448 35.9999 54.454C35.9999 56.3112 37.0459 58.0195 38.7171 58.8298C54.6322 66.5464 64.5189 68.0357 75.5136 66.8661C84.7993 65.8782 97.3284 59.375 102.432 56.2468L129.104 51.0606C138.242 48.591 144.169 49.0849 146.391 48.3441C147.605 47.9393 148.861 47.6032 148.861 41.4292C148.861 36.49 145.897 34.9259 144.416 34.7612C134.735 36.3418 110.911 42.8286 100.21 45.8744C94.9411 49.0026 81.3912 55.4565 69.3396 56.2468Z" fill="#282828"/>
<path d="M142.443 42.3428C142.858 45.1768 144.297 47.3128 145.657 47.1137C147.017 46.9145 147.783 44.4557 147.368 41.6217C146.953 38.7876 145.514 36.6516 144.154 36.8508C142.794 37.0499 142.028 39.5087 142.443 42.3428Z" fill="white"/>
<rect width="7.90273" height="7.30432" rx="3" transform="matrix(-0.989677 0.143318 0.143318 0.989677 151.577 37.4778)" fill="#282828"/>
<path d="M150.166 39.4483C150.127 39.1784 149.876 38.9912 149.606 39.0303L145.995 39.5533C145.725 39.5924 145.538 39.8429 145.577 40.1129L146.049 43.3767C146.089 43.6466 146.339 43.8338 146.609 43.7947L150.22 43.2717C150.49 43.2326 150.677 42.9821 150.638 42.7121L150.166 39.4483Z" fill="white"/>
<path d="M158.738 67.1129C165.06 66.5202 171.086 70.3234 173.309 72.2991C177.013 69.8295 184.422 71.5582 186.892 76.9913C188.867 81.3378 193.477 83.4123 195.535 83.9062C193.757 84.4989 191.996 84.4824 191.337 84.4001C199.832 92.5004 195.865 103.581 192.819 108.108C193.56 108.355 198.005 115.27 193.56 121.691C190.003 126.828 187.633 126.136 186.892 125.149C186.299 132.064 182.529 136.92 180.718 138.484V149.598C198.301 156.315 222.125 139.555 231.838 130.335C226.652 117.164 216.28 90.7223 216.28 90.3272C216.28 89.932 218.091 89.1747 218.997 88.8454L210.847 69.3355C202.944 63.6554 196.77 57.9753 196.77 53.5301C196.77 49.9738 201.627 45.792 203.932 44.3925C203.685 41.429 200.968 38.9594 200.968 38.2185C200.968 37.6258 201.298 35.9959 201.462 35.255C202.648 31.3036 206.731 32.95 208.624 34.2671C212.576 32.489 214.716 33.6909 215.292 34.5141C218.848 32.9336 221.548 35.1727 222.454 36.4898C222.289 35.9135 222.701 35.008 225.664 35.9959C229.369 37.2307 231.838 43.1577 230.851 47.85C230.06 51.6038 227.393 52.3776 226.158 52.2952L226.652 55.5057L231.345 57.9753C232.728 59.5559 231.098 63.7378 230.11 65.6311L238.506 82.1775C239.083 81.7659 240.531 81.0908 241.717 81.6835C243.199 82.4244 256.288 111.072 262.956 125.149C268.29 136.41 263.696 144.823 260.733 147.622C250.854 160.859 226.158 181.785 215.045 190.593V231.095C213.069 237.763 121.941 240.479 114.779 231.095C113.932 229.984 114.038 203.682 114.285 190.593C80.2048 163.921 66.128 145.893 63.9054 139.225C62.1272 133.891 65.9634 124.655 68.1037 120.703C74.2777 107.861 86.7245 82.0787 87.1196 81.6835C87.5148 81.2884 89.4246 81.8482 90.3301 82.1775C93.2937 76.6455 97.492 68.3477 99.2207 64.8902C97.4426 62.5194 97.492 59.4571 97.7389 58.2223C103.073 55.6539 103.584 53.3654 103.172 52.5422C98.8256 52.3446 98.0682 48.1792 98.2329 46.1212C98.1505 45.3804 98.4304 42.9602 100.209 39.2063C101.987 35.4525 105.559 35.3373 107.123 35.7489C109.692 33.1805 112.968 33.6909 114.285 34.2672C116.063 32.2915 118.978 33.444 120.212 34.2672C121.99 32.6866 124.081 32.6208 124.905 32.7854C128.066 33.5757 128.527 36.4075 128.362 37.7246C126.88 39.7003 125.399 43.4047 125.645 43.8986C125.892 44.3925 133.301 48.8378 132.807 54.271C132.313 59.7041 118.978 69.5825 118.237 69.8295C117.644 70.027 112.721 82.9184 110.334 89.3393C110.828 89.4217 111.914 89.7345 112.31 90.3272C112.705 90.9199 102.431 117.081 97.245 130.088C123.324 153.401 142.521 152.808 148.86 149.598V139.472C144.908 135.521 142.933 128.277 142.439 125.149C140.266 127.322 137.582 124.572 136.512 122.926C131.77 114.431 134.701 109.343 136.759 107.861C133.993 104.7 132.972 98.8062 132.807 96.2542C132.61 87.3637 138.652 81.025 141.698 78.967C139.525 79.3621 137.994 77.9792 137.5 77.2383C147.131 77.7322 150.835 67.8538 158.738 67.1129Z" fill="#282828"/>
<path d="M173.062 94.5257C177.211 100.848 182.364 101.935 184.422 101.688C184.751 103.005 185.36 106.281 185.163 108.849C184.916 112.06 185.41 113.212 186.645 112.801C187.386 112.554 188.126 108.849 190.349 108.849C192.572 108.849 194.547 113.048 193.56 117.493C192.572 121.938 189.114 124.161 188.126 124.161C187.139 124.161 187.139 122.926 186.645 122.926C186.151 122.926 185.657 122.432 185.41 124.902C185.212 126.878 183.846 130.664 183.187 132.311C181.212 136.591 174.741 145.153 164.665 145.153C152.07 145.153 144.908 132.064 144.167 126.878C143.575 122.729 142.933 122.515 142.686 122.926C141.451 124.902 138.734 124.408 136.512 119.716C134.289 115.023 135.771 109.837 138.487 108.849C140.38 108.161 141.724 110.67 142.256 112.363C142.374 112.738 142.749 112.986 143.135 112.909C143.453 112.845 143.688 112.572 143.711 112.248C144.316 103.607 145.498 101.113 146.143 101.194C151.24 100.536 153.954 94.8161 155.053 90.6376C155.111 89.9041 155.264 89.1418 155.528 88.3517C155.431 89.0149 155.275 89.7949 155.053 90.6376C154.545 97.0568 161.317 101.272 165.159 102.675C162.393 100.897 163.348 93.7025 164.171 90.3274C165.159 100.206 172.65 102.675 176.272 102.675C172.519 100.107 172.568 96.1721 173.062 94.5257Z" fill="white"/>
<path d="M164.665 149.845C171.58 150.042 177.26 145.153 179.236 142.683V151.327C179.236 157.501 171.58 160.958 164.665 160.958C152.021 159.773 149.518 153.22 149.848 150.092L150.095 142.683C152.07 144.988 157.75 149.647 164.665 149.845Z" fill="white"/>
<path d="M228.381 65.3844L237.025 82.6716C231.69 84.0546 223.689 87.0346 220.478 88.3517C220.281 87.759 215.127 74.6866 212.576 68.3479C208.13 65.6313 202.45 59.9512 200.474 57.7286C198.499 55.506 198.005 54.0242 198.746 51.8016C199.338 50.0234 205.167 45.2983 207.883 43.1579C208.377 43.3226 209.414 44.294 208.624 46.8623C207.788 49.5789 204.92 50.8137 205.167 52.0485C205.315 52.7894 207.389 53.113 209.118 53.5303C216.28 55.259 216.527 58.9634 217.268 59.9512C218.009 60.9391 219.243 60.4452 218.996 59.4573C218.807 58.6997 217.268 55.259 214.057 53.5303C211.489 52.1473 208.871 51.4723 207.883 51.3076L209.365 49.3319C210.946 51.9003 214.304 51.7192 215.786 51.3076C218.75 53.0857 221.466 52.2132 222.454 51.5546C222.701 52.5424 223.442 52.5424 224.183 52.7894C224.924 53.0364 224.924 55.259 225.17 55.9999C225.368 56.5926 228.546 58.2225 230.11 58.9634C230.702 61.3342 229.204 64.2319 228.381 65.3844Z" fill="white"/>
<path d="M228.875 43.6518C227.887 38.2186 224.841 37.0662 222.948 37.2309C225.714 43.3555 224.594 48.5087 223.689 50.3198C226.899 51.3076 230.071 50.2301 228.875 43.6518Z" fill="white"/>
<path d="M220.725 37.2309C219.145 35.0577 216.938 35.3375 216.033 35.7491C216.362 36.3253 217.795 38.653 218.503 42.664C219.243 46.8623 218.009 49.3319 217.268 50.3198C219.243 51.3076 220.808 50.7314 221.219 50.3198C224.183 47.1093 222.701 39.9474 220.725 37.2309Z" fill="white"/>
<path d="M213.316 35.0082C211.143 34.6131 210.106 35.3375 209.859 35.7491C209.859 36.0783 210.847 37.4778 211.835 40.9352C212.854 44.5044 211.999 47.6032 211.094 48.838C212.576 50.0728 214.798 50.5667 216.28 48.591C217.947 46.3684 216.033 35.5021 213.316 35.0082Z" fill="white"/>
<path d="M205.908 34.5143C208.871 34.7118 210.435 41.3468 210.847 44.6396C210.6 43.8164 209.76 42.0218 208.377 41.4291C206.994 40.8364 205.496 42.17 204.92 42.9109C204.129 40.3425 202.944 39.0419 202.45 38.7126C202.368 37.2308 202.944 34.3167 205.908 34.5143Z" fill="white"/>
<path d="M121.447 50.3197L122.435 51.5545C117.743 51.8015 116.014 53.0979 113.544 55.2589C111.569 56.9876 110.828 58.7987 111.075 59.7042C111.322 60.6097 112.31 60.4451 112.557 59.7042C114.285 55.7528 117.249 54.765 119.718 53.7771C122.188 52.7893 124.411 53.0363 124.658 52.5423C124.905 52.0484 124.658 51.5545 122.435 48.8379C120.657 46.6647 121.694 43.9811 122.435 42.9109L128.362 48.8379C130.091 50.5667 132.066 52.2954 130.585 55.7528C129.103 59.2103 117.249 68.8417 116.755 69.0887C116.36 69.2863 111.157 82.3422 108.605 88.8455C100.505 85.0917 93.8699 83.1654 91.5649 82.6715L101.196 65.3843C99.7146 63.6556 99.303 60.6097 99.4676 58.7164C104.209 57.5309 105.065 53.9418 104.901 52.2954C106.086 52.2954 106.383 51.4722 106.383 51.0606C109.939 53.4314 112.639 52.0484 113.544 51.0606C116.508 52.246 118.731 51.0606 119.471 50.3197C120.262 50.9124 121.118 50.5667 121.447 50.3197Z" fill="white"/>
<path d="M123.423 34.2673C125.991 33.6746 126.798 36.4899 126.88 37.9717C125.497 38.7619 124.822 41.2645 124.411 42.417C123.818 41.2316 122.188 41.2645 121.694 41.4292C119.323 42.0219 119.883 46.6153 120.459 48.8379C116.014 45.6274 120.212 35.0082 123.423 34.2673Z" fill="white"/>
<path d="M115.767 34.7612C116.755 34.1685 118.648 35.0082 119.471 35.5021C115.52 43.8 117.002 48.1794 118.237 49.3319C117.743 49.9905 116.014 50.8137 113.791 49.3319C110.421 47.0851 114.532 35.5021 115.767 34.7612Z" fill="white"/>
<path d="M107.617 38.7126C109 34.9588 112.145 35.1728 113.544 35.7491C109 44.4421 110.828 48.9203 112.31 50.0728C112.112 50.6655 110.416 50.8137 109.593 50.8137C105.642 50.5667 105.889 43.4049 107.617 38.7126Z" fill="white"/>
<path d="M99.9616 45.8745C100.357 38.5644 104.407 37.0662 106.383 37.2308C103.221 43.553 104.571 48.5087 105.642 50.0728C101.69 52.0485 99.8793 48.1794 99.9616 45.8745Z" fill="white"/>
<path d="M218.503 91.0683C224.628 87.9072 235.708 84.4826 240.483 83.1655L260.98 124.902C262.792 127.783 265.327 135.719 260.98 144.412C256.634 153.105 228.546 177.34 215.046 188.371V176.275C215.046 175.863 214.712 175.529 214.3 175.529C213.892 175.529 213.56 175.857 213.554 176.265L212.823 230.848C206.32 232.412 186.25 235.441 157.998 235.046C129.746 234.651 118.402 231.589 116.262 230.107L115.534 176.51C115.527 175.966 115.084 175.529 114.54 175.529C113.99 175.529 113.545 175.974 113.545 176.523V188.371C89.5899 169.355 73.5374 151.821 68.3513 144.165C63.1651 136.509 64.3999 136.015 68.3513 124.408C71.5124 115.122 83.1689 93.2086 88.602 83.4125C94.7266 84.4003 105.642 89.0926 110.335 91.3152C110.532 92.5006 100.374 117.493 95.2699 129.841L87.9489 133.273C87.6223 133.426 87.4719 133.807 87.6058 134.142C87.7464 134.493 88.1468 134.663 88.4969 134.518L96.2578 131.323C100.999 136.657 112.228 143.918 117.249 146.881C131.079 154.784 143.592 153.138 148.119 151.327C147.132 154.043 154.047 163.428 166.888 162.44C177.162 161.65 180.718 154.702 181.212 151.327C199.586 158.044 223.113 140.79 232.58 131.323L239.797 134.706C240.191 134.891 240.661 134.759 240.903 134.397C241.202 133.949 241.032 133.34 240.544 133.111L233.568 129.841L218.503 91.0683Z" fill="#50A3E9"/>
<path d="M164.419 166.638C178.059 166.264 183.055 158.939 184.044 154.734C184.137 154.339 184.476 154.043 184.881 154.043C185.405 154.043 185.793 154.526 185.641 155.027C184.429 159.041 179.996 168.141 164.419 168.367C151.497 168.554 145.395 160.176 143.672 155.306C143.527 154.898 143.8 154.475 144.227 154.404C144.609 154.34 144.973 154.59 145.075 154.964C147.622 164.281 158.95 166.638 164.419 166.638Z" fill="#282828"/>
<path d="M171.769 133.368C174.23 131.088 171.769 129.719 170.292 130.176C167.301 131.099 160.444 130.176 158.967 130.176C157.49 130.176 157.49 133.368 160.444 134.28C163.398 135.192 169.307 135.648 171.769 133.368Z" fill="#282828"/>
<path d="M170.461 133.044C172.513 131.675 170.461 130.855 169.23 131.128C166.738 131.682 161.024 131.128 159.793 131.128C158.562 131.128 158.562 133.044 161.024 133.591C163.486 134.138 168.41 134.412 170.461 133.044Z" fill="white"/>
<path d="M142.03 119.088C142.302 116.046 140.343 114.805 138.992 114.42C138.594 114.307 138.241 114.633 138.241 115.048C138.241 115.443 138.574 115.746 138.942 115.892C140.02 116.318 140.431 117.726 140.489 118.865C140.512 119.317 140.863 119.715 141.315 119.715C141.68 119.715 141.997 119.451 142.03 119.088Z" fill="#282828"/>
<path d="M187.659 119.088C187.386 116.046 189.345 114.805 190.697 114.42C191.095 114.307 191.447 114.633 191.447 115.048C191.447 115.443 191.114 115.746 190.746 115.892C189.669 116.318 189.257 117.726 189.199 118.865C189.176 119.317 188.825 119.715 188.373 119.715C188.009 119.715 187.691 119.451 187.659 119.088Z" fill="#282828"/>
<path d="M151.143 106.562C153.109 105.093 156.305 105.276 158.252 105.675C158.643 105.756 158.844 106.178 158.684 106.544C158.556 106.84 158.23 106.996 157.915 106.93C155.039 106.322 153.067 106.928 152.101 107.516C151.817 107.689 151.444 107.712 151.179 107.509C150.863 107.267 150.824 106.8 151.143 106.562Z" fill="#282828"/>
<path d="M177.695 106.068C175.729 104.599 172.533 104.782 170.586 105.181C170.194 105.262 169.994 105.684 170.154 106.05C170.282 106.346 170.608 106.502 170.923 106.436C173.798 105.828 175.771 106.434 176.737 107.022C177.021 107.195 177.394 107.218 177.658 107.015C177.975 106.773 178.014 106.307 177.695 106.068Z" fill="#282828"/>
<path d="M157.01 114.776C157.01 116.413 156.015 117.74 154.787 117.74C153.56 117.74 152.565 116.413 152.565 114.776C152.565 113.139 153.56 111.813 154.787 111.813C156.015 111.813 157.01 113.139 157.01 114.776Z" fill="#282828"/>
<path d="M176.273 114.776C176.273 116.413 175.278 117.74 174.05 117.74C172.823 117.74 171.828 116.413 171.828 114.776C171.828 113.139 172.823 111.813 174.05 111.813C175.278 111.813 176.273 113.139 176.273 114.776Z" fill="#282828"/>
<path d="M162.988 121.932C164.487 122.244 165.78 122.187 166.699 122.024C167.266 121.924 167.876 122.343 167.876 122.918C167.876 123.143 167.784 123.361 167.6 123.489C166.205 124.455 163.914 124.206 162.368 123.811C161.851 123.679 161.583 123.132 161.744 122.624C161.907 122.106 162.456 121.822 162.988 121.932Z" fill="#282828"/>
<path d="M162.538 14.9615L163.604 33.708C163.629 34.1619 164.203 34.3428 164.484 33.9861L166.454 31.4916C166.749 31.1177 167.35 31.337 167.335 31.813L167.156 37.5424C167.146 37.8769 167.464 38.1247 167.785 38.0328L172.924 36.5646C173.344 36.4445 173.702 36.889 173.495 37.2736L170.772 42.33C170.666 42.527 170.706 42.7706 170.869 42.9239L174.071 45.9383C174.368 46.2172 174.218 46.7148 173.817 46.7846L169.507 47.5341C169.276 47.5743 169.106 47.7699 169.097 48.0042C168.912 53.1596 168.136 59.652 167.543 63.8766C167.466 64.4229 166.705 64.4374 166.599 63.8961L164.137 51.3986C164.055 50.9805 163.517 50.8559 163.259 51.1952L160.119 55.3264C159.833 55.7031 159.232 55.5006 159.232 55.0275V48.1489C159.232 47.8567 158.98 47.6284 158.689 47.6575L153.099 48.2165C152.649 48.2615 152.38 47.7288 152.683 47.3937L156.242 43.4598C156.401 43.2845 156.413 43.0213 156.271 42.8321L153.404 39.0089C153.16 38.6833 153.392 38.2187 153.799 38.2187H157.798C158.051 38.2187 158.264 38.0221 158.29 37.7699C159.546 25.5265 160.979 18.0368 161.878 14.8593C162.013 14.3844 162.51 14.4688 162.538 14.9615Z" fill="#282828"/>
<path d="M159.232 39.9474C160.714 39.4535 161.455 22.9071 161.702 22.6602C161.949 27.6817 162.64 37.7741 163.43 37.9717C164.221 38.1693 165.571 35.0905 166.147 33.5264C165.982 35.5021 165.752 39.5523 166.147 39.9474C166.542 40.3425 169.769 39.1242 171.333 38.4656C170.428 39.4535 168.567 41.6267 168.37 42.417C168.172 43.2073 170.592 45.2159 171.827 46.1214H167.876C167.283 46.1214 166.806 54.0241 166.641 57.9755C166.147 54.765 165.011 48.2947 164.418 48.0971C163.826 47.8995 161.702 50.8136 160.714 52.2954C160.796 50.402 160.911 46.5165 160.714 46.1214C160.516 45.7263 157.009 46.286 155.281 46.6153C156.269 45.7921 158.392 44.0469 158.985 43.6518C159.578 43.2567 157.256 41.0176 156.022 39.9474C156.598 40.112 158.047 40.3425 159.232 39.9474Z" fill="white"/>
<path d="M149.537 23.2335L155.318 30.9413C155.573 31.2809 155.512 31.7614 155.18 32.0266C154.831 32.3058 154.32 32.2381 154.056 31.8776L149.536 25.7144C149.33 25.4336 148.906 25.4483 148.72 25.7427L146.894 28.6347C146.529 29.2128 145.701 29.254 145.28 28.7149L138.615 20.1753C138.396 19.8947 138.398 19.5004 138.62 19.2225C138.931 18.8346 139.522 18.8386 139.827 19.2307L145.712 26.7971C145.922 27.0673 146.337 27.047 146.519 26.7577L148.725 23.2661C148.909 22.9736 149.33 22.9567 149.537 23.2335Z" fill="#282828"/>
<path d="M147.068 62.3413L152.849 54.6335C153.103 54.2939 153.042 53.8134 152.711 53.5483C152.362 53.2691 151.851 53.3368 151.586 53.6972L147.067 59.8604C146.861 60.1412 146.437 60.1265 146.251 59.8321L144.424 56.9402C144.059 56.362 143.231 56.3208 142.81 56.8599L136.145 65.3996C135.926 65.6801 135.928 66.0744 136.151 66.3524C136.461 66.7403 137.052 66.7362 137.357 66.3441L143.242 58.7777C143.453 58.5075 143.867 58.5278 144.05 58.8172L146.255 62.3087C146.44 62.6012 146.86 62.6181 147.068 62.3413Z" fill="#282828"/>
<path d="M177.078 23.2335L171.297 30.9413C171.042 31.2809 171.103 31.7614 171.435 32.0266C171.784 32.3058 172.295 32.2381 172.559 31.8776L177.079 25.7144C177.285 25.4336 177.709 25.4483 177.895 25.7427L179.721 28.6347C180.087 29.2128 180.915 29.254 181.335 28.7149L188 20.1753C188.219 19.8947 188.217 19.5004 187.995 19.2225C187.684 18.8346 187.093 18.8386 186.788 19.2307L180.903 26.7971C180.693 27.0673 180.278 27.047 180.096 26.7577L177.891 23.2661C177.706 22.9736 177.285 22.9567 177.078 23.2335Z" fill="#282828"/>
<path d="M179.547 62.3413L173.767 54.6335C173.512 54.2939 173.573 53.8134 173.904 53.5483C174.253 53.2691 174.765 53.3368 175.029 53.6972L179.549 59.8604C179.755 60.1412 180.179 60.1265 180.365 59.8321L182.191 56.9402C182.556 56.362 183.384 56.3208 183.805 56.8599L190.47 65.3996C190.689 65.6801 190.687 66.0744 190.464 66.3524C190.154 66.7403 189.563 66.7362 189.258 66.3441L183.373 58.7777C183.163 58.5075 182.748 58.5278 182.565 58.8172L180.36 62.3087C180.175 62.6012 179.755 62.6181 179.547 62.3413Z" fill="#282828"/>
</svg>
