<svg width="200" height="201" viewBox="0 0 200 201" fill="none" xmlns="http://www.w3.org/2000/svg">
<circle cx="192" cy="99.9854" r="8" transform="rotate(90 192 99.9854)" fill="#30D065"/>
<circle cx="189.699" cy="120.585" r="8" transform="rotate(102.767 189.699 120.585)" fill="#30D065"/>
<circle cx="182.888" cy="140.022" r="8" transform="rotate(115.7 182.888 140.022)" fill="#30D065"/>
<circle cx="171.899" cy="157.453" r="8" transform="rotate(128.541 171.899 157.453)" fill="#30D065"/>
<circle cx="157.33" cy="172.003" r="8" transform="rotate(141.25 157.33 172.003)" fill="#30D065"/>
<circle cx="139.867" cy="182.975" r="8" transform="rotate(154.087 139.867 182.975)" fill="#30D065"/>
<circle cx="120.403" cy="189.764" r="8" transform="rotate(167.015 120.403 189.764)" fill="#30D065"/>
<circle cx="99.5602" cy="192.027" r="8" transform="rotate(-179.779 99.5602 192.027)" fill="#30D065"/>
<circle cx="79.1037" cy="189.637" r="8" transform="rotate(-167.015 79.1037 189.637)" fill="#30D065"/>
<circle cx="59.7008" cy="182.739" r="8" transform="rotate(-154.087 59.7008 182.739)" fill="#30D065"/>
<circle cx="42.3405" cy="171.69" r="8" transform="rotate(-141.25 42.3405 171.69)" fill="#30D065"/>
<circle cx="27.886" cy="157.108" r="8" transform="rotate(-128.541 27.886 157.108)" fill="#30D065"/>
<circle cx="17.0107" cy="139.686" r="8" transform="rotate(-115.7 17.0107 139.686)" fill="#F2F2F3"/>
<circle cx="10.2922" cy="120.297" r="8" transform="rotate(-102.767 10.2922 120.297)" fill="#F2F2F3"/>
<circle cx="8.06152" cy="99.2241" r="8" transform="rotate(-89.5577 8.06152 99.2241)" fill="#F2F2F3"/>
<circle cx="10.5083" cy="78.8834" r="8" transform="rotate(-76.797 10.5083 78.8834)" fill="#F2F2F3"/>
<circle cx="17.4261" cy="59.5647" r="8" transform="rotate(-63.8741 17.4261 59.5647)" fill="#F2F2F3"/>
<circle cx="28.4813" cy="42.2652" r="8" transform="rotate(-51.0418 28.4813 42.2652)" fill="#F2F2F3"/>
<circle cx="42.9442" cy="27.9406" r="8" transform="rotate(-38.332 42.9442 27.9406)" fill="#F2F2F3"/>
<circle cx="60.3534" cy="17.0582" r="8" transform="rotate(-25.4876 60.3534 17.0582)" fill="#F2F2F3"/>
<circle cx="79.7618" cy="10.3237" r="8" transform="rotate(-12.5483 79.7618 10.3237)" fill="#F2F2F3"/>
<circle cx="101.221" cy="8.0921" r="8" transform="rotate(0.663504 101.221 8.0921)" fill="#30D065"/>
<circle cx="121.462" cy="10.5944" r="8" transform="rotate(13.4211 121.462 10.5944)" fill="#30D065"/>
<circle cx="140.751" cy="17.5685" r="8" transform="rotate(26.3384 140.751 17.5685)" fill="#30D065"/>
<circle cx="158.05" cy="28.6897" r="8" transform="rotate(39.1669 158.05 28.6897)" fill="#30D065"/>
<circle cx="172.374" cy="43.2587" r="8" transform="rotate(51.8768 172.374 43.2587)" fill="#30D065"/>
<circle cx="183.23" cy="60.808" r="8" transform="rotate(64.7253 183.23 60.808)" fill="#30D065"/>
<circle cx="189.887" cy="80.3627" r="8" transform="rotate(77.6702 189.887 80.3627)" fill="#30D065"/>
</svg>
