<svg width="24" height="24" viewBox="0 0 24 24" fill="none" xmlns="http://www.w3.org/2000/svg">
<path d="M18.9543 10.7778V7.9258C18.9543 4.10647 15.835 1 11.9999 1C8.16476 1 5.04545 4.10647 5.04545 7.9258V10.7778C3.91738 10.7778 3 11.6914 3 12.8148V20.963C3 22.0864 3.91738 23 5.04545 23H18.9545C20.0826 23 21 22.0864 21 20.963V12.8148C21 11.6914 20.0826 10.7778 18.9545 10.7778H18.9543ZM13.403 20.1483H10.5976L11.0691 17.0989C10.5106 16.7771 10.1302 16.1823 10.1302 15.4927C10.1302 14.464 10.9678 13.6309 11.9997 13.6309C13.0327 13.6309 13.8693 14.465 13.8693 15.4927C13.8693 16.1812 13.4888 16.776 12.9304 17.0989L13.4019 20.1483H13.403ZM16.0908 10.7778H7.90896V7.9258C7.90896 5.67894 9.74373 3.85172 11.9999 3.85172C14.256 3.85172 16.0908 5.67894 16.0908 7.9258V10.7778Z" fill="#9C9DA2"/>
</svg>
