<svg width="32" height="32" viewBox="0 0 32 32" fill="none" xmlns="http://www.w3.org/2000/svg">
<path d="M24.7546 12.1591H23.7856V8.47179C23.7856 4.06748 20.567 0.619141 15.9641 0.619141C11.3612 0.619141 8.21181 4.13576 8.21181 8.47179V12.125C8.21181 12.1591 8.21181 12.1591 8.21181 12.125H7.24278C5.09706 12.125 3.36664 13.8321 3.33203 15.983V27.523C3.33203 29.6398 5.06245 31.3469 7.24278 31.381H24.7546C26.9003 31.381 28.6308 29.6739 28.6654 27.523V15.983C28.6654 13.8662 26.9003 12.1591 24.7546 12.1591ZM10.1499 12.1591V8.47179C10.1499 5.19416 12.434 2.53109 15.9641 2.53109C19.4595 2.53109 21.8475 5.12588 21.8475 8.47179V12.125C21.8475 12.1591 21.8475 12.1591 21.8475 12.125H10.1499C10.1499 12.1591 10.1499 12.1591 10.1499 12.1591ZM26.6927 27.523C26.6927 28.5814 25.8275 29.435 24.7546 29.435H7.24278C6.16992 29.435 5.30471 28.5814 5.30471 27.523V15.983C5.30471 14.9246 6.16992 14.0711 7.24278 14.0711H24.7546C25.8275 14.0711 26.6927 14.9246 26.6927 15.983V27.523ZM17.9368 19.8411C17.9368 20.558 17.5561 21.1726 16.9677 21.514V24.6551C16.9677 25.2014 16.5178 25.6111 15.9987 25.6111C15.445 25.6111 15.0297 25.1672 15.0297 24.6551V21.514C14.4413 21.1726 14.0606 20.558 14.0606 19.8411C14.0606 18.7827 14.9258 17.9291 15.9987 17.9291C17.0716 17.895 17.9368 18.7485 17.9368 19.8411Z" fill="white"/>
</svg>
