<svg width="24" height="24" viewBox="0 0 24 24" fill="none" xmlns="http://www.w3.org/2000/svg">
<path d="M18.5669 9.12819H17.8402V6.37125C17.8402 3.07825 15.4262 0.5 11.974 0.5C8.52186 0.5 6.15984 3.1293 6.15984 6.37125V9.10266C6.15984 9.12819 6.15984 9.12819 6.15984 9.10266H5.43306C3.82377 9.10266 2.52596 10.379 2.5 11.9872V20.6154C2.5 22.1981 3.79781 23.4745 5.43306 23.5H18.5669C20.1762 23.5 21.474 22.2236 21.5 20.6154V11.9872C21.5 10.4046 20.1762 9.12819 18.5669 9.12819ZM7.61339 9.12819V6.37125C7.61339 3.92064 9.3265 1.92952 11.974 1.92952C14.5956 1.92952 16.3866 3.86959 16.3866 6.37125V9.10266C16.3866 9.12819 16.3866 9.12819 16.3866 9.10266H7.61339C7.61339 9.12819 7.61339 9.12819 7.61339 9.12819ZM20.0205 20.6154C20.0205 21.4068 19.3716 22.045 18.5669 22.045H5.43306C4.62842 22.045 3.97951 21.4068 3.97951 20.6154V11.9872C3.97951 11.1959 4.62842 10.5577 5.43306 10.5577H18.5669C19.3716 10.5577 20.0205 11.1959 20.0205 11.9872V20.6154ZM13.4536 14.8718C13.4536 15.4079 13.168 15.8674 12.7268 16.1226V18.4711C12.7268 18.8796 12.3893 19.1859 12 19.1859C11.5847 19.1859 11.2732 18.8541 11.2732 18.4711V16.1226C10.832 15.8674 10.5464 15.4079 10.5464 14.8718C10.5464 14.0805 11.1954 13.4423 12 13.4423C12.8046 13.4168 13.4536 14.0549 13.4536 14.8718Z" fill="#282828"/>
</svg>
