<svg width="32" height="32" viewBox="0 0 32 32" fill="none" xmlns="http://www.w3.org/2000/svg">
<path d="M25.2724 14.3643V10.546C25.2724 5.43251 21.1133 1.27344 15.9998 1.27344C10.8863 1.27344 6.72727 5.43251 6.72727 10.546V14.3643C5.22318 14.3643 4 15.5875 4 17.0916V28.0007C4 29.5048 5.22318 30.728 6.72727 30.728H25.2727C26.7768 30.728 28 29.5048 28 28.0007V17.0916C28 15.5875 26.7768 14.3643 25.2727 14.3643H25.2724ZM17.8706 26.91H14.1301L14.7587 22.8274C14.0142 22.3964 13.5069 21.6001 13.5069 20.6769C13.5069 19.2996 14.6237 18.1842 15.9997 18.1842C17.3769 18.1842 18.4924 19.301 18.4924 20.6769C18.4924 21.5987 17.9851 22.3951 17.2406 22.8274L17.8692 26.91H17.8706ZM21.4544 14.3643H10.5453V10.546C10.5453 7.5378 12.9916 5.09144 15.9998 5.09144C19.008 5.09144 21.4544 7.5378 21.4544 10.546V14.3643Z" fill="#FFFDFB"/>
</svg>
