<svg width="24" height="24" viewBox="0 0 24 24" fill="none" xmlns="http://www.w3.org/2000/svg">
<path d="M9.05761 22.9982C7.00451 22.9982 4.95142 22.2152 3.38952 20.6529C1.87556 19.1385 1.04102 17.1255 1.04102 14.9834C1.04102 12.8413 1.87554 10.8282 3.38952 9.31392C4.90351 7.79964 6.91601 6.96484 9.05761 6.96484C11.1992 6.96484 13.2118 7.79957 14.7257 9.31392C16.2396 10.8283 17.0742 12.8413 17.0742 14.9834C17.0742 17.1255 16.2397 19.1386 14.7257 20.6529C13.1637 22.2152 11.1106 22.9982 9.05761 22.9982ZM9.05761 8.44211C7.31101 8.44211 5.66773 9.12172 4.43457 10.3591C3.19753 11.5927 2.51809 13.2363 2.51809 14.9832C2.51809 16.7301 3.19753 18.3739 4.43457 19.6074C6.9862 22.1559 11.133 22.1559 13.6847 19.6074C14.918 18.3737 15.6012 16.7301 15.6012 14.9832C15.6012 13.2363 14.9217 11.5925 13.6847 10.3591C12.4476 9.12559 10.8041 8.44211 9.05761 8.44211Z" fill="#50A3E9"/>
<path d="M14.3975 10.4925C14.1596 10.4925 13.9217 10.3992 13.7397 10.2173C13.3758 9.85336 13.3758 9.26088 13.7397 8.89697L21.3676 1.27391C21.7315 0.909999 22.3239 0.909999 22.6879 1.27391C23.0518 1.63782 23.0518 2.23029 22.6879 2.5942L15.0555 10.222C14.8736 10.404 14.6355 10.4925 14.3975 10.4925Z" fill="#50A3E9"/>
<path d="M22.0264 9.53566C21.5132 9.53566 21.0934 9.1158 21.0934 8.6026V2.86418H15.3549C14.8417 2.86418 14.4219 2.44431 14.4219 1.93111C14.4219 1.41791 14.8417 0.998047 15.3549 0.998047H22.0264C22.5396 0.998047 22.9595 1.41791 22.9595 1.93111V8.6026C22.9595 9.12046 22.5396 9.53566 22.0264 9.53566Z" fill="#50A3E9"/>
</svg>
