<svg width="26" height="18" viewBox="0 0 26 18" fill="none" xmlns="http://www.w3.org/2000/svg">
<path d="M16.5113 2.6582H9.48047V15.3429H16.5113V2.6582Z" fill="#7673C0"/>
<path d="M9.92954 8.99991C9.92862 7.77807 10.2046 6.57204 10.7367 5.47315C11.2687 4.37427 12.0429 3.41133 13.0005 2.65729C11.8151 1.7219 10.3916 1.1402 8.89251 0.978682C7.39345 0.81716 5.87936 1.08233 4.5233 1.74389C3.16725 2.40545 2.02394 3.4367 1.22406 4.71977C0.424182 6.00285 0 7.48597 0 8.99964C0 10.5133 0.424182 11.9964 1.22406 13.2795C2.02394 14.5626 3.16725 15.5938 4.5233 16.2554C5.87936 16.9169 7.39345 17.1821 8.89251 17.0206C10.3916 16.8591 11.8151 16.2774 13.0005 15.342C12.043 14.588 11.2689 13.6252 10.7368 12.5264C10.2048 11.4276 9.9287 10.2217 9.92954 8.99991Z" fill="#EB001B"/>
<path d="M26.0003 9.00022C26.0004 10.5139 25.5762 11.997 24.7764 13.2801C23.9765 14.5632 22.8332 15.5945 21.4772 16.256C20.1211 16.9176 18.6071 17.1828 17.108 17.0213C15.6089 16.8599 14.1854 16.2782 13 15.3428C13.9564 14.5879 14.7295 13.6247 15.2612 12.5261C15.7928 11.4274 16.069 10.2219 16.069 9.00049C16.069 7.77905 15.7928 6.57354 15.2612 5.47489C14.7295 4.37624 13.9564 3.41311 13 2.65814C14.1853 1.72281 15.6088 1.14116 17.1079 0.979653C18.6069 0.818147 20.1209 1.08331 21.4769 1.74482C22.833 2.40634 23.9762 3.43753 24.7761 4.72054C25.576 6.00355 26.0003 7.48661 26.0003 9.00022Z" fill="#00A1DF"/>
</svg>
