<svg width="26" height="18" viewBox="0 0 26 18" fill="none" xmlns="http://www.w3.org/2000/svg">
<path d="M16.9022 2.66309H9.16016V15.3356H16.9022V2.66309Z" fill="#FF5F00"/>
<path d="M9.9396 8.99963C9.93987 7.78053 10.215 6.57729 10.7443 5.48C11.2736 4.38271 12.0434 3.41981 12.9961 2.66339C11.8113 1.72856 10.3883 1.14713 8.88977 0.985573C7.39123 0.824013 5.87763 1.08884 4.52199 1.74978C3.16635 2.41072 2.02337 3.4411 1.22372 4.72314C0.424065 6.00518 0 7.48715 0 8.99963C0 10.5121 0.424065 11.9941 1.22372 13.2761C2.02337 14.5582 3.16635 15.5885 4.52199 16.2495C5.87763 16.9104 7.39123 17.1752 8.88977 17.0137C10.3883 16.8521 11.8113 16.2707 12.9961 15.3359C12.0434 14.5795 11.2736 13.6165 10.7443 12.5193C10.215 11.422 9.93987 10.2187 9.9396 8.99963Z" fill="#EB001B"/>
<path d="M26.0019 9.00029C26.003 10.5117 25.5802 11.9928 24.7818 13.2744C23.9835 14.556 22.8418 15.5862 21.4875 16.2472C20.1331 16.9082 18.6206 17.1734 17.1232 17.0123C15.6257 16.8513 14.2036 16.2705 13.0195 15.3365C13.9724 14.5803 14.7424 13.6174 15.2718 12.5201C15.8011 11.4228 16.0761 10.2194 16.0761 9.00029C16.0761 7.78113 15.8011 6.57779 15.2718 5.48046C14.7424 4.38312 13.9724 3.42027 13.0195 2.66405C14.2036 1.73003 15.6257 1.14928 17.1232 0.988231C18.6206 0.827182 20.1331 1.09233 21.4875 1.75336C22.8418 2.41439 23.9835 3.4446 24.7818 4.72616C25.5802 6.00773 26.003 7.4889 26.0019 9.00029Z" fill="#F79E1B"/>
</svg>
