<svg width="16" height="16" viewBox="0 0 16 16" fill="none" xmlns="http://www.w3.org/2000/svg">
    <path fill-rule="evenodd" clip-rule="evenodd" d="M7.24245 0.98034C7.66155 0.561241 8.34105 0.561241 8.76015 0.98034L15.0203 7.2405C15.2216 7.44176 15.3346 7.71473 15.3346 7.99935C15.3346 8.28397 15.2216 8.55694 15.0203 8.75819L8.76015 15.0184C8.34105 15.4375 7.66155 15.4375 7.24245 15.0184C6.82336 14.5993 6.82336 13.9198 7.24245 13.5007L11.6706 9.07252H1.74114C1.14844 9.07252 0.667969 8.59204 0.667969 7.99935C0.667969 7.40665 1.14844 6.92618 1.74114 6.92618H11.6706L7.24245 2.49803C6.82336 2.07893 6.82336 1.39944 7.24245 0.98034Z" fill="#282828"/>
</svg>
