<svg width="15" height="30" viewBox="0 0 15 30" fill="none" xmlns="http://www.w3.org/2000/svg">
<path d="M14.9953 14.8777C14.9685 14.5766 14.8444 14.2915 14.6409 14.0636L2.93347 0.860979C2.80964 0.712326 2.6564 0.589499 2.48288 0.499815C2.30936 0.41013 2.11909 0.355423 1.92344 0.338949C1.72779 0.322474 1.53073 0.34457 1.34402 0.403923C1.15731 0.463276 0.984761 0.55867 0.836637 0.684425C0.688514 0.810179 0.567847 0.963722 0.481835 1.13591C0.395823 1.30809 0.346217 1.4954 0.335975 1.68667C0.325734 1.87795 0.355081 2.06927 0.422236 2.24926C0.489392 2.42925 0.592997 2.59421 0.726885 2.73433L11.5997 15.0003L0.726885 27.2663C0.592997 27.4064 0.489392 27.5714 0.422236 27.7514C0.355081 27.9314 0.325734 28.1227 0.335975 28.314C0.346217 28.5053 0.395823 28.6926 0.481835 28.8647C0.567847 29.0369 0.688514 29.1905 0.836637 29.3162C0.984761 29.442 1.15731 29.5374 1.34402 29.5967C1.53073 29.6561 1.72779 29.6782 1.92344 29.6617C2.11909 29.6452 2.30936 29.5905 2.48288 29.5008C2.6564 29.4112 2.80964 29.2883 2.93347 29.1397L14.6409 15.937C14.7697 15.7926 14.8676 15.6244 14.9284 15.4425C14.9893 15.2605 15.0121 15.0684 14.9953 14.8777Z" fill="white"/>
</svg>
