<svg width="12" height="12" viewBox="0 0 12 12" fill="none" xmlns="http://www.w3.org/2000/svg">
<path fill-rule="evenodd" clip-rule="evenodd" d="M5.62959 0.894615C5.93439 0.589816 6.42857 0.589816 6.73336 0.894615L11.2862 5.44746C11.4326 5.59383 11.5148 5.79235 11.5148 5.99935C11.5148 6.20635 11.4326 6.40487 11.2862 6.55124L6.73336 11.1041C6.42857 11.4089 5.93439 11.4089 5.62959 11.1041C5.32479 10.7993 5.32479 10.3051 5.62959 10.0003L8.85006 6.77984H1.62863C1.19758 6.77984 0.848145 6.4304 0.848145 5.99935C0.848145 5.5683 1.19758 5.21886 1.62863 5.21886H8.85006L5.62959 1.99839C5.32479 1.69359 5.32479 1.19941 5.62959 0.894615Z" fill="#282828"/>
</svg>
