<svg width="44" height="12" viewBox="0 0 44 12" fill="none" xmlns="http://www.w3.org/2000/svg">
<path d="M7.44821 0.652795C6.89669 0.269991 6.177 0.078125 5.28915 0.078125H1.85186C1.57968 0.078125 1.42931 0.21556 1.40074 0.490166L0.00438295 9.3398C-0.010129 9.42672 0.011409 9.50621 0.0688 9.57847C0.125863 9.65087 0.197634 9.68687 0.28359 9.68687H1.91628C2.20264 9.68687 2.36004 9.54977 2.38893 9.27483L2.77557 6.88904C2.78969 6.77341 2.84005 6.6794 2.92601 6.607C3.0119 6.53474 3.11932 6.48747 3.24822 6.46579C3.37712 6.44431 3.49867 6.4335 3.61345 6.4335C3.7279 6.4335 3.8639 6.4408 4.02169 6.45518C4.17909 6.46964 4.27942 6.47666 4.32243 6.47666C5.55404 6.47666 6.52076 6.12628 7.22265 5.42478C7.92421 4.72355 8.27539 3.75122 8.27539 2.50741C8.27539 1.65436 7.99946 1.0362 7.44821 0.652795ZM5.67592 3.31001C5.60408 3.8162 5.41812 4.14861 5.11737 4.30773C4.81656 4.46704 4.38692 4.54627 3.82844 4.54627L3.11945 4.56795L3.48475 2.24706C3.51325 2.08814 3.60629 2.00859 3.76395 2.00859H4.17226C4.74485 2.00859 5.16045 2.09192 5.41825 2.25793C5.67592 2.42434 5.76187 2.77512 5.67592 3.31001Z" fill="#003087"/>
<path d="M43.7205 0.078125H42.1309C41.973 0.078125 41.88 0.157683 41.8516 0.316798L40.4551 9.33987L40.4336 9.38323C40.4336 9.45589 40.4623 9.52424 40.5197 9.58935C40.5767 9.65432 40.6486 9.68687 40.7344 9.68687H42.1524C42.4242 9.68687 42.5746 9.54977 42.6036 9.27483L44 0.403316V0.381769C43.9999 0.179362 43.9065 0.078125 43.7205 0.078125Z" fill="#009CDE"/>
<path d="M24.515 3.57025C24.515 3.49811 24.4862 3.4293 24.4293 3.36432C24.3718 3.29929 24.3073 3.2666 24.2359 3.2666H22.5817C22.4238 3.2666 22.295 3.33926 22.195 3.48346L19.9178 6.8673L18.9725 3.61374C18.9006 3.38256 18.7432 3.2666 18.4999 3.2666H16.8885C16.8167 3.2666 16.7523 3.29922 16.6953 3.36432C16.6379 3.4293 16.6094 3.49818 16.6094 3.57025C16.6094 3.59942 16.749 4.02578 17.0283 4.84999C17.3075 5.67441 17.6082 6.56373 17.9305 7.51815C18.2528 8.47237 18.4209 8.97876 18.4353 9.03624C17.2608 10.6559 16.6738 11.5235 16.6738 11.639C16.6738 11.8272 16.7668 11.9211 16.9531 11.9211H18.6073C18.7648 11.9211 18.8936 11.8489 18.994 11.7043L24.4722 3.72207C24.5007 3.69336 24.515 3.64297 24.515 3.57025Z" fill="#003087"/>
<path d="M39.9155 3.26706H38.2827C38.0821 3.26706 37.9607 3.50573 37.9177 3.98294C37.5449 3.40476 36.865 3.11523 35.8767 3.11523C34.8455 3.11523 33.968 3.50573 33.245 4.28659C32.5216 5.06744 32.1602 5.98586 32.1602 7.04133C32.1602 7.89465 32.4071 8.5742 32.9012 9.08012C33.3953 9.58657 34.0577 9.8393 34.8886 9.8393C35.3038 9.8393 35.7263 9.75238 36.1559 9.57901C36.5856 9.40551 36.9219 9.17426 37.1658 8.88494C37.1658 8.89946 37.1512 8.96443 37.1228 9.08005C37.0939 9.19594 37.0798 9.28286 37.0798 9.34034C37.0798 9.57198 37.1726 9.68734 37.3591 9.68734H38.8415C39.1133 9.68734 39.2711 9.55024 39.3139 9.2753L40.1948 3.61413C40.209 3.52734 40.1875 3.44792 40.1304 3.37552C40.0729 3.30332 40.0015 3.26706 39.9155 3.26706ZM37.112 7.54015C36.7468 7.90168 36.3064 8.08234 35.7908 8.08234C35.3753 8.08234 35.039 7.96685 34.7811 7.73533C34.5232 7.50435 34.3943 7.18619 34.3943 6.78098C34.3943 6.24628 34.5733 5.79407 34.9315 5.42538C35.2892 5.05663 35.7335 4.87226 36.2635 4.87226C36.6641 4.87226 36.9972 4.9916 37.2624 5.23007C37.5271 5.46874 37.6599 5.79778 37.6599 6.21718C37.6598 6.73768 37.4772 7.17883 37.112 7.54015Z" fill="#009CDE"/>
<path d="M15.5133 3.26706H13.8806C13.6798 3.26706 13.5583 3.50573 13.5153 3.98294C13.1286 3.40476 12.4482 3.11523 11.4744 3.11523C10.4432 3.11523 9.56583 3.50573 8.84266 4.28659C8.1193 5.06744 7.75781 5.98586 7.75781 7.04133C7.75781 7.89465 8.00491 8.5742 8.49904 9.08012C8.99316 9.58657 9.65539 9.8393 10.4862 9.8393C10.887 9.8393 11.3026 9.75238 11.7322 9.57901C12.1618 9.40551 12.5056 9.17426 12.7634 8.88494C12.7059 9.05844 12.6774 9.21033 12.6774 9.34034C12.6774 9.57198 12.7705 9.68734 12.9567 9.68734H14.439C14.7109 9.68734 14.8687 9.55024 14.9117 9.2753L15.7924 3.61413C15.8065 3.52734 15.7851 3.44792 15.728 3.37552C15.6707 3.30332 15.5991 3.26706 15.5133 3.26706ZM12.7097 7.55089C12.3444 7.90559 11.8967 8.08234 11.3671 8.08234C10.9515 8.08234 10.6185 7.96685 10.3681 7.73533C10.1173 7.50435 9.99206 7.18619 9.99206 6.78098C9.99206 6.24628 10.171 5.79407 10.5292 5.42538C10.887 5.05663 11.331 4.87226 11.8611 4.87226C12.262 4.87226 12.5949 4.9916 12.8602 5.23007C13.1249 5.46874 13.2576 5.79778 13.2576 6.21718C13.2576 6.7522 13.075 7.19699 12.7097 7.55089Z" fill="#003087"/>
<path d="M31.8506 0.652795C31.2991 0.269991 30.5796 0.078125 29.6916 0.078125H26.2758C25.9891 0.078125 25.8315 0.21556 25.8031 0.490166L24.4067 9.3398C24.3922 9.42672 24.4137 9.50621 24.4712 9.57847C24.528 9.65087 24.6 9.68687 24.6859 9.68687H26.4475C26.6193 9.68687 26.7338 9.59299 26.7912 9.40497L27.178 6.88904C27.1922 6.77341 27.2423 6.6794 27.3284 6.607C27.4143 6.53474 27.5216 6.48747 27.6506 6.46579C27.7795 6.44431 27.901 6.4335 28.0159 6.4335C28.1303 6.4335 28.2663 6.4408 28.4239 6.45518C28.5814 6.46964 28.682 6.47666 28.7247 6.47666C29.9565 6.47666 30.923 6.12628 31.6249 5.42478C32.3267 4.72355 32.6776 3.75122 32.6776 2.50741C32.6777 1.65436 32.4018 1.0362 31.8506 0.652795ZM29.6486 4.22095C29.3334 4.43781 28.8608 4.5462 28.2307 4.5462L27.5432 4.56788L27.9085 2.24699C27.9369 2.08808 28.0299 2.00852 28.1877 2.00852H28.5743C28.8893 2.00852 29.1399 2.02297 29.3264 2.05181C29.5123 2.08092 29.6916 2.17108 29.8634 2.3229C30.0354 2.47473 30.1212 2.69537 30.1212 2.98449C30.1212 3.59191 29.9635 4.00389 29.6486 4.22095Z" fill="#009CDE"/>
</svg>
