<svg width="16" height="16" viewBox="0 0 16 16" fill="none" xmlns="http://www.w3.org/2000/svg">
    <path fill-rule="evenodd" clip-rule="evenodd" d="M8.75755 0.98034C8.33845 0.561241 7.65895 0.561241 7.23985 0.98034L0.97969 7.2405C0.778432 7.44176 0.665366 7.71473 0.665366 7.99935C0.665366 8.28397 0.778432 8.55694 0.97969 8.75819L7.23985 15.0184C7.65895 15.4375 8.33845 15.4375 8.75755 15.0184C9.17664 14.5993 9.17664 13.9198 8.75755 13.5007L4.3294 9.07252H14.2589C14.8516 9.07252 15.332 8.59204 15.332 7.99935C15.332 7.40665 14.8516 6.92618 14.2589 6.92618H4.3294L8.75755 2.49803C9.17664 2.07893 9.17664 1.39944 8.75755 0.98034Z" fill="#282828"/>
</svg>
