<svg width="32" height="32" viewBox="0 0 32 32" fill="none" xmlns="http://www.w3.org/2000/svg">
<path d="M15.4666 17.4215C18.0672 17.4215 20.1754 15.3133 20.1754 12.7127C20.1754 10.1121 18.0672 8.00391 15.4666 8.00391C12.866 8.00391 10.7578 10.1121 10.7578 12.7127C10.7578 15.3133 12.866 17.4215 15.4666 17.4215Z" fill="#FFFDFB"/>
<path d="M26.5447 12.2931C26.6993 12.0926 26.8121 11.8631 26.8765 11.6182C26.9408 11.3733 26.9554 11.118 26.9192 10.8674C26.8831 10.6167 26.7971 10.3759 26.6662 10.1591C26.5354 9.94236 26.3624 9.75405 26.1574 9.60534L25.3554 9.02333C25.091 8.83156 24.8807 8.57462 24.745 8.27749C24.6092 7.98035 24.5527 7.65316 24.5809 7.32772L24.6657 6.34013C24.6889 6.08708 24.6609 5.83196 24.5833 5.58997C24.5058 5.34798 24.3803 5.12409 24.2144 4.93164C24.0484 4.73918 23.8454 4.58212 23.6175 4.4698C23.3895 4.35749 23.1413 4.29222 22.8876 4.2779L21.8977 4.22291C21.5717 4.20434 21.256 4.10173 20.9814 3.92507C20.7068 3.7484 20.4825 3.50368 20.3304 3.2147L19.8722 2.3371C19.7533 2.11328 19.5907 1.91561 19.3941 1.7558C19.1974 1.596 18.9706 1.47731 18.7272 1.40679C18.4838 1.33627 18.2287 1.31535 17.9771 1.34527C17.7255 1.37518 17.4824 1.45533 17.2623 1.58095L16.4007 2.06901C16.1163 2.23007 15.795 2.31472 15.4681 2.31472C15.1413 2.31472 14.82 2.23007 14.5356 2.06901L13.674 1.58095C13.4535 1.45604 13.2101 1.3767 12.9583 1.34764C12.7065 1.31857 12.4514 1.34038 12.2082 1.41175C11.965 1.48313 11.7387 1.60263 11.5425 1.76316C11.3464 1.92369 11.1845 2.12198 11.0664 2.34627L10.6081 3.22387C10.4561 3.51285 10.2318 3.75757 9.95718 3.93423C9.68254 4.1109 9.36687 4.2135 9.04084 4.23207L8.05097 4.28706C7.79726 4.30139 7.54904 4.36665 7.3211 4.47897C7.09316 4.59128 6.89017 4.74835 6.72423 4.9408C6.5583 5.13325 6.43282 5.35715 6.35527 5.59913C6.27772 5.84112 6.2497 6.09625 6.27286 6.3493L6.35765 7.33688C6.38585 7.66232 6.32935 7.98952 6.19363 8.28665C6.05791 8.58378 5.8476 8.84073 5.58316 9.0325L4.78118 9.61451C4.57623 9.76321 4.4032 9.95153 4.27234 10.1683C4.14148 10.3851 4.05545 10.6259 4.01934 10.8765C3.98323 11.1272 3.99778 11.3825 4.06213 11.6274C4.12647 11.8723 4.2393 12.1018 4.39394 12.3023L4.99886 13.0859C5.19853 13.3443 5.32794 13.65 5.37452 13.9732C5.42109 14.2965 5.38325 14.6262 5.26466 14.9305L4.90491 15.847C4.81295 16.0829 4.76925 16.3349 4.77639 16.5879C4.78353 16.841 4.84137 17.0901 4.94649 17.3204C5.0516 17.5507 5.20186 17.7576 5.38836 17.9288C5.57487 18.1 5.79382 18.2321 6.03227 18.3171L6.96486 18.6494C7.27277 18.7589 7.54708 18.9462 7.76111 19.1931C7.97513 19.4401 8.12157 19.7383 8.18616 20.0586L8.36489 20.9293L5.98415 28.6673L9.76034 27.4849L12.1113 30.6654L14.2583 23.6469C14.5797 23.9136 14.9802 24.0666 15.3976 24.0819C15.8149 24.0972 16.2256 23.9741 16.5657 23.7317L18.825 30.6654L21.176 27.4849L24.9521 28.6673L22.5141 21.1882C22.5302 21.1355 22.5439 21.0851 22.5554 21.0301L22.7501 20.0586C22.8147 19.7383 22.9612 19.4401 23.1752 19.1931C23.3892 18.9462 23.6635 18.7589 23.9714 18.6494L24.904 18.3171C25.1425 18.2321 25.3614 18.1 25.5479 17.9288C25.7344 17.7576 25.8847 17.5507 25.9898 17.3204C26.0949 17.0901 26.1528 16.841 26.1599 16.5879C26.1671 16.3349 26.1233 16.0829 26.0314 15.847L25.6716 14.9305C25.5531 14.6262 25.5152 14.2965 25.5618 13.9732C25.6084 13.65 25.7378 13.3443 25.9374 13.0859L26.5447 12.2931ZM8.92628 12.7102C8.92628 11.4163 9.30995 10.1515 10.0288 9.07569C10.7476 7.99988 11.7693 7.16139 12.9647 6.66625C14.1601 6.17111 15.4754 6.04156 16.7444 6.29398C18.0134 6.5464 19.1791 7.16945 20.094 8.08435C21.0088 8.99925 21.6319 10.1649 21.8843 11.4339C22.1367 12.7029 22.0072 14.0183 21.5121 15.2136C21.0169 16.409 20.1784 17.4307 19.1026 18.1495C18.0268 18.8684 16.762 19.252 15.4681 19.252C13.7337 19.2502 12.0708 18.5604 10.8444 17.334C9.61791 16.1075 8.9281 14.4446 8.92628 12.7102Z" fill="#FFFDFB"/>
</svg>
