<svg width="32" height="32" viewBox="0 0 32 32" fill="none" xmlns="http://www.w3.org/2000/svg">
<path d="M15.9988 7.68675C14.9383 7.68675 13.9016 8.00122 13.0198 8.59039C12.1381 9.17957 11.4508 10.017 11.045 10.9967C10.6392 11.9765 10.533 13.0546 10.7399 14.0947C10.9468 15.1348 11.4574 16.0902 12.2073 16.8401C12.9572 17.59 13.9126 18.1006 14.9527 18.3075C15.9928 18.5144 17.0709 18.4082 18.0507 18.0024C19.0304 17.5966 19.8678 16.9093 20.457 16.0276C21.0462 15.1458 21.3607 14.1091 21.3607 13.0487C21.3589 11.6271 20.7935 10.2643 19.7883 9.25911C18.7831 8.25393 17.4203 7.68847 15.9988 7.68675ZM15.9988 16.8786C15.2413 16.8786 14.5008 16.654 13.871 16.2331C13.2411 15.8123 12.7502 15.2141 12.4604 14.5143C12.1705 13.8145 12.0946 13.0444 12.2424 12.3015C12.3902 11.5585 12.755 10.8761 13.2906 10.3405C13.8262 9.80486 14.5086 9.44009 15.2516 9.29231C15.9945 9.14453 16.7646 9.22038 17.4644 9.51026C18.1642 9.80014 18.7624 10.291 19.1832 10.9209C19.6041 11.5507 19.8287 12.2912 19.8287 13.0487C19.8277 14.0641 19.4239 15.0377 18.7059 15.7558C17.9878 16.4738 17.0142 16.8776 15.9988 16.8786ZM30.4493 24.9214L26.2099 17.5861C26.13 17.1831 26.1248 16.7688 26.1944 16.3639C26.3918 15.9839 26.6564 15.6428 26.9754 15.3571C27.6861 14.7835 28.145 13.9553 28.2545 13.0487C28.1449 12.142 27.686 11.3138 26.9753 10.7402C26.6568 10.4547 26.3922 10.1141 26.1944 9.73486C26.1214 9.28791 26.1325 8.83125 26.2273 8.38839C26.457 7.53101 26.346 6.61799 25.9176 5.8406C25.3042 5.19223 24.4659 4.80307 23.5748 4.7529C23.1311 4.70468 22.7001 4.57538 22.3031 4.37144C21.9904 4.0589 21.7374 3.69183 21.5566 3.28833C21.2376 2.45486 20.6073 1.7779 19.7987 1.4003C18.9348 1.22851 18.0379 1.39909 17.2973 1.87606C16.8962 2.10536 16.4558 2.25757 15.9988 2.32485C15.5417 2.25756 15.1012 2.10531 14.7002 1.87598C13.9653 1.40001 13.0745 1.22784 12.2152 1.39574C11.3992 1.77048 10.7623 2.44979 10.4409 3.28826C10.26 3.69135 10.0076 4.05831 9.69582 4.37136C9.29825 4.57507 8.86677 4.70435 8.42268 4.75282C7.53118 4.80287 6.69274 5.19264 6.07983 5.84196C5.65133 6.61878 5.54034 7.53137 5.77015 8.38826C5.8649 8.8306 5.87607 9.28677 5.80307 9.73322C5.6057 10.1133 5.3411 10.4544 5.02211 10.7401C4.31143 11.3137 3.85253 12.1419 3.74298 13.0487C3.85258 13.9553 4.3115 14.7835 5.02218 15.3571C5.34038 15.642 5.60445 15.9821 5.80163 16.3609C5.87157 16.7675 5.86644 17.1835 5.78648 17.5883L1.54824 24.9214C1.47881 25.0415 1.44326 25.1781 1.4454 25.3167C1.44755 25.4553 1.4873 25.5908 1.56041 25.7086C1.63353 25.8264 1.73726 25.9221 1.86054 25.9856C1.98382 26.0491 2.12202 26.0778 2.26038 26.0689L7.26621 25.7487L9.49094 30.2399C9.55259 30.3643 9.64677 30.4695 9.76347 30.5446C9.88016 30.6197 10.015 30.6617 10.1537 30.6663H10.1776C10.312 30.6666 10.4441 30.6313 10.5605 30.5641C10.6769 30.4968 10.7734 30.3999 10.8403 30.2833L14.2112 24.4438C14.3665 24.375 14.5213 24.3086 14.6777 24.2332C15.0849 23.9972 15.5332 23.8408 15.9988 23.7725C16.4643 23.8409 16.9127 23.9972 17.3198 24.2332C17.4708 24.3059 17.6298 24.3736 17.7858 24.443L21.1572 30.2833C21.2241 30.4 21.3206 30.4968 21.437 30.5641C21.5534 30.6313 21.6855 30.6666 21.8199 30.6663H21.8439C21.9826 30.6618 22.1174 30.6197 22.2341 30.5446C22.3508 30.4696 22.445 30.3643 22.5067 30.24L24.7313 25.7488L29.7371 26.0689C29.8755 26.0779 30.0137 26.0491 30.137 25.9857C30.2603 25.9222 30.364 25.8265 30.4371 25.7087C30.5102 25.5909 30.55 25.4554 30.5521 25.3168C30.5543 25.1781 30.5187 25.0415 30.4493 24.9214ZM10.2284 28.2786L8.4122 24.6118C8.34876 24.4838 8.25087 24.3761 8.12956 24.3008C8.00824 24.2255 7.86831 24.1855 7.72551 24.1854C7.70906 24.1854 7.69259 24.1854 7.67613 24.1869L3.59036 24.4487L6.044 20.2043L6.07991 20.2567C6.69337 20.9051 7.53159 21.2942 8.42276 21.3444C8.86642 21.3926 9.29746 21.5219 9.69442 21.7259C10.0072 22.0384 10.2602 22.4055 10.4409 22.809C10.7605 23.6434 11.3919 24.321 12.2018 24.6985C12.2287 24.7075 12.2557 24.715 12.2826 24.7224L10.2284 28.2786ZM19.3111 23.2443C19.065 23.278 18.8145 23.2379 18.5913 23.1292C18.3911 23.0469 18.1868 22.9494 17.9811 22.8509C17.3733 22.5038 16.6964 22.2954 15.9988 22.2405C15.3011 22.2954 14.6241 22.5038 14.0164 22.8509C13.8039 22.9526 13.593 23.0544 13.412 23.1277C13.1838 23.2426 12.9251 23.2824 12.6729 23.2414C12.3677 23.1441 12.058 22.5771 11.7858 22.0759C11.5106 21.4655 11.1046 20.9231 10.5964 20.4871C10.0217 20.1351 9.3766 19.9139 8.70684 19.8393C8.14433 19.7331 7.507 19.6134 7.32 19.3561C7.21844 19.1617 7.17809 18.9411 7.20424 18.7234C7.2183 18.4606 7.24694 18.1988 7.29003 17.9392L7.28956 17.9252L7.29153 17.9108C7.42555 17.2431 7.41488 16.5544 7.26023 15.8912C7.00686 15.2835 6.62155 14.7398 6.1322 14.2994C5.71031 13.858 5.27495 13.4002 5.27495 13.0487C5.27495 12.6971 5.71031 12.2393 6.1322 11.7979C6.62192 11.3573 7.00727 10.813 7.26023 10.2047C7.41937 9.54341 7.42908 8.85498 7.28865 8.18948C7.16274 7.71447 7.17312 7.21361 7.3186 6.74422C7.50703 6.48391 8.14444 6.36429 8.70695 6.258C9.37712 6.18313 10.0227 5.96199 10.598 5.61021C11.1053 5.17376 11.5107 4.63143 11.7858 4.02138C12.0581 3.5202 12.3678 2.95318 12.6895 2.85146C13.1703 2.86406 13.639 3.00564 14.0464 3.26139C14.6452 3.60159 15.312 3.80494 15.9988 3.85682C16.6855 3.80494 17.3523 3.60159 17.9511 3.26139C18.4538 3.025 19.0223 2.75571 19.3245 2.85595C19.6297 2.95318 19.9394 3.5202 20.2117 4.02138C20.4868 4.63182 20.8929 5.17425 21.4011 5.61021C21.9757 5.9622 22.6208 6.18337 23.2906 6.258C23.8531 6.36423 24.4904 6.48391 24.6789 6.74273C24.8243 7.21262 24.8347 7.71392 24.7089 8.18942C24.5684 8.85542 24.5782 9.54434 24.7373 10.2061C24.9907 10.8138 25.376 11.3575 25.8653 11.7979C26.2872 12.2393 26.7226 12.6971 26.7226 13.0487C26.7226 13.4002 26.2872 13.858 25.8653 14.2994C25.3752 14.7407 24.9894 15.2854 24.7358 15.8941C24.584 16.5237 24.5718 17.1788 24.6999 17.8136V17.8285C24.7001 17.8656 24.7026 17.9025 24.7074 17.9393C24.7792 18.4225 24.8749 19.0823 24.6789 19.353C24.4905 19.6134 23.8531 19.733 23.2906 19.8393C22.6204 19.9141 21.9749 20.1353 21.3996 20.4871C20.8922 20.9235 20.4868 21.4659 20.2117 22.0759C19.9394 22.5771 19.6297 23.1441 19.3111 23.2443ZM24.3214 24.1869C24.1705 24.1773 24.0201 24.2126 23.8892 24.2882C23.7583 24.3638 23.6525 24.4763 23.5853 24.6118L21.7691 28.2786L19.7165 24.7225C19.7389 24.7165 19.7614 24.709 19.7824 24.7015C20.5984 24.3268 21.2353 23.6475 21.5567 22.809C21.7376 22.4059 21.99 22.0389 22.3017 21.7259C22.6993 21.5222 23.1307 21.3929 23.5748 21.3444C24.467 21.2942 25.306 20.9039 25.9192 20.2538C25.9311 20.2373 25.9431 20.2209 25.9536 20.2044L28.4071 24.4487L24.3214 24.1869Z" fill="white"/>
</svg>
