<svg width="40" height="40" viewBox="0 0 40 40" fill="none" xmlns="http://www.w3.org/2000/svg">
<path d="M18.2546 29.7555C17.0351 29.7555 16.0189 28.7393 16.0189 27.5198V26.6254C15.8563 21.7474 19.1489 19.6336 21.5473 18.0888C24.1489 16.4222 25.6123 15.3246 25.6123 12.3571C25.6123 8.57661 22.8481 6.13758 18.5798 6.13758C17.5636 6.17823 12.8075 6.70668 12.8075 12.3165C12.8075 13.536 11.7912 14.5522 10.5717 14.5522C9.3522 14.5522 8.33594 13.536 8.33594 12.3165C8.33594 4.0644 15.0026 1.74732 18.4985 1.66602H18.5392C25.3278 1.66602 30.0839 6.05627 30.0839 12.3571C30.0839 17.9262 26.5473 20.2027 23.9863 21.8693C21.588 23.4141 20.4497 24.2677 20.531 26.5035C20.531 26.5441 20.531 26.5441 20.531 26.5848V27.5198C20.4904 28.7799 19.4741 29.7555 18.2546 29.7555Z" fill="#F49C5D"/>
<path d="M18.4555 38.3329C19.8699 38.3329 21.0165 37.1863 21.0165 35.7719C21.0165 34.3575 19.8699 33.2109 18.4555 33.2109C17.0411 33.2109 15.8945 34.3575 15.8945 35.7719C15.8945 37.1863 17.0411 38.3329 18.4555 38.3329Z" fill="#F49C5D"/>
</svg>
