<svg width="40" height="40" viewBox="0 0 40 40" fill="none" xmlns="http://www.w3.org/2000/svg">
<path d="M18.2507 29.756C17.0312 29.756 16.015 28.7398 16.015 27.5202V26.6259C15.8523 21.7479 19.145 19.634 21.5434 18.0893C24.145 16.4227 25.6084 15.3251 25.6084 12.3576C25.6084 8.5771 22.8442 6.13806 18.5759 6.13806C17.5597 6.17871 12.8036 6.70717 12.8036 12.3169C12.8036 13.5365 11.7873 14.5527 10.5678 14.5527C9.34829 14.5527 8.33203 13.5365 8.33203 12.3169C8.33203 4.06489 14.9987 1.7478 18.4946 1.6665H18.5353C25.3239 1.6665 30.08 6.05676 30.08 12.3576C30.08 17.9267 26.5434 20.2032 23.9824 21.8698C21.584 23.4145 20.4458 24.2682 20.5271 26.504C20.5271 26.5446 20.5271 26.5446 20.5271 26.5853V27.5202C20.4865 28.7804 19.4702 29.756 18.2507 29.756Z" fill="#30D065"/>
<path d="M18.4555 38.3334C19.8699 38.3334 21.0165 37.1868 21.0165 35.7724C21.0165 34.358 19.8699 33.2114 18.4555 33.2114C17.0411 33.2114 15.8945 34.358 15.8945 35.7724C15.8945 37.1868 17.0411 38.3334 18.4555 38.3334Z" fill="#30D065"/>
</svg>
