<svg width="179" height="108" viewBox="0 0 179 108" fill="none" xmlns="http://www.w3.org/2000/svg">
<path d="M113.827 101.476C118.598 99.1257 123.36 96.7067 128.182 94.4637C128.325 94.4767 129.337 95.2656 130.335 95.102C131.368 94.9325 132.394 93.8144 132.863 94.0707C135.03 95.2535 137.22 96.6545 138.093 97.1549C141.906 99.369 147.022 102.183 151.009 104.051C151.626 104.34 153.971 106.618 153.811 107.392C153.298 107.514 146.284 107.149 145.555 107.165C141.787 107.243 137.739 107.065 133.993 107.207C129.756 107.065 125.281 107.283 121.011 107.198C114.978 107.079 114.397 108.053 113.827 101.476Z" fill="#FFD9A9"/>
<path d="M167.328 99.0004C168.555 98.1382 173.699 96.0737 175.302 95.3186C176.067 96.8175 177.171 98.8318 178.085 100.266C176.424 100.7 175 101.169 173.381 101.637C173.752 102.472 174.089 103.151 174.515 103.959C170.627 104.803 164.503 106.004 160.602 106.546C161.023 106.281 161.773 105.779 162.195 105.606C163.124 105.823 170.08 103.048 171.605 102.574C170.665 101.763 168.338 99.418 167.328 99.0004Z" fill="#AFFFEE"/>
<path d="M167.327 98.9987C168.337 99.4163 170.664 101.761 171.604 102.573C170.079 103.047 163.123 105.822 162.194 105.604C164.347 104.102 166.699 102.665 168.924 101.233C168.32 100.684 167.507 100.023 167.202 99.2714L167.327 98.9987Z" fill="#313131"/>
<path d="M9.59193 99.9626C8.44696 99.3303 3.79277 98.0239 2.33214 97.5198C1.8082 98.892 1.03795 100.743 0.37932 102.074C1.86041 102.293 3.13948 102.566 4.58704 102.82C4.3429 103.579 4.11449 104.199 3.81972 104.94C7.27114 105.307 12.6951 105.772 16.1291 105.874C15.739 105.684 15.0417 105.32 14.6594 105.209C13.8747 105.485 7.58171 103.733 6.2153 103.465C6.9544 102.673 8.75426 100.42 9.59193 99.9626Z" fill="#AFFFEE"/>
<path d="M9.59299 99.963C8.75531 100.42 6.95546 102.674 6.21635 103.466C7.58276 103.733 13.8757 105.485 14.6605 105.209C12.653 104.109 10.4792 103.084 8.41611 102.051C8.88886 101.519 9.53248 100.868 9.72686 100.188L9.59299 99.963Z" fill="#313131"/>
<path d="M23.3011 68.3049C23.7692 66.857 23.8613 65.7012 24.5897 64.3554C20.229 59.1123 19.3014 51.4558 21.1249 45.0139C21.4123 43.9984 21.9498 43.571 21.969 42.6082C23.7515 39.9623 23.966 38.9794 26.6021 36.8939C30.9588 33.4471 35.758 34.3069 40.7253 32.598C42.2735 31.9927 43.5492 31.5038 44.9042 30.4792C51.0809 25.8087 55.6146 18.4339 64.2388 18.4473C67.916 18.453 72.4931 20.7636 75.316 23.092C77.3803 24.7949 78.6963 29.008 78.6398 31.628C78.5121 36.9437 75.4977 39.7496 76.821 45.35C78.7352 44.1401 82.0179 43.6811 84.2609 43.6846C87.6513 43.6902 90.6663 44.822 93.4342 46.7455C94.7598 45.8861 96.9272 45.2752 98.466 45.047C105.048 44.0704 111.245 47.6794 114.615 53.2957C116.697 56.7645 118.169 60.9601 119.761 64.7283L127.895 84.0156C128.821 86.2281 129.759 88.4354 130.709 90.6373C130.955 91.215 131.664 93.255 132.036 93.5039C132.319 93.558 132.316 93.5618 132.599 93.5324C133.668 93.9417 136.459 95.679 137.544 96.3151L146.259 101.327C148.237 102.445 150.326 103.404 152.324 104.489C153.226 104.978 153.91 107.08 154.755 107.156C156.219 107.286 157.887 107.239 159.37 107.237L171.893 107.224C173.088 107.223 177.87 106.966 178.583 107.525L178.542 107.655C177.797 107.993 174.853 107.856 173.923 107.854L167.453 107.873L143.792 107.868L62.1919 107.859L34.922 107.844L26.8564 107.85C25.3681 107.852 12.0638 107.905 10.6051 107.786C10.5793 107.439 10.5271 107.502 10.6891 107.302C11.5772 107.124 28.1548 107.172 29.2894 107.189C33.4577 107.251 37.9525 107.066 42.092 107.225C41.1578 106.799 40.0733 106.472 39.0888 106.037C36.66 104.963 34.3559 103.219 32.4763 101.346C31.8809 101.667 31.2857 101.984 30.6626 102.248C28.621 103.113 26.0689 103.398 23.982 102.517C23.0683 102.131 22.3438 101.537 21.9728 100.591C20.5384 96.9307 20.9952 84.95 21.3004 80.458C21.3414 79.8543 21.2775 78.7358 21.4073 78.2052C21.4452 78.0502 21.7079 77.7685 21.7889 77.5771C21.5342 75.822 22.8203 70.173 23.3011 68.3049ZM84.1502 44.3542C83.6076 44.258 82.7038 44.3615 82.1394 44.4401C75.3044 45.3912 69.5304 51.1088 65.8569 56.6563C66.1373 57.0611 67.2862 59.0183 67.4 59.3512C67.657 60.1033 70.1812 64.2171 70.1627 64.5891C70.0419 67.0206 70.2138 66.5196 71.5236 68.9623L74.2597 74.1537C74.9425 75.4472 76.3709 78.5403 77.0341 79.5731C77.5813 78.8886 78.7779 77.1136 79.3215 76.3172C80.3817 74.7638 82.3159 72.2447 83.1352 70.6335C82.2477 69.342 80.4069 66.7407 80.2519 65.1526L80.3367 64.9094C80.9827 64.9291 81.0459 65.7318 81.2755 66.224C83.705 71.4304 88.6023 75.5443 92.5968 79.5577L106.521 93.5246C108.711 95.7142 111.628 98.5159 113.661 100.813C117.35 99.0017 122.352 96.8639 125.84 94.9005C126.486 94.6357 126.833 94.5038 127.415 94.1307C126.615 93.3852 125.516 91.6775 124.841 90.7261L120.623 84.7823L103.686 60.7984L98.6563 53.6512C97.9768 52.6905 96.5877 50.5766 95.8453 49.8164C92.2168 46.101 89.2228 44.5869 84.1502 44.3542ZM103.741 45.9378L103.666 45.9278C99.4064 45.3278 98.1323 45.561 93.9526 47.1401C97.6134 50.1052 101.355 56.3877 104.217 60.3807L121.118 84.2599L125.183 90.0143C125.962 91.1098 127.26 93.0424 128.205 93.9135C128.688 94.051 129.186 94.1736 129.64 94.3849C129.917 94.6689 129.778 94.6001 130.159 94.6517C130.582 94.535 131.032 94.0966 131.382 93.7994C130.871 93.0447 130.491 91.9351 130.107 91.0816C129.196 89.0534 128.4 86.9783 127.552 84.9261C125.959 81.0672 124.201 77.2397 122.617 73.3793L118.019 62.3447C116.577 58.9092 115.22 55.1156 113.002 52.1248C111 49.4246 107.113 46.3792 103.741 45.9378ZM68.9318 63.8495C68.037 61.7176 65.9521 58.2351 64.7834 56.0648L60.8948 48.774C58.6705 44.6493 56.2501 39.8072 51.6222 38.1476C39.3361 33.7417 30.4943 49.1904 26.9862 58.6899C25.0487 63.9364 23.6452 69.2457 22.6398 74.7281C22.6264 74.9123 22.2803 76.5619 22.2733 76.5474C22.6052 77.1212 22.3715 77.464 22.2905 78.0652C21.6128 83.1036 21.5975 88.3135 21.8363 93.3923C21.8971 94.6858 21.9486 99.0957 22.5278 100.119C30.8345 100.949 33.3552 96.7908 37.9361 90.9774L47.4257 78.7651C48.9123 76.8442 50.8963 74.0758 52.4749 72.3682C49.4757 67.7968 46.2421 63.3483 43.1991 58.8026C43.0355 58.5581 42.9633 58.316 42.9393 58.0275L43.0518 57.89C43.4243 57.955 43.6472 58.2344 43.8589 58.5403L52.1168 70.6122C52.5918 71.3163 54.5447 74.0189 54.8257 74.67C55.0909 75.0066 55.0333 75.0608 55.3342 75.0957C58.7475 71.7737 62.934 68.8801 66.7754 66.0657C67.5006 65.5345 68.3414 65.1029 69.0113 64.4979C69.1345 64.1602 69.1052 64.2834 68.9318 63.8495ZM86.1469 77.0825C83.4125 78.5998 80.7321 80.0789 77.9113 81.4327C78.4831 82.9867 79.8271 86.0003 79.0814 87.5593L78.9601 87.5887C78.5255 86.8726 78.654 85.6042 78.4361 84.7907C78.2537 84.1091 78.0418 83.2854 77.7409 82.6412C75.4292 77.6916 72.852 72.8629 70.2984 68.0366C69.8343 67.1594 69.363 66.3205 68.8286 65.4845C65.4441 67.758 62.174 70.2 59.0301 72.801C58.3186 73.3908 56.9932 74.4282 56.4164 75.0905C59.6659 79.1703 62.701 83.392 66.1133 87.3387C67.585 89.0409 69.1339 91.0213 70.9715 92.3141C72.0544 93.0621 73.3051 93.5258 74.6103 93.6634C81.4784 94.4021 86.9731 86.8419 91.9359 82.9882C92.6019 82.4733 93.0078 82.0632 93.6035 81.473C91.8118 79.8026 89.8217 77.6984 88.073 75.9333L86.1469 77.0825ZM68.8614 91.3454C68.0515 90.6707 66.299 88.6126 65.5971 87.7811C63.7087 85.571 61.8866 83.3044 60.1331 80.9842C59.4331 80.051 57.8599 77.7938 57.1193 77.0948C56.8965 77.3849 56.6318 77.7135 56.4211 78.0066C55.9831 77.3067 53.3532 73.5343 52.8022 72.8885C46.5763 80.7855 40.6875 89.0417 34.1852 96.719C33.4785 97.5532 32.2459 98.5859 31.2924 99.0699C32.125 100.185 32.9779 100.865 33.997 101.806C38.6557 106.106 45.2498 108.022 51.4542 106.852C51.7982 106.788 52.3519 106.69 52.6599 106.553C58.4527 105.226 63.0174 100.249 66.5799 95.7221C67.3577 94.7338 68.8153 92.9746 69.3337 91.8556C69.2338 91.558 69.1591 91.5822 68.8614 91.3454ZM69.1418 21.4286C66.6871 21.6297 64.0272 22.1496 62.0432 24.2627C58.5234 28.0117 60.9093 36.0755 56.2394 38.8502C55.9641 39.0138 55.0612 38.9968 54.9835 39.2963C55.3792 40.1333 56.675 39.4613 57.2186 39.0655C57.4055 38.9312 57.5821 38.783 57.7469 38.622C62.0852 33.8048 58.4861 24.9894 65.7976 22.8308C66.5859 22.598 68.1603 22.1699 68.9468 22.1168C69.6107 22.072 71.1951 22.4938 71.9347 22.3803L72.0079 22.2603C71.0233 21.0519 69.9232 21.7245 69.1418 21.4286ZM73.4423 22.4544C74.6378 24.3197 76.3888 26.5732 76.8597 28.691C77.4471 31.333 75.2256 34.5705 72.6598 35.1542C72.3077 35.2343 71.9004 35.3952 71.5541 35.5133C72.3273 35.7229 74.0547 35.2091 74.7592 34.7689C76.2073 33.8639 76.5909 33.2481 77.2668 31.7958C76.8533 34.4319 76.298 36.3494 75.5377 38.8967C75.2444 40.174 74.4806 45.0286 75.579 45.9536C75.8862 45.8424 75.9123 45.8459 76.0941 45.5898C76.0736 45.112 75.9383 44.6994 75.8576 44.2323C75.0596 39.6108 78.1219 35.5856 77.8826 30.9829C77.7904 29.2086 77.4963 27.6817 76.6379 26.093C76.0831 25.0509 74.5776 22.8577 73.4423 22.4544ZM60.3407 34.6299C59.7404 37.3549 58.907 39.2232 56.2178 40.3834C58.3448 42.5821 60.7443 46.9806 64.1319 47.3812C65.3686 47.5275 66.9829 45.7583 67.9007 44.845C67.9811 44.7643 68.0599 44.6822 68.1374 44.5987C69.5575 43.0815 73.8829 37.7449 74.2917 35.8375L74.2333 35.6747C73.893 35.7795 73.5449 35.9754 73.2852 36.0242C69.0094 36.8265 64.4314 35.4624 60.3407 34.6299ZM65.8407 48.2769C64.3362 48.9609 63.2695 49.0288 61.6235 48.704C61.7743 49.1679 62.1638 49.7931 62.4224 50.2238C63.3202 51.7185 64.0528 53.4045 64.952 54.8845L65.4571 55.794C66.424 54.6325 67.5045 53.2786 68.5118 52.1758C67.9424 51.2963 66.4727 48.9376 65.8407 48.2769ZM85.2188 73.1261C84.3045 74.8319 83.4517 76.6879 82.5109 78.4594C83.0593 78.0959 83.4923 77.7988 84.0868 77.5067C85.2126 76.8653 86.5053 76.0553 87.621 75.4689L85.2188 73.1261ZM94.0125 81.9913C92.6249 83.3381 90.8884 84.8472 89.4162 86.1221C85.9193 89.1501 82.7054 92.6886 78.1944 94.103C77.7706 94.3609 77.4227 94.7851 77.1453 95.1931C72.9205 101.407 66.4758 106.47 58.7425 106.688C56.7359 106.745 55.1908 106.527 53.2323 107.094C54.7508 107.317 59.7042 107.215 61.5353 107.205C66.2872 107.18 71.0927 107.257 75.8356 107.202C83.233 107.349 91.0629 107.195 98.4941 107.202L109.075 107.177C110.903 107.179 113.056 107.276 114.833 107.187C113.154 105.328 113.333 103.706 113.187 101.212C108.063 95.9221 102.874 90.6962 97.621 85.5359C97.0674 84.9863 94.3492 82.1572 94.0125 81.9913ZM132.648 94.1818C131.9 94.4722 131.446 94.6482 130.733 95.0447C135.593 97.9391 140.559 100.782 145.637 103.263C147.929 104.383 149.647 104.534 150.718 107.174C151.092 107.195 151.418 107.212 151.793 107.207L153.517 107.238C153.244 106.702 152.764 105.671 152.312 105.343C151.052 104.426 149.326 103.752 147.965 102.981C144.054 100.767 140.119 98.5734 136.237 96.3179C135.734 96.0254 132.935 94.4216 132.648 94.1818ZM74.0805 94.2318C71.452 98.3117 68.2943 101.233 65.1433 104.688C65.9491 104.33 66.6263 104.013 67.4086 103.606C71.0113 101.524 74.8293 97.8822 76.983 94.2864C76.0845 94.3084 74.9636 94.3572 74.0805 94.2318ZM128.216 94.5866C123.394 96.8295 118.597 99.1261 113.826 101.476C114.395 108.053 114.976 107.079 121.01 107.199C125.279 107.283 129.754 107.065 133.991 107.208C137.738 107.065 141.785 107.243 145.553 107.165C146.283 107.15 149.212 107.234 149.725 107.112C149.886 106.338 148.683 105.388 148.066 105.099C144.079 103.231 140.179 101.25 136.365 99.0363C135.122 98.3229 129.193 94.6753 128.216 94.5866ZM30.6805 99.5573C28.4985 100.431 26.84 100.956 24.4323 100.876C24.0793 100.865 23.152 100.735 22.9731 100.98C23.2584 101.4 24.1247 101.747 24.5968 101.927C26.8996 102.576 29.2221 102.359 31.3302 101.178C31.5416 101.058 31.7495 100.932 31.9538 100.8L30.6805 99.5573Z" fill="#313131"/>
<path d="M57.7478 38.6227C57.583 38.7836 57.4064 38.9319 57.2195 39.0661C56.6759 39.4619 55.3801 40.134 54.9844 39.2969C55.0621 38.9974 55.965 39.0145 56.2403 38.8508C60.9102 36.0761 58.5243 28.0124 62.0441 24.2633C64.0281 22.1502 66.688 21.6303 69.1427 21.4292C69.9241 21.7252 71.0242 21.0525 72.0087 22.2609L71.9355 22.3809C71.1959 22.4944 69.6116 22.0726 68.9477 22.1174C68.1612 22.1705 66.5868 22.5987 65.7985 22.8314C58.4869 24.9901 62.0861 33.8054 57.7478 38.6227Z" fill="white"/>
<path d="M77.2665 31.797C76.5906 33.2493 76.2069 33.8651 74.7588 34.77C74.0544 35.2102 72.327 35.7241 71.5537 35.5144C71.9 35.3964 72.3073 35.2355 72.6595 35.1554C75.2253 34.5717 77.4467 31.3341 76.8593 28.6922C76.3885 26.5744 74.6375 24.3209 73.4419 22.4556C74.5773 22.8589 76.0827 25.0521 76.6375 26.0942C77.496 27.6829 77.7901 29.2097 77.8823 30.9841C78.1215 35.5868 75.0592 39.612 75.8573 44.2335C75.9379 44.7006 76.0732 45.1132 76.0938 45.591C75.912 45.8471 75.8858 45.8436 75.5786 45.9548C74.4803 45.0298 75.2441 40.1752 75.5373 38.8979C76.2976 36.3506 76.8529 34.4331 77.2665 31.797Z" fill="white"/>
<path d="M56.2178 40.3824C58.907 39.2222 59.7403 37.3539 60.3407 34.6289C64.4313 35.4614 69.0093 36.8255 73.2852 36.0232C73.5449 35.9744 73.8929 35.7785 74.2333 35.6737L74.2916 35.8364C73.8829 37.7438 69.5574 43.0805 68.1373 44.5977C68.0599 44.6812 67.981 44.7633 67.9007 44.844C66.9829 45.7573 65.3685 47.5265 64.1318 47.3802C60.7443 46.9796 58.3447 42.5811 56.2178 40.3824Z" fill="#FFD9A9"/>
<path d="M68.9319 63.8514C67.7041 64.3797 65.4643 65.6875 64.3691 66.3923C62.4626 67.6193 55.8888 72.7929 54.8258 74.6719C54.5448 74.0207 52.5918 71.3182 52.1169 70.6141L43.859 58.5422C43.6473 58.2363 43.4243 57.9569 43.0519 57.8919L42.9393 58.0294C42.9634 58.3179 43.0356 58.56 43.1992 58.8045C46.2421 63.3502 49.4758 67.7987 52.475 72.3701C50.8964 74.0776 48.9124 76.846 47.4258 78.767L37.9361 90.9792C33.3552 96.7927 30.8346 100.951 22.5279 100.121C21.9487 99.0975 21.8972 94.6877 21.8364 93.3942C21.5975 88.3154 21.6129 83.1055 22.2906 78.0671C22.3716 77.4659 22.6053 77.123 22.2734 76.5493C22.2804 76.5637 22.6264 74.9142 22.6399 74.73C23.6453 69.2476 25.0488 63.9383 26.9863 58.6918C30.4944 49.1923 39.3361 33.7436 51.6223 38.1494C56.2501 39.8091 58.6706 44.6512 60.8949 48.7759L64.7835 56.0667C65.9522 58.237 68.0371 61.7195 68.9319 63.8514Z" fill="#FFC8C4"/>
<path d="M65.8579 56.6553C69.5314 51.1078 75.3054 45.3902 82.1404 44.4391C82.7048 44.3606 83.6086 44.2571 84.1512 44.3532L84.1066 44.5019C84.4319 44.7095 85.9562 44.9466 86.4901 45.1117C89.5036 46.043 92.494 48.2595 94.5564 50.6398C95.3421 51.5467 96.1957 53.139 96.9069 54.1429L104.275 64.6185L119.3 85.8434L123.265 91.4264C123.855 92.2647 125.162 94.2538 125.841 94.8995C122.353 96.8629 117.351 99.0007 113.662 100.812C111.629 98.515 108.712 95.7132 106.522 93.5237L92.5978 79.5567C88.6034 75.5433 83.706 71.4295 81.2765 66.2231C81.0469 65.7308 80.9837 64.9282 80.3377 64.9085L80.2529 65.1517C80.4079 66.7397 82.2487 69.3411 83.1362 70.6326C82.3169 72.2437 80.3827 74.7629 79.3226 76.3162C78.7789 77.1127 77.5823 78.8876 77.0351 79.5722C76.3719 78.5393 74.9435 75.4463 74.2607 74.1527L71.5246 68.9613C70.2148 66.5186 70.0429 67.0196 70.1637 64.5881C70.1822 64.2161 67.658 60.1023 67.401 59.3502C67.2872 59.0174 66.1383 57.0601 65.8579 56.6553Z" fill="#AFFFEE"/>
<path d="M84.1506 44.3555C89.2232 44.5882 92.2171 46.1023 95.8457 49.8177C96.5881 50.5778 97.9771 52.6918 98.6567 53.6525L103.687 60.7997L120.624 84.7836L124.841 90.7274C125.516 91.6788 126.615 93.3865 127.416 94.132C126.834 94.5051 126.486 94.637 125.84 94.9018C125.161 94.256 123.854 92.2669 123.265 91.4287L119.299 85.8456L104.274 64.6208L96.9062 54.1452C96.1951 53.1413 95.3415 51.549 94.5558 50.6421C92.4933 48.2617 89.503 46.0453 86.4895 45.114C85.9555 44.9489 84.4313 44.7117 84.106 44.5041L84.1506 44.3555Z" fill="white"/>
<path d="M103.743 45.9365L103.724 46.1308C104.319 46.5118 105.177 46.8541 105.692 47.211C108.181 48.9354 110.663 51.4253 112.255 54.0298C113.91 56.7373 115.442 60.7625 116.692 63.7318L123.704 80.3031C125.128 83.5367 126.526 86.7817 127.898 90.0378C128.267 90.896 129.425 93.3968 129.592 94.1198C129.613 94.2068 129.629 94.2949 129.642 94.3835C129.188 94.1722 128.69 94.0496 128.207 93.9121C127.262 93.041 125.964 91.1085 125.185 90.013L121.12 84.2586L104.219 60.3793C101.357 56.3863 97.6154 50.1038 93.9546 47.1387C98.1343 45.5596 99.4084 45.3264 103.668 45.9265L103.743 45.9365Z" fill="#AFFFEE"/>
<path d="M129.642 94.3855C129.629 94.2969 129.613 94.2088 129.592 94.1218C129.425 93.3988 128.267 90.898 127.898 90.0398C126.526 86.7838 125.127 83.5387 123.704 80.3051L116.692 63.7339C115.442 60.7645 113.91 56.7393 112.255 54.0318C110.663 51.4273 108.181 48.9374 105.692 47.2131C105.177 46.8561 104.319 46.5138 103.724 46.1329L103.742 45.9385C107.115 46.3799 111.001 49.4252 113.004 52.1254C115.222 55.1163 116.579 58.9099 118.021 62.3453L122.618 73.3799C124.203 77.2403 125.961 81.0679 127.554 84.9268C128.402 86.979 129.197 89.054 130.109 91.0823C130.492 91.9358 130.873 93.0454 131.384 93.8001C131.034 94.0972 130.584 94.5357 130.16 94.6524C129.78 94.6008 129.918 94.6696 129.642 94.3855Z" fill="white"/>
<path d="M64.9525 54.8844C64.0534 53.4045 63.3208 51.7185 62.423 50.2238C62.1643 49.793 61.7748 49.1678 61.624 48.704C63.27 49.0288 64.3367 48.9608 65.8413 48.2769C66.4732 48.9376 67.9429 51.2962 68.5124 52.1757C67.505 53.2786 66.4245 54.6324 65.4576 55.794L64.9525 54.8844Z" fill="#FFC8C4"/>
<path d="M84.4669 102.699C83.6616 102.382 82.7805 102.01 81.9553 101.775C82.4845 99.204 82.9133 96.5107 83.4603 93.9734C85.295 95.2476 87.4728 96.4538 89.4283 97.5879C89.4177 96.2629 89.4415 95.0651 89.6746 93.7573C91.2499 94.7563 92.8677 95.8953 94.4239 96.9416C95.9213 97.9724 104.289 103.632 105.031 104.694L104.966 104.838C104.745 104.83 104.741 104.849 104.558 104.733L104.453 104.515C100.444 102.667 96.757 100.736 92.9093 98.58C92.6538 98.4368 92.2991 98.2225 92.0441 98.2701C91.8643 99.0211 91.95 104.306 91.9542 105.458C89.4557 104.585 86.9685 103.598 84.4669 102.699Z" fill="#AFFFEE"/>
<path d="M92.7514 101.862C92.5184 103 92.4042 104.186 92.1527 105.361L91.9544 105.458C91.9501 104.307 91.8644 99.0217 92.0442 98.2707C92.2993 98.2232 92.6539 98.4375 92.9095 98.5806C96.7571 100.737 100.444 102.668 104.453 104.516L104.558 104.733C102.541 104.399 100.276 103.769 98.2697 103.256C96.5722 102.822 94.347 102.397 92.7514 101.862Z" fill="#313131"/>
<path d="M54.8271 74.6706C55.8902 72.7916 62.464 67.618 64.3704 66.391C65.4657 65.6862 67.7054 64.3784 68.9332 63.8501C69.1066 64.284 69.1359 64.1608 69.0127 64.4985C68.3428 65.1035 67.502 65.535 66.7769 66.0663C62.9354 68.8807 58.749 71.7743 55.3356 75.0963C55.0348 75.0614 55.0924 75.0072 54.8271 74.6706Z" fill="white"/>
<path d="M77.9114 81.4351C80.7321 80.0813 83.4126 78.6022 86.147 77.0848C88.8735 78.6939 90.2308 80.3563 91.936 82.9905C86.9732 86.8443 81.4784 94.4044 74.6103 93.6658C73.3051 93.5281 72.0544 93.0644 70.9716 92.3165C69.134 91.0237 67.5851 89.0432 66.1133 87.3411C62.701 83.3944 59.6659 79.1726 56.4165 75.0929C56.9932 74.4305 58.3187 73.3931 59.0302 72.8034C62.174 70.2023 65.4442 67.7603 68.8286 65.4868C69.363 66.3228 69.8343 67.1618 70.2985 68.0389C72.8521 72.8653 75.4293 77.694 77.7409 82.6435C78.0419 83.2878 78.2538 84.1114 78.4362 84.7931C78.6541 85.6066 78.5256 86.875 78.9601 87.591L79.0814 87.5616C79.8272 86.0027 78.4832 82.989 77.9114 81.4351Z" fill="#FFD9A9"/>
<path d="M68.8629 91.345C67.9059 92.9604 66.4919 94.6483 65.2833 96.0924C62.3056 99.6505 59.0655 103.133 54.9069 105.284C54.6588 105.413 52.7597 106.452 52.6614 106.552C52.3534 106.69 51.7998 106.787 51.4558 106.852C45.2513 108.021 38.6572 106.106 33.9986 101.805C32.9795 100.865 32.1266 100.184 31.2939 99.0696C32.2475 98.5856 33.4801 97.5529 34.1867 96.7186C40.6891 89.0414 46.5778 80.7852 52.8037 72.8882C53.3548 73.5339 55.9846 77.3064 56.4227 78.0062C56.6334 77.7132 56.898 77.3846 57.1208 77.0945C57.8615 77.7935 59.4347 80.0506 60.1346 80.9838C61.8881 83.3041 63.7103 85.5707 65.5986 87.7808C66.3006 88.6122 68.053 90.6703 68.8629 91.345Z" fill="#AFFFEE"/>
<path d="M86.1475 77.0832L88.0736 75.9341C89.8222 77.6992 91.8124 79.8034 93.6041 81.4738C93.0084 82.064 92.6024 82.474 91.9365 82.9889C90.2313 80.3548 88.874 78.6923 86.1475 77.0832Z" fill="black"/>
<path d="M52.6616 106.554C52.7599 106.454 54.659 105.414 54.9071 105.286C59.0657 103.135 62.3058 99.6521 65.2836 96.0941C66.4921 94.65 67.9061 92.9621 68.8631 91.3467C69.1609 91.5835 69.2356 91.5593 69.3354 91.8569C68.8171 92.9759 67.3595 94.7351 66.5817 95.7234C63.0191 100.251 58.4544 105.228 52.6616 106.554Z" fill="#AFFFEE"/>
<path d="M65.1436 104.687C68.2946 101.232 71.4523 98.3113 74.0808 94.2314C74.9639 94.3569 76.0848 94.308 76.9833 94.286C74.8296 97.8819 71.0116 101.524 67.4088 103.606C66.6265 104.012 65.9494 104.33 65.1436 104.687Z" fill="#AFFFEE"/>
<path d="M24.5968 101.926C24.1247 101.746 23.2584 101.4 22.9731 100.98C23.1521 100.735 24.0793 100.864 24.4324 100.876C26.84 100.956 28.4985 100.431 30.6806 99.5571L31.9538 100.8C31.7496 100.932 31.5416 101.058 31.3302 101.178C29.2221 102.358 26.8996 102.575 24.5968 101.926Z" fill="#FFC8C4"/>
<path d="M117.818 0C121.778 0.000258259 124.987 3.21035 124.987 7.16992V16.0215C124.987 19.981 121.778 23.1911 117.818 23.1914H102.012L96.3574 28.7949C95.8551 29.2923 95.0055 28.8872 95.0752 28.1836L95.5693 23.1914H94.1699C90.2103 23.1914 87.0001 19.9811 87 16.0215V7.16992C87 3.21019 90.2102 4.83022e-08 94.1699 0H117.818ZM93.3652 3.47168C91.6149 3.47179 90.1963 4.89121 90.1963 6.6416V16.541C90.1965 18.2912 91.615 19.7099 93.3652 19.71H115.742C117.492 19.71 118.912 18.2913 118.912 16.541V15.3779H120.999C121.437 15.3779 121.791 15.0226 121.791 14.585V8.59668C121.791 8.15907 121.437 7.80469 120.999 7.80469H118.912V6.6416C118.912 4.89114 117.493 3.47168 115.742 3.47168H93.3652Z" fill="#FFC8C4"/>
<path d="M97.1005 5.5459H99.71C99.9133 5.5459 100.086 5.6921 100.118 5.89063L101.895 16.9892C101.935 17.2372 101.741 17.4616 101.487 17.4616H98.8932C98.6901 17.4616 98.517 17.3157 98.485 17.1175L96.6923 6.01891C96.6522 5.7707 96.8462 5.5459 97.1005 5.5459Z" fill="#FFC8C4"/>
<path d="M92.6334 5.5459H95.2484C95.4528 5.5459 95.6268 5.69234 95.6585 5.89103L97.4263 16.9901C97.4658 17.2378 97.2711 17.4616 97.0162 17.4616H92.6334C92.4041 17.4616 92.2183 17.2788 92.2183 17.0533V5.95423C92.2183 5.72872 92.4041 5.5459 92.6334 5.5459Z" fill="#FFC8C4"/>
<path d="M56.456 38.6655C55.9456 38.2742 54.664 37.5763 53.6211 37.9154" stroke="#313131"/>
</svg>
