<svg width="24" height="24" viewBox="0 0 24 24" fill="none" xmlns="http://www.w3.org/2000/svg">
<path d="M23 2.1917L22.433 6.21526C21.2738 6.11209 20.354 6.31843 19.6735 6.83427C18.9931 7.32432 18.5269 8.0336 18.2749 8.96212C18.0481 9.86484 18.0103 10.8965 18.1615 12.0572H23V22H13.6632V11.6703C13.6632 8.29152 14.4444 5.73811 16.0069 4.01004C17.5693 2.25618 19.9003 1.65007 23 2.1917ZM10.3368 2.1917L9.76976 6.21526C8.61054 6.11209 7.69072 6.31843 7.01031 6.83427C6.3299 7.32432 5.86369 8.0336 5.61168 8.96212C5.38488 9.86484 5.34708 10.8965 5.49828 12.0572H10.3368V22H1V11.6703C1 8.29152 1.78121 5.73811 3.34364 4.01004C4.90607 2.25618 7.23711 1.65007 10.3368 2.1917Z" fill="#F49C5D"/>
</svg>
