<svg width="24" height="24" viewBox="0 0 24 24" fill="none" xmlns="http://www.w3.org/2000/svg">
<path fill-rule="evenodd" clip-rule="evenodd" d="M7.01593 2.45948C5.69028 3.07781 4.41279 3.67412 3 3.82366V12.3324C3 18.8844 7.89853 20.743 12 23C16.1015 20.7432 21 18.8853 21 12.3324V3.82366C17.9048 3.49615 15.4123 1 12.0009 1C10.1432 1 8.54518 1.74585 7.01617 2.45957L7.01593 2.45948ZM15.2977 8.21811C15.896 7.56768 16.8739 8.48599 16.2756 9.13736L11.3315 14.5261C11.0691 14.8114 10.6233 14.816 10.3499 14.5215L8.26067 12.2445C7.66141 11.5932 8.64111 10.6748 9.23856 11.3253L10.843 13.0738L15.2977 8.21811Z" fill="#F49C5D"/>
</svg>
