<svg width="16" height="16" viewBox="0 0 16 16" fill="none" xmlns="http://www.w3.org/2000/svg">
<path d="M7.23791 15.1241C6.007 14.4799 2 12.1438 2 9.57195V3.28646C1.9999 3.18155 2.0313 3.07903 2.09013 2.99218C2.14897 2.90533 2.23253 2.83814 2.32999 2.79933L7.5679 0.704165C7.69235 0.654601 7.83106 0.654601 7.95551 0.704165L13.1934 2.79933C13.2909 2.83814 13.3744 2.90533 13.4333 2.99218C13.4921 3.07903 13.5235 3.18155 13.5234 3.28646V9.57195C13.5234 12.1438 9.50593 14.4799 8.2855 15.1241C8.12736 15.2296 7.94897 15.301 7.76171 15.3337C7.57354 15.3042 7.39447 15.2326 7.23791 15.1241ZM3.04758 3.64263V9.57195C3.04758 11.3581 6.25319 13.4218 7.76171 14.2232C9.27022 13.4218 12.4758 11.3528 12.4758 9.57195V3.64263L7.76171 1.75699L3.04758 3.64263Z" fill="#30D065"/>
<path d="M7.43541 10.3523C7.51642 10.3457 7.59444 10.3187 7.66221 10.2738C7.72998 10.2289 7.7853 10.1676 7.82302 10.0956L9.91818 6.42909C9.98764 6.30824 10.0062 6.16473 9.9699 6.03016C9.93356 5.89558 9.84524 5.78096 9.72438 5.7115C9.60352 5.64204 9.46002 5.62344 9.32545 5.65978C9.19087 5.69613 9.07625 5.78444 9.00679 5.9053L7.23637 8.97996L6.41402 8.15237C6.31539 8.05304 6.18134 7.99696 6.04136 7.99647C5.90138 7.99598 5.76694 8.05112 5.66762 8.14975C5.56829 8.24838 5.51221 8.38243 5.51172 8.52241C5.51123 8.66238 5.56637 8.79682 5.665 8.89615C5.665 8.89615 6.62354 9.88612 6.97448 10.2056C7.10821 10.3031 7.26995 10.3546 7.43541 10.3523Z" fill="#30D065"/>
</svg>
