<svg width="227" height="297" viewBox="0 0 227 297" fill="none" xmlns="http://www.w3.org/2000/svg">
<path d="M119.015 296.044C110.322 296.044 101.568 294.99 92.9066 292.853C64.9039 285.948 41.2751 268.579 26.3682 243.943C-4.37127 193.156 12.0726 126.843 63.0299 96.131L63.0642 96.111C114.064 65.4814 180.566 81.8987 211.308 132.717C222.044 150.493 227.389 170.793 226.78 191.433C225.695 228.252 206.188 261.554 174.592 280.51C157.565 290.774 138.447 296.044 119.018 296.044H119.015ZM88.6642 138.489C61.1301 155.111 52.2396 190.943 68.8521 218.384C76.9112 231.705 89.6841 241.095 104.82 244.826C119.949 248.555 135.63 246.185 148.972 238.143C166.073 227.885 176.603 209.887 177.192 189.977C177.523 178.838 174.626 167.871 168.818 158.256C152.206 130.797 116.244 121.923 88.6642 138.489Z" fill="#FFFDFB"/>
<path d="M118.899 232.439C115.339 232.439 111.754 232.006 108.211 231.134C96.7411 228.305 87.0622 221.192 80.96 211.102C68.3699 190.297 75.1092 163.138 95.9812 150.557C116.87 138.009 144.113 144.735 156.706 165.548C161.1 172.826 163.291 181.139 163.042 189.588C162.597 204.669 154.612 218.309 141.676 226.072C134.691 230.282 126.858 232.442 118.899 232.442V232.439ZM97.261 152.671C77.5575 164.548 71.1953 190.186 83.0798 209.823C88.8391 219.346 97.9752 226.063 108.8 228.732C119.636 231.402 130.849 229.704 140.391 223.952C152.601 216.625 160.14 203.752 160.557 189.514C160.794 181.54 158.726 173.695 154.575 166.824C142.693 147.182 116.982 140.829 97.2582 152.674L97.261 152.671Z" fill="#282828"/>
<path d="M130.568 175.975L114.44 16.197C114.281 14.497 111.578 14.4459 111.527 16.2839L105.798 176.712C106.007 194.239 131.469 193.558 130.568 175.975Z" fill="#282828"/>
<path d="M120.082 166.23C132.315 167.083 141.578 177.67 140.766 189.893C140.471 194.303 138.909 198.314 136.453 201.616C132.106 207.455 124.957 211.03 117.147 210.482C104.907 209.648 95.6453 199.056 96.4581 186.83C97.2676 174.609 107.846 165.395 120.083 166.227L120.082 166.23Z" fill="#282828"/>
<path d="M128.017 195.458C124.218 200.888 116.736 202.21 111.305 198.411C105.875 194.612 104.553 187.13 108.352 181.7C112.151 176.269 119.633 174.947 125.063 178.746C130.494 182.545 131.816 190.027 128.017 195.458Z" fill="#FAF1E8"/>
</svg>
