<svg width="159" height="162" viewBox="0 0 159 162" fill="none" xmlns="http://www.w3.org/2000/svg">
<path d="M132.922 122.568L28.117 0.892457C27.0116 -0.408956 24.7681 1.09836 25.7801 2.63342L113.049 137.371C123.268 151.612 143.741 136.458 132.922 122.568Z" fill="#282828"/>
<path d="M118.746 120.59C129.259 114.277 142.917 117.642 149.26 128.122C151.545 131.905 152.565 136.087 152.445 140.201C152.231 147.476 148.423 154.504 141.709 158.532C131.202 164.865 117.54 161.495 111.198 151.012C104.856 140.534 108.241 126.92 118.746 120.587V120.59Z" fill="#282828"/>
<path d="M142 140C142 146.627 136.627 152 130 152C123.373 152 118 146.627 118 140C118 133.373 123.373 128 130 128C136.627 128 142 133.373 142 140Z" fill="#FAF1E8"/>
</svg>
