<svg width="88" height="16" viewBox="0 0 88 16" fill="none" xmlns="http://www.w3.org/2000/svg">
<g clip-path="url(#clip0_4442_2439)">
<mask id="mask0_4442_2439" style="mask-type:luminance" maskUnits="userSpaceOnUse" x="0" y="0" width="16" height="16">
<path d="M16 0H0V16H16V0Z" fill="white"/>
</mask>
<g mask="url(#mask0_4442_2439)">
<path d="M11.9446 9.62817C11.7719 9.8043 11.6926 10.059 11.7319 10.3088L12.3246 13.7612C12.3746 14.0538 12.2573 14.35 12.0246 14.5191C11.7966 14.6945 11.4933 14.7155 11.2446 14.5752L8.29195 12.9543C8.18928 12.8967 8.07528 12.8658 7.95861 12.8623H7.77795C7.71528 12.8722 7.65395 12.8932 7.59795 12.9255L4.64461 14.5542C4.49861 14.6313 4.33328 14.6587 4.17128 14.6313C3.77661 14.5528 3.51328 14.157 3.57795 13.7395L4.17128 10.2871C4.21061 10.0352 4.13128 9.77903 3.95861 9.6001L1.55128 7.14412C1.34995 6.93852 1.27995 6.62977 1.37195 6.35119C1.46128 6.07332 1.68928 5.87052 1.96461 5.82491L5.27795 5.31898C5.52995 5.29161 5.75128 5.13022 5.86461 4.89164L7.32461 1.74097C7.35928 1.6708 7.40395 1.60625 7.45795 1.55151L7.51795 1.50239C7.54928 1.46591 7.58528 1.43573 7.62528 1.41117L7.69795 1.3831L7.81128 1.33398H8.09195C8.34261 1.36135 8.56328 1.51924 8.67861 1.75501L10.1579 4.89164C10.2646 5.1211 10.4719 5.28039 10.7113 5.31898L14.0246 5.82491C14.3046 5.86701 14.5386 6.07051 14.6313 6.35119C14.7186 6.63258 14.6433 6.94133 14.4379 7.14412L11.9446 9.62817Z" fill="#C8C8C8"/>
</g>
<mask id="mask1_4442_2439" style="mask-type:luminance" maskUnits="userSpaceOnUse" x="18" y="0" width="16" height="16">
<path d="M34 0H18V16H34V0Z" fill="white"/>
</mask>
<g mask="url(#mask1_4442_2439)">
<path d="M29.9446 9.62817C29.7719 9.8043 29.6926 10.059 29.7319 10.3088L30.3246 13.7612C30.3746 14.0538 30.2573 14.35 30.0246 14.5191C29.7966 14.6945 29.4933 14.7155 29.2446 14.5752L26.2919 12.9543C26.1893 12.8967 26.0753 12.8658 25.9586 12.8623H25.7779C25.7153 12.8722 25.6539 12.8932 25.5979 12.9255L22.6446 14.5542C22.4986 14.6313 22.3333 14.6587 22.1713 14.6313C21.7766 14.5528 21.5133 14.157 21.5779 13.7395L22.1713 10.2871C22.2106 10.0352 22.1313 9.77903 21.9586 9.6001L19.5513 7.14412C19.3499 6.93852 19.2799 6.62977 19.3719 6.35119C19.4613 6.07332 19.6893 5.87052 19.9646 5.82491L23.2779 5.31898C23.5299 5.29161 23.7513 5.13022 23.8646 4.89164L25.3246 1.74097C25.3593 1.6708 25.4039 1.60625 25.4579 1.55151L25.5179 1.50239C25.5493 1.46591 25.5853 1.43573 25.6253 1.41117L25.6979 1.3831L25.8113 1.33398H26.0919C26.3426 1.36135 26.5633 1.51924 26.6786 1.75501L28.1579 4.89164C28.2646 5.1211 28.4719 5.28039 28.7113 5.31898L32.0246 5.82491C32.3046 5.86701 32.5386 6.07051 32.6313 6.35119C32.7186 6.63258 32.6433 6.94133 32.4379 7.14412L29.9446 9.62817Z" fill="#C8C8C8"/>
</g>
<mask id="mask2_4442_2439" style="mask-type:luminance" maskUnits="userSpaceOnUse" x="36" y="0" width="16" height="16">
<path d="M52 0H36V16H52V0Z" fill="white"/>
</mask>
<g mask="url(#mask2_4442_2439)">
<path d="M47.9446 9.62817C47.7719 9.8043 47.6926 10.059 47.7319 10.3088L48.3246 13.7612C48.3746 14.0538 48.2573 14.35 48.0246 14.5191C47.7966 14.6945 47.4933 14.7155 47.2446 14.5752L44.2919 12.9543C44.1893 12.8967 44.0753 12.8658 43.9586 12.8623H43.7779C43.7153 12.8722 43.6539 12.8932 43.5979 12.9255L40.6446 14.5542C40.4986 14.6313 40.3333 14.6587 40.1713 14.6313C39.7766 14.5528 39.5133 14.157 39.5779 13.7395L40.1713 10.2871C40.2106 10.0352 40.1313 9.77903 39.9586 9.6001L37.5513 7.14412C37.3499 6.93852 37.2799 6.62977 37.3719 6.35119C37.4613 6.07332 37.6893 5.87052 37.9646 5.82491L41.2779 5.31898C41.5299 5.29161 41.7513 5.13022 41.8646 4.89164L43.3246 1.74097C43.3593 1.6708 43.4039 1.60625 43.4579 1.55151L43.5179 1.50239C43.5493 1.46591 43.5853 1.43573 43.6253 1.41117L43.6979 1.3831L43.8113 1.33398H44.0919C44.3426 1.36135 44.5633 1.51924 44.6786 1.75501L46.1579 4.89164C46.2646 5.1211 46.4719 5.28039 46.7113 5.31898L50.0246 5.82491C50.3046 5.86701 50.5386 6.07051 50.6313 6.35119C50.7186 6.63258 50.6433 6.94133 50.4379 7.14412L47.9446 9.62817Z" fill="#C8C8C8"/>
</g>
<mask id="mask3_4442_2439" style="mask-type:luminance" maskUnits="userSpaceOnUse" x="54" y="0" width="16" height="16">
<path d="M70 0H54V16H70V0Z" fill="white"/>
</mask>
<g mask="url(#mask3_4442_2439)">
<path d="M65.9446 9.62817C65.7719 9.8043 65.6926 10.059 65.7319 10.3088L66.3247 13.7612C66.3747 14.0538 66.2573 14.35 66.0246 14.5191C65.7966 14.6945 65.4933 14.7155 65.2446 14.5752L62.2919 12.9543C62.1893 12.8967 62.0753 12.8658 61.9586 12.8623H61.7779C61.7153 12.8722 61.6539 12.8932 61.5979 12.9255L58.6446 14.5542C58.4986 14.6313 58.3333 14.6587 58.1713 14.6313C57.7766 14.5528 57.5133 14.157 57.5779 13.7395L58.1713 10.2871C58.2106 10.0352 58.1313 9.77903 57.9586 9.6001L55.5513 7.14412C55.3499 6.93852 55.2799 6.62977 55.3719 6.35119C55.4613 6.07332 55.6893 5.87052 55.9646 5.82491L59.2779 5.31898C59.5299 5.29161 59.7513 5.13022 59.8646 4.89164L61.3246 1.74097C61.3593 1.6708 61.4039 1.60625 61.4579 1.55151L61.5179 1.50239C61.5493 1.46591 61.5853 1.43573 61.6253 1.41117L61.6979 1.3831L61.8113 1.33398H62.0919C62.3426 1.36135 62.5633 1.51924 62.6786 1.75501L64.1579 4.89164C64.2646 5.1211 64.4719 5.28039 64.7113 5.31898L68.0246 5.82491C68.3046 5.86701 68.5386 6.07051 68.6313 6.35119C68.7186 6.63258 68.6433 6.94133 68.4379 7.14412L65.9446 9.62817Z" fill="#C8C8C8"/>
</g>
<mask id="mask4_4442_2439" style="mask-type:luminance" maskUnits="userSpaceOnUse" x="72" y="0" width="16" height="16">
<path d="M88 0H72V16H88V0Z" fill="white"/>
</mask>
<g mask="url(#mask4_4442_2439)">
<path d="M83.9446 9.62817C83.7719 9.8043 83.6926 10.059 83.7319 10.3088L84.3247 13.7612C84.3747 14.0538 84.2573 14.35 84.0246 14.5191C83.7966 14.6945 83.4933 14.7155 83.2446 14.5752L80.2919 12.9543C80.1893 12.8967 80.0753 12.8658 79.9586 12.8623H79.7779C79.7153 12.8722 79.6539 12.8932 79.5979 12.9255L76.6447 14.5542C76.4987 14.6313 76.3333 14.6587 76.1713 14.6313C75.7766 14.5528 75.5133 14.157 75.5779 13.7395L76.1713 10.2871C76.2106 10.0352 76.1313 9.77903 75.9586 9.6001L73.5514 7.14412C73.35 6.93852 73.2799 6.62977 73.3719 6.35119C73.4613 6.07332 73.6894 5.87052 73.9647 5.82491L77.2779 5.31898C77.5299 5.29161 77.7513 5.13022 77.8646 4.89164L79.3247 1.74097C79.3594 1.6708 79.4039 1.60625 79.4579 1.55151L79.5179 1.50239C79.5493 1.46591 79.5853 1.43573 79.6253 1.41117L79.6979 1.3831L79.8113 1.33398H80.0919C80.3426 1.36135 80.5633 1.51924 80.6786 1.75501L82.1579 4.89164C82.2646 5.1211 82.4719 5.28039 82.7113 5.31898L86.0246 5.82491C86.3046 5.86701 86.5386 6.07051 86.6313 6.35119C86.7186 6.63258 86.6433 6.94133 86.4379 7.14412L83.9446 9.62817Z" fill="#C8C8C8"/>
</g>
</g>
<defs>
<clipPath id="clip0_4442_2439">
<rect width="88" height="16" fill="white"/>
</clipPath>
</defs>
</svg>
