<svg width="64" height="64" viewBox="0 0 64 64" fill="none" xmlns="http://www.w3.org/2000/svg">
<path d="M56.824 32.3367C58.1006 34.2248 59.3772 36.0455 60.6538 37.9336C62.0013 39.8892 61.2921 42.047 59.0226 43.126C56.8949 43.9352 54.6963 44.7444 52.5686 45.4861C52.1431 45.621 51.8594 45.8233 51.8594 46.3627C51.7885 48.6552 51.6467 50.8803 51.5048 53.1054L51.5048 53.106C51.4339 55.3988 49.448 56.7474 47.1076 56.1405C44.8381 55.5336 42.5686 54.9941 40.2991 54.3873C39.8026 54.2524 39.5898 54.3872 39.3061 54.7244C37.8168 56.4777 36.3983 58.1635 34.909 59.9168C33.3487 61.8049 31.0082 61.8049 29.377 59.9168C27.8877 58.1635 26.4692 56.4777 24.9798 54.7244C24.6962 54.3198 24.4125 54.2524 23.9869 54.3873C21.7883 54.9941 19.5898 55.4662 17.3912 56.1405C14.6252 56.9497 12.6394 54.9942 12.6394 52.8363C12.6394 50.6784 12.3557 48.588 12.2848 46.4302C12.2848 45.9581 12.1429 45.6884 11.6465 45.5535C9.44786 44.7443 7.17835 43.9352 4.97976 43.126C2.85209 42.3168 2.07195 40.1589 3.27763 38.3382C4.55423 36.3827 5.83084 34.4945 7.17836 32.6064C7.46205 32.1344 7.46205 31.8647 7.17836 31.4601C5.90176 29.5719 4.62515 27.7512 3.34855 25.8631C2.00103 23.9076 2.71025 21.8171 4.97976 20.9405L11.5755 18.5129C12.0011 18.3106 12.2138 18.1083 12.2138 17.6363C12.2848 15.3436 12.4266 13.1183 12.5684 10.893C12.7103 8.46542 14.5543 7.31907 17.6039 7.9934C19.1642 8.398 21.3628 8.93745 23.5614 9.54435C24.1288 9.67921 24.4834 9.61179 24.838 9.13976C26.1855 7.45393 27.6749 5.76811 29.0933 4.08228C30.7246 2.19416 33.1359 2.19416 34.6962 4.08228C36.1146 5.76811 37.604 7.45393 39.0225 9.20718C39.3771 9.54435 39.6608 9.67921 40.1572 9.54435C42.3558 8.93745 44.6253 8.33056 46.8948 7.7911C49.3062 7.1842 51.2211 8.53285 51.3629 10.893C51.5048 13.0509 51.6466 15.2761 51.7176 17.5014C51.7176 17.9735 51.9303 18.2432 52.3559 18.3781C54.4835 19.1198 56.6112 19.929 58.7389 20.6708C61.2921 21.5474 62.0722 23.6378 60.5828 25.7957C59.3062 27.6164 58.1006 29.4371 56.824 31.2578C56.5403 31.6624 56.5403 31.9321 56.824 32.3367Z" fill="#FFFDFB"/>
</svg>
