<svg width="64" height="64" viewBox="0 0 64 64" fill="none" xmlns="http://www.w3.org/2000/svg">
<path d="M35.6734 33.8962H41.0067V49.8962H21.4512V44.5629H28.5623V41.0074H33.8956L35.6734 33.8962Z" fill="#50A3E9"/>
<path d="M24.857 4.71484C24.6087 4.71584 24.371 4.81488 24.1954 4.9904C24.0199 5.16593 23.9209 5.4037 23.9199 5.65192V7.45806H16.5244C14.3251 7.45806 12.5171 9.23861 12.5171 11.4305V55.3127C12.5171 57.5046 14.3251 59.2852 16.5244 59.2852H47.4678C49.6671 59.2852 51.4825 57.5046 51.4825 55.3127V11.4305C51.4825 9.23861 49.6671 7.45806 47.4678 7.45806H40.0797V5.65192C40.0787 5.4037 39.9797 5.16592 39.8041 4.9904C39.6286 4.81488 39.3908 4.71583 39.1426 4.71484H24.857ZM25.8014 6.59633H38.1982V10.2013H25.8014V6.59633ZM16.5244 9.33954H23.9199V11.1383C23.9189 11.3878 24.0171 11.6275 24.1929 11.8046C24.3686 11.9817 24.6075 12.0818 24.857 12.0828H39.1426C39.3921 12.0818 39.631 11.9817 39.8067 11.8046C39.9825 11.6275 40.0806 11.3878 40.0797 11.1383V9.33954H47.4678C48.6682 9.33954 49.601 10.2594 49.601 11.4305V55.3127C49.601 56.4838 48.6682 57.4037 47.4678 57.4037H16.5244C15.324 57.4037 14.3986 56.4838 14.3986 55.3127V11.4305C14.3986 10.2594 15.324 9.33954 16.5244 9.33954ZM22.1211 17.6519C21.9974 17.6514 21.8748 17.6753 21.7604 17.7222C21.6459 17.7692 21.5419 17.8382 21.4542 17.9255C21.3664 18.0127 21.2968 18.1163 21.2492 18.2305C21.2016 18.3446 21.1769 18.4671 21.1767 18.5908C21.1762 18.7149 21.2003 18.838 21.2476 18.9528C21.2949 19.0676 21.3644 19.1719 21.4522 19.2597C21.54 19.3475 21.6443 19.417 21.7591 19.4643C21.8739 19.5116 21.9969 19.5357 22.1211 19.5352H41.8785C42.0026 19.5357 42.1257 19.5116 42.2405 19.4643C42.3553 19.417 42.4596 19.3475 42.5474 19.2597C42.6352 19.1719 42.7047 19.0676 42.752 18.9528C42.7993 18.838 42.8234 18.7149 42.8229 18.5908C42.8227 18.4671 42.798 18.3446 42.7504 18.2305C42.7028 18.1163 42.6331 18.0127 42.5454 17.9255C42.4577 17.8382 42.3536 17.7692 42.2392 17.7222C42.1248 17.6753 42.0022 17.6514 41.8785 17.6519H22.1211ZM22.1211 25.8815C21.9969 25.881 21.8739 25.9051 21.7591 25.9524C21.6443 25.9997 21.54 26.0693 21.4522 26.157C21.3644 26.2448 21.2949 26.3491 21.2476 26.4639C21.2003 26.5787 21.1762 26.7018 21.1767 26.8259C21.1772 26.9495 21.202 27.0717 21.2497 27.1857C21.2974 27.2996 21.3671 27.403 21.4548 27.4901C21.5425 27.5771 21.6465 27.646 21.7608 27.6928C21.8751 27.7396 21.9976 27.7635 22.1211 27.763H41.8785C42.002 27.7635 42.1245 27.7396 42.2388 27.6928C42.3531 27.646 42.4571 27.5771 42.5448 27.4901C42.6325 27.403 42.7022 27.2996 42.7499 27.1857C42.7976 27.0717 42.8224 26.9495 42.8229 26.8259C42.8234 26.7018 42.7993 26.5787 42.752 26.4639C42.7047 26.3491 42.6352 26.2448 42.5474 26.157C42.4596 26.0693 42.3553 25.9997 42.2405 25.9524C42.1257 25.9051 42.0026 25.881 41.8785 25.8815H22.1211ZM34.9956 33.514C34.8715 33.5135 34.7485 33.5376 34.6337 33.5849C34.5189 33.6322 34.4146 33.7018 34.3268 33.7896C34.239 33.8774 34.1694 33.9817 34.1222 34.0965C34.0749 34.2112 34.0508 34.3343 34.0512 34.4584V39.4028H28.2745C28.1508 39.4031 28.0284 39.4277 27.9142 39.4753C27.8001 39.523 27.6964 39.5926 27.6092 39.6803C27.522 39.7681 27.4529 39.8721 27.406 39.9865C27.359 40.101 27.3351 40.2236 27.3356 40.3472V44.0202H21.5515C21.303 44.0212 21.0649 44.1205 20.8893 44.2964C20.7138 44.4723 20.6149 44.7105 20.6144 44.9591V50.5631C20.6154 50.8113 20.7145 51.0491 20.89 51.2246C21.0655 51.4001 21.3033 51.4992 21.5515 51.5002H28.2745H34.9956H41.7186C41.9669 51.4992 42.2046 51.4001 42.3801 51.2246C42.5557 51.0491 42.6547 50.8113 42.6557 50.5631V34.4584C42.6567 34.2089 42.5585 33.9693 42.3827 33.7922C42.207 33.6151 41.9681 33.515 41.7186 33.514H34.9956ZM35.9327 35.3955H40.7742V49.6187H35.9327V40.3472C35.9333 40.3283 35.9333 40.3093 35.9327 40.2903V35.3955ZM29.2116 41.2843H34.0512V49.6187H29.2116V44.9591V41.2843ZM22.4959 45.9035H27.3356V49.6187H22.4959V45.9035Z" fill="#282828"/>
</svg>
