<svg width="276" height="308" viewBox="0 0 276 308" fill="none" xmlns="http://www.w3.org/2000/svg">
<path d="M6.98189 246.136C6.98189 245.429 7.55027 244.856 8.25141 244.856H271.356C272.057 244.856 272.626 245.429 272.626 246.136C272.626 246.843 272.057 247.416 271.356 247.416H8.25141C7.55027 247.416 6.98189 246.843 6.98189 246.136Z" fill="#282828"/>
<path d="M14.8609 143.376C19.0098 149.991 26.9282 157.417 31.5046 161.259C32.1908 161.836 32.2683 162.874 31.6638 163.537C31.1722 164.075 30.3735 164.2 29.7768 163.782C24.2607 159.926 16.4906 150.528 12.3221 145.031C11.7682 144.3 12.0009 143.252 12.8015 142.811C13.5223 142.415 14.4221 142.676 14.8609 143.376Z" fill="#282828"/>
<path d="M261.138 143.295C256.989 149.91 249.071 157.336 244.494 161.179C243.808 161.755 243.731 162.793 244.335 163.456C244.827 163.995 245.625 164.119 246.222 163.702C251.738 159.845 259.508 150.447 263.677 144.95C264.231 144.219 263.998 143.171 263.197 142.731C262.477 142.334 261.577 142.595 261.138 143.295Z" fill="#282828"/>
<path d="M2.85525 176.457C9.72728 180.096 17.2514 180.955 23.1198 181.978C23.9997 182.131 24.5814 182.992 24.3862 183.87C24.2274 184.585 23.5971 185.095 22.8735 185.034C16.1841 184.473 7.81109 181.83 1.47626 179.169C0.634435 178.816 0.316466 177.79 0.79175 177.006C1.21963 176.299 2.12841 176.072 2.85525 176.457Z" fill="#282828"/>
<path d="M273.144 176.376C266.272 180.016 258.747 180.875 252.879 181.897C251.999 182.05 251.418 182.911 251.613 183.789C251.772 184.504 252.402 185.014 253.125 184.953C259.815 184.392 268.188 181.75 274.523 179.089C275.364 178.735 275.682 177.71 275.207 176.925C274.779 176.218 273.871 175.991 273.144 176.376Z" fill="#282828"/>
<path d="M2.77911 208.034C10.1773 207.297 14.9703 205.949 20.6174 204.042C21.4641 203.756 22.381 204.235 22.6224 205.102C22.8188 205.807 22.5038 206.557 21.8382 206.85C15.6854 209.555 9.6699 210.394 2.84132 211.081C1.93388 211.173 1.1716 210.422 1.2208 209.504C1.26509 208.677 1.95816 208.042 2.77911 208.034Z" fill="#282828"/>
<path d="M273.22 207.953C265.822 207.216 261.029 205.868 255.381 203.961C254.535 203.675 253.618 204.154 253.377 205.021C253.18 205.726 253.495 206.476 254.161 206.769C260.314 209.475 266.329 210.313 273.158 211.001C274.065 211.092 274.827 210.341 274.778 209.423C274.734 208.597 274.041 207.962 273.22 207.953Z" fill="#282828"/>
<path d="M185.574 71.9417C182.715 80.1252 176.129 82.724 173.554 82.9177C173.554 92.6611 166.889 102.944 161.992 105.413V111.58C180.356 115.004 193.754 121.361 203.753 127.085C212.204 131.922 219.895 146.882 222.797 154.243C227.694 166.405 238.468 193.774 242.385 205.954C246.303 218.135 245.287 227.215 244.29 230.232C239.393 244.607 223.696 251.354 216.46 252.93H58.9971C33.9814 243.747 33.405 234.68 31.7911 228.287C30.1772 221.893 31.4453 211.897 35.2495 201.551C39.0538 191.206 49.7746 160.75 55.6539 149.94C61.5331 139.129 63.954 131.225 75.3667 125.413C84.4969 120.763 104.994 114.254 114.101 111.58V106.233C104.971 99.0726 101.996 87.0532 101.65 81.9386C98.5749 81.9386 93.3069 78.4303 92.1006 75.626C86.0998 61.6772 92.1006 55.5517 93.696 55.5517C84.7041 30.676 98.7683 23.7015 99.6905 21.8417C100.428 20.3538 96.77 20.6018 94.8487 20.9117C101.535 10.7987 117.213 1.49938 134.39 0.68569C148.131 0.0347372 158.406 6.30403 161.826 9.52005C163.025 8.68311 162.326 5.14161 161.826 3.47548C166.714 5.42834 167.859 9.79127 167.821 11.7286C170.772 10.0548 174.66 11.6511 176.236 12.6586C172.547 12.8446 171.701 15.4484 171.74 16.727C176.697 18.7031 182.691 26.84 184.421 34.8607C185.804 41.2772 183.844 51.3283 182.691 55.5517C185.228 55.4355 189.147 61.7125 185.574 71.9417Z" fill="#282828"/>
<path d="M139.425 135.182C160.92 133.766 164.758 121.101 163.99 114.946C175.637 117.078 198.387 125.226 206.592 132.371C214.861 139.572 229.135 175.117 234.812 192.542C237.589 198.768 243.042 214.354 242.644 226.889C242.247 239.424 225.406 247.74 217.035 250.33L61.5635 251.07C44.1268 246.315 35.7921 238.353 33.5988 225.083C31.8442 214.468 39.3014 195.079 43.2493 186.712C48.9518 171.157 62.4624 138.278 70.8847 131.201C79.3069 124.124 102.176 116.973 112.557 114.282C111.592 130.294 130.067 134.887 139.425 135.182Z" fill="#50A3E9"/>
<path d="M50.4021 211.175C52.6535 211.213 54.5368 211.745 56.0486 212.479C58.0403 213.445 60.3248 213.781 60.9459 213.131C61.3513 212.708 60.6815 211.701 60.2887 211.265C58.0987 208.836 53.4028 207.857 50.2257 207.566C49.2412 207.476 48.4336 208.282 48.4336 209.279C48.4336 210.34 49.3492 211.158 50.4021 211.175Z" fill="#282828"/>
<path d="M225.784 211.673C223.532 211.711 221.649 212.243 220.137 212.977C218.146 213.943 215.861 214.278 215.24 213.629C214.835 213.205 215.504 212.199 215.897 211.763C218.087 209.334 222.783 208.355 225.96 208.064C226.945 207.974 227.752 208.78 227.752 209.776C227.752 210.838 226.837 211.655 225.784 211.673Z" fill="#282828"/>
<path d="M194.459 156.91C194.505 156.298 195.033 155.84 195.64 155.886C196.246 155.931 196.701 156.464 196.656 157.076L195.949 166.586C195.904 167.198 195.375 167.656 194.768 167.611C194.162 167.565 193.707 167.032 193.753 166.42L194.459 156.91Z" fill="#282828"/>
<path d="M82.0989 156.596C82.0535 155.984 81.525 155.526 80.9184 155.572C80.3119 155.617 79.8571 156.15 79.9025 156.762L80.6094 166.272C80.6549 166.884 81.1834 167.342 81.7899 167.297C82.3964 167.251 82.8513 166.718 82.8058 166.106L82.0989 156.596Z" fill="#282828"/>
<path d="M217.497 172.886V275.075L237.299 296.015C238.895 303.524 234.972 306.708 232.811 307.361H43.9105C37.323 304.564 38.278 298.049 39.5789 295.141L58.4365 275.075V172.886C58.4365 168.835 61.6933 165.551 65.7107 165.551H210.223C214.24 165.551 217.497 168.835 217.497 172.886Z" fill="#282828"/>
<path d="M174.395 78.2671L174.042 75.4625C173.976 74.9362 173.216 74.9262 173.13 75.4496C170.791 89.6166 168.262 97.9374 157.958 106.431C145.018 117.097 131.748 115.388 118.369 107.205C109.253 101.63 103.972 86.8633 102.605 76.9353C102.53 76.3861 101.454 76.3241 101.348 76.8681L101.185 77.7011C100.949 78.9045 99.624 79.5392 98.6259 78.8381C88.1934 71.5107 91.6205 57.7184 95.3395 56.7809C99.2875 55.7856 102.687 65.2955 103.674 64.3003C104.661 63.3051 103.564 47.4921 104.661 46.8287C105.538 46.2979 107.366 48.4505 108.17 49.5932C110.802 48.4431 112.84 34.9159 113.571 30.4189C118.045 41.6539 127.361 48.2662 131.419 48.045C129.138 43.9757 130.469 37.4294 131.419 34.6649C137.473 45.0152 145.785 47.0867 149.185 46.8287C147.254 43.644 147.868 39.1618 148.417 37.3188C156.4 48.996 162.856 52.1365 165.086 52.2471L169.801 47.4921C170.13 52.9474 171.227 63.9464 172.982 64.3003C175.175 64.7426 180 48.8191 183.51 61.6464C185.977 70.6667 180.435 76.6454 176.252 79.2367C175.47 79.7209 174.51 79.1847 174.395 78.2671Z" fill="white"/>
<path d="M137.789 116.435C146.977 116.786 156.252 110.815 159.741 107.786L161.122 114.016C164.3 125.763 148.256 132.206 137.789 132.573C127.322 132.939 119.907 126.916 116.854 123.105C114.412 120.055 114.819 115.775 115.328 114.016L116.345 108.225C119.665 110.815 128.601 116.083 137.789 116.435Z" fill="white"/>
<path fill-rule="evenodd" clip-rule="evenodd" d="M211.127 168.236C213.386 168.236 215.218 170.084 215.218 172.362V271.285C215.218 273.563 213.386 275.41 211.127 275.41H65.0685C62.8087 275.41 60.9768 273.563 60.9768 271.285V172.362C60.9769 170.084 62.8087 168.236 65.0685 168.236H211.127ZM67.4673 172.095C65.9608 172.095 64.7396 173.326 64.7395 174.845V268.801C64.7395 270.32 65.9608 271.552 67.4673 271.552H208.727C210.234 271.552 211.455 270.32 211.455 268.801V174.846C211.455 173.327 210.234 172.095 208.727 172.095H67.4673Z" fill="#B6BAC4"/>
<path d="M210.496 278.244C214.547 277.997 215.764 276.903 215.866 276.388L235.044 297.427H40.9685L59.6855 276.388C60.9129 277.873 63.0608 278.244 63.9813 278.244C111.132 278.347 206.446 278.492 210.496 278.244Z" fill="#B6BAC4"/>
<path d="M39.8945 299.593H235.197C236.041 302.84 232.852 305.163 231.151 305.919H46.2187C42.082 304.914 40.279 301.283 39.8945 299.593Z" fill="#B6BAC4"/>
<path d="M153.354 56.1685C156.881 56.2808 159.179 57.6076 160.413 58.8386C161.005 59.4291 162.221 59.6094 162.775 58.9819C163.011 58.7135 163.103 58.3395 162.954 58.0138C162.169 56.3096 159.6 53.5683 153.91 53.0147C148.606 52.4987 145.528 54.3341 144.203 55.7958C143.805 56.2347 143.878 56.8879 144.261 57.3395C144.811 57.9861 145.803 58.0016 146.526 57.5623C147.744 56.8226 149.852 56.0569 153.354 56.1685Z" fill="#282828"/>
<path d="M120.965 56.1685C117.438 56.2808 115.14 57.6076 113.906 58.8386C113.314 59.4291 112.098 59.6094 111.545 58.9819C111.308 58.7135 111.216 58.3395 111.366 58.0138C112.15 56.3096 114.719 53.5683 120.41 53.0147C125.713 52.4987 128.791 54.3341 130.116 55.7958C130.514 56.2347 130.442 56.8879 130.058 57.3395C129.508 57.9861 128.516 58.0016 127.793 57.5623C126.575 56.8226 124.468 56.0569 120.965 56.1685Z" fill="#282828"/>
<path d="M153.146 69.0639C155.845 68.9181 157.66 71.6066 158.473 73.5118C158.675 73.9854 159.123 74.3202 159.634 74.3202C160.248 74.3202 160.765 73.8426 160.727 73.2247C160.551 70.3789 158.904 66.1562 153.146 65.9101C147.453 65.6669 145.814 69.9781 145.631 73.0311C145.587 73.7589 146.197 74.3202 146.92 74.3202C147.556 74.3202 148.104 73.8801 148.341 73.2847C149.042 71.527 150.587 69.2022 153.146 69.0639Z" fill="#282828"/>
<path d="M121.864 69.0639C119.164 68.9181 117.349 71.6066 116.536 73.5118C116.334 73.9854 115.887 74.3202 115.375 74.3202C114.761 74.3202 114.244 73.8426 114.283 73.2247C114.458 70.3789 116.105 66.1562 121.864 65.9101C127.556 65.6669 129.196 69.9781 129.379 73.0311C129.422 73.7589 128.813 74.3202 128.09 74.3202C127.453 74.3202 126.906 73.8801 126.668 73.2847C125.967 71.527 124.422 69.2022 121.864 69.0639Z" fill="#282828"/>
<path d="M131.605 80.1217C132.866 78.0046 134.668 72.6849 135.525 69.5545C135.911 68.1461 138.118 69.0643 137.735 70.9073C137.307 72.9698 134.784 78.1563 133.603 81.4503C132.421 84.7442 138.222 84.2218 139.767 84.6646C141.312 85.1074 141.425 87.2789 139.299 87.2789C135.605 87.2789 128.492 85.3503 131.605 80.1217Z" fill="#282828"/>
<path fill-rule="evenodd" clip-rule="evenodd" d="M149.813 90.827C150.181 90.6176 150.711 90.9204 150.624 91.3377C149.721 95.6775 146.038 103.179 138.023 103.179C129.719 103.179 125.228 95.1381 124.795 90.8823C124.76 90.5352 125.128 90.3213 125.434 90.4836C127.45 91.5521 131.379 93.1074 138.023 93.1074C143.905 93.1074 147.865 91.9342 149.813 90.827ZM147.084 94.8305C147.212 94.4485 146.762 94.1317 146.39 94.2785C144.914 94.8606 142.12 95.4457 138.067 95.4457C133.399 95.4457 130.582 94.6398 129.084 94.0543C128.784 93.9367 128.463 94.1508 128.529 94.4692C129.027 96.8638 132.259 100.993 138.067 100.993C143.59 100.993 146.273 97.2526 147.084 94.8305Z" fill="#282828"/>
<path d="M66.9219 175.732C66.9219 175.226 67.3334 174.815 67.8412 174.815H208.394C208.902 174.815 209.314 175.226 209.314 175.732V267.893C209.314 268.399 208.902 268.81 208.394 268.81H67.8412C67.3334 268.81 66.9219 268.399 66.9219 267.893V175.732Z" fill="white"/>
<path d="M113.91 292.806C113.91 291.994 114.563 291.336 115.368 291.336H161.011C161.816 291.336 162.469 291.994 162.469 292.806C162.469 293.618 161.816 294.276 161.011 294.276H115.368C114.563 294.276 113.91 293.618 113.91 292.806Z" fill="#282828"/>
<path d="M86.3672 233.516C86.3672 230.326 88.9323 227.739 92.0964 227.739H184.135C187.299 227.739 189.864 230.326 189.864 233.516C189.864 236.707 187.299 239.293 184.135 239.293H92.0964C88.9323 239.293 86.3672 236.707 86.3672 233.516Z" fill="#282828"/>
<path d="M87.9258 233.517C87.9258 231.378 89.6455 229.644 91.767 229.644H184.105C186.226 229.644 187.946 231.378 187.946 233.517C187.946 235.656 186.226 237.39 184.105 237.39H91.767C89.6455 237.39 87.9258 235.656 87.9258 233.517Z" fill="white"/>
<path d="M89.2891 233.481C89.2891 230.817 91.4315 228.656 94.0743 228.656H146.368C149.011 228.656 151.153 230.817 151.153 233.481C151.153 236.146 149.011 238.307 146.368 238.307H94.0743C91.4315 238.307 89.2891 236.146 89.2891 233.481Z" fill="#282828"/>
<path d="M87.9258 233.517C87.9258 231.378 89.6455 229.644 91.767 229.644H145.949C148.07 229.644 149.79 231.378 149.79 233.517C149.79 235.656 148.07 237.39 145.949 237.39H91.767C89.6455 237.39 87.9258 235.656 87.9258 233.517Z" fill="#30D065"/>
<path d="M87.0586 219.002V207.12H90.8148C90.913 207.12 91.1066 207.122 91.3958 207.128C91.6904 207.133 91.9741 207.153 92.2469 207.186C93.1798 207.307 93.9681 207.642 94.6119 208.192C95.2611 208.737 95.7521 209.433 96.0849 210.28C96.4177 211.127 96.5841 212.054 96.5841 213.061C96.5841 214.068 96.4177 214.994 96.0849 215.842C95.7521 216.689 95.2611 217.387 94.6119 217.938C93.9681 218.482 93.1798 218.815 92.2469 218.936C91.9795 218.969 91.6986 218.988 91.404 218.994C91.1094 218.999 90.913 219.002 90.8148 219.002H87.0586ZM89.0635 217.129H90.8148C90.9784 217.129 91.1857 217.123 91.4367 217.112C91.6931 217.101 91.9195 217.077 92.1159 217.038C92.6724 216.934 93.1252 216.683 93.4744 216.287C93.8235 215.891 94.0799 215.41 94.2436 214.843C94.4127 214.277 94.4973 213.682 94.4973 213.061C94.4973 212.417 94.4127 211.812 94.2436 211.245C94.0745 210.679 93.8126 210.203 93.458 209.818C93.1088 209.433 92.6615 209.188 92.1159 209.084C91.9195 209.04 91.6931 209.015 91.4367 209.009C91.1857 208.998 90.9784 208.993 90.8148 208.993H89.0635V217.129Z" fill="#282828"/>
<path d="M102.422 219.25C101.538 219.25 100.766 219.049 100.106 218.647C99.446 218.246 98.9332 217.693 98.5676 216.989C98.2076 216.279 98.0275 215.465 98.0275 214.546C98.0275 213.611 98.213 212.791 98.584 212.087C98.955 211.383 99.4705 210.833 100.131 210.437C100.791 210.041 101.555 209.843 102.422 209.843C103.311 209.843 104.086 210.043 104.746 210.445C105.406 210.847 105.919 211.402 106.285 212.112C106.65 212.816 106.833 213.627 106.833 214.546C106.833 215.47 106.647 216.287 106.276 216.997C105.911 217.701 105.398 218.254 104.738 218.655C104.078 219.052 103.306 219.25 102.422 219.25ZM102.422 217.385C103.208 217.385 103.791 217.121 104.173 216.593C104.555 216.064 104.746 215.382 104.746 214.546C104.746 213.682 104.552 212.995 104.165 212.483C103.778 211.966 103.197 211.708 102.422 211.708C101.893 211.708 101.456 211.829 101.113 212.071C100.774 212.307 100.523 212.64 100.36 213.069C100.196 213.493 100.114 213.985 100.114 214.546C100.114 215.41 100.308 216.1 100.695 216.617C101.088 217.129 101.664 217.385 102.422 217.385Z" fill="#282828"/>
<path d="M110.198 219.002L107.498 210.074L109.429 210.09L111.156 215.809L112.907 210.09H114.568L116.311 215.809L118.046 210.09H119.978L117.277 219.002H115.739L113.734 212.871L111.737 219.002H110.198Z" fill="#282828"/>
<path d="M127.567 219.002V214.711C127.567 214.431 127.548 214.12 127.51 213.779C127.472 213.438 127.382 213.11 127.24 212.797C127.104 212.478 126.896 212.216 126.618 212.013C126.345 211.809 125.974 211.708 125.505 211.708C125.254 211.708 125.006 211.749 124.76 211.831C124.515 211.914 124.291 212.057 124.089 212.26C123.893 212.458 123.735 212.734 123.615 213.086C123.495 213.432 123.435 213.878 123.435 214.422L122.265 213.919C122.265 213.16 122.409 212.472 122.698 211.856C122.993 211.24 123.424 210.75 123.991 210.387C124.559 210.019 125.257 209.834 126.086 209.834C126.741 209.834 127.281 209.944 127.706 210.164C128.132 210.385 128.47 210.665 128.721 211.006C128.972 211.347 129.158 211.71 129.278 212.095C129.398 212.48 129.474 212.846 129.507 213.193C129.545 213.534 129.564 213.812 129.564 214.026V219.002H127.567ZM121.438 219.002V210.09H123.197V212.855H123.435V219.002H121.438Z" fill="#282828"/>
<path d="M131.863 219.002V206.872H133.835V219.002H131.863Z" fill="#282828"/>
<path d="M140.19 219.25C139.306 219.25 138.534 219.049 137.874 218.647C137.214 218.246 136.701 217.693 136.336 216.989C135.976 216.279 135.796 215.465 135.796 214.546C135.796 213.611 135.981 212.791 136.352 212.087C136.723 211.383 137.239 210.833 137.899 210.437C138.559 210.041 139.323 209.843 140.19 209.843C141.079 209.843 141.854 210.043 142.514 210.445C143.174 210.847 143.687 211.402 144.053 212.112C144.418 212.816 144.601 213.627 144.601 214.546C144.601 215.47 144.416 216.287 144.045 216.997C143.679 217.701 143.166 218.254 142.506 218.655C141.846 219.052 141.074 219.25 140.19 219.25ZM140.19 217.385C140.976 217.385 141.56 217.121 141.941 216.593C142.323 216.064 142.514 215.382 142.514 214.546C142.514 213.682 142.321 212.995 141.933 212.483C141.546 211.966 140.965 211.708 140.19 211.708C139.661 211.708 139.225 211.829 138.881 212.071C138.543 212.307 138.292 212.64 138.128 213.069C137.964 213.493 137.883 213.985 137.883 214.546C137.883 215.41 138.076 216.1 138.464 216.617C138.856 217.129 139.432 217.385 140.19 217.385Z" fill="#282828"/>
<path d="M148.875 219.25C148.237 219.25 147.697 219.129 147.255 218.886C146.813 218.639 146.478 218.312 146.249 217.905C146.025 217.497 145.913 217.049 145.913 216.56C145.913 216.13 145.984 215.745 146.126 215.404C146.268 215.058 146.486 214.761 146.781 214.513C147.075 214.26 147.457 214.054 147.926 213.894C148.281 213.779 148.695 213.674 149.17 213.581C149.65 213.487 150.168 213.402 150.725 213.325C151.287 213.242 151.873 213.154 152.484 213.061L151.781 213.465C151.786 212.849 151.65 212.395 151.371 212.104C151.093 211.812 150.624 211.666 149.964 211.666C149.566 211.666 149.181 211.76 148.81 211.947C148.439 212.134 148.18 212.456 148.033 212.912L146.232 212.343C146.45 211.589 146.865 210.984 147.476 210.528C148.093 210.071 148.922 209.843 149.964 209.843C150.749 209.843 151.44 209.972 152.034 210.23C152.634 210.489 153.079 210.913 153.368 211.501C153.526 211.815 153.622 212.137 153.655 212.467C153.687 212.791 153.704 213.146 153.704 213.531V219.002H151.977V217.071L152.263 217.385C151.865 218.028 151.399 218.501 150.864 218.804C150.335 219.101 149.672 219.25 148.875 219.25ZM149.268 217.665C149.716 217.665 150.098 217.585 150.414 217.426C150.73 217.266 150.981 217.071 151.167 216.84C151.358 216.609 151.486 216.392 151.551 216.188C151.655 215.935 151.712 215.646 151.723 215.322C151.74 214.992 151.748 214.725 151.748 214.521L152.353 214.703C151.759 214.796 151.249 214.879 150.823 214.95C150.398 215.022 150.032 215.091 149.727 215.157C149.421 215.217 149.151 215.286 148.916 215.363C148.687 215.446 148.494 215.542 148.335 215.652C148.177 215.762 148.054 215.888 147.967 216.031C147.885 216.174 147.844 216.342 147.844 216.535C147.844 216.755 147.899 216.95 148.008 217.121C148.117 217.286 148.275 217.418 148.483 217.517C148.695 217.616 148.957 217.665 149.268 217.665Z" fill="#282828"/>
<path d="M159.378 219.25C158.565 219.25 157.855 219.043 157.25 218.631C156.644 218.218 156.175 217.657 155.842 216.947C155.51 216.238 155.343 215.437 155.343 214.546C155.343 213.644 155.51 212.841 155.842 212.137C156.181 211.427 156.658 210.869 157.274 210.462C157.891 210.049 158.617 209.843 159.451 209.843C160.291 209.843 160.995 210.049 161.563 210.462C162.135 210.869 162.569 211.427 162.864 212.137C163.158 212.846 163.306 213.649 163.306 214.546C163.306 215.432 163.158 216.232 162.864 216.947C162.569 217.657 162.13 218.218 161.546 218.631C160.962 219.043 160.24 219.25 159.378 219.25ZM159.68 217.467C160.21 217.467 160.635 217.346 160.957 217.104C161.284 216.857 161.522 216.513 161.669 216.073C161.822 215.633 161.898 215.124 161.898 214.546C161.898 213.963 161.822 213.454 161.669 213.02C161.522 212.579 161.29 212.238 160.973 211.996C160.657 211.749 160.248 211.625 159.746 211.625C159.217 211.625 158.78 211.757 158.436 212.021C158.093 212.28 157.839 212.632 157.675 213.077C157.512 213.517 157.43 214.007 157.43 214.546C157.43 215.091 157.509 215.586 157.667 216.031C157.831 216.472 158.079 216.821 158.412 217.079C158.745 217.338 159.168 217.467 159.68 217.467ZM161.898 219.002V212.747H161.653V207.12H163.641V219.002H161.898Z" fill="#282828"/>
<path d="M166.099 208.737V206.913H168.071V208.737H166.099ZM166.099 219.002V210.09H168.071V219.002H166.099Z" fill="#282828"/>
<path d="M176.636 219.002V214.711C176.636 214.431 176.617 214.12 176.578 213.779C176.54 213.438 176.45 213.11 176.308 212.797C176.172 212.478 175.965 212.216 175.686 212.013C175.414 211.809 175.043 211.708 174.573 211.708C174.323 211.708 174.074 211.749 173.829 211.831C173.583 211.914 173.36 212.057 173.158 212.26C172.961 212.458 172.803 212.734 172.683 213.086C172.563 213.432 172.503 213.878 172.503 214.422L171.333 213.919C171.333 213.16 171.477 212.472 171.767 211.856C172.061 211.24 172.492 210.75 173.06 210.387C173.627 210.019 174.325 209.834 175.154 209.834C175.809 209.834 176.349 209.944 176.775 210.164C177.2 210.385 177.539 210.665 177.79 211.006C178.04 211.347 178.226 211.71 178.346 212.095C178.466 212.48 178.542 212.846 178.575 213.193C178.613 213.534 178.632 213.812 178.632 214.026V219.002H176.636ZM170.506 219.002V210.09H172.266V212.855H172.503V219.002H170.506Z" fill="#282828"/>
<path d="M184.483 223.21C183.992 223.21 183.52 223.133 183.067 222.979C182.62 222.825 182.216 222.602 181.856 222.311C181.496 222.025 181.202 221.678 180.972 221.271L182.789 220.364C182.958 220.688 183.196 220.927 183.501 221.081C183.812 221.241 184.142 221.321 184.491 221.321C184.901 221.321 185.266 221.246 185.588 221.098C185.91 220.955 186.158 220.74 186.333 220.454C186.513 220.174 186.597 219.822 186.586 219.398V216.865H186.832V210.09H188.558V219.431C188.558 219.657 188.548 219.871 188.526 220.075C188.509 220.284 188.479 220.487 188.436 220.685C188.305 221.263 188.054 221.736 187.683 222.105C187.312 222.479 186.851 222.757 186.3 222.938C185.754 223.12 185.149 223.21 184.483 223.21ZM184.311 219.25C183.498 219.25 182.789 219.043 182.184 218.631C181.578 218.218 181.109 217.657 180.776 216.947C180.443 216.238 180.277 215.437 180.277 214.546C180.277 213.644 180.443 212.841 180.776 212.137C181.114 211.427 181.592 210.869 182.208 210.462C182.825 210.049 183.55 209.843 184.385 209.843C185.225 209.843 185.929 210.049 186.496 210.462C187.069 210.869 187.503 211.427 187.797 212.137C188.092 212.846 188.239 213.649 188.239 214.546C188.239 215.432 188.092 216.232 187.797 216.947C187.503 217.657 187.064 218.218 186.48 218.631C185.896 219.043 185.173 219.25 184.311 219.25ZM184.614 217.467C185.143 217.467 185.569 217.346 185.891 217.104C186.218 216.857 186.455 216.513 186.603 216.073C186.755 215.633 186.832 215.124 186.832 214.546C186.832 213.963 186.755 213.454 186.603 213.02C186.455 212.579 186.223 212.238 185.907 211.996C185.591 211.749 185.181 211.625 184.68 211.625C184.15 211.625 183.714 211.757 183.37 212.021C183.027 212.28 182.773 212.632 182.609 213.077C182.446 213.517 182.364 214.007 182.364 214.546C182.364 215.091 182.443 215.586 182.601 216.031C182.765 216.472 183.013 216.821 183.346 217.079C183.678 217.338 184.101 217.467 184.614 217.467Z" fill="#282828"/>
</svg>
