<svg width="24" height="24" viewBox="0 0 24 24" fill="none" xmlns="http://www.w3.org/2000/svg">
<path fill-rule="evenodd" clip-rule="evenodd" d="M8.07385 6.068C11.1447 6.068 12.7195 9.82985 10.5305 12.0384C8.34251 14.2461 4.60061 12.6635 4.60061 9.56619C4.59967 7.64567 6.15071 6.068 8.07385 6.068ZM10.6878 13.5618C13.1887 14.4044 15.1393 16.4163 15.9271 18.9317H23V18.3536C23 16.387 22.2085 14.6048 20.9279 13.3142C18.0577 10.4173 13.3968 10.5559 10.6878 13.5618ZM15.9252 3C14.001 3 12.4519 4.57784 12.4519 6.49843C12.4519 9.59584 16.1939 11.1773 18.3819 8.97067C20.5699 6.76301 18.9972 3.00024 15.9252 3.00024V3ZM8.07385 14.2906C11.9948 14.2906 15.1487 17.5027 15.1487 21.422V22H1V21.422C0.999058 17.5037 4.15289 14.2906 8.07385 14.2906Z" fill="#969EFF"/>
</svg>
