<svg width="16" height="16" viewBox="0 0 16 16" fill="none" xmlns="http://www.w3.org/2000/svg">
    <path d="M8.12367 7.62613C8.84769 7.62613 9.55546 7.41143 10.1575 7.00919C10.7595 6.60694 11.2287 6.03522 11.5057 5.36631C11.7828 4.6974 11.8553 3.96135 11.7141 3.25124C11.5728 2.54113 11.2242 1.88885 10.7122 1.37689C10.2002 0.864928 9.54795 0.516279 8.83784 0.375029C8.12773 0.233779 7.39168 0.306274 6.72277 0.583345C6.05386 0.860416 5.48214 1.32962 5.07989 1.93162C4.67765 2.53363 4.46295 3.24139 4.46295 3.96541C4.46406 4.93595 4.8501 5.86642 5.53638 6.5527C6.22266 7.23898 7.15313 7.62502 8.12367 7.62613Z" fill="#FFFDFB"/>
    <path d="M15.2786 15.6967C15.2784 14.2817 14.8587 12.8985 14.0725 11.722C13.2863 10.5456 12.1689 9.6286 10.8616 9.08712C9.55434 8.54564 8.11583 8.40395 6.72801 8.67997C5.34019 8.95598 4.06537 9.63731 3.06474 10.6378C2.39822 11.3006 1.86979 12.089 1.51001 12.9573C1.15024 13.8257 0.966278 14.7568 0.968775 15.6967H15.2786Z" fill="#FFFDFB"/>
</svg>
