<svg width="37" height="12" viewBox="0 0 37 12" fill="none" xmlns="http://www.w3.org/2000/svg">
<path d="M13.5703 11.3297L15.4496 0.728516H18.386L16.5654 11.3297H13.5703Z" fill="#3C58BF"/>
<path d="M13.5703 11.3297L15.9782 0.728516H18.386L16.5654 11.3297H13.5703Z" fill="#293688"/>
<path d="M27.1885 0.847141C26.6012 0.611559 25.6616 0.375977 24.487 0.375977C21.5506 0.375977 19.4364 1.84836 19.4364 3.9686C19.4364 5.55878 20.9046 6.38331 22.0792 6.91337C23.2537 7.44343 23.6061 7.79681 23.6061 8.26797C23.6061 8.97472 22.6665 9.32809 21.8443 9.32809C20.6697 9.32809 20.0237 9.1514 19.0253 8.73913L18.6142 8.56245L18.2031 10.9772C18.9079 11.2716 20.1999 11.5661 21.5506 11.5661C24.6632 11.5661 26.7187 10.0937 26.7187 7.8557C26.7187 6.6189 25.9552 5.67657 24.1934 4.91093C23.1363 4.38087 22.4903 4.08639 22.4903 3.55633C22.4903 3.08517 23.0188 2.61401 24.1934 2.61401C25.1918 2.61401 25.8965 2.79069 26.4251 3.02627L26.7187 3.14406L27.1885 0.847141Z" fill="#3C58BF"/>
<path d="M27.1885 0.847141C26.6012 0.611559 25.6616 0.375977 24.487 0.375977C21.5506 0.375977 19.965 1.84836 19.965 3.9686C19.965 5.55878 20.9046 6.38331 22.0792 6.91337C23.2537 7.44343 23.6061 7.79681 23.6061 8.26797C23.6061 8.97472 22.6665 9.32809 21.8443 9.32809C20.6697 9.32809 20.0237 9.1514 19.0253 8.73913L18.6142 8.56245L18.2031 10.9772C18.9079 11.2716 20.1999 11.5661 21.5506 11.5661C24.6632 11.5661 26.7187 10.0937 26.7187 7.8557C26.7187 6.6189 25.9552 5.67657 24.1934 4.91093C23.1363 4.38087 22.4903 4.08639 22.4903 3.55633C22.4903 3.08517 23.0188 2.61401 24.1934 2.61401C25.1918 2.61401 25.8965 2.79069 26.4251 3.02627L26.7187 3.14406L27.1885 0.847141Z" fill="#293688"/>
<path d="M32.2401 0.729492C31.5354 0.729492 31.0068 0.788387 30.7132 1.49513L26.3086 11.3307H29.4799L30.0672 9.56381H33.8258L34.1782 11.3307H36.9971L34.5305 0.729492H32.2401ZM30.8894 7.79695C31.0656 7.26689 32.064 4.67549 32.064 4.67549C32.064 4.67549 32.2989 4.02764 32.475 3.61537L32.6512 4.61659C32.6512 4.61659 33.2385 7.26689 33.356 7.85584H30.8894V7.79695Z" fill="#3C58BF"/>
<path d="M32.9449 0.729492C32.2401 0.729492 31.7116 0.788387 31.4179 1.49513L26.3086 11.3307H29.4799L30.0672 9.56381H33.8258L34.1782 11.3307H36.9971L34.5305 0.729492H32.9449ZM30.8894 7.79695C31.1243 7.20799 32.064 4.67549 32.064 4.67549C32.064 4.67549 32.2989 4.02764 32.475 3.61537L32.6512 4.61659C32.6512 4.61659 33.2385 7.26689 33.356 7.85584H30.8894V7.79695Z" fill="#293688"/>
<path d="M8.16242 8.15099L7.86878 6.61971C7.34023 4.85285 5.63711 2.9093 3.75781 1.96697L6.40058 11.3902H9.5719L14.3289 0.789062H11.1576L8.16242 8.15099Z" fill="#3C58BF"/>
<path d="M8.16242 8.15099L7.86878 6.61971C7.34023 4.85285 5.63711 2.9093 3.75781 1.96697L6.40058 11.3902H9.5719L14.3289 0.789062H11.7448L8.16242 8.15099Z" fill="#293688"/>
<path d="M0 0.729492L0.528553 0.847284C4.28715 1.73072 6.87119 3.96874 7.86957 6.61904L6.81247 1.61292C6.63628 0.906179 6.10773 0.729492 5.46172 0.729492H0Z" fill="#FFBC00"/>
<path d="M0 0.729492C3.7586 1.61292 6.87119 3.90985 7.86957 6.56014L6.87119 2.37856C6.69501 1.67182 6.10773 1.25955 5.46172 1.25955L0 0.729492Z" fill="#F7981D"/>
<path d="M0 0.729492C3.7586 1.61292 6.87119 3.90985 7.86957 6.56014L7.16483 4.26322C6.98865 3.55647 6.75374 2.84973 5.93154 2.55525L0 0.729492Z" fill="#ED7C00"/>
<path d="M11.0948 7.79677L9.09803 5.79433L8.15838 8.03236L7.92347 6.55997C7.39492 4.79311 5.6918 2.84955 3.8125 1.90723L6.45527 11.3305H9.62659L11.0948 7.79677Z" fill="#051244"/>
<path d="M16.5654 11.3307L14.0401 8.73926L13.5703 11.3307H16.5654Z" fill="#051244"/>
<path d="M23.3125 7.67871C23.5474 7.91429 23.6648 8.09098 23.6061 8.32656C23.6061 9.03331 22.6665 9.38668 21.8443 9.38668C20.6697 9.38668 20.0237 9.20999 19.0253 8.79773L18.6142 8.62104L18.2031 11.0358C18.9079 11.3302 20.1999 11.6247 21.5506 11.6247C23.4299 11.6247 24.9569 11.0946 25.8378 10.1523L23.3125 7.67871Z" fill="#051244"/>
<path d="M26.7188 11.3305H29.479L30.0663 9.56368H33.8249L34.1772 11.3305H36.9962L35.9978 7.03117L32.4741 3.61523L32.6503 4.55756C32.6503 4.55756 33.2376 7.20786 33.355 7.79681H30.8884C31.1234 7.20786 32.063 4.67535 32.063 4.67535C32.063 4.67535 32.2979 4.0275 32.4741 3.61523" fill="#051244"/>
</svg>
